<svg xmlns="http://www.w3.org/2000/svg" xmlns:xlink="http://www.w3.org/1999/xlink" width="190" height="174" viewBox="0 0 190 174">
  <defs>
    <clipPath id="clip-path">
      <rect id="Rectangle_410682" data-name="Rectangle 410682" width="90" height="90" transform="translate(805.781 2555)" fill="#fff" stroke="#707070" stroke-width="1"/>
    </clipPath>
  </defs>
  <g id="Group_1209599" data-name="Group 1209599" transform="translate(-1230.051 -937)">
    <rect id="Rectangle_410680" data-name="Rectangle 410680" width="190" height="174" transform="translate(1230.051 937)" fill="#fed5a7"/>
    <g id="Mask_Group_1099279" data-name="Mask Group 1099279" transform="translate(477.27 -1584)" clip-path="url(#clip-path)">
      <g id="Group_1203638" data-name="Group 1203638" transform="translate(0 572.946)">
        <g id="Rectangle_410681" data-name="Rectangle 410681" transform="translate(806.951 1984)" fill="#e2dbf9" stroke="#b7a8f1" stroke-width="3">
          <rect width="70" height="70" rx="10" stroke="none"/>
          <rect x="1.5" y="1.5" width="67" height="67" rx="8.5" fill="none"/>
        </g>
        <g id="calculation_7650833" transform="translate(816.914 1991.841)">
          <g id="Group_1203634" data-name="Group 1203634" transform="translate(1.05 3.3)">
            <g id="Group_1203594" data-name="Group 1203594" transform="translate(0.899 0.899)">
              <g id="Group_1203552" data-name="Group 1203552" transform="translate(8.306)">
                <path id="Path_1243252" data-name="Path 1243252" d="M56.3,4.05H22.309L8.73,17.629V55.2h5.9A11.085,11.085,0,1,1,23.1,73.431H46.543a4.793,4.793,0,0,1-4.794-4.794V34.887a4.793,4.793,0,0,1,4.794-4.794h12.2V6.495A2.455,2.455,0,0,0,56.3,4.05Z" transform="translate(-8.73 -4.05)" fill="#e2e2e2"/>
              </g>
              <g id="Group_1203553" data-name="Group 1203553" transform="translate(30.082 0)" opacity="0.3">
                <path id="Path_1243253" data-name="Path 1243253" d="M52.728,4.05H26.9V21.86A18.831,18.831,0,0,0,45.728,40.688h9.4V6.447a2.4,2.4,0,0,0-2.4-2.4Z" transform="translate(-26.9 -4.05)" fill="#fff"/>
              </g>
              <g id="Group_1203554" data-name="Group 1203554" transform="translate(35.056 0)" opacity="0.5">
                <path id="Path_1243254" data-name="Path 1243254" d="M51.9,4.05H31.05a3.775,3.775,0,0,0,3.775,3.775H50.981V13.29a3.32,3.32,0,0,0,3.32,3.32V6.447a2.4,2.4,0,0,0-2.4-2.4Z" transform="translate(-31.05 -4.05)" fill="#fff"/>
              </g>
              <g id="Group_1203563" data-name="Group 1203563" transform="translate(0 42.623)">
                <g id="Group_1203555" data-name="Group 1203555" transform="translate(6.991 0)">
                  <circle id="Ellipse_12578" data-name="Ellipse 12578" cx="11.086" cy="11.086" r="11.086" transform="translate(0 15.676) rotate(-45)" fill="#ffab03"/>
                </g>
                <g id="Group_1203556" data-name="Group 1203556" transform="translate(0 20.694)">
                  <path id="Path_1243255" data-name="Path 1243255" d="M14.588,56.88H2.915A1.112,1.112,0,0,0,1.8,57.995v3.847a1.112,1.112,0,0,0,1.115,1.115H21.647a1.188,1.188,0,0,0,.635-.216A11.11,11.11,0,0,1,14.588,56.88Z" transform="translate(-1.8 -56.88)" fill="#ffab03"/>
                </g>
                <g id="Group_1203557" data-name="Group 1203557" transform="translate(0 14.618)">
                  <path id="Path_1243256" data-name="Path 1243256" d="M13.377,52.877a10.41,10.41,0,0,1,.06-1.067H2.915A1.112,1.112,0,0,0,1.8,52.925v3.847a1.112,1.112,0,0,0,1.115,1.115H14.588A11.039,11.039,0,0,1,13.377,52.877Z" transform="translate(-1.8 -51.81)" fill="#ffab03"/>
                </g>
                <g id="Group_1203558" data-name="Group 1203558" transform="translate(4.458 8.529)">
                  <path id="Path_1243257" data-name="Path 1243257" d="M15.264,46.73H6.635A1.112,1.112,0,0,0,5.52,47.845v3.847a1.112,1.112,0,0,0,1.115,1.115H12.7a11.02,11.02,0,0,1,2.565-6.076Z" transform="translate(-5.52 -46.73)" fill="#ffab03"/>
                </g>
                <g id="Group_1203559" data-name="Group 1203559" transform="translate(8.569 8.529)" opacity="0.3">
                  <path id="Path_1243258" data-name="Path 1243258" d="M14.583,46.73H8.95v1.882a1.112,1.112,0,0,0,1.115,1.115h2.709a11.231,11.231,0,0,1,1.81-3Z" transform="translate(-8.95 -46.73)" fill="#fff"/>
                </g>
                <g id="Group_1203560" data-name="Group 1203560" transform="translate(4.111 14.618)" opacity="0.3">
                  <path id="Path_1243259" data-name="Path 1243259" d="M12.7,52.877a10.41,10.41,0,0,1,.06-1.067H5.23v1.882a1.112,1.112,0,0,0,1.115,1.115h6.532A11.44,11.44,0,0,1,12.7,52.877Z" transform="translate(-5.23 -51.81)" fill="#fff"/>
                </g>
                <g id="Group_1203561" data-name="Group 1203561" transform="translate(4.111 20.694)" opacity="0.3">
                  <path id="Path_1243260" data-name="Path 1243260" d="M13.907,56.88H5.23v1.882a1.112,1.112,0,0,0,1.115,1.115h9.78a11.377,11.377,0,0,1-2.217-3Z" transform="translate(-5.23 -56.88)" fill="#fff"/>
                </g>
                <g id="Group_1203562" data-name="Group 1203562" transform="translate(16.983 4.598)" opacity="0.3">
                  <path id="Path_1243261" data-name="Path 1243261" d="M21.663,43.45A11.241,11.241,0,0,0,17,44.481,11.081,11.081,0,0,0,31.718,59.2,11.081,11.081,0,0,0,21.663,43.45Z" transform="translate(-15.97 -43.45)" fill="#fff"/>
                </g>
              </g>
              <g id="Group_1203564" data-name="Group 1203564" transform="translate(41.324 26.043)">
                <path id="Path_1243262" data-name="Path 1243262" d="M64.948,25.78H41.074a4.793,4.793,0,0,0-4.794,4.794V64.336a4.793,4.793,0,0,0,4.794,4.794H64.948a4.793,4.793,0,0,0,4.794-4.794V30.574a4.793,4.793,0,0,0-4.794-4.794Z" transform="translate(-36.28 -25.78)" fill="#4e6575"/>
              </g>
              <g id="Group_1203565" data-name="Group 1203565" transform="translate(53.309 26.043)" opacity="0.3">
                <path id="Path_1243263" data-name="Path 1243263" d="M62.963,25.78H46.28V53.549a4.793,4.793,0,0,0,4.794,4.794H67.757V30.574a4.793,4.793,0,0,0-4.794-4.794Z" transform="translate(-46.28 -25.78)" fill="#e2e2e2"/>
              </g>
              <g id="Group_1203566" data-name="Group 1203566" transform="translate(46.118 30.837)">
                <path id="Path_1243264" data-name="Path 1243264" d="M40.28,29.78H64.166v8.389H40.28Z" transform="translate(-40.28 -29.78)" fill="#7cb5e8"/>
              </g>
              <g id="Group_1203567" data-name="Group 1203567" transform="translate(52.111 30.837)" opacity="0.3">
                <path id="Path_1243265" data-name="Path 1243265" d="M45.28,30.978a3.591,3.591,0,0,0,3.6,3.6H63.162V29.78H45.28Z" transform="translate(-45.28 -29.78)" fill="#fff"/>
              </g>
              <g id="Group_1203568" data-name="Group 1203568" transform="translate(46.118 44.021)">
                <path id="Path_1243266" data-name="Path 1243266" d="M40.28,40.78h5.561v4.458H40.28Z" transform="translate(-40.28 -40.78)" fill="#ef4a51"/>
              </g>
              <g id="Group_1203569" data-name="Group 1203569" transform="translate(55.275 44.021)">
                <path id="Path_1243267" data-name="Path 1243267" d="M47.92,40.78h5.561v4.458H47.92Z" transform="translate(-47.92 -40.78)" fill="#ef4a51"/>
              </g>
              <g id="Group_1203570" data-name="Group 1203570" transform="translate(64.431 44.021)">
                <path id="Path_1243268" data-name="Path 1243268" d="M55.56,40.78h5.561v4.458H55.56Z" transform="translate(-55.56 -40.78)" fill="#ef4a51"/>
              </g>
              <g id="Group_1203571" data-name="Group 1203571" transform="translate(46.118 52.075)">
                <path id="Path_1243269" data-name="Path 1243269" d="M40.28,47.5h5.561v4.458H40.28Z" transform="translate(-40.28 -47.5)" fill="#ef4a51"/>
              </g>
              <g id="Group_1203572" data-name="Group 1203572" transform="translate(55.275 52.075)">
                <path id="Path_1243270" data-name="Path 1243270" d="M47.92,47.5h5.561v4.458H47.92Z" transform="translate(-47.92 -47.5)" fill="#ef4a51"/>
              </g>
              <g id="Group_1203573" data-name="Group 1203573" transform="translate(64.431 52.075)">
                <path id="Path_1243271" data-name="Path 1243271" d="M55.56,47.5h5.561v4.458H55.56Z" transform="translate(-55.56 -47.5)" fill="#ef4a51"/>
              </g>
              <g id="Group_1203574" data-name="Group 1203574" transform="translate(46.118 60.129)">
                <path id="Path_1243272" data-name="Path 1243272" d="M40.28,54.22h5.561v4.458H40.28Z" transform="translate(-40.28 -54.22)" fill="#ef4a51"/>
              </g>
              <g id="Group_1203575" data-name="Group 1203575" transform="translate(55.275 60.129)">
                <path id="Path_1243273" data-name="Path 1243273" d="M47.92,54.22h5.561v4.458H47.92Z" transform="translate(-47.92 -54.22)" fill="#ef4a51"/>
              </g>
              <g id="Group_1203576" data-name="Group 1203576" transform="translate(64.431 60.129)">
                <path id="Path_1243274" data-name="Path 1243274" d="M55.56,54.22h5.561v4.458H55.56Z" transform="translate(-55.56 -54.22)" fill="#ef4a51"/>
              </g>
              <g id="Group_1203577" data-name="Group 1203577" transform="translate(35.955 4.626)">
                <path id="Path_1243275" data-name="Path 1243275" d="M40.189,7.91A8.389,8.389,0,1,0,48.579,16.3H40.189Z" transform="translate(-31.8 -7.91)" fill="#8aba55"/>
              </g>
              <g id="Group_1203578" data-name="Group 1203578" transform="translate(44.344 4.626)">
                <path id="Path_1243276" data-name="Path 1243276" d="M38.8,7.91V16.3h8.389A8.4,8.4,0,0,0,38.8,7.91Z" transform="translate(-38.8 -7.91)" fill="#ffab03"/>
              </g>
              <g id="Group_1203579" data-name="Group 1203579" transform="translate(39.466 4.626)" opacity="0.3">
                <path id="Path_1243277" data-name="Path 1243277" d="M39.608,7.91a8.276,8.276,0,0,0-3.907.971A8.393,8.393,0,0,0,47.027,20.219,8.409,8.409,0,0,0,39.608,7.91Z" transform="translate(-34.73 -7.91)" fill="#fff"/>
              </g>
              <g id="Group_1203580" data-name="Group 1203580" transform="translate(8.306 0)">
                <path id="Path_1243278" data-name="Path 1243278" d="M19.876,17.629A2.435,2.435,0,0,0,22.309,15.2V4.05L8.73,17.629Z" transform="translate(-8.73 -4.05)" fill="#5e7588"/>
              </g>
              <g id="Group_1203581" data-name="Group 1203581" transform="translate(19.847 69.177)">
                <path id="Path_1243279" data-name="Path 1243279" d="M18.36,61.986h2.828A10.979,10.979,0,0,1,19,61.77,1.188,1.188,0,0,1,18.36,61.986Z" transform="translate(-18.36 -61.77)" fill="#e2e2e2"/>
              </g>
              <g id="Group_1203591" data-name="Group 1203591" transform="translate(47.604 44.021)" opacity="0.3">
                <g id="Group_1203582" data-name="Group 1203582" transform="translate(18.313)">
                  <path id="Path_1243280" data-name="Path 1243280" d="M56.8,41a2.4,2.4,0,0,0,2.4,2.4h1.678V40.78H56.8Z" transform="translate(-56.8 -40.78)" fill="#fff"/>
                </g>
                <g id="Group_1203583" data-name="Group 1203583" transform="translate(18.313 8.054)">
                  <path id="Path_1243281" data-name="Path 1243281" d="M56.8,47.716a2.4,2.4,0,0,0,2.4,2.4h1.678V47.5H56.8Z" transform="translate(-56.8 -47.5)" fill="#fff"/>
                </g>
                <g id="Group_1203584" data-name="Group 1203584" transform="translate(18.313 16.12)">
                  <path id="Path_1243282" data-name="Path 1243282" d="M56.8,54.446a2.4,2.4,0,0,0,2.4,2.4h1.678V54.23H56.8Z" transform="translate(-56.8 -54.23)" fill="#fff"/>
                </g>
                <g id="Group_1203585" data-name="Group 1203585" transform="translate(9.157)">
                  <path id="Path_1243283" data-name="Path 1243283" d="M49.16,41a2.4,2.4,0,0,0,2.4,2.4h1.678V40.78H49.16Z" transform="translate(-49.16 -40.78)" fill="#fff"/>
                </g>
                <g id="Group_1203586" data-name="Group 1203586" transform="translate(9.157 8.054)">
                  <path id="Path_1243284" data-name="Path 1243284" d="M49.16,47.716a2.4,2.4,0,0,0,2.4,2.4h1.678V47.5H49.16Z" transform="translate(-49.16 -47.5)" fill="#fff"/>
                </g>
                <g id="Group_1203587" data-name="Group 1203587" transform="translate(9.157 16.12)">
                  <path id="Path_1243285" data-name="Path 1243285" d="M49.16,54.446a2.4,2.4,0,0,0,2.4,2.4h1.678V54.23H49.16Z" transform="translate(-49.16 -54.23)" fill="#fff"/>
                </g>
                <g id="Group_1203588" data-name="Group 1203588">
                  <path id="Path_1243286" data-name="Path 1243286" d="M41.52,41a2.4,2.4,0,0,0,2.4,2.4h1.678V40.78H41.52Z" transform="translate(-41.52 -40.78)" fill="#fff"/>
                </g>
                <g id="Group_1203589" data-name="Group 1203589" transform="translate(0 8.054)">
                  <path id="Path_1243287" data-name="Path 1243287" d="M41.52,47.716a2.4,2.4,0,0,0,2.4,2.4h1.678V47.5H41.52Z" transform="translate(-41.52 -47.5)" fill="#fff"/>
                </g>
                <g id="Group_1203590" data-name="Group 1203590" transform="translate(0 16.12)">
                  <path id="Path_1243288" data-name="Path 1243288" d="M41.52,54.446a2.4,2.4,0,0,0,2.4,2.4h1.678V54.23H41.52Z" transform="translate(-41.52 -54.23)" fill="#fff"/>
                </g>
              </g>
              <g id="Group_1203592" data-name="Group 1203592" transform="translate(14.418 0)" opacity="0.3">
                <path id="Path_1243289" data-name="Path 1243289" d="M20.889,16.538A2.461,2.461,0,0,0,21.3,15.2V4.05L13.83,11.517A9.035,9.035,0,0,0,20.889,16.538Z" transform="translate(-13.83 -4.05)" fill="#e2e2e2"/>
              </g>
              <g id="Group_1203593" data-name="Group 1203593" transform="translate(58.75 26.031)" opacity="0.5">
                <path id="Path_1243290" data-name="Path 1243290" d="M62.062,25.77H50.82a2.6,2.6,0,0,0,2.6,2.6h8.737a2.4,2.4,0,0,1,2.4,2.4v3.763a2.289,2.289,0,0,0,2.289,2.289V30.552a4.772,4.772,0,0,0-4.782-4.782Z" transform="translate(-50.82 -25.77)" fill="#fff"/>
              </g>
            </g>
            <g id="Group_1203633" data-name="Group 1203633">
              <g id="Group_1203595" data-name="Group 1203595" transform="translate(8.306 0)">
                <path id="Path_1243291" data-name="Path 1243291" d="M8.879,53.853a.905.905,0,0,1-.9-.9V17.778a.9.9,0,0,1,.264-.635L21.823,3.564a.9.9,0,0,1,.635-.264H56.447a3.34,3.34,0,0,1,3.332,3.332V23.171a.9.9,0,1,1-1.8,0V6.644A1.537,1.537,0,0,0,56.447,5.11H22.829L9.778,18.149v34.8A.89.89,0,0,1,8.879,53.853Z" transform="translate(-7.98 -3.3)"/>
              </g>
              <g id="Group_1203596" data-name="Group 1203596" transform="translate(58.307 22.22)">
                <path id="Path_1243292" data-name="Path 1243292" d="M50.6,27.461a.905.905,0,0,1-.9-.9V22.739a.9.9,0,1,1,1.8,0v3.823A.9.9,0,0,1,50.6,27.461Z" transform="translate(-49.7 -21.84)"/>
              </g>
              <g id="Group_1203597" data-name="Group 1203597" transform="translate(30.334 69.393)">
                <path id="Path_1243293" data-name="Path 1243293" d="M43.043,63H27.259a.9.9,0,1,1,0-1.8H43.043a.9.9,0,0,1,0,1.8Z" transform="translate(-26.36 -61.2)"/>
              </g>
              <g id="Group_1203598" data-name="Group 1203598" transform="translate(41.324 26.043)">
                <path id="Path_1243294" data-name="Path 1243294" d="M65.1,70.177H41.223a5.7,5.7,0,0,1-5.693-5.693V41.09a.9.9,0,0,1,1.8,0V64.484a3.9,3.9,0,0,0,3.9,3.9H65.1a3.9,3.9,0,0,0,3.9-3.9V30.723a3.9,3.9,0,0,0-3.9-3.9H41.223a3.9,3.9,0,0,0-3.9,3.9v6.616a.9.9,0,0,1-1.8,0V30.723a5.7,5.7,0,0,1,5.693-5.693H65.1a5.7,5.7,0,0,1,5.693,5.693V64.484A5.7,5.7,0,0,1,65.1,70.177Z" transform="translate(-35.53 -25.03)"/>
              </g>
              <g id="Group_1203599" data-name="Group 1203599" transform="translate(8.306)">
                <path id="Path_1243295" data-name="Path 1243295" d="M20.025,18.677H8.879a.9.9,0,0,1,0-1.8H20.025a1.537,1.537,0,0,0,1.534-1.534V4.2a.9.9,0,0,1,1.8,0V15.345A3.332,3.332,0,0,1,20.025,18.677Z" transform="translate(-7.98 -3.3)"/>
              </g>
              <g id="Group_1203600" data-name="Group 1203600" transform="translate(46.118 30.837)">
                <path id="Path_1243296" data-name="Path 1243296" d="M64.3,39.217H40.429a.905.905,0,0,1-.9-.9V29.929a.905.905,0,0,1,.9-.9H64.3a.905.905,0,0,1,.9.9v8.389a.9.9,0,0,1-.9.9Zm-22.975-1.8H63.4V30.828H41.328Z" transform="translate(-39.53 -29.03)"/>
              </g>
              <g id="Group_1203601" data-name="Group 1203601" transform="translate(46.118 44.021)">
                <path id="Path_1243297" data-name="Path 1243297" d="M45.99,46.286H40.429a.905.905,0,0,1-.9-.9V40.929a.905.905,0,0,1,.9-.9H45.99a.905.905,0,0,1,.9.9v4.458A.905.905,0,0,1,45.99,46.286Zm-4.662-1.8h3.763V41.828H41.328Z" transform="translate(-39.53 -40.03)"/>
              </g>
              <g id="Group_1203602" data-name="Group 1203602" transform="translate(55.275 44.021)">
                <path id="Path_1243298" data-name="Path 1243298" d="M53.63,46.286H48.069a.905.905,0,0,1-.9-.9V40.929a.905.905,0,0,1,.9-.9H53.63a.905.905,0,0,1,.9.9v4.458A.9.9,0,0,1,53.63,46.286Zm-4.662-1.8h3.763V41.828H48.968Z" transform="translate(-47.17 -40.03)"/>
              </g>
              <g id="Group_1203603" data-name="Group 1203603" transform="translate(64.431 44.021)">
                <path id="Path_1243299" data-name="Path 1243299" d="M61.27,46.286H55.709a.905.905,0,0,1-.9-.9V40.929a.905.905,0,0,1,.9-.9H61.27a.905.905,0,0,1,.9.9v4.458A.9.9,0,0,1,61.27,46.286Zm-4.662-1.8h3.763V41.828H56.608Z" transform="translate(-54.81 -40.03)"/>
              </g>
              <g id="Group_1203604" data-name="Group 1203604" transform="translate(46.118 52.075)">
                <path id="Path_1243300" data-name="Path 1243300" d="M45.99,53.006H40.429a.905.905,0,0,1-.9-.9V47.649a.905.905,0,0,1,.9-.9H45.99a.905.905,0,0,1,.9.9v4.458A.9.9,0,0,1,45.99,53.006Zm-4.662-1.8h3.763V48.548H41.328Z" transform="translate(-39.53 -46.75)"/>
              </g>
              <g id="Group_1203605" data-name="Group 1203605" transform="translate(55.275 52.075)">
                <path id="Path_1243301" data-name="Path 1243301" d="M53.63,53.006H48.069a.905.905,0,0,1-.9-.9V47.649a.905.905,0,0,1,.9-.9H53.63a.905.905,0,0,1,.9.9v4.458A.89.89,0,0,1,53.63,53.006Zm-4.662-1.8h3.763V48.548H48.968Z" transform="translate(-47.17 -46.75)"/>
              </g>
              <g id="Group_1203606" data-name="Group 1203606" transform="translate(64.431 52.075)">
                <path id="Path_1243302" data-name="Path 1243302" d="M61.27,53.006H55.709a.905.905,0,0,1-.9-.9V47.649a.905.905,0,0,1,.9-.9H61.27a.905.905,0,0,1,.9.9v4.458A.89.89,0,0,1,61.27,53.006Zm-4.662-1.8h3.763V48.548H56.608Z" transform="translate(-54.81 -46.75)"/>
              </g>
              <g id="Group_1203607" data-name="Group 1203607" transform="translate(46.118 60.141)">
                <path id="Path_1243303" data-name="Path 1243303" d="M45.99,59.736H40.429a.905.905,0,0,1-.9-.9V54.379a.905.905,0,0,1,.9-.9H45.99a.905.905,0,0,1,.9.9v4.458A.905.905,0,0,1,45.99,59.736Zm-4.662-1.8h3.763V55.278H41.328Z" transform="translate(-39.53 -53.48)"/>
              </g>
              <g id="Group_1203608" data-name="Group 1203608" transform="translate(55.275 60.141)">
                <path id="Path_1243304" data-name="Path 1243304" d="M53.63,59.736H48.069a.905.905,0,0,1-.9-.9V54.379a.905.905,0,0,1,.9-.9H53.63a.905.905,0,0,1,.9.9v4.458A.9.9,0,0,1,53.63,59.736Zm-4.662-1.8h3.763V55.278H48.968Z" transform="translate(-47.17 -53.48)"/>
              </g>
              <g id="Group_1203609" data-name="Group 1203609" transform="translate(64.431 60.141)">
                <path id="Path_1243305" data-name="Path 1243305" d="M61.27,59.736H55.709a.905.905,0,0,1-.9-.9V54.379a.905.905,0,0,1,.9-.9H61.27a.905.905,0,0,1,.9.9v4.458A.9.9,0,0,1,61.27,59.736Zm-4.662-1.8h3.763V55.278H56.608Z" transform="translate(-54.81 -53.48)"/>
              </g>
              <g id="Group_1203610" data-name="Group 1203610" transform="translate(11.589 47.221)">
                <path id="Path_1243306" data-name="Path 1243306" d="M22.7,66.67A11.985,11.985,0,1,1,34.69,54.685,12,12,0,0,1,22.7,66.67Zm0-22.172A10.187,10.187,0,1,0,32.892,54.685,10.194,10.194,0,0,0,22.7,44.5Z" transform="translate(-10.72 -42.7)"/>
              </g>
              <g id="Group_1203611" data-name="Group 1203611" transform="translate(4.446 51.164)">
                <path id="Path_1243307" data-name="Path 1243307" d="M6.773,53.864A2.01,2.01,0,0,1,4.76,51.851V48A2.01,2.01,0,0,1,6.773,45.99H15.4a.9.9,0,1,1,0,1.8H6.773A.215.215,0,0,0,6.558,48v3.847a.215.215,0,0,0,.216.216.9.9,0,1,1,0,1.8Z" transform="translate(-4.76 -45.99)"/>
              </g>
              <g id="Group_1203612" data-name="Group 1203612" transform="translate(0 57.24)">
                <path id="Path_1243308" data-name="Path 1243308" d="M3.063,58.934A2.01,2.01,0,0,1,1.05,56.921V53.073A2.01,2.01,0,0,1,3.063,51.06H13.586a.9.9,0,1,1,0,1.8H3.063a.215.215,0,0,0-.216.216v3.847a.215.215,0,0,0,.216.216.9.9,0,1,1,0,1.8Z" transform="translate(-1.05 -51.06)"/>
              </g>
              <g id="Group_1203613" data-name="Group 1203613" transform="translate(0 63.317)">
                <path id="Path_1243309" data-name="Path 1243309" d="M21.784,64H3.063A2.01,2.01,0,0,1,1.05,61.991V58.143A2.01,2.01,0,0,1,3.063,56.13H14.737a.9.9,0,1,1,0,1.8H3.063a.215.215,0,0,0-.216.216v3.847a.215.215,0,0,0,.216.216H21.8a.9.9,0,1,1-.012,1.8Z" transform="translate(-1.05 -56.13)"/>
              </g>
              <g id="Group_1203614" data-name="Group 1203614" transform="translate(14.825 50.457)">
                <path id="Path_1243310" data-name="Path 1243310" d="M22.169,62.9a8.74,8.74,0,1,1,5.813-2.205.906.906,0,0,1-1.27-.072.9.9,0,0,1,.072-1.27,6.944,6.944,0,1,0-4.614,1.762,6.794,6.794,0,0,0,2.445-.443.9.9,0,0,1,.635,1.69,9.307,9.307,0,0,1-3.08.539Z" transform="translate(-13.42 -45.4)"/>
              </g>
              <g id="Group_1203615" data-name="Group 1203615" transform="translate(20.71 54.376)">
                <path id="Path_1243311" data-name="Path 1243311" d="M21.194,58.33a2.864,2.864,0,0,1-2.864-2.864.9.9,0,0,1,1.8,0A1.067,1.067,0,1,0,21.194,54.4a2.864,2.864,0,1,1,2.864-2.864.9.9,0,0,1-1.8,0A1.067,1.067,0,1,0,21.194,52.6a2.864,2.864,0,1,1,0,5.729Z" transform="translate(-18.33 -48.67)"/>
              </g>
              <g id="Group_1203616" data-name="Group 1203616" transform="translate(22.676 53.021)">
                <path id="Path_1243312" data-name="Path 1243312" d="M20.869,50.692a.905.905,0,0,1-.9-.9V48.439a.9.9,0,0,1,1.8,0v1.354A.905.905,0,0,1,20.869,50.692Z" transform="translate(-19.97 -47.54)"/>
              </g>
              <g id="Group_1203617" data-name="Group 1203617" transform="translate(22.676 62.238)">
                <path id="Path_1243313" data-name="Path 1243313" d="M20.869,58.382a.905.905,0,0,1-.9-.9V56.129a.9.9,0,0,1,1.8,0v1.354A.905.905,0,0,1,20.869,58.382Z" transform="translate(-19.97 -55.23)"/>
              </g>
              <g id="Group_1203618" data-name="Group 1203618" transform="translate(35.955 4.626)">
                <path id="Path_1243314" data-name="Path 1243314" d="M40.338,25.737a9.288,9.288,0,0,1,0-18.577.905.905,0,0,1,.9.9v7.491h7.491a.905.905,0,0,1,.9.9A9.3,9.3,0,0,1,40.338,25.737Zm-.9-16.719a7.494,7.494,0,1,0,8.342,8.342H40.338a.905.905,0,0,1-.9-.9Z" transform="translate(-31.05 -7.16)"/>
              </g>
              <g id="Group_1203619" data-name="Group 1203619" transform="translate(44.344 4.626)">
                <path id="Path_1243315" data-name="Path 1243315" d="M47.338,17.347H38.949a.905.905,0,0,1-.9-.9V8.059a.905.905,0,0,1,.9-.9,9.3,9.3,0,0,1,9.288,9.288A.9.9,0,0,1,47.338,17.347Zm-7.491-1.8H46.38a7.52,7.52,0,0,0-6.544-6.544v6.544Z" transform="translate(-38.05 -7.16)"/>
              </g>
              <g id="Group_1203623" data-name="Group 1203623" transform="translate(12.44 20.051)">
                <g id="Group_1203622" data-name="Group 1203622" transform="translate(0 0)">
                  <g id="Group_1203620" data-name="Group 1203620">
                    <path id="Path_1243316" data-name="Path 1243316" d="M21.809,21.828h-9.48a.9.9,0,1,1,0-1.8h9.48a.9.9,0,1,1,0,1.8Z" transform="translate(-11.43 -20.03)"/>
                  </g>
                  <g id="Group_1203621" data-name="Group 1203621" transform="translate(13.819)">
                    <path id="Path_1243317" data-name="Path 1243317" d="M26.112,21.828H23.859a.9.9,0,1,1,0-1.8h2.253a.9.9,0,0,1,0,1.8Z" transform="translate(-22.96 -20.03)"/>
                  </g>
                </g>
              </g>
              <g id="Group_1203627" data-name="Group 1203627" transform="translate(12.44 24.126)">
                <g id="Group_1203626" data-name="Group 1203626">
                  <g id="Group_1203624" data-name="Group 1203624">
                    <path id="Path_1243318" data-name="Path 1243318" d="M21.809,25.228h-9.48a.9.9,0,0,1,0-1.8h9.48a.9.9,0,0,1,0,1.8Z" transform="translate(-11.43 -23.43)"/>
                  </g>
                  <g id="Group_1203625" data-name="Group 1203625" transform="translate(13.819)">
                    <path id="Path_1243319" data-name="Path 1243319" d="M26.112,25.228H23.859a.9.9,0,0,1,0-1.8h2.253a.9.9,0,0,1,0,1.8Z" transform="translate(-22.96 -23.43)"/>
                  </g>
                </g>
              </g>
              <g id="Group_1203631" data-name="Group 1203631" transform="translate(12.44 28.213)">
                <g id="Group_1203630" data-name="Group 1203630">
                  <g id="Group_1203628" data-name="Group 1203628">
                    <path id="Path_1243320" data-name="Path 1243320" d="M21.809,28.638h-9.48a.9.9,0,0,1,0-1.8h9.48a.9.9,0,1,1,0,1.8Z" transform="translate(-11.43 -26.84)"/>
                  </g>
                  <g id="Group_1203629" data-name="Group 1203629" transform="translate(13.819)">
                    <path id="Path_1243321" data-name="Path 1243321" d="M26.112,28.638H23.859a.9.9,0,1,1,0-1.8h2.253a.9.9,0,0,1,0,1.8Z" transform="translate(-22.96 -26.84)"/>
                  </g>
                </g>
              </g>
              <g id="Group_1203632" data-name="Group 1203632" transform="translate(19.847 69.171)">
                <path id="Path_1243322" data-name="Path 1243322" d="M21.337,63.034H18.509a.9.9,0,1,1,0-1.8.234.234,0,0,0,.108-.06.9.9,0,0,1,.7-.144,10.367,10.367,0,0,0,2.025.2.9.9,0,0,1,0,1.8Z" transform="translate(-17.61 -61.015)"/>
              </g>
            </g>
          </g>
          <g id="Group_1203637" data-name="Group 1203637" transform="translate(13.505 36.678)">
            <g id="Group_1203635" data-name="Group 1203635" transform="translate(0 0.47)">
              <path id="Path_1243323" data-name="Path 1243323" d="M12.338,45.25a.889.889,0,0,1-.635-.264.9.9,0,0,1,0-1.27l6.843-6.843a.9.9,0,0,1,1.27,0l3.068,3.068L31.023,31.8a.9.9,0,1,1,1.27,1.27L23.52,41.847a.927.927,0,0,1-1.27,0l-3.068-3.068-6.208,6.208A.942.942,0,0,1,12.338,45.25Z" transform="translate(-11.442 -31.542)"/>
            </g>
            <g id="Group_1203636" data-name="Group 1203636" transform="translate(15.542)">
              <path id="Path_1243324" data-name="Path 1243324" d="M29.276,36.915a.905.905,0,0,1-.9-.9V32.948H25.309a.9.9,0,0,1,0-1.8h3.967a.905.905,0,0,1,.9.9v3.967A.9.9,0,0,1,29.276,36.915Z" transform="translate(-24.41 -31.15)"/>
            </g>
          </g>
        </g>
      </g>
    </g>
  </g>
</svg>
