<svg xmlns="http://www.w3.org/2000/svg" width="190" height="174" viewBox="0 0 190 174">
  <g id="Group_1208632" data-name="Group 1208632" transform="translate(-180.051 -1131)">
    <rect id="Rectangle_410684" data-name="Rectangle 410684" width="190" height="174" transform="translate(180.051 1131)" fill="#b7a8f1"/>
    <g id="Group_1208629" data-name="Group 1208629" transform="translate(235.051 1178)">
      <path id="Path_1246726" data-name="Path 1246726" d="M132.794,7.5H70.739a1.114,1.114,0,0,0-1.114,1.114V21.663h64.283V8.614A1.114,1.114,0,0,0,132.794,7.5Z" transform="translate(-59.735 -7.5)" fill="#b9def9"/>
      <path id="Path_1246727" data-name="Path 1246727" d="M418.545,268.783a4.943,4.943,0,0,1-2.481-4.289l-4.981-39.559h9.369a1.114,1.114,0,0,1,1.114,1.114l2.14,38.445C423.7,267.225,419.27,269.2,418.545,268.783Z" transform="translate(-346.835 -190.321)" fill="#ffc344"/>
      <path id="Path_1246728" data-name="Path 1246728" d="M464.254,224.936h-4.927a1.114,1.114,0,0,1,1.114,1.114v38.445a4.943,4.943,0,0,1-2.482,4.289,4.922,4.922,0,0,0,2.463.656h0a4.945,4.945,0,0,0,4.945-4.945V226.05A1.114,1.114,0,0,0,464.254,224.936Z" transform="translate(-386.25 -190.322)" fill="#feb137"/>
      <g id="Group_1208628" data-name="Group 1208628" transform="translate(4.945 4.945)">
        <path id="Path_1246729" data-name="Path 1246729" d="M103.333,107.8H38.562V39.676a1.114,1.114,0,0,1,1.114-1.114h60.7l5.029,7.417V105.73A2.069,2.069,0,0,1,103.333,107.8Z" transform="translate(-38.562 -38.562)" fill="#f0fcff"/>
        <path id="Path_1246730" data-name="Path 1246730" d="M430.86,64.978l1.053,3.212v59.751a1.994,1.994,0,0,1-1.978,2.07h4.855a2.069,2.069,0,0,0,2.07-2.07V68.19Z" transform="translate(-367.63 -60.773)" fill="#d7ecfe"/>
        <path id="Path_1246731" data-name="Path 1246731" d="M426.84,38.562v6.3a1.114,1.114,0,0,0,1.114,1.114h6.3Z" transform="translate(-365.029 -38.562)" fill="#9dcffd"/>
      </g>
      <path id="Path_1246732" data-name="Path 1246732" d="M73.868,238.378h0V194.988a1.114,1.114,0,0,0-1.114-1.114H54.476l-4.945,7.417H8.614A1.114,1.114,0,0,0,7.5,202.406v35.982a4.935,4.935,0,0,0,4.935,4.935H78.813A4.945,4.945,0,0,1,73.868,238.378Z" transform="translate(-7.5 -164.204)" fill="#ffe177"/>
      <path id="Path_1246733" data-name="Path 1246733" d="M411.262,238.378h0V194.988a1.114,1.114,0,0,0-1.114-1.114h-4.776a1.114,1.114,0,0,1,1.114,1.114v43.389h0a4.945,4.945,0,0,0,4.945,4.945h4.776A4.945,4.945,0,0,1,411.262,238.378Z" transform="translate(-342.034 -164.204)" fill="#f9d45d"/>
      <path id="Path_1246734" data-name="Path 1246734" d="M69.222,405.668H55.207a1.114,1.114,0,0,1-1.114-1.114v-7.661a1.114,1.114,0,0,1,1.114-1.114H69.221a1.114,1.114,0,0,1,1.114,1.114v7.661A1.114,1.114,0,0,1,69.222,405.668Z" transform="translate(-46.676 -333.967)" fill="#ffc344"/>
      <path id="Path_1246735" data-name="Path 1246735" d="M146.118,395.778h-4.776a1.114,1.114,0,0,1,1.114,1.114v7.661a1.114,1.114,0,0,1-1.114,1.114h4.776a1.114,1.114,0,0,0,1.114-1.114v-7.661A1.114,1.114,0,0,0,146.118,395.778Z" transform="translate(-120.035 -333.967)" fill="#feb137"/>
    </g>
    <g id="Group_1208631" data-name="Group 1208631" transform="translate(234.051 1177)">
      <path id="Trazado_1246736" data-name="Trazado 1246736" d="M127.6,14.75a1.194,1.194,0,0,1-1.194-1.194V2.308l-61.975.08.08,3.751a1.194,1.194,0,0,1-2.388,0V2.308A2.311,2.311,0,0,1,64.433,0h62.055A2.311,2.311,0,0,1,128.8,2.308V13.556A1.194,1.194,0,0,1,127.6,14.75Z" transform="translate(-52.235 0)"/>
      <path id="Trazado_1246737" data-name="Trazado 1246737" d="M441.011,264.328a6.146,6.146,0,0,1-6.139-6.139,1.194,1.194,0,1,1,2.388,0,3.751,3.751,0,1,0,7.5,0V219.744l-3.751.08a1.194,1.194,0,0,1,0-2.388h3.83a2.311,2.311,0,0,1,2.308,2.308v38.445A6.146,6.146,0,0,1,441.011,264.328Z" transform="translate(-365.644 -182.822)"/>
      <g id="Group_1208630" data-name="Group 1208630" transform="translate(4.945 4.945)">
        <path id="Trazado_1246738" data-name="Trazado 1246738" d="M99.415,102.688H96.54a1.194,1.194,0,1,1,0-2.388h2.875a.877.877,0,0,0,.876-.876V40.168L93.572,33.45H33.37l.08,14.409a1.194,1.194,0,1,1-2.388,0V33.37a2.311,2.311,0,0,1,2.308-2.308h60.7a1.194,1.194,0,0,1,.844.35l7.417,7.417a1.194,1.194,0,0,1,.35.844V99.424A3.267,3.267,0,0,1,99.415,102.688Z" transform="translate(-31.062 -31.062)"/>
        <path id="Línea_708" data-name="Línea 708" d="M-6.306,6.172A1.194,1.194,0,0,1-7.5,4.978V-6.306A1.194,1.194,0,0,1-6.306-7.5,1.194,1.194,0,0,1-5.112-6.306V4.978A1.194,1.194,0,0,1-6.306,6.172Z" transform="translate(7.5 28.307)"/>
        <path id="Trazado_1246739" data-name="Trazado 1246739" d="M427.951,40.867h-6.3a2.311,2.311,0,0,1-2.308-2.308v-6.3a1.194,1.194,0,1,1,2.388,0v6.3l6.223-.08a1.194,1.194,0,0,1,0,2.388Z" transform="translate(-357.529 -31.062)"/>
      </g>
      <path id="Trazado_1246740" data-name="Trazado 1246740" d="M75.367,238.211H6.129A6.136,6.136,0,0,1,0,232.082V196.1a2.311,2.311,0,0,1,2.308-2.308H42.587l4.59-6.886a1.194,1.194,0,0,1,.993-.532H69.308a2.311,2.311,0,0,1,2.308,2.308v10.665a1.194,1.194,0,1,1-2.388,0V188.682l-20.417.077-4.592,6.888a1.194,1.194,0,0,1-.993.532H2.308l.08,35.9a3.745,3.745,0,0,0,3.741,3.741H70.511a6.107,6.107,0,0,1-1.282-3.751V204.55h2.388v27.521a3.755,3.755,0,0,0,3.751,3.751,1.194,1.194,0,1,1,0,2.388Z" transform="translate(0 -156.705)"/>
      <path id="Línea_709" data-name="Línea 709" d="M35.725-5.112H-6.306A1.194,1.194,0,0,1-7.5-6.306,1.194,1.194,0,0,1-6.306-7.5H35.725a1.194,1.194,0,0,1,1.194,1.194A1.194,1.194,0,0,1,35.725-5.112Z" transform="translate(19.862 22.335)"/>
      <path id="Línea_710" data-name="Línea 710" d="M20.891-5.112h-27.2A1.194,1.194,0,0,1-7.5-6.306,1.194,1.194,0,0,1-6.306-7.5h27.2a1.194,1.194,0,0,1,1.194,1.194A1.194,1.194,0,0,1,20.891-5.112Z" transform="translate(19.862 30.65)"/>
      <path id="Línea_711" data-name="Línea 711" d="M20.891-5.112h-27.2A1.194,1.194,0,0,1-7.5-6.306,1.194,1.194,0,0,1-6.306-7.5h27.2a1.194,1.194,0,0,1,1.194,1.194A1.194,1.194,0,0,1,20.891-5.112Z" transform="translate(19.862 35.595)"/>
      <path id="Trazado_1246741" data-name="Trazado 1246741" d="M66.452,400.556H62.223a1.194,1.194,0,1,1,0-2.388h4.229l-.08-7.581-17.471.08.08,7.581,8.039-.08a1.194,1.194,0,1,1,0,2.388H48.9a2.311,2.311,0,0,1-2.308-2.308v-7.661a2.311,2.311,0,0,1,2.308-2.308H66.452a2.311,2.311,0,0,1,2.308,2.308v7.661A2.311,2.311,0,0,1,66.452,400.556Z" transform="translate(-39.176 -326.467)"/>
    </g>
  </g>
</svg>
