<svg xmlns="http://www.w3.org/2000/svg" width="83" height="83" viewBox="0 0 83 83">
  <g id="Group_1208753" data-name="Group 1208753" transform="translate(-759.051 -5969)">
    <g id="Group_1208731" data-name="Group 1208731" transform="translate(332 -2566)">
      <g id="Group_1208693" data-name="Group 1208693" transform="translate(89 5452)">
        <circle id="Ellipse_12656" data-name="Ellipse 12656" cx="41.5" cy="41.5" r="41.5" transform="translate(338.051 3083)" fill="#b7a8f1"/>
      </g>
    </g>
    <g id="analitica" transform="translate(806.752 6015.021)">
      <g id="Group_1208752" data-name="Group 1208752" transform="translate(-35.334 -35.298)">
        <g id="Group_1208747" data-name="Group 1208747" transform="translate(0)">
          <circle id="Ellipse_12669" data-name="Ellipse 12669" cx="11.005" cy="11.005" r="11.005" transform="translate(0 15.562) rotate(-45)" fill="#60b7ff"/>
          <circle id="Ellipse_12670" data-name="Ellipse 12670" cx="9.638" cy="9.638" r="9.638" transform="translate(1.934 15.562) rotate(-45)" fill="#8ac9fe"/>
          <path id="Path_1246968" data-name="Path 1246968" d="M112.608,112.62h11.005a11,11,0,0,1-5.5,9.532Z" transform="translate(-97.044 -97.058)" fill="#fd4755" fill-rule="evenodd"/>
          <path id="Path_1246969" data-name="Path 1246969" d="M112.608,112.62h9.638a9.634,9.634,0,0,1-4.818,8.348Z" transform="translate(-97.044 -97.058)" fill="#fe646f" fill-rule="evenodd"/>
          <path id="Path_1246970" data-name="Path 1246970" d="M123.613,19.015H112.608V8.01A11.005,11.005,0,0,1,123.613,19.015Z" transform="translate(-97.044 -3.454)" fill="#ffd064" fill-rule="evenodd"/>
          <path id="Path_1246971" data-name="Path 1246971" d="M122.246,30.646h-9.638V21.008A9.638,9.638,0,0,1,122.246,30.646Z" transform="translate(-97.044 -15.084)" fill="#ffe177" fill-rule="evenodd"/>
        </g>
        <g id="Group_1208748" data-name="Group 1208748" transform="translate(31.781 4.265)">
          <path id="Path_1246972" data-name="Path 1246972" d="M267.943,5.247h2.838a1.187,1.187,0,0,1,1.184,1.184V9.27a1.187,1.187,0,0,1-1.184,1.184h-2.838a1.187,1.187,0,0,1-1.184-1.184V6.431A1.186,1.186,0,0,1,267.943,5.247Z" transform="translate(-266.759 -5.247)" fill="#8ac9fe" fill-rule="evenodd"/>
          <path id="Path_1246973" data-name="Path 1246973" d="M267.943,87.873h2.838a1.187,1.187,0,0,1,1.184,1.184V91.9a1.187,1.187,0,0,1-1.184,1.184h-2.838a1.187,1.187,0,0,1-1.184-1.184V89.057A1.186,1.186,0,0,1,267.943,87.873Z" transform="translate(-266.759 -79.18)" fill="#ffe177" fill-rule="evenodd"/>
          <path id="Path_1246974" data-name="Path 1246974" d="M267.943,170.5h2.838a1.187,1.187,0,0,1,1.184,1.184v2.838a1.187,1.187,0,0,1-1.184,1.184h-2.838a1.187,1.187,0,0,1-1.184-1.184v-2.838A1.186,1.186,0,0,1,267.943,170.5Z" transform="translate(-266.759 -153.113)" fill="#fe646f" fill-rule="evenodd"/>
        </g>
        <g id="Group_1208749" data-name="Group 1208749" transform="translate(4.559 32.609)">
          <path id="Path_1246975" data-name="Path 1246975" d="M198.064,348.361h3.495a1.054,1.054,0,0,1,1.052,1.052v14.271a1.054,1.054,0,0,1-1.052,1.052h-3.495a1.054,1.054,0,0,1-1.052-1.052V349.413A1.054,1.054,0,0,1,198.064,348.361Z" transform="translate(-177.127 -340.607)" fill="#ffe177" fill-rule="evenodd"/>
          <path id="Path_1246976" data-name="Path 1246976" d="M201.559,348.361a1.054,1.054,0,0,1,1.052,1.052v14.271a1.054,1.054,0,0,1-1.052,1.052h-3.495a1.054,1.054,0,0,1-1.052-1.052h3.495a1.054,1.054,0,0,0,1.052-1.052Z" transform="translate(-177.127 -340.607)" fill="#ffd064" fill-rule="evenodd"/>
          <path id="Path_1246977" data-name="Path 1246977" d="M294.649,348.361h3.495a1.054,1.054,0,0,1,1.052,1.052v14.271a1.054,1.054,0,0,1-1.052,1.052h-3.495a1.054,1.054,0,0,1-1.052-1.052V349.413A1.054,1.054,0,0,1,294.649,348.361Z" transform="translate(-263.551 -340.607)" fill="#fe646f" fill-rule="evenodd"/>
          <path id="Path_1246978" data-name="Path 1246978" d="M298.144,348.361a1.054,1.054,0,0,1,1.052,1.052v14.271a1.054,1.054,0,0,1-1.052,1.052h-3.495a1.054,1.054,0,0,1-1.052-1.052h3.495a1.054,1.054,0,0,0,1.052-1.052Z" transform="translate(-263.551 -340.607)" fill="#fd4755" fill-rule="evenodd"/>
          <path id="Path_1246979" data-name="Path 1246979" d="M9.052,321.361h3.495a1.054,1.054,0,0,1,1.052,1.052v17.112a1.054,1.054,0,0,1-1.052,1.052H9.052A1.054,1.054,0,0,1,8,339.525V322.413A1.054,1.054,0,0,1,9.052,321.361Z" transform="translate(-8 -316.448)" fill="#6cf5c2" fill-rule="evenodd"/>
          <path id="Path_1246980" data-name="Path 1246980" d="M12.547,321.361a1.054,1.054,0,0,1,1.052,1.052v17.112a1.054,1.054,0,0,1-1.052,1.052H9.052A1.054,1.054,0,0,1,8,339.525h3.495a1.054,1.054,0,0,0,1.052-1.052Z" transform="translate(-8 -316.448)" fill="#00e499" fill-rule="evenodd"/>
          <path id="Path_1246981" data-name="Path 1246981" d="M101.478,274.658h3.495a1.054,1.054,0,0,1,1.052,1.052v22.025a1.054,1.054,0,0,1-1.052,1.052h-3.495a1.054,1.054,0,0,1-1.052-1.052V275.71A1.054,1.054,0,0,1,101.478,274.658Z" transform="translate(-90.702 -274.658)" fill="#8ac9fe" fill-rule="evenodd"/>
          <path id="Path_1246982" data-name="Path 1246982" d="M104.973,274.658a1.054,1.054,0,0,1,1.052,1.052v22.025a1.054,1.054,0,0,1-1.052,1.052h-3.495a1.054,1.054,0,0,1-1.052-1.052h3.495a1.054,1.054,0,0,0,1.052-1.052Z" transform="translate(-90.702 -274.658)" fill="#60b7ff" fill-rule="evenodd"/>
        </g>
        <g id="Group_1208750" data-name="Group 1208750" transform="translate(21.37 20.269)">
          <path id="Path_1246983" data-name="Path 1246983" d="M375.06,354.862a10.9,10.9,0,0,1-1.839,2.025l5,4.9,1.9-1.962Z" transform="translate(-351.61 -334.084)" fill="#a79ba7" fill-rule="evenodd"/>
          <path id="Path_1246984" data-name="Path 1246984" d="M386.393,354.541a1.256,1.256,0,0,1-.544.73l4.968,4.935.608-.667Z" transform="translate(-362.909 -333.797)" fill="#837683" fill-rule="evenodd"/>
          <path id="Path_1246985" data-name="Path 1246985" d="M415.948,399.028l2.148-2.214a.988.988,0,0,0-.021-1.393l-5.951-5.775a.988.988,0,0,0-1.393.021l-2.149,2.214a.988.988,0,0,0,.021,1.393l5.951,5.774A.988.988,0,0,0,415.948,399.028Z" transform="translate(-383.004 -364.961)" fill="#f1ba84" fill-rule="evenodd"/>
          <path id="Path_1246986" data-name="Path 1246986" d="M434.143,389.645l5.951,5.774a.988.988,0,0,1,.021,1.393l-2.149,2.214a.978.978,0,0,1-.267.2.989.989,0,0,0,1.147-.2L441,396.813a.988.988,0,0,0-.021-1.393l-5.951-5.775a.989.989,0,0,0-1.126-.174A.981.981,0,0,1,434.143,389.645Z" transform="translate(-405.903 -364.96)" fill="#e3a76f" fill-rule="evenodd"/>
          <circle id="Ellipse_12671" data-name="Ellipse 12671" cx="10.836" cy="10.836" r="10.836" transform="translate(0 15.323) rotate(-45)" fill="#eceff1"/>
          <path id="Path_1246987" data-name="Path 1246987" d="M309.04,200a10.836,10.836,0,1,1,0,21.673q-.265,0-.526-.013a10.836,10.836,0,0,0,0-21.647Q308.775,200,309.04,200Z" transform="translate(-293.71 -195.518)" fill="#d1d1d6" fill-rule="evenodd"/>
        </g>
        <g id="Group_1208751" data-name="Group 1208751" transform="translate(28.81 27.7)">
          <circle id="Ellipse_12672" data-name="Ellipse 12672" cx="7.89" cy="7.89" r="7.89" transform="translate(0 0)" fill="#837683"/>
          <path id="Path_1246988" data-name="Path 1246988" d="M314.034,235.9a7.891,7.891,0,0,1-7.189,7.859q.347.031.7.031a7.964,7.964,0,0,0,1.129-.08l.142-.022a7.891,7.891,0,0,0-1.272-15.679q-.355,0-.7.031A7.891,7.891,0,0,1,314.034,235.9Z" transform="translate(-299.656 -228.005)" fill="#685e68" fill-rule="evenodd"/>
          <path id="Path_1246989" data-name="Path 1246989" d="M266.915,310.239a5.512,5.512,0,0,0-5.479,4.917,7.864,7.864,0,0,0,5.479,2.212,7.963,7.963,0,0,0,1.129-.08,7.866,7.866,0,0,0,4.349-2.132A5.511,5.511,0,0,0,266.915,310.239Z" transform="translate(-259.024 -301.588)" fill="#8ac9fe" fill-rule="evenodd"/>
          <path id="Path_1246990" data-name="Path 1246990" d="M306.847,310.283c3.28.417,4.6,2.9,4.905,5.873a7.917,7.917,0,0,0,1.274-1,5.511,5.511,0,0,0-5.478-4.917,5.575,5.575,0,0,0-.7.044Z" transform="translate(-299.658 -301.588)" fill="#60b7ff" fill-rule="evenodd"/>
          <circle id="Ellipse_12673" data-name="Ellipse 12673" cx="2.786" cy="2.786" r="2.786" transform="translate(5.104 2.663)" fill="#f6dccd"/>
          <path id="Path_1246991" data-name="Path 1246991" d="M312.616,256.1a2.786,2.786,0,0,1-2.435,2.764,2.786,2.786,0,1,0,0-5.528A2.786,2.786,0,0,1,312.616,256.1Z" transform="translate(-302.641 -250.655)" fill="#f1cbbc" fill-rule="evenodd"/>
        </g>
      </g>
      <path id="Path_1246992" data-name="Path 1246992" d="M25.931,31.886a7.006,7.006,0,0,0,1.164,3.872,6.334,6.334,0,0,1,3.266-3.392,3.627,3.627,0,1,1,5.238,0,6.339,6.339,0,0,1,3.266,3.392,7.047,7.047,0,1,0-12.935-3.872ZM32.98,31.8a1.944,1.944,0,1,1,1.944-1.945A1.946,1.946,0,0,1,32.98,31.8Zm0,7.129a7.015,7.015,0,0,1-4.577-1.7,4.669,4.669,0,0,1,9.156,0A7.019,7.019,0,0,1,32.98,38.934Zm-8.732-7.048a8.732,8.732,0,1,1,8.732,8.732A8.742,8.742,0,0,1,24.248,31.886ZM15.32,29.745H11.4V52.19H15.32ZM17,28.9V53.032a.842.842,0,0,1-.841.842h-5.6a.842.842,0,0,1-.842-.842V28.9a.842.842,0,0,1,.842-.842h5.6A.842.842,0,0,1,17,28.9ZM52.136,47.626l-5.951-5.774a.138.138,0,0,0-.1-.039h0a.141.141,0,0,0-.1.042l-2.149,2.214a.148.148,0,0,0,0,.2l5.95,5.775a.148.148,0,0,0,.2,0l2.149-2.215A.148.148,0,0,0,52.136,47.626ZM35.642,43.257a11.7,11.7,0,0,1-3.916.239V52.19h3.916ZM25.481,40.83A11.761,11.761,0,0,1,22.742,37.5H21.565V52.19h3.916Zm-2.5-8.944A9.995,9.995,0,1,1,32.98,41.88,10.006,10.006,0,0,1,22.986,31.886Zm6.208-11.048a11.6,11.6,0,0,1,2.943-.6v-1.16H29.193Zm12.754,18.52c-.224.269-.461.529-.708.776l2.1,2.033.732-.754ZM53.347,49,51.2,51.216a1.829,1.829,0,0,1-2.584.039l-5.95-5.774a1.831,1.831,0,0,1-.413-2.017l-2.29-2.223a11.673,11.673,0,0,1-2.637,1.484V53.032a.842.842,0,0,1-.841.842h-5.6a.842.842,0,0,1-.842-.842V43.189a11.588,11.588,0,0,1-2.879-1.18V53.032a.842.842,0,0,1-.842.842h-5.6a.842.842,0,0,1-.841-.842V36.657a.841.841,0,0,1,.841-.842h1.259A11.677,11.677,0,0,1,27.51,21.57V18.236a.842.842,0,0,1,.842-.842h4.626a.842.842,0,0,1,.842.842v2a11.588,11.588,0,0,1,4.436,1.231h6.624a.842.842,0,1,1,0,1.683H40.724A11.659,11.659,0,0,1,42.94,37.976l2.388,2.317a1.832,1.832,0,0,1,2.029.351l5.951,5.775A1.828,1.828,0,0,1,53.347,49ZM5.6,34.658H1.681V52.19H5.6Zm1.683-.841V53.032a.842.842,0,0,1-.842.842H.839A.842.842,0,0,1,0,53.032V33.816a.842.842,0,0,1,.842-.842h5.6a.842.842,0,0,1,.842.842ZM29.193,13.327h2.943V10.385H29.193Zm-1.683.842V9.543a.841.841,0,0,1,.842-.841h4.626a.841.841,0,0,1,.842.841v4.626a.842.842,0,0,1-.842.842H28.352A.842.842,0,0,1,27.51,14.169Zm9.228.291h8.141a.842.842,0,1,0,0-1.683H36.738a.842.842,0,0,0,0,1.683Zm0-3.524H53.02a.842.842,0,0,0,0-1.684H36.738a.842.842,0,0,0,0,1.684Zm-7.545-6.3h2.943V1.693H29.193Zm-1.683.842V.851a.842.842,0,0,1,.842-.842h4.626a.842.842,0,0,1,.842.842V5.476a.842.842,0,0,1-.842.842H28.352A.842.842,0,0,1,27.51,5.476Zm9.228.291h8.141a.841.841,0,1,0,0-1.683H36.738a.841.841,0,0,0,0,1.683Zm0-3.523H53.02a.842.842,0,1,0,0-1.683H36.738a.842.842,0,0,0,0,1.683ZM1.681,11.856a10.163,10.163,0,0,0,14.571,9.158l-5.133-8.731A.849.849,0,0,1,11,11.856V1.727A10.178,10.178,0,0,0,1.681,11.856ZM12.686,1.727a10.182,10.182,0,0,1,9.288,9.291l-9.288,0ZM21.972,12.7l-8.657,0,4.386,7.46A10.165,10.165,0,0,0,21.972,12.7ZM0,11.856A11.847,11.847,0,1,0,11.844.009,11.861,11.861,0,0,0,0,11.856Zm35.9,6.931a.841.841,0,0,0,.841.841H53.02a.842.842,0,1,0,0-1.683H36.738A.841.841,0,0,0,35.9,18.787Z" transform="translate(-31.614 -31.593)" fill-rule="evenodd"/>
    </g>
  </g>
</svg>
