<svg xmlns="http://www.w3.org/2000/svg" width="83" height="83" viewBox="0 0 83 83">
  <g id="Group_1208746" data-name="Group 1208746" transform="translate(-428.051 -5969)">
    <g id="Group_1208696" data-name="Group 1208696" transform="translate(1 -2566)">
      <g id="Group_1208693" data-name="Group 1208693" transform="translate(89 5452)">
        <circle id="Ellipse_12656" data-name="Ellipse 12656" cx="41.5" cy="41.5" r="41.5" transform="translate(338.051 3083)" fill="#b7a8f1"/>
      </g>
    </g>
    <g id="auditoria" transform="translate(440.37 5982.606)">
      <g id="Group_1208744" data-name="Group 1208744" transform="translate(2.524 0.78)">
        <g id="Group_1208738" data-name="Group 1208738" transform="translate(18.978 9.187)">
          <path id="Path_1246948" data-name="Path 1246948" d="M191.711,106.627v23.018A3.285,3.285,0,0,0,195,132.93h25.779a3.285,3.285,0,0,0,3.285-3.285V99.115a3.285,3.285,0,0,0-3.285-3.285H202.508a4.106,4.106,0,0,0-2.9,1.2l-6.691,6.691A4.106,4.106,0,0,0,191.711,106.627Z" transform="translate(-191.711 -95.83)" fill="#b1e4f9"/>
        </g>
        <g id="Group_1208739" data-name="Group 1208739" transform="translate(15.916 6.124)">
          <path id="Path_1246949" data-name="Path 1246949" d="M162.267,77.183V100.2a3.285,3.285,0,0,0,3.285,3.285h25.779a3.285,3.285,0,0,0,3.285-3.285V69.671a3.285,3.285,0,0,0-3.285-3.285H173.064a4.106,4.106,0,0,0-2.9,1.2l-6.691,6.691a4.106,4.106,0,0,0-1.2,2.9Z" transform="translate(-162.267 -66.386)" fill="#d3effb"/>
        </g>
        <g id="Group_1208740" data-name="Group 1208740" transform="translate(12.853 3.062)">
          <path id="Path_1246950" data-name="Path 1246950" d="M132.824,47.74V70.758a3.285,3.285,0,0,0,3.285,3.285h25.779a3.285,3.285,0,0,0,3.285-3.285V40.228a3.285,3.285,0,0,0-3.285-3.285H143.621a4.106,4.106,0,0,0-2.9,1.2l-6.691,6.691a4.106,4.106,0,0,0-1.2,2.9Z" transform="translate(-132.824 -36.943)" fill="#e4f6ff"/>
        </g>
        <g id="Group_1208741" data-name="Group 1208741" transform="translate(9.791)">
          <path id="Path_1246951" data-name="Path 1246951" d="M103.381,18.3V41.315a3.285,3.285,0,0,0,3.285,3.285h25.779a3.285,3.285,0,0,0,3.285-3.285V10.785A3.285,3.285,0,0,0,132.445,7.5H114.178a4.106,4.106,0,0,0-2.9,1.2l-6.691,6.691a4.106,4.106,0,0,0-1.2,2.9Z" transform="translate(-103.381 -7.5)" fill="#f4fbff"/>
          <path id="Path_1246952" data-name="Path 1246952" d="M103.38,18.3V19a2.4,2.4,0,0,1,2.4-2.4h3.409a3.284,3.284,0,0,0,3.284-3.284V9.9a2.4,2.4,0,0,1,2.4-2.4h-.7a4.109,4.109,0,0,0-2.9,1.2l-6.691,6.691A4.109,4.109,0,0,0,103.38,18.3Z" transform="translate(-103.38 -7.501)" fill="#e4f6ff"/>
        </g>
        <g id="Group_1208742" data-name="Group 1208742" transform="translate(0 20.028)">
          <path id="Path_1246953" data-name="Path 1246953" d="M0,0H3.9V9.033H0Z" transform="translate(12.059 16.845) rotate(45)" fill="#407093"/>
          <path id="Path_1246954" data-name="Path 1246954" d="M0,0H1.949V9.033H0Z" transform="translate(12.059 16.845) rotate(45)" fill="#365e7d"/>
          <circle id="Ellipse_12667" data-name="Ellipse 12667" cx="11.556" cy="11.556" r="11.556" transform="translate(8.551 0)" fill="#ffe07d"/>
          <path id="Path_1246955" data-name="Path 1246955" d="M95.563,220.455q-.37-.312-.719-.661a11.556,11.556,0,1,1,16.342-16.342q.348.348.661.719a11.556,11.556,0,0,0-16.284,16.284Z" transform="translate(-82.909 -200.068)" fill="#ffd064"/>
          <circle id="Ellipse_12668" data-name="Ellipse 12668" cx="8.169" cy="8.169" r="8.169" transform="translate(11.938 3.387)" fill="#d3effb"/>
          <path id="Path_1246956" data-name="Path 1246956" d="M127.681,247.609A8.169,8.169,0,1,1,139,236.286a8.171,8.171,0,0,0-11.323,11.323Z" transform="translate(-112.085 -229.241)" fill="#b1e4f9"/>
          <path id="Path_1246957" data-name="Path 1246957" d="M12.03,404.038l-2.26-2.26a1.8,1.8,0,0,1,0-2.551l5.733-5.733a1.8,1.8,0,0,1,2.551,0l2.26,2.26a1.8,1.8,0,0,1,0,2.551l-5.733,5.733A1.8,1.8,0,0,1,12.03,404.038Z" transform="translate(-9.242 -372.904)" fill="#a77d73"/>
          <path id="Path_1246958" data-name="Path 1246958" d="M11.423,403.428l-1.654-1.654a1.8,1.8,0,0,1,0-2.551l5.733-5.733a1.8,1.8,0,0,1,2.551,0l1.654,1.654a1.8,1.8,0,0,0-2.551,0l-5.733,5.733A1.8,1.8,0,0,0,11.423,403.428Z" transform="translate(-9.24 -372.9)" fill="#98695e"/>
        </g>
        <g id="Group_1208743" data-name="Group 1208743" transform="translate(14.997 27.352)">
          <path id="Path_1246959" data-name="Path 1246959" d="M157.853,280.248a1.653,1.653,0,0,1-1.306-.64l-2.764-3.565a1.653,1.653,0,0,1,2.613-2.026l1.241,1.6,2.421-4.287a1.653,1.653,0,1,1,2.879,1.626l-3.644,6.452a1.653,1.653,0,0,1-1.319.836C157.933,280.246,157.893,280.248,157.853,280.248Z" transform="translate(-153.437 -270.49)" fill="#b3e59f"/>
        </g>
      </g>
      <g id="Group_1208745" data-name="Group 1208745" transform="translate(1.744 0)">
        <path id="Path_1246960" data-name="Path 1246960" d="M51.466,9.288A4.078,4.078,0,0,0,48.4,6.226a4.077,4.077,0,0,0-3.061-3.062A4.073,4.073,0,0,0,41.379,0H23.11a4.853,4.853,0,0,0-3.454,1.431l-.023.024L12.964,8.122a4.86,4.86,0,0,0-1.43,3.456v15.4a12.384,12.384,0,0,0,.659,11.965L10.9,40.234a2.585,2.585,0,0,0-2.667.613L2.5,46.58a2.583,2.583,0,0,0,0,3.653l2.26,2.26a2.586,2.586,0,0,0,3.653,0l2.7-2.7a.78.78,0,0,0-1.1-1.1l-2.7,2.7a1.024,1.024,0,0,1-1.447,0L3.6,49.131a1.023,1.023,0,0,1,0-1.447L9.336,41.95a1.026,1.026,0,0,1,1.448,0l2.26,2.26a1.026,1.026,0,0,1,0,1.448l-.827.827a.78.78,0,1,0,1.1,1.1l.827-.827a2.585,2.585,0,0,0,.613-2.667L16.054,42.8a12.271,12.271,0,0,0,3.99,1.62,4.033,4.033,0,0,0,.779.264,4.074,4.074,0,0,0,3.963,3.163h25.78a4.07,4.07,0,0,0,4.065-4.066V13.251a4.074,4.074,0,0,0-3.164-3.963ZM45.443,34.6V4.833a2.512,2.512,0,0,1,1.5,2.135c0,.048.005.1.005.159V37.658a2.507,2.507,0,0,1-2.5,2.5H32.189a12.262,12.262,0,0,0,1.05-1.5h8.14A4.07,4.07,0,0,0,45.443,34.6ZM20.683,2.611a3.188,3.188,0,0,0-.052.571V6.592a2.507,2.507,0,0,1-2.5,2.5H14.717a3.186,3.186,0,0,0-.573.053ZM13.094,12.3c0-.006,0-.012,0-.018a1.624,1.624,0,0,1,1.622-1.622h3.409a4.069,4.069,0,0,0,4.065-4.065V3.182A1.624,1.624,0,0,1,23.813,1.56H41.379a2.509,2.509,0,0,1,2.5,2.346c0,.048.005.1.005.158V34.6a2.508,2.508,0,0,1-2.5,2.505H34.02a12.335,12.335,0,0,0-20.112-13.46q-.433.433-.814.9Zm1.917,12.448a10.776,10.776,0,1,1,0,15.239,10.741,10.741,0,0,1,0-15.239ZM13.845,42.8,12.19,41.149l.929-.929q.37.447.788.867t.867.788Zm39.226.978a2.508,2.508,0,0,1-2.5,2.505H24.786a2.511,2.511,0,0,1-2.3-1.5H47.5a4.07,4.07,0,0,0,4.066-4.065V18.173a.78.78,0,0,0-1.56,0V40.72a2.508,2.508,0,0,1-2.505,2.5H28.481a12.259,12.259,0,0,0,2.186-1.5H44.441a4.069,4.069,0,0,0,4.065-4.065V7.894a2.51,2.51,0,0,1,1.5,2.3v4.87a.78.78,0,0,0,1.56,0v-4.1a2.511,2.511,0,0,1,1.5,2.295V43.782Z" transform="translate(-1.744 0)"/>
        <path id="Path_1246961" data-name="Path 1246961" d="M125.5,243.029a8.949,8.949,0,1,0-6.328-2.621A8.891,8.891,0,0,0,125.5,243.029Zm-5.225-14.174a7.389,7.389,0,1,1,0,10.45A7.34,7.34,0,0,1,120.279,228.855Z" transform="translate(-104.618 -201.716)"/>
        <path id="Path_1246962" data-name="Path 1246962" d="M135.8,121.836a.78.78,0,0,0,1.007-.451l.294-.771h2.053l.29.769a.78.78,0,1,0,1.46-.551l-1.93-5.114-.008-.022a.9.9,0,0,0-.83-.556h0a.9.9,0,0,0-.83.558l-.007.018-1.948,5.114A.78.78,0,0,0,135.8,121.836Zm2.764-2.783h-.87l.437-1.147Z" transform="translate(-121.408 -103.165)"/>
        <path id="Path_1246963" data-name="Path 1246963" d="M314.286,121.887a.78.78,0,0,0,.78-.78V115.92a.78.78,0,0,0-1.56,0v5.187A.78.78,0,0,0,314.286,121.887Z" transform="translate(-281.081 -103.165)"/>
        <path id="Path_1246964" data-name="Path 1246964" d="M255.575,121.11a.78.78,0,0,0,.78.777h0c.044,0,1.093,0,1.512-.012,1.633-.028,2.818-1.442,2.818-3.362,0-2.018-1.155-3.374-2.875-3.374h-1.469a.78.78,0,0,0-.78.781s0,2,0,2.586C255.568,119.229,255.575,121.11,255.575,121.11Zm2.238-4.41c1.22,0,1.315,1.388,1.315,1.813,0,.886-.4,1.787-1.285,1.8-.166,0-.441.005-.71.007,0-.6,0-1.4,0-1.815,0-.348,0-1.18,0-1.808Z" transform="translate(-229.165 -103.165)"/>
        <path id="Path_1246965" data-name="Path 1246965" d="M197.132,121.491a2.519,2.519,0,0,0,1.375.4h0a2.652,2.652,0,0,0,1.2-.279,2.331,2.331,0,0,0,1.407-2.122V115.92a.78.78,0,0,0-1.56,0v3.565c0,.224-.065.485-.548.729a1.092,1.092,0,0,1-.5.113h0a.971.971,0,0,1-.537-.151c-.378-.241-.454-.442-.454-.687V115.92a.78.78,0,0,0-1.56,0v3.569A2.291,2.291,0,0,0,197.132,121.491Z" transform="translate(-175.759 -103.165)"/>
        <path id="Path_1246966" data-name="Path 1246966" d="M340.724,116.7h.647v4.407a.78.78,0,1,0,1.56,0V116.7h.658a.78.78,0,0,0,0-1.56h-2.865a.78.78,0,0,0,0,1.56Z" transform="translate(-304.77 -103.165)"/>
        <path id="Path_1246967" data-name="Path 1246967" d="M151.143,274.314c.059,0,.118,0,.177-.006a2.427,2.427,0,0,0,1.942-1.23l3.644-6.452a2.433,2.433,0,1,0-4.237-2.393l-1.844,3.266-.522-.673a2.433,2.433,0,1,0-3.846,2.981l2.764,3.565A2.449,2.449,0,0,0,151.143,274.314Zm-3.3-6.688a.867.867,0,0,1,.533-.183.879.879,0,0,1,.111.007.867.867,0,0,1,.58.331l1.241,1.6a.78.78,0,0,0,1.3-.094L154.026,265a.873.873,0,0,1,1.52.858L151.9,272.31a.873.873,0,0,1-1.45.106l-2.764-3.565A.874.874,0,0,1,147.844,267.626Z" transform="translate(-130.949 -235.644)"/>
      </g>
    </g>
  </g>
</svg>
