<svg xmlns="http://www.w3.org/2000/svg" width="83" height="83" viewBox="0 0 83 83">
  <g id="Group_1208757" data-name="Group 1208757" transform="translate(-1924 5604)">
    <g id="Group_1208733" data-name="Group 1208733" transform="translate(1496.949 -14139)">
      <g id="Group_1208693" data-name="Group 1208693" transform="translate(89 5452)">
        <circle id="Ellipse_12656" data-name="Ellipse 12656" cx="41.5" cy="41.5" r="41.5" transform="translate(338.051 3083)" fill="#b7a8f1"/>
      </g>
    </g>
    <g id="vigilancia" transform="translate(1925 -5603)">
      <path id="Path_1246993" data-name="Path 1246993" d="M80,25.633A1.633,1.633,0,0,1,81.633,24h38.383a1.633,1.633,0,0,1,1.633,1.633v26.95a1.633,1.633,0,0,1-1.633,1.633H80Z" transform="translate(-57.467 -7.183)" fill="#548aff"/>
      <path id="Path_1246994" data-name="Path 1246994" d="M316.25,362.617,321.15,352H308.9L304,362.617Z" transform="translate(-258.6 -301.7)" fill="#8be0e8"/>
      <path id="Path_1246995" data-name="Path 1246995" d="M240,456h18.783v1.633a1.633,1.633,0,0,1-1.633,1.633H241.633A1.633,1.633,0,0,1,240,457.633Z" transform="translate(-201.133 -395.083)" fill="#548aff"/>
      <path id="Path_1246996" data-name="Path 1246996" d="M64,280h5.618v7.35H64Z" transform="translate(-43.1 -237.05)" fill="#ffceb6"/>
      <path id="Path_1246997" data-name="Path 1246997" d="M100.083,240v6.434a1.732,1.732,0,0,1-2.957,1.225L96,246.533V240Z" transform="translate(-71.833 -201.133)" fill="#ffceb6"/>
      <path id="Path_1246998" data-name="Path 1246998" d="M42.45,224.983l-1.9-3.172A3.837,3.837,0,0,1,40,219.837h0A3.837,3.837,0,0,1,43.837,216H49.8a1.633,1.633,0,1,1,0,3.267H47.35l-1.633,2.45v3.267Z" transform="translate(-21.55 -179.583)" fill="#c47220"/>
      <path id="Path_1246999" data-name="Path 1246999" d="M49.317,349.883H42.6a3.267,3.267,0,0,1-2.428-1.081l-3.11-3.456v6.987H24V340.9a4.9,4.9,0,0,1,4.9-4.9h5.458a5.717,5.717,0,0,1,4.424,2.1l5.635,6.887h4.9Z" transform="translate(-7.183 -287.333)" fill="#ffb401"/>
      <path id="Path_1247000" data-name="Path 1247000" d="M272,421.717v-4.9h1.633L276.9,416l3.639,2.184a.915.915,0,0,1-.65,1.681l-2.989-.6-2.831,2.123a1.633,1.633,0,0,1-.98.327Z" transform="translate(-229.867 -359.167)" fill="#ffceb6"/>
      <path id="Path_1247001" data-name="Path 1247001" d="M343.35,459.267h-5.717A1.633,1.633,0,0,1,336,457.633V456h8.983v1.633A1.633,1.633,0,0,1,343.35,459.267Z" transform="translate(-287.333 -395.083)" fill="#4367e0"/>
      <path id="Path_1247002" data-name="Path 1247002" d="M192,248h4.9v4.083H192Z" transform="translate(-158.033 -208.317)" fill="#ffa100"/>
      <path id="Path_1247003" data-name="Path 1247003" d="M240,216h4.9v7.35H240Z" transform="translate(-201.133 -179.583)" fill="#ffb401"/>
      <path id="Path_1247004" data-name="Path 1247004" d="M288,176h4.9v11.433H288Z" transform="translate(-244.233 -143.667)" fill="#ffc431"/>
      <path id="Path_1247005" data-name="Path 1247005" d="M336,136h4.9v15.517H336Z" transform="translate(-287.333 -107.75)" fill="#ffcc4d"/>
      <path id="Path_1247006" data-name="Path 1247006" d="M384,104h4.9v18.783H384Z" transform="translate(-330.433 -79.017)" fill="#ffd873"/>
      <g id="Group_1208756" data-name="Group 1208756" transform="translate(33.15 20.083)">
        <circle id="Ellipse_12674" data-name="Ellipse 12674" cx="1.5" cy="1.5" r="1.5" transform="translate(-0.15 11.917)" fill="#c5dafa"/>
        <ellipse id="Ellipse_12675" data-name="Ellipse 12675" cx="2" cy="1.5" rx="2" ry="1.5" transform="translate(7.85 5.917)" fill="#c5dafa"/>
        <circle id="Ellipse_12676" data-name="Ellipse 12676" cx="1.5" cy="1.5" r="1.5" transform="translate(15.85 -0.083)" fill="#c5dafa"/>
      </g>
      <path id="Path_1247007" data-name="Path 1247007" d="M62.55,221.883H50.3a.817.817,0,0,0-.742.474l-2.819,6.107-3.074.768H37.62l-5.389-6.587a6.506,6.506,0,0,0-4.9-2.392v-.139a2.553,2.553,0,0,0,1.732-2.414V212.76A2.45,2.45,0,0,0,28.25,208H22.287a4.654,4.654,0,0,0-3.991,7.048l1.787,2.978v2.463A5.726,5.726,0,0,0,16,225.967V237.4h1.633V225.967a4.088,4.088,0,0,1,4.083-4.083h5.458a4.882,4.882,0,0,1,3.792,1.8l5.635,6.887a.817.817,0,0,0,.632.3h4.083v3.267h-5.9a2.454,2.454,0,0,1-1.821-.811l-6.377-7.085L26.01,227.33l3.057,3.4V237.4H30.7v-4.859l1.686,1.874a4.089,4.089,0,0,0,3.035,1.352H38.19A2.454,2.454,0,0,0,40.5,237.4H56.017a2.453,2.453,0,0,0,2.45-2.45V233.5l4.825-10.454a.817.817,0,0,0-.741-1.159Zm-36.032-3.267a.91.91,0,0,1-.648-.268l-.887-.887v-2.681l1.254-1.881h1.2v4.8a.917.917,0,0,1-.916.916Zm-7.251-5.963a3.024,3.024,0,0,1,3.02-3.021H28.25a.817.817,0,1,1,0,1.633H25.8a.817.817,0,0,0-.679.364l-1.633,2.45a.816.816,0,0,0-.137.453v2.45H21.362L19.7,214.208A3.021,3.021,0,0,1,19.267,212.654Zm2.45,5.963h2.112l.887.887a2.538,2.538,0,0,0,.986.613v.134H21.717Zm21.233,12.25h.817a.814.814,0,0,0,.2-.024l2.938-.735,3.349,2.01a.1.1,0,0,1-.07.18l-2.989-.6a.817.817,0,0,0-.65.147l-2.831,2.123a.822.822,0,0,1-.49.163H42.95Zm1.742,4.41,1.524-1.143H47.85v.817a2.438,2.438,0,0,0,.14.817H43.222A2.466,2.466,0,0,0,44.692,235.277Zm12.141-.327a.818.818,0,0,1-.817.817H50.3a.818.818,0,0,1-.817-.817v-.817h7.35Zm.294-2.45H51.9a1.711,1.711,0,0,0-.812-1.783l-2.814-1.688,2.544-5.512H61.274Z" transform="translate(0 -172.4)"/>
      <path id="Path_1247008" data-name="Path 1247008" d="M112.833,16H74.45A2.453,2.453,0,0,0,72,18.45V33.967h1.633V18.45a.818.818,0,0,1,.817-.817h38.383a.818.818,0,0,1,.817.817V45.4a.818.818,0,0,1-.817.817H80.983V47.85h31.85a2.453,2.453,0,0,0,2.45-2.45V18.45A2.453,2.453,0,0,0,112.833,16Z" transform="translate(-50.283)"/>
      <circle id="Ellipse_12677" data-name="Ellipse 12677" cx="1" cy="1" r="1" transform="translate(24 18)"/>
      <ellipse id="Ellipse_12678" data-name="Ellipse 12678" cx="0.5" cy="1" rx="0.5" ry="1" transform="translate(27 18)"/>
      <circle id="Ellipse_12679" data-name="Ellipse 12679" cx="1" cy="1" r="1" transform="translate(29 18)"/>
      <path id="Path_1247009" data-name="Path 1247009" d="M194.95,96h-4.9a.817.817,0,0,0-.817.817v2.45H185.15a.817.817,0,0,0-.817.817v3.267H180.25a.817.817,0,0,0-.817.817v3.267H175.35a.817.817,0,0,0-.817.817v2.45H170.45a.817.817,0,0,0-.817.817v3.267H168v1.633h29.4v-1.633h-1.633V96.817A.817.817,0,0,0,194.95,96Zm-23.683,16.333h3.267v2.45h-3.267Zm4.9-3.267h3.267v5.717h-3.267Zm4.9-4.083h3.267v9.8h-3.267Zm4.9-4.083h3.267v13.883h-3.267Zm8.167,13.883h-3.267V97.633h3.267Z" transform="translate(-136.483 -71.833)"/>
      <path id="Path_1247010" data-name="Path 1247010" d="M144,62.694h3.407a2.45,2.45,0,0,0,4.653-1.529l4.247-3.13a2.449,2.449,0,0,0,3.834-2.825l3.718-2.739a2.448,2.448,0,0,0,3.684-1.21h5.04V49.627h-5.04a2.45,2.45,0,0,0-4.653,1.529L159.033,54a2.448,2.448,0,0,0-3.556,2.62l-4.386,3.232a2.448,2.448,0,0,0-3.684,1.21H144Zm21.233-13.067a.817.817,0,1,1-.817.817A.817.817,0,0,1,165.233,49.627Zm-7.35,5.717a.817.817,0,1,1-.817.817A.817.817,0,0,1,157.883,55.344Zm-8.167,5.717a.817.817,0,1,1-.817.817A.817.817,0,0,1,149.717,61.061Z" transform="translate(-114.933 -28.727)"/>
      <path id="Path_1247011" data-name="Path 1247011" d="M440,64h1.633v1.633H440Z" transform="translate(-380.717 -43.1)"/>
      <path id="Path_1247012" data-name="Path 1247012" d="M112,176h1.633v1.633H112Z" transform="translate(-86.2 -143.667)"/>
    </g>
  </g>
</svg>
