<svg xmlns="http://www.w3.org/2000/svg" width="83" height="83" viewBox="0 0 83 83">
  <g id="Group_1208777" data-name="Group 1208777" transform="translate(-1924 5230)">
    <g id="Group_1208736" data-name="Group 1208736" transform="translate(1496.949 -13765)">
      <g id="Group_1208693" data-name="Group 1208693" transform="translate(89 5452)">
        <circle id="Ellipse_12656" data-name="Ellipse 12656" cx="41.5" cy="41.5" r="41.5" transform="translate(338.051 3083)" fill="#b7a8f1"/>
      </g>
    </g>
    <g id="gestion-de-proyectos" transform="translate(1943 -5223.805)">
      <path id="Path_1247049" data-name="Path 1247049" d="M7.5,117.944V149.36a1.325,1.325,0,0,0,1.325,1.325h41a1.325,1.325,0,0,0,1.325-1.325V117.944Z" transform="translate(-6.841 -94.992)" fill="#f1f4f6"/>
      <g id="Group_1208776" data-name="Group 1208776" transform="translate(4.297 14.464)">
        <path id="Path_1247050" data-name="Path 1247050" d="M51.248,26.156H49.011a.094.094,0,0,1-.094-.094V21.4a.094.094,0,0,1,.094-.094h2.236a.094.094,0,0,1,.094.094v4.662A.1.1,0,0,1,51.248,26.156Z" transform="translate(-48.917 -21.306)" fill="#d0e2e7"/>
        <path id="Path_1247051" data-name="Path 1247051" d="M147.887,26.156H145.65a.094.094,0,0,1-.094-.094V21.4a.094.094,0,0,1,.094-.094h2.236a.094.094,0,0,1,.094.094v4.662A.094.094,0,0,1,147.887,26.156Z" transform="translate(-137.068 -21.306)" fill="#d0e2e7"/>
        <path id="Path_1247052" data-name="Path 1247052" d="M244.526,26.156h-2.236a.094.094,0,0,1-.094-.094V21.4a.094.094,0,0,1,.094-.094h2.236a.094.094,0,0,1,.094.094v4.662A.1.1,0,0,1,244.526,26.156Z" transform="translate(-225.219 -21.306)" fill="#d0e2e7"/>
        <path id="Path_1247053" data-name="Path 1247053" d="M341.164,26.156h-2.236a.094.094,0,0,1-.094-.094V21.4a.094.094,0,0,1,.094-.094h2.236a.094.094,0,0,1,.094.094v4.662A.094.094,0,0,1,341.164,26.156Z" transform="translate(-313.368 -21.306)" fill="#d0e2e7"/>
        <path id="Path_1247054" data-name="Path 1247054" d="M437.8,26.156h-2.236a.094.094,0,0,1-.094-.094V21.4a.094.094,0,0,1,.094-.094H437.8a.094.094,0,0,1,.094.094v4.662A.094.094,0,0,1,437.8,26.156Z" transform="translate(-401.519 -21.306)" fill="#d0e2e7"/>
      </g>
      <path id="Path_1247055" data-name="Path 1247055" d="M49.829,48.917H47.516v2.331a.094.094,0,0,1-.094.094H45.185a.094.094,0,0,1-.094-.094V48.917H39.028v2.331a.094.094,0,0,1-.094.094H36.7a.094.094,0,0,1-.094-.094V48.917H30.539v2.331a.094.094,0,0,1-.094.094H28.209a.094.094,0,0,1-.094-.094V48.917H22.051v2.331a.094.094,0,0,1-.094.094H19.72a.094.094,0,0,1-.094-.094V48.917H13.563v2.331a.094.094,0,0,1-.094.094H11.232a.094.094,0,0,1-.094-.094V48.917H8.824A1.325,1.325,0,0,0,7.5,50.242V54.98H51.154V50.242a1.324,1.324,0,0,0-1.325-1.325Z" transform="translate(-6.841 -32.028)" fill="#dd636e"/>
      <path id="Path_1247056" data-name="Path 1247056" d="M47.64,117.944v24.28a6.7,6.7,0,0,1-6.7,6.7H7.5v.432a1.325,1.325,0,0,0,1.325,1.325h41a1.325,1.325,0,0,0,1.325-1.325V117.944Z" transform="translate(-6.841 -94.992)" fill="#dfeaef"/>
      <path id="Path_1247057" data-name="Path 1247057" d="M43.513,163h-8.3a.1.1,0,0,1-.1-.1v-3.447a.1.1,0,0,1,.1-.1h8.3a.1.1,0,0,1,.1.1v3.447A.1.1,0,0,1,43.513,163Z" transform="translate(-32.035 -132.774)" fill="#9bd069"/>
      <path id="Path_1247058" data-name="Path 1247058" d="M72.335,204.417h-9.51a.1.1,0,0,1-.1-.1v-3.447a.1.1,0,0,1,.1-.1h9.51a.1.1,0,0,1,.1.1v3.447a.1.1,0,0,1-.1.1Z" transform="translate(-57.22 -170.551)" fill="#8bc852"/>
      <path id="Path_1247059" data-name="Path 1247059" d="M101.158,245.832H90.435a.1.1,0,0,1-.1-.1v-3.447a.1.1,0,0,1,.1-.1h10.722a.1.1,0,0,1,.1.1v3.447A.1.1,0,0,1,101.158,245.832Z" transform="translate(-82.405 -208.329)" fill="#9bd069"/>
      <path id="Path_1247060" data-name="Path 1247060" d="M229.04,287.246H214.585V283.7a.1.1,0,0,1,.1-.1h14.36a.1.1,0,0,1,.1.1v3.447A.1.1,0,0,1,229.04,287.246Z" transform="translate(-195.737 -246.105)" fill="#4073c8"/>
      <path id="Path_1247061" data-name="Path 1247061" d="M221.765,328.661H214.68a.1.1,0,0,1-.1-.1v-3.542h7.275v3.542A.1.1,0,0,1,221.765,328.661Z" transform="translate(-195.737 -283.882)" fill="#3b66c1"/>
      <path id="Path_1247062" data-name="Path 1247062" d="M374.928,370.077h-8.393a.1.1,0,0,1-.1-.1v-3.447a.1.1,0,0,1,.1-.1h8.3a.1.1,0,0,1,.1.1v3.542Z" transform="translate(-334.254 -321.661)" fill="#e28424"/>
      <path id="Path_1247063" data-name="Path 1247063" d="M400.018,411.491h-5.872a.1.1,0,0,1-.1-.1v-3.542h6.063V411.4A.1.1,0,0,1,400.018,411.491Z" transform="translate(-359.44 -359.437)" fill="#dd6938"/>
      <path id="Path_1247064" data-name="Path 1247064" d="M443.123,412.549v-3.431a6.691,6.691,0,0,1-1.921,3.526h1.826A.1.1,0,0,0,443.123,412.549Z" transform="translate(-402.449 -360.591)" fill="#dd542e"/>
      <path id="Path_1247065" data-name="Path 1247065" d="M42.988,16.23H41.333V14.558a.754.754,0,0,0-.753-.753H38.344a.754.754,0,0,0-.753.753V16.23H32.845V14.558a.754.754,0,0,0-.753-.753H29.856a.754.754,0,0,0-.753.753V16.23H24.357V14.558a.754.754,0,0,0-.753-.753H21.367a.754.754,0,0,0-.753.753V16.23H15.869V14.558a.754.754,0,0,0-.753-.753H12.879a.754.754,0,0,0-.753.753V16.23H7.381V14.558a.754.754,0,0,0-.753-.753H4.391a.754.754,0,0,0-.753.753V16.23H1.983A1.986,1.986,0,0,0,0,18.214V54.368a1.986,1.986,0,0,0,1.983,1.983h8.94a.659.659,0,1,0,0-1.318H8.594V38.162h5.958V55.034H14a.659.659,0,0,0,0,1.318h28.99a1.986,1.986,0,0,0,1.983-1.983V18.214a1.985,1.985,0,0,0-1.983-1.983Zm-4.08-1.108h1.108v3.533H38.908Zm-8.488,0h1.108v3.533H30.42Zm-8.488,0h1.108v3.533H21.932Zm-8.488,0h1.108v3.533H13.444Zm-8.488,0H6.063v3.533H4.955ZM1.983,17.548H3.638V19.22a.754.754,0,0,0,.753.753H6.627a.754.754,0,0,0,.753-.753V17.548h4.746V19.22a.754.754,0,0,0,.753.753h2.236a.754.754,0,0,0,.753-.753V17.548h4.745V19.22a.754.754,0,0,0,.753.753H23.6a.754.754,0,0,0,.753-.753V17.548H29.1V19.22a.754.754,0,0,0,.753.753h2.236a.754.754,0,0,0,.753-.753V17.548H37.59V19.22a.754.754,0,0,0,.753.753H40.58a.754.754,0,0,0,.753-.753V17.548h1.655a.666.666,0,0,1,.666.666v4.08H12.461a.659.659,0,0,0,0,1.318h2.091v5.958H12.231V26.685a.755.755,0,0,0-.754-.754H8.594v-2.32h.792a.659.659,0,1,0,0-1.318H1.318v-4.08a.666.666,0,0,1,.666-.666ZM35.27,51.395v-2.32h4.745v2.32Zm4.745-3.638h-7.17v-2.32h7.17ZM32.281,44.12a.755.755,0,0,0-.754.754v3.447a.755.755,0,0,0,.754.754h1.671v2.884a.755.755,0,0,0,.754.754h1.671v2.321H30.42V41.8H33.3a.755.755,0,0,0,.754-.754V37.6a.755.755,0,0,0-.754-.754H30.42V23.611h5.958V44.12ZM8.594,36.844v-2.32h9.6v2.32Zm2.32-9.6v2.32H3.743v-2.32ZM6.169,30.886h8.383v2.32H6.169Zm15.659-7.276V36.844H19.507V33.961a.755.755,0,0,0-.754-.754H15.869v-9.6Zm5.749,13.233a.659.659,0,1,0,0,1.318H32.74v2.32H19.507v-2.32h5a.659.659,0,1,0,0-1.318H23.145V23.611H29.1V36.844ZM19.507,41.8h5.958v2.32H19.507Zm6.521,3.638a.755.755,0,0,0,.754-.754V41.8H29.1V55.034H23.145v-9.6Zm-24.045,9.6a.666.666,0,0,1-.666-.666V23.611H7.277v2.32H3.18a.755.755,0,0,0-.754.754v3.447a.755.755,0,0,0,.754.754H4.851V33.77a.755.755,0,0,0,.754.754H7.276c0,3.6,0,5.949,0,20.509ZM15.869,38.162h2.32v6.521a.755.755,0,0,0,.754.754h2.884v9.6H15.869V38.162ZM43.654,54.368a.666.666,0,0,1-.666.666H37.7V52.712h2.883a.755.755,0,0,0,.754-.754V44.874a.755.755,0,0,0-.754-.754H37.7V23.611h5.958Z"/>
    </g>
  </g>
</svg>
