<svg xmlns="http://www.w3.org/2000/svg" width="83" height="83" viewBox="0 0 83 83">
  <g id="Group_1208792" data-name="Group 1208792" transform="translate(-601.051 -8685)">
    <g id="Group_1208734" data-name="Group 1208734" transform="translate(174 150)">
      <g id="Group_1208693" data-name="Group 1208693" transform="translate(89 5452)">
        <circle id="Ellipse_12656" data-name="Ellipse 12656" cx="41.5" cy="41.5" r="41.5" transform="translate(338.051 3083)" fill="#b7a8f1"/>
      </g>
    </g>
    <g id="gerente-de-proyecto" transform="translate(613.051 8659.42)">
      <g id="Group_1208791" data-name="Group 1208791" transform="translate(0.919 43.5)">
        <path id="Path_1247175" data-name="Path 1247175" d="M214.017,153.621a14.8,14.8,0,0,1,4.588,1.9l1.224-.625,1.963-1,1.559,1.559,1.556,1.556-1,1.963-.625,1.227a14.743,14.743,0,0,1,1.9,4.588l1.306.423,2.095.681V170.3l-2.095.681-1.306.426a14.663,14.663,0,0,1-1.9,4.585l.625,1.227,1,1.963-1.556,1.559-1.559,1.556-1.963-1-1.224-.625a14.743,14.743,0,0,1-4.588,1.9l-.426,1.306-.681,2.095H208.5l-.678-2.095-.426-1.306a14.743,14.743,0,0,1-4.588-1.9l-1.224.625-1.963,1-1.559-1.556-1.559-1.559,1-1.963.625-1.227a14.723,14.723,0,0,1-1.9-4.588l-1.31-.423-2.092-.681V165.9l2.092-.681,1.31-.423a14.792,14.792,0,0,1,1.9-4.588l-.625-1.227-1-1.963,1.559-1.556,1.559-1.559,1.963,1,1.224.625a14.8,14.8,0,0,1,4.588-1.9l.426-1.307.678-2.095h4.406l.681,2.095Z" transform="translate(-171.592 -138.772)" fill="#bec7cf" fill-rule="evenodd"/>
        <path id="Path_1247176" data-name="Path 1247176" d="M279.576,228.04a8.938,8.938,0,1,1-8.936,8.936,8.937,8.937,0,0,1,8.936-8.936Z" transform="translate(-240.461 -207.65)" fill="#eaf6ff" fill-rule="evenodd"/>
        <path id="Path_1247177" data-name="Path 1247177" d="M9.957,263.556H42.751A1.961,1.961,0,0,0,44.7,261.6V250.713A12.881,12.881,0,0,0,31.862,237.87H20.843A12.882,12.882,0,0,0,8,250.713V261.6a1.962,1.962,0,0,0,1.957,1.957Z" transform="translate(-8 -216.35)" fill="#0593fc" fill-rule="evenodd"/>
        <path id="Path_1247178" data-name="Path 1247178" d="M97.876,68.719a9.064,9.064,0,1,0-9.066-9.066A9.084,9.084,0,0,0,97.876,68.719Z" transform="translate(-79.524 -50.59)" fill="#fbbd80" fill-rule="evenodd"/>
        <path id="Path_1247179" data-name="Path 1247179" d="M144.795,255.339l2.976-5.27-1.136-12.189h-3.679l-1.135,12.189Z" transform="translate(-126.443 -216.359)" fill="#e6e6e6" fill-rule="evenodd"/>
        <path id="Path_1247180" data-name="Path 1247180" d="M9.957,263.556h2.758a1.963,1.963,0,0,1-1.957-1.957V250.713A12.881,12.881,0,0,1,23.6,237.87H20.843A12.882,12.882,0,0,0,8,250.713V261.6a1.962,1.962,0,0,0,1.957,1.957Z" transform="translate(-8 -216.35)" fill="#0584e3" fill-rule="evenodd"/>
        <path id="Path_1247181" data-name="Path 1247181" d="M97.876,50.59a9.348,9.348,0,0,1,1.035.056,9.066,9.066,0,0,0,0,18.014,9.348,9.348,0,0,1-1.035.056,9.063,9.063,0,1,1,0-18.127Z" transform="translate(-79.524 -50.59)" fill="#e2aa73" fill-rule="evenodd"/>
        <g id="Group_1208790" data-name="Group 1208790" transform="translate(24.915 11.448)">
          <path id="Path_1247182" data-name="Path 1247182" d="M287.66,154.994a14.89,14.89,0,0,1,3.672-1.373l.426-1.307.678-2.095h1.953l-.678,2.095-.426,1.307a14.8,14.8,0,0,0-4.588,1.9Z" transform="translate(-280.44 -150.22)" fill="#abb3ba" fill-rule="evenodd"/>
          <path id="Path_1247183" data-name="Path 1247183" d="M226.254,188.876c.067-.11.136-.221.2-.331l-.625-1.227-1-1.963,1.559-1.556,1.559-1.559,1.294.66-.9.9-1.556,1.556,1,1.963.625,1.227c-.161.259-.316.521-.461.789A12.528,12.528,0,0,0,226.254,188.876Z" transform="translate(-224.83 -178.561)" fill="#abb3ba" fill-rule="evenodd"/>
          <path id="Path_1247184" data-name="Path 1247184" d="M328.3,433.025h-1.953l-.376-1.164a1.942,1.942,0,0,0,.168-.792V429.34c.347.107.7.2,1.057.284l.426,1.306Z" transform="translate(-314.348 -397.267)" fill="#abb3ba" fill-rule="evenodd"/>
        </g>
        <path id="Path_1247185" data-name="Path 1247185" d="M291.738,228.04c.224,0,.445.006.663.022a8.94,8.94,0,0,0-7.156,4.581c-.278-.259-.565-.508-.864-.741A8.923,8.923,0,0,1,291.738,228.04ZM289.327,245.1a8.881,8.881,0,0,0,3.074.789c-.217.016-.439.025-.663.025a8.979,8.979,0,0,1-2.411-.331Z" transform="translate(-252.622 -207.65)" fill="#d3dde6" fill-rule="evenodd"/>
      </g>
      <path id="Path_1247186" data-name="Path 1247186" d="M58.2,69.751,55.282,68.8a15.522,15.522,0,0,0-1.621-3.91l1.393-2.733a.922.922,0,0,0-.169-1.069L51.77,57.979A.919.919,0,0,0,50.7,57.81L47.97,59.2a15.642,15.642,0,0,0-3.91-1.621l-.947-2.913a.92.92,0,0,0-.876-.635h-4.4a.921.921,0,0,0-.876.635l-.948,2.913A15.617,15.617,0,0,0,32.1,59.2L29.37,57.81a.92.92,0,0,0-1.069.169l-3.114,3.114a.92.92,0,0,0-.169,1.069l1.017,2c-.413-.038-.831-.057-1.252-.057H13.764A13.779,13.779,0,0,0,0,77.867V88.752a2.878,2.878,0,0,0,2.875,2.875H35.667a2.855,2.855,0,0,0,1.423-.378.919.919,0,0,0,.743.378h4.4a.921.921,0,0,0,.876-.635l.947-2.913a15.547,15.547,0,0,0,3.911-1.621L50.7,87.85a.922.922,0,0,0,1.069-.169l3.114-3.114a.92.92,0,0,0,.169-1.069l-1.393-2.733a15.606,15.606,0,0,0,1.621-3.91l2.916-.947a.92.92,0,0,0,.635-.876V70.627A.923.923,0,0,0,58.2,69.751Zm-36.9,7.26-2.032,3.6-2.03-3.6,1.032-11.067h2ZM35.667,89.786h-6.1V83.019a.92.92,0,1,0-1.841,0v6.767H10.809V83.019a.92.92,0,1,0-1.841,0v6.767h-6.1a1.036,1.036,0,0,1-1.034-1.034V77.867A11.936,11.936,0,0,1,13.761,65.944h2.661L15.379,77.127a.923.923,0,0,0,.115.538l2.974,5.271a.92.92,0,0,0,1.6,0l2.974-5.271a.923.923,0,0,0,.115-.538l-1.04-11.183H24.78a11.858,11.858,0,0,1,7.243,2.46.875.875,0,0,0,.131.11.553.553,0,0,0,.048.03,11.91,11.91,0,0,1,4.5,9.324V88.753a1.033,1.033,0,0,1-1.033,1.033ZM33.949,67.613a8.022,8.022,0,1,1,4.592,13.093V77.866A13.733,13.733,0,0,0,33.949,67.613Zm23.045,6.752-2.767.9a.921.921,0,0,0-.615.672,13.74,13.74,0,0,1-1.783,4.3.92.92,0,0,0-.041.909l1.321,2.592-2.168,2.168-2.592-1.321a.917.917,0,0,0-.909.041,13.74,13.74,0,0,1-4.3,1.783.922.922,0,0,0-.672.614l-.9,2.764H38.5l-.075-.231a2.851,2.851,0,0,0,.115-.8V82.574a9.859,9.859,0,1,0-6.043-16.1,13.714,13.714,0,0,0-4.2-1.918l-.02-.045L26.961,61.92l2.168-2.168,2.593,1.321a.921.921,0,0,0,.908-.041,13.766,13.766,0,0,1,4.3-1.783.919.919,0,0,0,.671-.611l.9-2.766h3.067l.9,2.764a.918.918,0,0,0,.672.614,13.74,13.74,0,0,1,4.3,1.783.92.92,0,0,0,.909.041l2.592-1.321L53.11,61.92l-1.321,2.592a.92.92,0,0,0,.041.909,13.74,13.74,0,0,1,1.783,4.3.921.921,0,0,0,.615.672l2.767.9v3.071ZM19.27,62.553a9.987,9.987,0,1,0-9.985-9.988A10,10,0,0,0,19.27,62.553Zm0-18.132a8.146,8.146,0,1,1-8.145,8.145A8.154,8.154,0,0,1,19.27,44.421Z"/>
    </g>
  </g>
</svg>
