<svg xmlns="http://www.w3.org/2000/svg" width="83" height="83" viewBox="0 0 83 83">
  <g id="Group_1208789" data-name="Group 1208789" transform="translate(-1231.051 -8685)">
    <g id="Group_1208781" data-name="Group 1208781" transform="translate(804 150)">
      <g id="Group_1208693" data-name="Group 1208693" transform="translate(89 5452)">
        <circle id="Ellipse_12656" data-name="Ellipse 12656" cx="41.5" cy="41.5" r="41.5" transform="translate(338.051 3083)" fill="#b7a8f1"/>
      </g>
    </g>
    <g id="revisar" transform="translate(1230.721 8684.25)">
      <g id="Group_1208787" data-name="Group 1208787" transform="translate(18.257 18.659)">
        <path id="Path_1247157" data-name="Path 1247157" d="M39.487,39.692A11.489,11.489,0,0,0,53.153,57.878c.005,0,.011,0,.011-.005v6.1a3.175,3.175,0,0,1-3.179,3.179H22.259a3.179,3.179,0,0,1-3.179-3.179V22.644a3.179,3.179,0,0,1,3.179-3.179H43.006L53.164,29.623v8.134a11.5,11.5,0,0,0-13.677,1.934Z" transform="translate(-19.08 -19.465)" fill="#fecd1a"/>
        <path id="Path_1247158" data-name="Path 1247158" d="M74.4,29.627H67.418a3.179,3.179,0,0,1-3.179-3.179V19.47Z" transform="translate(-40.309 -19.467)" fill="#fc852d"/>
        <path id="Path_1247159" data-name="Path 1247159" d="M72.792,68.316a11.5,11.5,0,0,1-4.51,4.515c0,.005-.005.005-.011.005a11.489,11.489,0,1,1,4.52-4.52Z" transform="translate(-34.198 -34.423)" fill="#43dcff"/>
        <path id="Path_1247160" data-name="Path 1247160" d="M95.976,96.024a3.192,3.192,0,0,1-4.52,0l-8.065-8.063-.011-.016c.005,0,.011,0,.011-.005a11.5,11.5,0,0,0,4.51-4.515L95.976,91.5a3.192,3.192,0,0,1,0,4.523Z" transform="translate(-49.307 -49.532)" fill="#fd3a69"/>
        <g id="Group_1208786" data-name="Group 1208786" transform="translate(5.919 6.43)">
          <g id="Group_1208785" data-name="Group 1208785">
            <path id="Path_1247161" data-name="Path 1247161" d="M42.871,46.907H31.177a.927.927,0,0,0,0,1.855H42.871a.927.927,0,1,0,0-1.855Z" transform="translate(-30.25 -38.796)" fill="#fff8cd"/>
            <path id="Path_1247162" data-name="Path 1247162" d="M31.177,64.07H36.63a.927.927,0,1,0,0-1.855H31.177a.927.927,0,0,0,0,1.855Z" transform="translate(-30.25 -45.992)" fill="#fff8cd"/>
            <path id="Path_1247163" data-name="Path 1247163" d="M31.177,33.455h10.2a.927.927,0,1,0,0-1.855h-10.2a.927.927,0,0,0,0,1.855Z" transform="translate(-30.25 -31.6)" fill="#fff8cd"/>
            <path id="Path_1247164" data-name="Path 1247164" d="M31.177,79.379H36.63a.927.927,0,1,0,0-1.855H31.177a.927.927,0,0,0,0,1.855Z" transform="translate(-30.25 -53.188)" fill="#fff8cd"/>
            <path id="Path_1247165" data-name="Path 1247165" d="M41.376,92.833h-10.2a.927.927,0,0,0,0,1.855h10.2a.927.927,0,1,0,0-1.855Z" transform="translate(-30.25 -60.385)" fill="#fff8cd"/>
          </g>
          <path id="Path_1247166" data-name="Path 1247166" d="M67.56,61.725l1.868,3.786,4.177.607-3.023,2.946.714,4.16L67.56,71.26l-3.736,1.964.714-4.16-3.023-2.946,4.177-.607Z" transform="translate(-44.947 -45.761)" fill="#fff8cd"/>
        </g>
      </g>
      <g id="Group_1208788" data-name="Group 1208788" transform="translate(17.33 17.75)">
        <path id="Path_1247167" data-name="Path 1247167" d="M18.257,79.558a.927.927,0,0,0,.927-.927V76a.927.927,0,0,0-1.855,0v2.634a.927.927,0,0,0,.927.927Z" transform="translate(-17.33 -44.695)" fill="#3c2256"/>
        <path id="Path_1247168" data-name="Path 1247168" d="M65.583,59.991l-7.6-7.6a12.372,12.372,0,0,0-4.709-15.941v-7.61a.893.893,0,0,0-.011-.113.942.942,0,0,0-.023-.121.9.9,0,0,0-.053-.155.87.87,0,0,0-.044-.082.9.9,0,0,0-.114-.155c-.008-.008-.012-.02-.021-.028L42.844,18.024s-.011-.007-.015-.012a.924.924,0,0,0-.183-.135l-.05-.026a.919.919,0,0,0-.413-.1H21.437a4.112,4.112,0,0,0-4.107,4.107V44.224a.927.927,0,1,0,1.855,0V21.857A2.255,2.255,0,0,1,21.437,19.6H41.26v6.053a4.112,4.112,0,0,0,4.107,4.107h6.047v5.753a12.4,12.4,0,1,0,0,23.028V63.19a2.254,2.254,0,0,1-2.252,2.252H21.437a2.255,2.255,0,0,1-2.252-2.252V56.518a.927.927,0,1,0-1.855,0V63.19A4.112,4.112,0,0,0,21.437,67.3H49.162a4.112,4.112,0,0,0,4.107-4.107V59.344l6.482,6.479a4.1,4.1,0,0,0,2.918,1.209h0a4.124,4.124,0,0,0,2.91-7.041ZM43.115,25.657V20.921l6.99,6.988H45.367a2.254,2.254,0,0,1-2.252-2.252ZM39.32,54.5A10.562,10.562,0,1,1,51.915,56.26l-.031.016A10.618,10.618,0,0,1,39.32,54.5ZM64.27,64.515a2.242,2.242,0,0,1-1.6.665h0a2.257,2.257,0,0,1-1.607-.667L53.808,57.26a12.049,12.049,0,0,0,3.211-3.21L64.271,61.3a2.264,2.264,0,0,1,0,3.21Z" transform="translate(-17.33 -17.75)" fill="#3c2256"/>
        <path id="Path_1247169" data-name="Path 1247169" d="M31.177,48.8H42.871a.927.927,0,1,0,0-1.855H31.177a.927.927,0,0,0,0,1.855Z" transform="translate(-23.404 -31.472)" fill="#3c2256"/>
        <path id="Path_1247170" data-name="Path 1247170" d="M31.177,64.1H36.63a.927.927,0,0,0,0-1.855H31.177a.927.927,0,0,0,0,1.855Z" transform="translate(-23.404 -38.669)" fill="#3c2256"/>
        <path id="Path_1247171" data-name="Path 1247171" d="M31.177,33.488h10.2a.927.927,0,1,0,0-1.855h-10.2a.927.927,0,1,0,0,1.855Z" transform="translate(-23.404 -24.276)" fill="#3c2256"/>
        <path id="Path_1247172" data-name="Path 1247172" d="M31.177,79.414H36.63a.927.927,0,1,0,0-1.855H31.177a.927.927,0,1,0,0,1.855Z" transform="translate(-23.404 -45.865)" fill="#3c2256"/>
        <path id="Path_1247173" data-name="Path 1247173" d="M31.177,94.722h10.2a.927.927,0,1,0,0-1.855h-10.2a.927.927,0,1,0,0,1.855Z" transform="translate(-23.404 -53.062)" fill="#3c2256"/>
        <path id="Path_1247174" data-name="Path 1247174" d="M70.756,68.6l2.674-2.607a.928.928,0,0,0-.514-1.582l-3.7-.538-1.652-3.349a.928.928,0,0,0-1.663,0l-1.652,3.349-3.695.537a.927.927,0,0,0-.514,1.582L62.718,68.6l-.632,3.68a.927.927,0,0,0,1.345.978l3.305-1.738,3.3,1.738a.927.927,0,0,0,1.347-.976Zm-1.643-.988a.929.929,0,0,0-.265.821l.4,2.309-2.076-1.092a.928.928,0,0,0-.863,0L64.235,70.74l.4-2.309a.927.927,0,0,0-.265-.821l-1.677-1.634,2.318-.337a.927.927,0,0,0,.7-.507l1.037-2.1,1.037,2.1a.927.927,0,0,0,.7.507l2.318.337Z" transform="translate(-37.278 -37.614)" fill="#3c2256"/>
      </g>
    </g>
  </g>
</svg>
