<svg xmlns="http://www.w3.org/2000/svg" width="83" height="83" viewBox="0 0 83 83">
  <g id="Group_1209457" data-name="Group 1209457" transform="translate(-286.051 -2716)">
    <g id="Group_1209453" data-name="Group 1209453" transform="translate(-141 -5819)">
      <g id="Group_1208693" data-name="Group 1208693" transform="translate(89 5452)">
        <circle id="Ellipse_12656" data-name="Ellipse 12656" cx="41.5" cy="41.5" r="41.5" transform="translate(338.051 3083)" fill="#b7a8f1"/>
      </g>
    </g>
    <g id="_6._Signature" data-name="6. Signature" transform="translate(301.051 2731)">
      <rect id="Rectangle_411220" data-name="Rectangle 411220" width="36.202" height="51.356" rx="16" transform="translate(0.842 0.786)" fill="#f6f6f6"/>
      <path id="Path_1248147" data-name="Path 1248147" d="M42.771,465.656H9.656A1.656,1.656,0,0,1,8,464v2.484a1.656,1.656,0,0,0,1.656,1.656H42.771a1.656,1.656,0,0,0,1.656-1.656V464A1.656,1.656,0,0,1,42.771,465.656Z" transform="translate(-7.172 -415.983)" fill="#dcdcdc"/>
      <path id="Path_1248148" data-name="Path 1248148" d="M35.6,52.984H2.484A2.484,2.484,0,0,1,0,50.5V2.484A2.484,2.484,0,0,1,2.484,0H35.6a2.484,2.484,0,0,1,2.484,2.484V13.246a.828.828,0,0,1-1.656,0V2.484a.828.828,0,0,0-.828-.828H2.484a.828.828,0,0,0-.828.828V50.5a.828.828,0,0,0,.828.828H35.6a.828.828,0,0,0,.828-.828V43.878a.828.828,0,0,1,1.656,0V50.5A2.484,2.484,0,0,1,35.6,52.984Z" transform="translate(0 0)"/>
      <path id="Path_1248149" data-name="Path 1248149" d="M352.828,191.181a.828.828,0,0,1-.828-.828V168.828a.828.828,0,0,1,1.656,0v21.525A.828.828,0,0,1,352.828,191.181Z" transform="translate(-315.573 -150.615)"/>
      <path id="Path_1248150" data-name="Path 1248150" d="M75.32,193.656H48.828a.828.828,0,0,1,0-1.656H75.32a.828.828,0,0,1,0,1.656Z" transform="translate(-43.033 -172.131)"/>
      <path id="Path_1248151" data-name="Path 1248151" d="M75.32,233.656H48.828a.828.828,0,0,1,0-1.656H75.32a.828.828,0,1,1,0,1.656Z" transform="translate(-43.033 -207.991)"/>
      <path id="Path_1248152" data-name="Path 1248152" d="M75.32,273.656H48.828a.828.828,0,0,1,0-1.656H75.32a.828.828,0,0,1,0,1.656Z" transform="translate(-43.033 -243.852)"/>
      <path id="Path_1248153" data-name="Path 1248153" d="M75.32,313.656H48.828a.828.828,0,0,1,0-1.656H75.32a.828.828,0,0,1,0,1.656Z" transform="translate(-43.033 -279.713)"/>
      <path id="Path_1248154" data-name="Path 1248154" d="M75.32,353.656H48.828a.828.828,0,0,1,0-1.656H75.32a.828.828,0,0,1,0,1.656Z" transform="translate(-43.033 -315.573)"/>
      <path id="Path_1248155" data-name="Path 1248155" d="M464,256h4.139v14.074H464Z" transform="translate(-415.983 -229.508)" fill="#a8edfd"/>
      <path id="Path_1248156" data-name="Path 1248156" d="M464,368h4.139v2.484H464Z" transform="translate(-415.983 -329.917)" fill="#8bd4de"/>
      <path id="Path_1248157" data-name="Path 1248157" d="M460.967,263.73h-4.139A.828.828,0,0,1,456,262.9V248.828a.828.828,0,0,1,.828-.828h4.139a.828.828,0,0,1,.828.828V262.9A.828.828,0,0,1,460.967,263.73Zm-3.312-1.656h2.484V249.656h-2.484Z" transform="translate(-408.811 -222.336)"/>
      <path id="Path_1248158" data-name="Path 1248158" d="M212.457,242.867c-4.572,9.8-4.447,9.552-4.457,9.552a3.509,3.509,0,0,0,3.985-1.317l1.92-2.742a7.988,7.988,0,0,1,6.513-3.391,2.484,2.484,0,0,1,0,4.967h-3.312a4.139,4.139,0,0,0-4.139,4.139H220.9a2.827,2.827,0,0,1,2,.827,2.827,2.827,0,0,0,2,.828h5.613a2.84,2.84,0,0,0,1.265-.3l2.714-1.358V243.311h-.97a5.654,5.654,0,0,1-4-1.656,5.653,5.653,0,0,0-4-1.656h-8.569a4.967,4.967,0,0,0-4.5,2.867Z" transform="translate(-186.475 -215.164)" fill="#e0c3aa"/>
      <path id="Path_1248159" data-name="Path 1248159" d="M200.556,246.031a.828.828,0,0,1-.488-1.138l4.457-9.552A5.817,5.817,0,0,1,209.776,232h8.569a6.439,6.439,0,0,1,4.583,1.9,4.79,4.79,0,0,0,3.415,1.414h.967a.828.828,0,0,1,.828.828v4.967a.828.828,0,0,1-1.656,0v-4.139h-.142a6.439,6.439,0,0,1-4.583-1.9,4.79,4.79,0,0,0-3.415-1.414h-8.569a4.155,4.155,0,0,0-3.751,2.388l-3.986,8.55a2.7,2.7,0,0,0,2.088-1.138l1.921-2.743a8.787,8.787,0,0,1,7.191-3.745,3.312,3.312,0,0,1,3.312,3.312.828.828,0,0,1-1.656,0,1.656,1.656,0,0,0-1.656-1.656,7.123,7.123,0,0,0-5.834,3.037l-1.922,2.744a4.364,4.364,0,0,1-4.925,1.628Z" transform="translate(-179.293 -207.991)"/>
      <path id="Path_1248160" data-name="Path 1248160" d="M0,0H4.967V24.836H0Z" transform="matrix(0.857, 0.516, -0.516, 0.857, 34.808, 19.508)" fill="#6fc3e2"/>
      <path id="Path_1248161" data-name="Path 1248161" d="M209.274,205.755l-4.256-2.561a.828.828,0,0,1-.283-1.138l12.806-21.278a.828.828,0,0,1,1.138-.283l4.256,2.561a.828.828,0,0,1,.283,1.138l-12.809,21.278a.828.828,0,0,1-1.135.283Zm-2.691-3.553,2.832,1.708,11.953-19.862-2.838-1.708Z" transform="translate(-183.441 -161.709)"/>
      <path id="Path_1248162" data-name="Path 1248162" d="M208.873,394.01l-.433,5.537,4.689-2.976Z" transform="translate(-186.87 -353.236)" fill="#a6806f"/>
      <path id="Path_1248163" data-name="Path 1248163" d="M200.438,392.315l.434-5.536a.828.828,0,0,1,1.252-.645l4.256,2.561a.828.828,0,0,1,.017,1.408l-4.69,2.975a.828.828,0,0,1-1.269-.764Zm1.98-4.072-.2,2.551,2.16-1.365Z" transform="translate(-179.693 -346.068)"/>
      <path id="Path_1248164" data-name="Path 1248164" d="M265.935,312a2.484,2.484,0,0,1-2.484,2.484h-3.312A4.139,4.139,0,0,0,256,318.623h7.936a2.827,2.827,0,0,1,2,.827,2.827,2.827,0,0,0,2,.828h5.613a2.84,2.84,0,0,0,1.265-.3l2.714-1.358v-5.8" transform="translate(-229.508 -279.713)" fill="#e0c3aa"/>
      <path id="Path_1248165" data-name="Path 1248165" d="M273.546,353.656h-5.613a2.827,2.827,0,0,1-2-.827,2.827,2.827,0,0,0-2-.828h-7.108a4.125,4.125,0,0,0-.828,2.484h7.936a2.827,2.827,0,0,1,2,.827,2.827,2.827,0,0,0,2,.828h5.613a2.84,2.84,0,0,0,1.265-.3l2.714-1.358V352l-2.714,1.358A2.84,2.84,0,0,1,273.546,353.656Z" transform="translate(-229.508 -315.573)" fill="#d0a37f"/>
      <path id="Path_1248166" data-name="Path 1248166" d="M266.374,313.935h-5.613a3.63,3.63,0,0,1-2.587-1.07,1.982,1.982,0,0,0-1.409-.586h-7.936a.828.828,0,0,1-.828-.828,4.972,4.972,0,0,1,4.967-4.967h3.312a1.656,1.656,0,0,0,1.656-1.656.828.828,0,0,1,1.656,0,3.312,3.312,0,0,1-3.312,3.312h-3.312a3.318,3.318,0,0,0-3.208,2.484h7a3.63,3.63,0,0,1,2.587,1.07,1.982,1.982,0,0,0,1.41.586h5.613a2.017,2.017,0,0,0,.894-.207l2.257-1.132v-5.284a.828.828,0,0,1,1.656,0v5.8a.828.828,0,0,1-.457.741l-2.715,1.357A3.666,3.666,0,0,1,266.374,313.935Z" transform="translate(-222.336 -272.541)"/>
      <path id="Path_1248167" data-name="Path 1248167" d="M340.633,163.4a2.484,2.484,0,0,0-3.409.848l-.854,1.419,4.256,2.561.854-1.419A2.484,2.484,0,0,0,340.633,163.4Z" transform="translate(-301.561 -146.168)" fill="#5f79a5"/>
      <path id="Path_1248168" data-name="Path 1248168" d="M333.024,161.756l-4.256-2.561a.828.828,0,0,1-.283-1.138l.854-1.419a3.312,3.312,0,1,1,5.675,3.415l-.854,1.419A.828.828,0,0,1,333.024,161.756Zm-2.691-3.553,2.838,1.707.427-.709a1.659,1.659,0,1,0-2.842-1.712Z" transform="translate(-294.385 -138.989)"/>
      <path id="Path_1248169" data-name="Path 1248169" d="M112.837,443.3a.828.828,0,0,1-.661-1.325l.686-.915a2.68,2.68,0,0,1,4.29,0,2.691,2.691,0,0,1,3.587.584h11.139a.828.828,0,0,1,0,1.656h-11.59a.828.828,0,0,1-.741-.457,1.021,1.021,0,0,0-1.83,0,.828.828,0,0,1-1.482,0l-.316-.632a1.022,1.022,0,0,0-1.738-.152l-.686.915A.828.828,0,0,1,112.837,443.3Z" transform="translate(-100.419 -394.455)"/>
      <path id="Path_1248170" data-name="Path 1248170" d="M56,56H82.492v6.623H56Z" transform="translate(-50.205 -50.205)" fill="#ead590"/>
      <path id="Path_1248171" data-name="Path 1248171" d="M56,96H82.492v2.484H56Z" transform="translate(-50.205 -86.065)" fill="#f1cb66"/>
      <path id="Path_1248172" data-name="Path 1248172" d="M75.32,56.279H48.828A.828.828,0,0,1,48,55.451V48.828A.828.828,0,0,1,48.828,48H75.32a.828.828,0,0,1,.828.828v6.623A.828.828,0,0,1,75.32,56.279ZM49.656,54.623H74.492V49.656H49.656Z" transform="translate(-43.033 -43.033)"/>
      <path id="Path_1248173" data-name="Path 1248173" d="M60.418,153.656H48.828a.828.828,0,0,1,0-1.656h11.59a.828.828,0,0,1,0,1.656Z" transform="translate(-43.033 -136.27)"/>
    </g>
  </g>
</svg>
