<svg xmlns="http://www.w3.org/2000/svg" width="83" height="83" viewBox="0 0 83 83">
  <g id="Group_1209481" data-name="Group 1209481" transform="translate(-601.051 -2716)">
    <g id="Group_1209456" data-name="Group 1209456" transform="translate(0 -5969)">
      <g id="Group_1208734" data-name="Group 1208734" transform="translate(174 150)">
        <g id="Group_1208693" data-name="Group 1208693" transform="translate(89 5452)">
          <circle id="Ellipse_12656" data-name="Ellipse 12656" cx="41.5" cy="41.5" r="41.5" transform="translate(338.051 3083)" fill="#b7a8f1"/>
        </g>
      </g>
    </g>
    <g id="contabilidad" transform="translate(613.051 2728)">
      <g id="Group_1209479" data-name="Group 1209479" transform="translate(1.924 1.924)">
        <g id="Group_1209458" data-name="Group 1209458" transform="translate(9.24 29.033)">
          <path id="Path_1248174" data-name="Path 1248174" d="M15.7,39.5a1.853,1.853,0,0,0,1.848,1.848A1.861,1.861,0,0,0,15.7,43.2a1.853,1.853,0,0,0,1.848,1.848A1.861,1.861,0,0,0,15.7,46.892a1.853,1.853,0,0,0,1.848,1.848h1.848v1.848a1.853,1.853,0,0,1-1.848,1.848h-3.7A1.853,1.853,0,0,1,12,50.588V42.272a3.694,3.694,0,0,1,1.478-2.957l1.368-1.026a2.122,2.122,0,0,0,.85-1.7v-.508a2.146,2.146,0,0,0-.619-1.506,2.18,2.18,0,0,0-1.284-.61l.018-.148a12.66,12.66,0,0,0,1.885.139,12.813,12.813,0,0,0,3.7-.536v4.232H17.544A1.861,1.861,0,0,0,15.7,39.5Z" transform="translate(-12 -33.42)" fill="#969faa"/>
        </g>
        <g id="Group_1209459" data-name="Group 1209459" transform="translate(0 3.696)">
          <path id="Path_1248175" data-name="Path 1248175" d="M18.632,31.337a12.813,12.813,0,0,1-3.7.536,12.66,12.66,0,0,1-1.885-.139,12.927,12.927,0,1,1,5.581-.4Z" transform="translate(-2 -6)" fill="#fcd770"/>
        </g>
        <g id="Group_1209460" data-name="Group 1209460" transform="translate(3.696 7.392)">
          <path id="Path_1248176" data-name="Path 1248176" d="M15.24,10a9.2,9.2,0,0,1,6.339,2.523l-.795.869-3.7,4-3.7-3.7-3.7,3.7L6.157,20.931A9.235,9.235,0,0,1,15.24,10Z" transform="translate(-6 -10)" fill="#69d6f4"/>
        </g>
        <g id="Group_1209461" data-name="Group 1209461" transform="translate(3.853 9.915)">
          <path id="Path_1248177" data-name="Path 1248177" d="M21.592,12.73,20.8,13.6l-3.7,4-3.7-3.7-3.7,3.7L6.17,21.139a9.2,9.2,0,0,0,3.539,5.692v.009a9.232,9.232,0,0,0,11.088,0v-.009a9.224,9.224,0,0,0,.795-14.1Z" transform="translate(-6.17 -12.73)" fill="#ff826e"/>
        </g>
        <g id="Group_1209462" data-name="Group 1209462" transform="translate(29.569 0)">
          <path id="Path_1248178" data-name="Path 1248178" d="M56.176,2H37.7A3.7,3.7,0,0,0,34,5.7V35.265a3.7,3.7,0,0,0,3.7,3.7H59.872V5.7A3.7,3.7,0,0,0,56.176,2Z" transform="translate(-34 -2)" fill="#aab2bd"/>
        </g>
        <g id="Group_1209463" data-name="Group 1209463" transform="translate(33.265 3.696)">
          <path id="Path_1248179" data-name="Path 1248179" d="M56.48,6.924v5.544a.927.927,0,0,1-.924.924H38.924A.927.927,0,0,1,38,12.468V6.924A.927.927,0,0,1,38.924,6H55.556A.927.927,0,0,1,56.48,6.924Z" transform="translate(-38 -6)" fill="#69d6f4"/>
        </g>
        <g id="Group_1209464" data-name="Group 1209464" transform="translate(48.049 29.569)">
          <path id="Path_1248180" data-name="Path 1248180" d="M57.7,34.924V37.7L54,36.772V34.924A.927.927,0,0,1,54.924,34h1.848A.927.927,0,0,1,57.7,34.924Z" transform="translate(-54 -34)" fill="#e6e9ed"/>
        </g>
        <g id="Group_1209465" data-name="Group 1209465" transform="translate(48.049 22.176)">
          <path id="Path_1248181" data-name="Path 1248181" d="M57.7,26.924v1.848a.927.927,0,0,1-.924.924H54.924A.927.927,0,0,1,54,28.772V26.924A.927.927,0,0,1,54.924,26h1.848A.927.927,0,0,1,57.7,26.924Z" transform="translate(-54 -26)" fill="#e6e9ed"/>
        </g>
        <g id="Group_1209466" data-name="Group 1209466" transform="translate(48.049 14.784)">
          <path id="Path_1248182" data-name="Path 1248182" d="M57.7,18.924v1.848a.927.927,0,0,1-.924.924H54.924A.927.927,0,0,1,54,20.772V18.924A.927.927,0,0,1,54.924,18h1.848A.927.927,0,0,1,57.7,18.924Z" transform="translate(-54 -18)" fill="#e6e9ed"/>
        </g>
        <g id="Group_1209467" data-name="Group 1209467" transform="translate(40.657 14.784)">
          <path id="Path_1248183" data-name="Path 1248183" d="M49.7,18.924v1.848a.927.927,0,0,1-.924.924H46.924A.927.927,0,0,1,46,20.772V18.924A.927.927,0,0,1,46.924,18h1.848A.927.927,0,0,1,49.7,18.924Z" transform="translate(-46 -18)" fill="#e6e9ed"/>
        </g>
        <g id="Group_1209468" data-name="Group 1209468" transform="translate(33.265 14.784)">
          <path id="Path_1248184" data-name="Path 1248184" d="M41.7,18.924v1.848a.927.927,0,0,1-.924.924H38.924A.927.927,0,0,1,38,20.772V18.924A.927.927,0,0,1,38.924,18h1.848A.927.927,0,0,1,41.7,18.924Z" transform="translate(-38 -18)" fill="#e6e9ed"/>
        </g>
        <g id="Group_1209469" data-name="Group 1209469" transform="translate(33.265 22.176)">
          <path id="Path_1248185" data-name="Path 1248185" d="M41.7,26.924v1.848a.927.927,0,0,1-.924.924H38.924A.927.927,0,0,1,38,28.772V26.924A.927.927,0,0,1,38.924,26h1.848A.927.927,0,0,1,41.7,26.924Z" transform="translate(-38 -26)" fill="#e6e9ed"/>
        </g>
        <g id="Group_1209470" data-name="Group 1209470" transform="translate(33.265 29.569)">
          <path id="Path_1248186" data-name="Path 1248186" d="M41.7,34.924v1.848a.927.927,0,0,1-.924.924H38.924A.927.927,0,0,1,38,36.772V34.924A.927.927,0,0,1,38.924,34h1.848A.927.927,0,0,1,41.7,34.924Z" transform="translate(-38 -34)" fill="#e6e9ed"/>
        </g>
        <g id="Group_1209471" data-name="Group 1209471" transform="translate(38.809 51.745)">
          <path id="Path_1248187" data-name="Path 1248187" d="M58.784,61.7H44a4.462,4.462,0,0,1,1.3-3.151L45.848,58H56.936l.545.545A4.462,4.462,0,0,1,58.784,61.7Z" transform="translate(-44 -58)" fill="#ff826e"/>
        </g>
        <g id="Group_1209472" data-name="Group 1209472" transform="translate(3.696 51.745)">
          <path id="Path_1248188" data-name="Path 1248188" d="M18.936,58l1.848,3.7H6L7.848,58Z" transform="translate(-6 -58)" fill="#ff826e"/>
        </g>
        <g id="Group_1209473" data-name="Group 1209473" transform="translate(35.113 22.176)">
          <path id="Path_1248189" data-name="Path 1248189" d="M58.933,37.661a1.84,1.84,0,0,1,1.4,1.793v9.554a5.522,5.522,0,0,1-1.21,3.456l-2.486,3.1H45.544l-2.486-3.1a5.522,5.522,0,0,1-1.21-3.456v-4.14a5.644,5.644,0,0,0-.582-2.486l-.8-1.6-.3-.61a1.5,1.5,0,0,1,1.34-2.162,4.038,4.038,0,0,1,4.047,4.047V27.848A1.853,1.853,0,0,1,47.392,26a1.861,1.861,0,0,1,1.848,1.848V35.24l3.7.924,3.7.924Z" transform="translate(-40 -26)" fill="#f0d0b4"/>
        </g>
        <g id="Group_1209474" data-name="Group 1209474" transform="translate(1.848 29.569)">
          <path id="Path_1248190" data-name="Path 1248190" d="M18.784,50.632v5.544H7.7v-.924L4.342,45.181A6.424,6.424,0,0,1,4,43.092a6.644,6.644,0,0,1,.785-3.132,6.757,6.757,0,0,1,2.162-2.384L11.78,34.36A2.074,2.074,0,0,1,12.963,34a1.781,1.781,0,0,1,.222.009,2.18,2.18,0,0,1,1.284.61,2.146,2.146,0,0,1,.619,1.506v.508a2.122,2.122,0,0,1-.85,1.7l-1.368,1.026a3.694,3.694,0,0,0-1.478,2.957v8.316A1.853,1.853,0,0,0,13.24,52.48h3.7a1.853,1.853,0,0,0,1.848-1.848Z" transform="translate(-4 -34)" fill="#f0d0b4"/>
        </g>
        <g id="Group_1209475" data-name="Group 1209475" transform="translate(12.936 40.657)">
          <path id="Path_1248191" data-name="Path 1248191" d="M21.544,46a1.853,1.853,0,0,1,1.848,1.848A1.861,1.861,0,0,1,21.544,49.7h-3.7A1.853,1.853,0,0,1,16,47.848,1.861,1.861,0,0,1,17.848,46Z" transform="translate(-16 -46)" fill="#f0d0b4"/>
        </g>
        <g id="Group_1209476" data-name="Group 1209476" transform="translate(12.936 36.961)">
          <path id="Path_1248192" data-name="Path 1248192" d="M21.544,42a1.853,1.853,0,0,1,1.848,1.848A1.861,1.861,0,0,1,21.544,45.7h-3.7A1.853,1.853,0,0,1,16,43.848,1.861,1.861,0,0,1,17.848,42Z" transform="translate(-16 -42)" fill="#f0d0b4"/>
        </g>
        <g id="Group_1209477" data-name="Group 1209477" transform="translate(12.936 33.265)">
          <path id="Path_1248193" data-name="Path 1248193" d="M21.544,38a1.853,1.853,0,0,1,1.848,1.848A1.861,1.861,0,0,1,21.544,41.7h-3.7A1.853,1.853,0,0,1,16,39.848,1.861,1.861,0,0,1,17.848,38h3.7Z" transform="translate(-16 -38)" fill="#f0d0b4"/>
        </g>
        <g id="Group_1209478" data-name="Group 1209478" transform="translate(16.632 29.569)">
          <path id="Path_1248194" data-name="Path 1248194" d="M25.544,34a1.853,1.853,0,0,1,1.848,1.848A1.861,1.861,0,0,1,25.544,37.7H20V34Z" transform="translate(-20 -34)" fill="#f0d0b4"/>
        </g>
      </g>
      <g id="Group_1209480" data-name="Group 1209480" transform="translate(1 1)">
        <path id="Path_1248195" data-name="Path 1248195" d="M28.721,18.86a13.775,13.775,0,0,0-2.475-7.907L24.728,12.01a11.994,11.994,0,1,1-3.794-3.516L21.87,6.9A13.855,13.855,0,1,0,10.246,31.914L6.21,34.606a7.547,7.547,0,0,0-2.974,8.666L6.544,53.2v.556L4.125,58.593H21.9L19.48,53.755V47.5H20.4a2.76,2.76,0,0,0,2.051-4.62,2.73,2.73,0,0,0,0-3.7,2.687,2.687,0,0,0,.551-2.772H24.1a2.772,2.772,0,1,0,0-5.544H21.745A13.858,13.858,0,0,0,28.721,18.86ZM21.328,41.037a.926.926,0,0,1-.924.924h-3.7a.924.924,0,1,1,0-1.848h3.7A.926.926,0,0,1,21.328,41.037Zm-5.811-8.349a13.966,13.966,0,0,0,2.115-.246v2.127h-.924a2.75,2.75,0,0,0-.962.182,3.114,3.114,0,0,0,.038-.322v-.5a3.024,3.024,0,0,0-.267-1.237Zm-10.529,10a5.7,5.7,0,0,1,2.246-6.546l4.83-3.219a1.2,1.2,0,0,1,1.872,1v.5a1.21,1.21,0,0,1-.481.963l-1.367,1.025a4.643,4.643,0,0,0-1.848,3.7v8.316A2.775,2.775,0,0,0,13.012,51.2h3.7a2.741,2.741,0,0,0,.924-.17v2.018H8.392V52.9ZM7.115,56.745,8.039,54.9h9.946l.924,1.848Zm10.517-8.316a.926.926,0,0,1-.924.924h-3.7a.926.926,0,0,1-.924-.924V40.113A2.786,2.786,0,0,1,13.2,37.9l.739-.554a2.754,2.754,0,0,0,.721,1.848,2.73,2.73,0,0,0,0,3.7,2.76,2.76,0,0,0,2.051,4.62h.924ZM20.4,45.657h-3.7a.924.924,0,1,1,0-1.848h3.7a.924.924,0,1,1,0,1.848Zm.924-8.316a.926.926,0,0,1-.924.924h-3.7a.924.924,0,1,1,0-1.848h3.7A.926.926,0,0,1,21.328,37.341Zm3.7-3.7a.926.926,0,0,1-.924.924H19.48V32.721H24.1A.926.926,0,0,1,25.024,33.645Z" transform="translate(-1 -1.304)"/>
        <path id="Path_1248196" data-name="Path 1248196" d="M56.1,1H37.62A4.625,4.625,0,0,0,33,5.62V35.189a4.625,4.625,0,0,0,4.62,4.62h1.739L39.9,40.9a4.653,4.653,0,0,1,.488,2.067V47.1a6.5,6.5,0,0,0,1.417,4.041L43.776,53.6a5.344,5.344,0,0,0-1.536,3.762v.924H58.872v-.924A5.348,5.348,0,0,0,57.337,53.6L59.3,51.145a6.49,6.49,0,0,0,1.417-4.04V5.62A4.625,4.625,0,0,0,56.1,1ZM34.848,35.189V5.62A2.775,2.775,0,0,1,37.62,2.848H56.1A2.775,2.775,0,0,1,58.872,5.62V34.952c-.083-.03-.164-.064-.251-.086l-1.6-.4v-2.05a1.85,1.85,0,0,0-1.848-1.848H53.328a1.85,1.85,0,0,0-1.848,1.848v.664l-1.848-.462v-6.67a2.772,2.772,0,1,0-5.544,0V36.325a4.929,4.929,0,0,0-2.159-1.039,1.832,1.832,0,0,0,.31-1.022V32.417a1.85,1.85,0,0,0-1.848-1.848H38.544A1.85,1.85,0,0,0,36.7,32.417v1.848a1.85,1.85,0,0,0,1.848,1.848h.532a2.157,2.157,0,0,0-.491,1.848H37.62a2.775,2.775,0,0,1-2.772-2.772ZM55.176,34l-1.848-.462V32.417h1.848Zm-16.632.26V32.417h1.848v1.848Zm5.665,22.176a3.516,3.516,0,0,1,.915-1.577l.271-.271H55.718l.271.271a3.516,3.516,0,0,1,.915,1.577ZM58.872,47.1a4.638,4.638,0,0,1-1.013,2.887l-2.2,2.754h-10.2l-2.2-2.754A4.642,4.642,0,0,1,42.24,47.1V42.966a6.5,6.5,0,0,0-.683-2.893l-1.105-2.209a.572.572,0,0,1,.511-.827,3.128,3.128,0,0,1,3.125,3.125v4.267h1.848V25.948a.924.924,0,1,1,1.848,0v18.48h1.848v-9.9l1.848.462v9.443h1.848V35.448l1.848.462v8.519h1.848V36.372l1.148.287a.922.922,0,0,1,.7.9V47.1Z" transform="translate(-3.431 -1)"/>
        <path id="Path_1248197" data-name="Path 1248197" d="M38.848,14.24H55.48a1.85,1.85,0,0,0,1.848-1.848V6.848A1.85,1.85,0,0,0,55.48,5H38.848A1.85,1.85,0,0,0,37,6.848v5.544A1.85,1.85,0,0,0,38.848,14.24Zm0-7.392H55.48v5.544H38.848Z" transform="translate(-3.735 -1.304)"/>
        <path id="Path_1248198" data-name="Path 1248198" d="M38.848,22.544H40.7A1.85,1.85,0,0,0,42.544,20.7V18.848A1.85,1.85,0,0,0,40.7,17H38.848A1.85,1.85,0,0,0,37,18.848V20.7A1.85,1.85,0,0,0,38.848,22.544Zm0-3.7H40.7V20.7H38.848Z" transform="translate(-3.735 -2.216)"/>
        <path id="Path_1248199" data-name="Path 1248199" d="M48.7,17H46.848A1.85,1.85,0,0,0,45,18.848V20.7a1.85,1.85,0,0,0,1.848,1.848H48.7A1.85,1.85,0,0,0,50.544,20.7V18.848A1.85,1.85,0,0,0,48.7,17Zm-1.848,3.7V18.848H48.7V20.7Z" transform="translate(-4.343 -2.216)"/>
        <path id="Path_1248200" data-name="Path 1248200" d="M56.7,17H54.848A1.85,1.85,0,0,0,53,18.848V20.7a1.85,1.85,0,0,0,1.848,1.848H56.7A1.85,1.85,0,0,0,58.544,20.7V18.848A1.85,1.85,0,0,0,56.7,17Zm-1.848,3.7V18.848H56.7V20.7Z" transform="translate(-4.951 -2.216)"/>
        <path id="Path_1248201" data-name="Path 1248201" d="M38.848,30.544H40.7A1.85,1.85,0,0,0,42.544,28.7V26.848A1.85,1.85,0,0,0,40.7,25H38.848A1.85,1.85,0,0,0,37,26.848V28.7A1.85,1.85,0,0,0,38.848,30.544Zm0-3.7H40.7V28.7H38.848Z" transform="translate(-3.735 -2.824)"/>
        <path id="Path_1248202" data-name="Path 1248202" d="M56.7,25H54.848A1.85,1.85,0,0,0,53,26.848V28.7a1.85,1.85,0,0,0,1.848,1.848H56.7A1.85,1.85,0,0,0,58.544,28.7V26.848A1.85,1.85,0,0,0,56.7,25Zm-1.848,3.7V26.848H56.7V28.7Z" transform="translate(-4.951 -2.824)"/>
        <path id="Path_1248203" data-name="Path 1248203" d="M23.48,5.848h2.51l-9,9.755-3.669-3.669L6.868,18.381a8.313,8.313,0,0,1,11.67-7.2l.751-1.688A10.166,10.166,0,1,0,24,13.751l-1.6.917A8.3,8.3,0,0,1,21.632,24V13.293l5.544-6.005V9.544h1.848V4H23.48ZM10.544,17.319l1.848-1.848V26.615a8.242,8.242,0,0,1-1.848-.921ZM7.1,20.766l1.6-1.6V24A8.294,8.294,0,0,1,7.1,20.766Zm7.144,6.28V15.471l1.848,1.848v9.727a7.858,7.858,0,0,1-1.848,0Zm5.544-1.352a8.321,8.321,0,0,1-1.848.921V17.3l1.848-2Z" transform="translate(-1.304 -1.228)"/>
      </g>
    </g>
  </g>
</svg>
