<svg xmlns="http://www.w3.org/2000/svg" xmlns:xlink="http://www.w3.org/1999/xlink" width="90" height="90" viewBox="0 0 90 90">
  <defs>
    <filter id="Path_824488" x="0" y="0" width="90" height="90" filterUnits="userSpaceOnUse">
      <feOffset input="SourceAlpha"/>
      <feGaussianBlur stdDeviation="3" result="blur"/>
      <feFlood flood-color="#291a1a" flood-opacity="0.502"/>
      <feComposite operator="in" in2="blur"/>
      <feComposite in="SourceGraphic"/>
    </filter>
  </defs>
  <g id="Group_1208655" data-name="Group 1208655" transform="translate(-206.051 -10473)">
    <g id="Group_1098580" data-name="Group 1098580" transform="translate(-203.949 9361)">
      <g transform="matrix(1, 0, 0, 1, 410, 1112)" filter="url(#Path_824488)">
        <path id="Path_824488-2" data-name="Path 824488" d="M36,0A36,36,0,1,1,0,36,36,36,0,0,1,36,0Z" transform="translate(9 9)" fill="#ccf5ec"/>
      </g>
    </g>
    <g id="www" transform="translate(231.051 10499.5)">
      <path id="Path_1246762" data-name="Path 1246762" d="M42.9,25.756h3.814a2.384,2.384,0,0,0,2.384-2.384V12.884A2.384,2.384,0,0,0,46.711,10.5H12.384A2.384,2.384,0,0,0,10,12.884V23.373a2.384,2.384,0,0,0,2.384,2.384Zm0,0" transform="translate(-9.205 -9.205)" fill="#ffc66c"/>
      <path id="Path_1246763" data-name="Path 1246763" d="M378.094,327.281l6.6,6.6a1.9,1.9,0,1,0,2.687-2.686l-6.6-6.6Zm0,0" transform="translate(-348.05 -298.341)" fill="#ff5d5d"/>
      <path id="Path_1246764" data-name="Path 1246764" d="M209.074,146.035a9.535,9.535,0,1,1-9.535-9.535A9.535,9.535,0,0,1,209.074,146.035Zm0,0" transform="translate(-174.906 -125.193)" fill="#fff"/>
      <path id="Path_1246765" data-name="Path 1246765" d="M244.4,184.7a6.2,6.2,0,1,1-6.2-6.2A6.2,6.2,0,0,1,244.4,184.7Zm0,0" transform="translate(-213.569 -163.856)" fill="#72d8ff"/>
      <path id="Path_1246766" data-name="Path 1246766" d="M229,168.5a6.992,6.992,0,1,0,6.992,6.992A7,7,0,0,0,229,168.5Zm0,12.4a5.4,5.4,0,1,1,5.4-5.4A5.409,5.409,0,0,1,229,180.9Zm0,0" transform="translate(-204.363 -154.651)"/>
      <path id="Path_1246767" data-name="Path 1246767" d="M300.8,211.5a.795.795,0,1,0,0,1.589,1.989,1.989,0,0,1,1.986,1.986.795.795,0,1,0,1.589,0A3.579,3.579,0,0,0,300.8,211.5Zm0,0" transform="translate(-276.166 -194.238)"/>
      <path id="Path_1246768" data-name="Path 1246768" d="M44.262,70.926a.795.795,0,1,0-1.411.731l2.139,4.132a.794.794,0,0,0,1.422-.021l1.295-2.7,1.406,2.717a.8.8,0,0,0,.706.429h.012a.8.8,0,0,0,.7-.451l1.984-4.132a.795.795,0,1,0-1.432-.688l-1.295,2.7-1.407-2.717a.794.794,0,0,0-1.422.021l-1.295,2.7Zm0,0" transform="translate(-39.364 -64.435)"/>
      <path id="Path_1246769" data-name="Path 1246769" d="M116.783,2.089a.8.8,0,1,0-.561-.233A.8.8,0,0,0,116.783,2.089Zm0,0" transform="translate(-106.772)"/>
      <path id="Path_1246770" data-name="Path 1246770" d="M40.684,14.167V3.678A3.182,3.182,0,0,0,37.505.5H13.348a.795.795,0,1,0,0,1.589H37.505a1.591,1.591,0,0,1,1.589,1.589V14.167a1.591,1.591,0,0,1-1.589,1.589H33.691c-.023,0-.045,0-.068,0a10.385,10.385,0,0,0-5.585-4.67l1.178-2.452,1.407,2.717a.794.794,0,0,0,.706.429h.012a.8.8,0,0,0,.7-.451L34.029,7.2A.795.795,0,0,0,32.6,6.513L31.3,9.209,29.9,6.491a.795.795,0,0,0-1.422.021l-1.295,2.7L25.772,6.491a.795.795,0,0,0-1.412.731l1.759,3.4a10.346,10.346,0,0,0-4.3.284l1.778-3.7a.795.795,0,0,0-1.432-.688l-1.295,2.7L19.458,6.491a.795.795,0,0,0-1.422.021l-1.295,2.7L15.335,6.491a.795.795,0,0,0-1.411.731l2.139,4.132a.794.794,0,0,0,1.422-.021l1.295-2.7,1.406,2.717a.776.776,0,0,0,.084.126,10.4,10.4,0,0,0-4.625,4.276H3.178a1.591,1.591,0,0,1-1.589-1.589V3.678A1.591,1.591,0,0,1,3.178,2.089H6.436A.795.795,0,0,0,6.436.5H3.178A3.182,3.182,0,0,0,0,3.678V14.167a3.182,3.182,0,0,0,3.178,3.178H14.913A10.328,10.328,0,0,0,29.777,29.8L36.084,36.1a2.694,2.694,0,0,0,3.81-3.811l-2.478-2.478a.795.795,0,0,0-1.124,1.124l2.478,2.478a1.105,1.105,0,1,1-1.563,1.563l-6.1-6.1a10.32,10.32,0,0,0,3.243-11.537h3.152A3.182,3.182,0,0,0,40.684,14.167ZM24.633,29.582a8.741,8.741,0,1,1,8.741-8.741A8.751,8.751,0,0,1,24.633,29.582Zm0,0"/>
      <path id="Path_1246771" data-name="Path 1246771" d="M430.323,343.014a.794.794,0,1,0,.562-.233A.8.8,0,0,0,430.323,343.014Zm0,0" transform="translate(-395.915 -315.084)"/>
    </g>
  </g>
</svg>
