<svg xmlns="http://www.w3.org/2000/svg" xmlns:xlink="http://www.w3.org/1999/xlink" width="105" height="100" viewBox="0 0 105 100">
  <defs>
    <clipPath id="clip-path">
      <rect id="Rectangle_410750" data-name="Rectangle 410750" width="100" height="100" transform="translate(335.781 4440)" fill="#fff" stroke="#707070" stroke-width="1"/>
    </clipPath>
  </defs>
  <g id="Group_1208654" data-name="Group 1208654" transform="translate(-915 -8171)">
    <g id="Mask_Group_1099289" data-name="Mask Group 1099289" transform="translate(579.219 3731)" clip-path="url(#clip-path)">
      <g id="Group_1205081" data-name="Group 1205081" transform="translate(-470.656 2458.387)">
        <g id="Rectangle_410749" data-name="Rectangle 410749" transform="translate(806.951 1984)" fill="#7f74a8" stroke="#5a5378" stroke-width="3">
          <rect width="79.44" height="79.44" rx="10" stroke="none"/>
          <rect x="1.5" y="1.5" width="76.44" height="76.44" rx="8.5" fill="none"/>
        </g>
      </g>
    </g>
    <g id="searching" transform="translate(937 8189.474)">
      <g id="Group_1208653" data-name="Group 1208653" transform="translate(1 1.895)">
        <g id="Group_1208641" data-name="Group 1208641" transform="translate(1.323 1.323)">
          <path id="Path_1246745" data-name="Path 1246745" d="M2,5.576V62.41a2.69,2.69,0,0,0,2.681,2.681H8.805V12.141A2.69,2.69,0,0,1,11.487,9.46h39.68V5.576a2.69,2.69,0,0,0-2.681-2.681H4.681A2.69,2.69,0,0,0,2,5.576Z" transform="translate(-2 -2.895)" fill="#d6d6d6" fill-rule="evenodd"/>
        </g>
        <g id="Group_1208642" data-name="Group 1208642" transform="translate(8.128 7.888)">
          <path id="Path_1246746" data-name="Path 1246746" d="M7.145,10.54V67.378a2.686,2.686,0,0,0,2.681,2.677h43.8a2.686,2.686,0,0,0,2.681-2.677V10.54a2.69,2.69,0,0,0-2.681-2.681H9.827A2.69,2.69,0,0,0,7.145,10.54Z" transform="translate(-7.145 -7.859)" fill="#f7fdff" fill-rule="evenodd"/>
        </g>
        <g id="Group_1208643" data-name="Group 1208643" transform="translate(14.943 19.477)">
          <path id="Path_1246747" data-name="Path 1246747" d="M12.3,18.808V30.959a2.194,2.194,0,0,0,2.187,2.187H25.473a2.194,2.194,0,0,0,2.187-2.187V18.808a2.194,2.194,0,0,0-2.187-2.187H14.485A2.194,2.194,0,0,0,12.3,18.808Z" transform="translate(-12.298 -16.622)" fill="#ffe366" fill-rule="evenodd"/>
        </g>
        <g id="Group_1208644" data-name="Group 1208644" transform="translate(29.16 1.323)">
          <path id="Path_1246748" data-name="Path 1246748" d="M41.7,2.895H23.047a44.061,44.061,0,0,1,3.18,6.565h18.15V5.576A2.69,2.69,0,0,0,41.7,2.895Z" transform="translate(-23.047 -2.895)" fill="#b3b3b3" fill-rule="evenodd"/>
        </g>
        <g id="Group_1208645" data-name="Group 1208645" transform="translate(23.9 7.888)">
          <path id="Path_1246749" data-name="Path 1246749" d="M45.66,7.859H27.51c6.975,17.87,6.133,49.119-8.44,62.2H49.784a2.686,2.686,0,0,0,2.681-2.677V65.222a16.2,16.2,0,1,1,0-32.2V10.54a2.69,2.69,0,0,0-2.681-2.681H45.66Z" transform="translate(-19.07 -7.859)" fill="#dbf4fc" fill-rule="evenodd"/>
        </g>
        <g id="Group_1208646" data-name="Group 1208646" transform="translate(66.88 63.287)">
          <path id="Path_1246750" data-name="Path 1246750" d="M54.066,51.626l-2.191,1.715a.8.8,0,0,0-.138,1.122l7.821,10a.8.8,0,0,0,1.122.138l2.632-2.058,1.746-1.367a.8.8,0,0,0,.138-1.122l-1.884-2.41-5.933-7.59a.806.806,0,0,0-1.127-.138Z" transform="translate(-51.567 -49.746)" fill="#ffe366" fill-rule="evenodd"/>
        </g>
        <g id="Group_1208647" data-name="Group 1208647" transform="translate(39.305 32.95)">
          <path id="Path_1246751" data-name="Path 1246751" d="M31.57,37.819A16.2,16.2,0,0,0,57.71,55.088c.1-.085.2-.174.29-.263A16.2,16.2,0,1,0,31.57,37.819Zm7.652,12.409a10.552,10.552,0,1,1,9.487,3.18,10.552,10.552,0,0,1-9.487-3.18Z" transform="translate(-30.718 -26.808)" fill="#69d5ff" fill-rule="evenodd"/>
        </g>
        <g id="Group_1208648" data-name="Group 1208648" transform="translate(44.953 38.598)">
          <path id="Path_1246752" data-name="Path 1246752" d="M38.325,33.934a10.547,10.547,0,1,0,9.006-2.7A10.552,10.552,0,0,0,38.325,33.934Z" transform="translate(-34.989 -31.078)" fill="#f7fdff" fill-rule="evenodd"/>
        </g>
        <g id="Group_1208649" data-name="Group 1208649" transform="translate(51.327 38.598)">
          <path id="Path_1246753" data-name="Path 1246753" d="M51.205,49.327A10.555,10.555,0,0,0,40.017,31.85a10.56,10.56,0,0,1,5.759,6.133,10.583,10.583,0,0,1,0,7.118,10.58,10.58,0,0,1-5.968,6.222,10.554,10.554,0,0,0,11.4-2Z" transform="translate(-39.808 -31.078)" fill="#dbf4fc" fill-rule="evenodd"/>
        </g>
        <g id="Group_1208650" data-name="Group 1208650" transform="translate(51.345 32.95)">
          <path id="Path_1246754" data-name="Path 1246754" d="M55.8,31.927a16.212,16.212,0,0,0-15.976-4.579,16.128,16.128,0,0,1,5.95,2.623A16.33,16.33,0,0,1,48.208,32.1a16.736,16.736,0,0,1,1.733,2.2,10.733,10.733,0,0,1,1.737,1.492A10.555,10.555,0,0,1,51.2,50.7a10.1,10.1,0,0,1-.864.726A16.107,16.107,0,0,1,47.473,55a16.627,16.627,0,0,1-1.7,1.394,16.064,16.064,0,0,1-5.22,2.45,16.315,16.315,0,0,0,5.22.267,16.087,16.087,0,0,0,9-4.022c.1-.085.2-.174.29-.263a16.2,16.2,0,0,0,.735-22.9Z" transform="translate(-39.821 -26.808)" fill="#4ac1f0" fill-rule="evenodd"/>
        </g>
        <g id="Group_1208651" data-name="Group 1208651" transform="translate(69.378 63.287)">
          <path id="Path_1246755" data-name="Path 1246755" d="M62.7,57.643l-5.933-7.59a.806.806,0,0,0-1.127-.138l-2.187,1.71a.8.8,0,0,1,1.122.138l7.821,10a.8.8,0,0,1-.138,1.122l.441-.343,1.746-1.367a.8.8,0,0,0,.138-1.122Z" transform="translate(-53.457 -49.746)" fill="#fac852" fill-rule="evenodd"/>
        </g>
        <g id="Group_1208652" data-name="Group 1208652">
          <path id="Path_1246756" data-name="Path 1246756" d="M14.807,34.791H25.8a3.514,3.514,0,0,0,3.509-3.51V19.131A3.513,3.513,0,0,0,25.8,15.621H14.807A3.513,3.513,0,0,0,11.3,19.131V31.281a3.514,3.514,0,0,0,3.509,3.51Zm-.864-15.661a.875.875,0,0,1,.864-.864H25.8a.875.875,0,0,1,.864.864V31.281a.876.876,0,0,1-.864.865H14.807a.876.876,0,0,1-.864-.865Z" transform="translate(2.322 2.533)"/>
          <path id="Path_1246757" data-name="Path 1246757" d="M28.667,18.725H43.391a1.323,1.323,0,0,0,0-2.645H28.667a1.323,1.323,0,1,0,0,2.645Z" transform="translate(7.499 2.681)"/>
          <path id="Path_1246758" data-name="Path 1246758" d="M28.667,24.743H43.391a1.323,1.323,0,0,0,0-2.645H28.667a1.323,1.323,0,1,0,0,2.645Z" transform="translate(7.499 4.622)"/>
          <path id="Path_1246759" data-name="Path 1246759" d="M50.6,39.214a7.048,7.048,0,0,0-8.379-5.375,1.323,1.323,0,1,0,.563,2.585,4.4,4.4,0,0,1,5.232,3.355,1.322,1.322,0,1,0,2.583-.564Z" transform="translate(11.961 8.358)"/>
          <path id="Path_1246760" data-name="Path 1246760" d="M54.523,33.827a11.867,11.867,0,1,0-.536,16.785A11.887,11.887,0,0,0,54.523,33.827ZM52.177,48.683A9.229,9.229,0,1,1,39.549,35.22h0A9.229,9.229,0,0,1,52.177,48.683Z" transform="translate(9.643 7.198)"/>
          <path id="Path_1246761" data-name="Path 1246761" d="M82.551,74.674l-7.817-10a2.128,2.128,0,0,0-2.984-.366l-1.146.9-1.543-1.971a17.484,17.484,0,0,0-9.445-29.42h-.006l.006-21.346a4.013,4.013,0,0,0-4.008-4.008h-2.8V5.9a4.009,4.009,0,0,0-4-4H5a4.009,4.009,0,0,0-4,4V62.732a4.009,4.009,0,0,0,4,4H7.811V69.3a3.991,3.991,0,0,0,3.994,3.994h43.8A4,4,0,0,0,59.617,69.3V68.3A17.28,17.28,0,0,0,67.085,65l1.437,1.836-1.15.9a2.126,2.126,0,0,0-.366,2.979l7.822,10a2.126,2.126,0,0,0,2.978.364l4.377-3.425a2.125,2.125,0,0,0,.367-2.979ZM5,64.091a1.36,1.36,0,0,1-1.359-1.359V5.9A1.36,1.36,0,0,1,5,4.54h43.8A1.36,1.36,0,0,1,50.167,5.9V8.461H11.805a4,4,0,0,0-3.994,4.008V64.091ZM56.972,69.3a1.349,1.349,0,0,1-1.362,1.349h-43.8A1.346,1.346,0,0,1,10.456,69.3V12.469a1.358,1.358,0,0,1,1.349-1.362h43.8a1.36,1.36,0,0,1,1.362,1.362l.006,21.082h-.006a17.412,17.412,0,0,0-10.32,3.023H37.166a1.323,1.323,0,1,0,0,2.645H43.59a17.381,17.381,0,0,0-3.33,5.314H15.942a1.323,1.323,0,1,0,0,2.645H39.424a17.686,17.686,0,0,0-.358,5.314H15.942a1.323,1.323,0,0,0,0,2.645H39.487a17.4,17.4,0,0,0,2.245,5.314H15.942a1.323,1.323,0,0,0,0,2.645H43.787A17.442,17.442,0,0,0,55.94,68.56c.344,0,.687.031,1.032,0Zm9.708-7.407a14.62,14.62,0,0,1-7.063,3.7,14.3,14.3,0,0,1-3.584.317A14.876,14.876,0,0,1,56.5,36.17h.489a13.394,13.394,0,0,1,2.632.331,14.7,14.7,0,0,1,7.737,4.365,14.9,14.9,0,0,1-.675,21.029Zm9.909,16.778L69.413,69.5l3.557-2.783,7.175,9.177Z" transform="translate(-1 -1.895)"/>
        </g>
      </g>
    </g>
  </g>
</svg>
