<svg xmlns="http://www.w3.org/2000/svg" width="83" height="83" viewBox="0 0 83 83">
  <g id="Group_1208689" data-name="Group 1208689" transform="translate(-338.051 -3083)">
    <circle id="Ellipse_12656" data-name="Ellipse 12656" cx="41.5" cy="41.5" r="41.5" transform="translate(338.051 3083)" fill="#b7a8f1"/>
    <g id="Filled_stroke_cut_Ex" data-name="Filled stroke cut Ex" transform="translate(336.051 3065)">
      <path id="Path_1246825" data-name="Path 1246825" d="M0,0H7.455V17.705H6.989A6.989,6.989,0,0,1,0,10.716Z" transform="translate(26.233 63.894) rotate(-26.052)" fill="#fbb8b0"/>
      <path id="Path_1246826" data-name="Path 1246826" d="M0,0H7.455V17.705H6.989A6.989,6.989,0,0,1,0,10.716V0Z" transform="translate(31.256 60.169) rotate(-26.052)" fill="#fbb8b0"/>
      <path id="Path_1246827" data-name="Path 1246827" d="M151.4,248.588l30.208,8.5a1.165,1.165,0,0,0,1.437-.806l4.7-16.685-30.751.047Z" transform="translate(-119.628 -183.419)" fill="#63c521"/>
      <path id="Path_1246828" data-name="Path 1246828" d="M0,0H46.592V26.092H0Z" transform="translate(70.979 59.023) rotate(180)" fill="#9fdc6e"/>
      <path id="Path_1246829" data-name="Path 1246829" d="M128.456,38.523h-1.864V33.864H81.864v4.659H80V32.932A.932.932,0,0,1,80.932,32h46.592a.932.932,0,0,1,.932.932Z" transform="translate(-56.545)"/>
      <path id="Path_1246830" data-name="Path 1246830" d="M38.909,135.524V118.751l5.719-9.311a6.989,6.989,0,0,0-1.817-9.466l-1.107-.791L34.25,108.5h-1.7a1.165,1.165,0,0,1-1.165-1.165V88H29.638a2.33,2.33,0,0,0-2.284,1.873L24,106.637l2.8,13.046v15.841Z" transform="translate(-7.068 -49.477)" fill="#ffd4cf"/>
      <path id="Path_1246831" data-name="Path 1246831" d="M20.659,211.887H18.8V196.145L16.021,183.2a.933.933,0,0,1,0-.378l1.677-8.387,1.828.366-1.64,8.2,2.755,12.857a.933.933,0,0,1,.021.2Z" transform="translate(0 -125.841)"/>
      <ellipse id="Ellipse_12652" data-name="Ellipse 12652" cx="5.278" cy="5.655" rx="5.278" ry="5.655" transform="translate(42.705 40.05)" fill="#fbfef9"/>
      <path id="Path_1246832" data-name="Path 1246832" d="M238.523,109.046a6.523,6.523,0,1,1,6.523-6.523,6.523,6.523,0,0,1-6.523,6.523Zm0-11.182a4.659,4.659,0,1,0,4.659,4.659A4.659,4.659,0,0,0,238.523,97.864Z" transform="translate(-190.84 -56.545)"/>
      <path id="Path_1246833" data-name="Path 1246833" d="M384,112h5.591v1.864H384Z" transform="translate(-325.135 -70.682)"/>
      <path id="Path_1246834" data-name="Path 1246834" d="M85.734,68.659V86.364H55.059a7.892,7.892,0,0,0,.233-1.864H79.371a.932.932,0,0,0,.878-1.243,1.864,1.864,0,0,1,2.379-2.378A.932.932,0,0,0,83.87,80V67.568a.932.932,0,0,0-1.242-.879,1.864,1.864,0,0,1-2.485-1.757A.932.932,0,0,0,79.211,64H46.6a.932.932,0,0,0-.932.932A1.866,1.866,0,0,1,43.8,66.8a.932.932,0,0,0-.932.932V79.841a.932.932,0,0,0,.932.932,1.867,1.867,0,0,1,1.84,1.566l-3.22,4.025H41.168a.233.233,0,0,1-.233-.233V66.8A.932.932,0,0,0,40,65.864H38.256a3.27,3.27,0,0,0-3.2,2.622L33.755,75l1.828.366,1.3-6.514a1.4,1.4,0,0,1,1.371-1.124h.815v18.4a2.1,2.1,0,0,0,2.1,2.1h1.7a.932.932,0,0,0,.728-.349l6.9-8.629.389.278a6.051,6.051,0,0,1,1.575,8.2l-.01.016-5.719,9.311a.932.932,0,0,0-.138.488V114.32H48.46v-9.051a7.916,7.916,0,0,0,7.944.573l.419-.2a.932.932,0,0,0,.428-1.246l-.787-1.609a7.855,7.855,0,0,0,4.963-.667l.419-.2a.932.932,0,0,0,.428-1.246l-1.181-2.415,16.322,4.595A2.1,2.1,0,0,0,80,101.393l3.706-13.165h2.96A.932.932,0,0,0,87.6,87.3V68.659ZM51.973,78.01l-1.107-.791a.932.932,0,0,0-1.27.176L46.97,80.677a3.741,3.741,0,0,0-2.237-1.65V68.541a3.741,3.741,0,0,0,2.678-2.678H78.4a3.734,3.734,0,0,0,3.609,2.8v10.25a3.732,3.732,0,0,0-3.727,3.727h-23.2A7.9,7.9,0,0,0,51.973,78.01Zm2.064,10.72q.159-.248.3-.5H77.8L76.311,93.82a3.754,3.754,0,0,0-3.191,1.986L53.388,89.787ZM48.46,102.823V97.81L49.6,95.958l1.233,2.521a7.866,7.866,0,0,0,3.089,3.343l1.239,2.533a6.1,6.1,0,0,1-6.7-1.532Zm11.721-2.194a6.058,6.058,0,0,1-7.676-2.969l-1.038-2.121,7.218,2.032Zm18.025.258a.233.233,0,0,1-.287.161L51.107,93.5l1.273-2.073,21.032,6.415a.932.932,0,0,0,1.183-.694,1.864,1.864,0,0,1,2.219-1.424.931.931,0,0,0,1.1-.671l1.818-6.827h2.04Z" transform="translate(-15.687 -28.273)"/>
    </g>
  </g>
</svg>
