<svg xmlns="http://www.w3.org/2000/svg" xmlns:xlink="http://www.w3.org/1999/xlink" width="100" height="100" viewBox="0 0 100 100">
  <defs>
    <clipPath id="clip-path">
      <rect id="Rectangle_410831" data-name="Rectangle 410831" width="100" height="100" transform="translate(335.781 4440)" fill="#fff" stroke="#707070" stroke-width="1"/>
    </clipPath>
  </defs>
  <g id="Mask_Group_1099310" data-name="Mask Group 1099310" transform="translate(-335.781 -4440)" clip-path="url(#clip-path)">
    <g id="Group_1205788" data-name="Group 1205788" transform="translate(-470.656 2458.387)">
      <g id="Rectangle_410830" data-name="Rectangle 410830" transform="translate(806.951 1984)" fill="#b7a8f1" stroke="#7f74a8" stroke-width="3">
        <rect width="79.44" height="79.44" rx="10" stroke="none"/>
        <rect x="1.5" y="1.5" width="76.44" height="76.44" rx="8.5" fill="none"/>
      </g>
      <g id="calculation_7650833" transform="translate(819.449 1996.643)">
        <g id="Group_1205784" data-name="Group 1205784" transform="translate(0 0)">
          <g id="Group_1205744" data-name="Group 1205744" transform="translate(1.02 1.02)">
            <g id="Group_1205702" data-name="Group 1205702" transform="translate(9.426)">
              <path id="Path_1244224" data-name="Path 1244224" d="M62.713,4.05H24.14L8.73,19.46V62.1h6.692a12.579,12.579,0,1,1,9.616,20.687h26.6a5.439,5.439,0,0,1-5.44-5.44v-38.3a5.439,5.439,0,0,1,5.44-5.44H65.488V6.825A2.786,2.786,0,0,0,62.713,4.05Z" transform="translate(-8.73 -4.05)" fill="#e2e2e2"/>
            </g>
            <g id="Group_1205703" data-name="Group 1205703" transform="translate(34.139 0)" opacity="0.3">
              <path id="Path_1244225" data-name="Path 1244225" d="M56.211,4.05H26.9V24.261A21.37,21.37,0,0,0,48.268,45.629H58.931V6.77a2.719,2.719,0,0,0-2.72-2.72Z" transform="translate(-26.9 -4.05)" fill="#fff"/>
            </g>
            <g id="Group_1205704" data-name="Group 1205704" transform="translate(39.784 0)" opacity="0.5">
              <path id="Path_1244226" data-name="Path 1244226" d="M54.716,4.05H31.05a4.284,4.284,0,0,0,4.284,4.284H53.669v6.2A3.767,3.767,0,0,0,57.436,18.3V6.77a2.719,2.719,0,0,0-2.72-2.72Z" transform="translate(-31.05 -4.05)" fill="#fff"/>
            </g>
            <g id="Group_1205713" data-name="Group 1205713" transform="translate(0 48.371)">
              <g id="Group_1205705" data-name="Group 1205705" transform="translate(7.934 0)">
                <circle id="Ellipse_12609" data-name="Ellipse 12609" cx="12.581" cy="12.581" r="12.581" transform="translate(0 17.79) rotate(-45)" fill="#ffab03"/>
              </g>
              <g id="Group_1205706" data-name="Group 1205706" transform="translate(0 23.485)">
                <path id="Path_1244227" data-name="Path 1244227" d="M16.313,56.88H3.065A1.263,1.263,0,0,0,1.8,58.145v4.366a1.263,1.263,0,0,0,1.265,1.265H24.324a1.348,1.348,0,0,0,.721-.245A12.608,12.608,0,0,1,16.313,56.88Z" transform="translate(-1.8 -56.88)" fill="#ffab03"/>
              </g>
              <g id="Group_1205707" data-name="Group 1205707" transform="translate(0 16.589)">
                <path id="Path_1244228" data-name="Path 1244228" d="M14.939,53.021a11.814,11.814,0,0,1,.068-1.211H3.065A1.263,1.263,0,0,0,1.8,53.075v4.366a1.263,1.263,0,0,0,1.265,1.265H16.313A12.528,12.528,0,0,1,14.939,53.021Z" transform="translate(-1.8 -51.81)" fill="#ffab03"/>
              </g>
              <g id="Group_1205708" data-name="Group 1205708" transform="translate(5.06 9.68)">
                <path id="Path_1244229" data-name="Path 1244229" d="M16.578,46.73H6.785A1.263,1.263,0,0,0,5.52,47.995v4.366a1.263,1.263,0,0,0,1.265,1.265h6.882a12.506,12.506,0,0,1,2.911-6.9Z" transform="translate(-5.52 -46.73)" fill="#ffab03"/>
              </g>
              <g id="Group_1205709" data-name="Group 1205709" transform="translate(9.725 9.68)" opacity="0.3">
                <path id="Path_1244230" data-name="Path 1244230" d="M15.343,46.73H8.95v2.135a1.263,1.263,0,0,0,1.265,1.265h3.074a12.746,12.746,0,0,1,2.054-3.4Z" transform="translate(-8.95 -46.73)" fill="#fff"/>
              </g>
              <g id="Group_1205710" data-name="Group 1205710" transform="translate(4.665 16.589)" opacity="0.3">
                <path id="Path_1244231" data-name="Path 1244231" d="M13.7,53.021a11.814,11.814,0,0,1,.068-1.211H5.23v2.135A1.263,1.263,0,0,0,6.495,55.21h7.413A12.983,12.983,0,0,1,13.7,53.021Z" transform="translate(-5.23 -51.81)" fill="#fff"/>
              </g>
              <g id="Group_1205711" data-name="Group 1205711" transform="translate(4.665 23.485)" opacity="0.3">
                <path id="Path_1244232" data-name="Path 1244232" d="M15.077,56.88H5.23v2.135A1.263,1.263,0,0,0,6.495,60.28h11.1a12.911,12.911,0,0,1-2.516-3.4Z" transform="translate(-5.23 -56.88)" fill="#fff"/>
              </g>
              <g id="Group_1205712" data-name="Group 1205712" transform="translate(19.273 5.218)" opacity="0.3">
                <path id="Path_1244233" data-name="Path 1244233" d="M22.431,43.45a12.757,12.757,0,0,0-5.291,1.17,12.576,12.576,0,0,0,16.7,16.7A12.576,12.576,0,0,0,22.431,43.45Z" transform="translate(-15.97 -43.45)" fill="#fff"/>
              </g>
            </g>
            <g id="Group_1205714" data-name="Group 1205714" transform="translate(46.897 29.555)">
              <path id="Path_1244234" data-name="Path 1244234" d="M68.814,25.78H41.72a5.439,5.439,0,0,0-5.44,5.44V69.535a5.439,5.439,0,0,0,5.44,5.44H68.814a5.439,5.439,0,0,0,5.44-5.44V31.22a5.439,5.439,0,0,0-5.44-5.44Z" transform="translate(-36.28 -25.78)" fill="#4e6575"/>
            </g>
            <g id="Group_1205715" data-name="Group 1205715" transform="translate(60.498 29.555)" opacity="0.3">
              <path id="Path_1244235" data-name="Path 1244235" d="M65.213,25.78H46.28V57.294a5.439,5.439,0,0,0,5.44,5.44H70.653V31.22a5.439,5.439,0,0,0-5.44-5.44Z" transform="translate(-46.28 -25.78)" fill="#e2e2e2"/>
            </g>
            <g id="Group_1205716" data-name="Group 1205716" transform="translate(52.338 34.996)">
              <path id="Path_1244236" data-name="Path 1244236" d="M40.28,29.78H67.387V39.3H40.28Z" transform="translate(-40.28 -29.78)" fill="#7cb5e8"/>
            </g>
            <g id="Group_1205717" data-name="Group 1205717" transform="translate(59.138 34.996)" opacity="0.3">
              <path id="Path_1244237" data-name="Path 1244237" d="M45.28,31.14a4.075,4.075,0,0,0,4.08,4.08H65.573V29.78H45.28Z" transform="translate(-45.28 -29.78)" fill="#fff"/>
            </g>
            <g id="Group_1205718" data-name="Group 1205718" transform="translate(52.338 49.957)">
              <path id="Path_1244238" data-name="Path 1244238" d="M40.28,40.78h6.311v5.06H40.28Z" transform="translate(-40.28 -40.78)" fill="#ef4a51"/>
            </g>
            <g id="Group_1205719" data-name="Group 1205719" transform="translate(62.729 49.957)">
              <path id="Path_1244239" data-name="Path 1244239" d="M47.92,40.78h6.311v5.06H47.92Z" transform="translate(-47.92 -40.78)" fill="#ef4a51"/>
            </g>
            <g id="Group_1205720" data-name="Group 1205720" transform="translate(73.12 49.957)">
              <path id="Path_1244240" data-name="Path 1244240" d="M55.56,40.78h6.311v5.06H55.56Z" transform="translate(-55.56 -40.78)" fill="#ef4a51"/>
            </g>
            <g id="Group_1205721" data-name="Group 1205721" transform="translate(52.338 59.097)">
              <path id="Path_1244241" data-name="Path 1244241" d="M40.28,47.5h6.311v5.06H40.28Z" transform="translate(-40.28 -47.5)" fill="#ef4a51"/>
            </g>
            <g id="Group_1205722" data-name="Group 1205722" transform="translate(62.729 59.097)">
              <path id="Path_1244242" data-name="Path 1244242" d="M47.92,47.5h6.311v5.06H47.92Z" transform="translate(-47.92 -47.5)" fill="#ef4a51"/>
            </g>
            <g id="Group_1205723" data-name="Group 1205723" transform="translate(73.12 59.097)">
              <path id="Path_1244243" data-name="Path 1244243" d="M55.56,47.5h6.311v5.06H55.56Z" transform="translate(-55.56 -47.5)" fill="#ef4a51"/>
            </g>
            <g id="Group_1205724" data-name="Group 1205724" transform="translate(52.338 68.237)">
              <path id="Path_1244244" data-name="Path 1244244" d="M40.28,54.22h6.311v5.06H40.28Z" transform="translate(-40.28 -54.22)" fill="#ef4a51"/>
            </g>
            <g id="Group_1205725" data-name="Group 1205725" transform="translate(62.729 68.237)">
              <path id="Path_1244245" data-name="Path 1244245" d="M47.92,54.22h6.311v5.06H47.92Z" transform="translate(-47.92 -54.22)" fill="#ef4a51"/>
            </g>
            <g id="Group_1205726" data-name="Group 1205726" transform="translate(73.12 68.237)">
              <path id="Path_1244246" data-name="Path 1244246" d="M55.56,54.22h6.311v5.06H55.56Z" transform="translate(-55.56 -54.22)" fill="#ef4a51"/>
            </g>
            <g id="Group_1205727" data-name="Group 1205727" transform="translate(40.804 5.25)">
              <path id="Path_1244247" data-name="Path 1244247" d="M41.321,7.91a9.521,9.521,0,1,0,9.521,9.521H41.321Z" transform="translate(-31.8 -7.91)" fill="#8aba55"/>
            </g>
            <g id="Group_1205728" data-name="Group 1205728" transform="translate(50.325 5.25)">
              <path id="Path_1244248" data-name="Path 1244248" d="M38.8,7.91v9.521h9.521A9.531,9.531,0,0,0,38.8,7.91Z" transform="translate(-38.8 -7.91)" fill="#ffab03"/>
            </g>
            <g id="Group_1205729" data-name="Group 1205729" transform="translate(44.789 5.25)" opacity="0.3">
              <path id="Path_1244249" data-name="Path 1244249" d="M40.266,7.91a9.392,9.392,0,0,0-4.434,1.1A9.525,9.525,0,0,0,48.685,21.878,9.543,9.543,0,0,0,40.266,7.91Z" transform="translate(-34.73 -7.91)" fill="#fff"/>
            </g>
            <g id="Group_1205730" data-name="Group 1205730" transform="translate(9.426 0)">
              <path id="Path_1244250" data-name="Path 1244250" d="M21.379,19.46A2.763,2.763,0,0,0,24.14,16.7V4.05L8.73,19.46Z" transform="translate(-8.73 -4.05)" fill="#5e7588"/>
            </g>
            <g id="Group_1205731" data-name="Group 1205731" transform="translate(22.524 78.506)">
              <path id="Path_1244251" data-name="Path 1244251" d="M18.36,62.015h3.21a12.459,12.459,0,0,1-2.489-.245A1.348,1.348,0,0,1,18.36,62.015Z" transform="translate(-18.36 -61.77)" fill="#e2e2e2"/>
            </g>
            <g id="Group_1205741" data-name="Group 1205741" transform="translate(54.024 49.957)" opacity="0.3">
              <g id="Group_1205732" data-name="Group 1205732" transform="translate(20.783)">
                <path id="Path_1244252" data-name="Path 1244252" d="M56.8,41.025a2.728,2.728,0,0,0,2.72,2.72h1.9V40.78H56.8Z" transform="translate(-56.8 -40.78)" fill="#fff"/>
              </g>
              <g id="Group_1205733" data-name="Group 1205733" transform="translate(20.783 9.14)">
                <path id="Path_1244253" data-name="Path 1244253" d="M56.8,47.745a2.728,2.728,0,0,0,2.72,2.72h1.9V47.5H56.8Z" transform="translate(-56.8 -47.5)" fill="#fff"/>
              </g>
              <g id="Group_1205734" data-name="Group 1205734" transform="translate(20.783 18.294)">
                <path id="Path_1244254" data-name="Path 1244254" d="M56.8,54.475a2.728,2.728,0,0,0,2.72,2.72h1.9V54.23H56.8Z" transform="translate(-56.8 -54.23)" fill="#fff"/>
              </g>
              <g id="Group_1205735" data-name="Group 1205735" transform="translate(10.391)">
                <path id="Path_1244255" data-name="Path 1244255" d="M49.16,41.025a2.728,2.728,0,0,0,2.72,2.72h1.9V40.78H49.16Z" transform="translate(-49.16 -40.78)" fill="#fff"/>
              </g>
              <g id="Group_1205736" data-name="Group 1205736" transform="translate(10.391 9.14)">
                <path id="Path_1244256" data-name="Path 1244256" d="M49.16,47.745a2.728,2.728,0,0,0,2.72,2.72h1.9V47.5H49.16Z" transform="translate(-49.16 -47.5)" fill="#fff"/>
              </g>
              <g id="Group_1205737" data-name="Group 1205737" transform="translate(10.391 18.294)">
                <path id="Path_1244257" data-name="Path 1244257" d="M49.16,54.475a2.728,2.728,0,0,0,2.72,2.72h1.9V54.23H49.16Z" transform="translate(-49.16 -54.23)" fill="#fff"/>
              </g>
              <g id="Group_1205738" data-name="Group 1205738">
                <path id="Path_1244258" data-name="Path 1244258" d="M41.52,41.025a2.728,2.728,0,0,0,2.72,2.72h1.9V40.78H41.52Z" transform="translate(-41.52 -40.78)" fill="#fff"/>
              </g>
              <g id="Group_1205739" data-name="Group 1205739" transform="translate(0 9.14)">
                <path id="Path_1244259" data-name="Path 1244259" d="M41.52,47.745a2.728,2.728,0,0,0,2.72,2.72h1.9V47.5H41.52Z" transform="translate(-41.52 -47.5)" fill="#fff"/>
              </g>
              <g id="Group_1205740" data-name="Group 1205740" transform="translate(0 18.294)">
                <path id="Path_1244260" data-name="Path 1244260" d="M41.52,54.475a2.728,2.728,0,0,0,2.72,2.72h1.9V54.23H41.52Z" transform="translate(-41.52 -54.23)" fill="#fff"/>
              </g>
            </g>
            <g id="Group_1205742" data-name="Group 1205742" transform="translate(16.362 0)" opacity="0.3">
              <path id="Path_1244261" data-name="Path 1244261" d="M21.841,18.222A2.792,2.792,0,0,0,22.3,16.7V4.05L13.83,12.524A10.253,10.253,0,0,0,21.841,18.222Z" transform="translate(-13.83 -4.05)" fill="#e2e2e2"/>
            </g>
            <g id="Group_1205743" data-name="Group 1205743" transform="translate(66.673 29.542)" opacity="0.5">
              <path id="Path_1244262" data-name="Path 1244262" d="M63.578,25.77H50.82a2.949,2.949,0,0,0,2.951,2.951h9.915a2.728,2.728,0,0,1,2.72,2.72v4.271a2.6,2.6,0,0,0,2.6,2.6V31.2a5.416,5.416,0,0,0-5.427-5.427Z" transform="translate(-50.82 -25.77)" fill="#fff"/>
            </g>
          </g>
          <g id="Group_1205783" data-name="Group 1205783">
            <g id="Group_1205745" data-name="Group 1205745" transform="translate(9.426 0)">
              <path id="Path_1244263" data-name="Path 1244263" d="M9,60.67a1.028,1.028,0,0,1-1.02-1.02V19.73a1.019,1.019,0,0,1,.3-.721L23.689,3.6a1.019,1.019,0,0,1,.721-.3H62.983a3.791,3.791,0,0,1,3.781,3.781v18.77a1.02,1.02,0,1,1-2.04,0V7.095a1.744,1.744,0,0,0-1.741-1.741H24.832L10.02,20.152v39.5A1.01,1.01,0,0,1,9,60.67Z" transform="translate(-7.98 -3.3)"/>
            </g>
            <g id="Group_1205746" data-name="Group 1205746" transform="translate(66.17 25.217)">
              <path id="Path_1244264" data-name="Path 1244264" d="M50.72,28.219A1.028,1.028,0,0,1,49.7,27.2V22.86a1.02,1.02,0,1,1,2.04,0V27.2A1.019,1.019,0,0,1,50.72,28.219Z" transform="translate(-49.7 -21.84)"/>
            </g>
            <g id="Group_1205747" data-name="Group 1205747" transform="translate(34.425 78.751)">
              <path id="Path_1244265" data-name="Path 1244265" d="M45.293,63.24H27.38a1.02,1.02,0,0,1,0-2.04H45.293a1.02,1.02,0,0,1,0,2.04Z" transform="translate(-26.36 -61.2)"/>
            </g>
            <g id="Group_1205748" data-name="Group 1205748" transform="translate(46.897 29.555)">
              <path id="Path_1244266" data-name="Path 1244266" d="M69.084,76.266H41.991a6.466,6.466,0,0,1-6.461-6.461V43.256a1.02,1.02,0,0,1,2.04,0v26.55a4.429,4.429,0,0,0,4.42,4.42H69.084a4.429,4.429,0,0,0,4.42-4.42V31.491a4.429,4.429,0,0,0-4.42-4.42H41.991a4.429,4.429,0,0,0-4.42,4.42V39a1.02,1.02,0,0,1-2.04,0V31.491a6.466,6.466,0,0,1,6.461-6.461H69.084a6.466,6.466,0,0,1,6.461,6.461V69.805a6.466,6.466,0,0,1-6.461,6.461Z" transform="translate(-35.53 -25.03)"/>
            </g>
            <g id="Group_1205749" data-name="Group 1205749" transform="translate(9.426)">
              <path id="Path_1244267" data-name="Path 1244267" d="M21.649,20.75H9a1.02,1.02,0,0,1,0-2.04H21.649a1.744,1.744,0,0,0,1.741-1.741V4.32a1.02,1.02,0,0,1,2.04,0V16.969A3.782,3.782,0,0,1,21.649,20.75Z" transform="translate(-7.98 -3.3)"/>
            </g>
            <g id="Group_1205750" data-name="Group 1205750" transform="translate(52.338 34.996)">
              <path id="Path_1244268" data-name="Path 1244268" d="M67.644,40.591H40.55a1.028,1.028,0,0,1-1.02-1.02V30.05a1.028,1.028,0,0,1,1.02-1.02H67.644a1.028,1.028,0,0,1,1.02,1.02v9.521a1.019,1.019,0,0,1-1.02,1.02ZM41.57,38.551H66.624V31.07H41.57Z" transform="translate(-39.53 -29.03)"/>
            </g>
            <g id="Group_1205751" data-name="Group 1205751" transform="translate(52.338 49.957)">
              <path id="Path_1244269" data-name="Path 1244269" d="M46.861,47.13H40.55a1.028,1.028,0,0,1-1.02-1.02V41.05a1.028,1.028,0,0,1,1.02-1.02h6.311a1.028,1.028,0,0,1,1.02,1.02v5.06A1.028,1.028,0,0,1,46.861,47.13ZM41.57,45.09h4.271V42.07H41.57Z" transform="translate(-39.53 -40.03)"/>
            </g>
            <g id="Group_1205752" data-name="Group 1205752" transform="translate(62.729 49.957)">
              <path id="Path_1244270" data-name="Path 1244270" d="M54.5,47.13H48.19a1.028,1.028,0,0,1-1.02-1.02V41.05a1.028,1.028,0,0,1,1.02-1.02H54.5a1.028,1.028,0,0,1,1.02,1.02v5.06A1.019,1.019,0,0,1,54.5,47.13ZM49.21,45.09h4.271V42.07H49.21Z" transform="translate(-47.17 -40.03)"/>
            </g>
            <g id="Group_1205753" data-name="Group 1205753" transform="translate(73.12 49.957)">
              <path id="Path_1244271" data-name="Path 1244271" d="M62.141,47.13H55.83a1.028,1.028,0,0,1-1.02-1.02V41.05a1.028,1.028,0,0,1,1.02-1.02h6.311a1.028,1.028,0,0,1,1.02,1.02v5.06A1.019,1.019,0,0,1,62.141,47.13ZM56.85,45.09h4.271V42.07H56.85Z" transform="translate(-54.81 -40.03)"/>
            </g>
            <g id="Group_1205754" data-name="Group 1205754" transform="translate(52.338 59.097)">
              <path id="Path_1244272" data-name="Path 1244272" d="M46.861,53.85H40.55a1.028,1.028,0,0,1-1.02-1.02V47.77a1.028,1.028,0,0,1,1.02-1.02h6.311a1.028,1.028,0,0,1,1.02,1.02v5.06A1.019,1.019,0,0,1,46.861,53.85ZM41.57,51.81h4.271V48.79H41.57Z" transform="translate(-39.53 -46.75)"/>
            </g>
            <g id="Group_1205755" data-name="Group 1205755" transform="translate(62.729 59.097)">
              <path id="Path_1244273" data-name="Path 1244273" d="M54.5,53.85H48.19a1.028,1.028,0,0,1-1.02-1.02V47.77a1.028,1.028,0,0,1,1.02-1.02H54.5a1.028,1.028,0,0,1,1.02,1.02v5.06A1.01,1.01,0,0,1,54.5,53.85ZM49.21,51.81h4.271V48.79H49.21Z" transform="translate(-47.17 -46.75)"/>
            </g>
            <g id="Group_1205756" data-name="Group 1205756" transform="translate(73.12 59.097)">
              <path id="Path_1244274" data-name="Path 1244274" d="M62.141,53.85H55.83a1.028,1.028,0,0,1-1.02-1.02V47.77a1.028,1.028,0,0,1,1.02-1.02h6.311a1.028,1.028,0,0,1,1.02,1.02v5.06A1.01,1.01,0,0,1,62.141,53.85ZM56.85,51.81h4.271V48.79H56.85Z" transform="translate(-54.81 -46.75)"/>
            </g>
            <g id="Group_1205757" data-name="Group 1205757" transform="translate(52.338 68.251)">
              <path id="Path_1244275" data-name="Path 1244275" d="M46.861,60.58H40.55a1.028,1.028,0,0,1-1.02-1.02V54.5a1.028,1.028,0,0,1,1.02-1.02h6.311a1.028,1.028,0,0,1,1.02,1.02v5.06A1.028,1.028,0,0,1,46.861,60.58ZM41.57,58.54h4.271V55.52H41.57Z" transform="translate(-39.53 -53.48)"/>
            </g>
            <g id="Group_1205758" data-name="Group 1205758" transform="translate(62.729 68.251)">
              <path id="Path_1244276" data-name="Path 1244276" d="M54.5,60.58H48.19a1.028,1.028,0,0,1-1.02-1.02V54.5a1.028,1.028,0,0,1,1.02-1.02H54.5a1.028,1.028,0,0,1,1.02,1.02v5.06A1.019,1.019,0,0,1,54.5,60.58ZM49.21,58.54h4.271V55.52H49.21Z" transform="translate(-47.17 -53.48)"/>
            </g>
            <g id="Group_1205759" data-name="Group 1205759" transform="translate(73.12 68.251)">
              <path id="Path_1244277" data-name="Path 1244277" d="M62.141,60.58H55.83a1.028,1.028,0,0,1-1.02-1.02V54.5a1.028,1.028,0,0,1,1.02-1.02h6.311a1.028,1.028,0,0,1,1.02,1.02v5.06A1.019,1.019,0,0,1,62.141,60.58ZM56.85,58.54h4.271V55.52H56.85Z" transform="translate(-54.81 -53.48)"/>
            </g>
            <g id="Group_1205760" data-name="Group 1205760" transform="translate(13.152 53.589)">
              <path id="Path_1244278" data-name="Path 1244278" d="M24.321,69.9a13.6,13.6,0,1,1,13.6-13.6A13.624,13.624,0,0,1,24.321,69.9Zm0-25.162A11.561,11.561,0,1,0,35.882,56.3,11.569,11.569,0,0,0,24.321,44.74Z" transform="translate(-10.72 -42.7)"/>
            </g>
            <g id="Group_1205761" data-name="Group 1205761" transform="translate(5.046 58.064)">
              <path id="Path_1244279" data-name="Path 1244279" d="M7.045,54.926A2.281,2.281,0,0,1,4.76,52.641V48.275A2.281,2.281,0,0,1,7.045,45.99h9.793a1.02,1.02,0,1,1,0,2.04H7.045a.244.244,0,0,0-.245.245v4.366a.244.244,0,0,0,.245.245,1.02,1.02,0,1,1,0,2.04Z" transform="translate(-4.76 -45.99)"/>
            </g>
            <g id="Group_1205762" data-name="Group 1205762" transform="translate(0 64.959)">
              <path id="Path_1244280" data-name="Path 1244280" d="M3.335,60A2.281,2.281,0,0,1,1.05,57.711V53.345A2.281,2.281,0,0,1,3.335,51.06H15.277a1.02,1.02,0,1,1,0,2.04H3.335a.244.244,0,0,0-.245.245v4.366a.244.244,0,0,0,.245.245,1.02,1.02,0,1,1,0,2.04Z" transform="translate(-1.05 -51.06)"/>
            </g>
            <g id="Group_1205763" data-name="Group 1205763" transform="translate(0 71.855)">
              <path id="Path_1244281" data-name="Path 1244281" d="M24.58,65.066H3.335A2.281,2.281,0,0,1,1.05,62.781V58.415A2.281,2.281,0,0,1,3.335,56.13H16.583a1.02,1.02,0,1,1,0,2.04H3.335a.244.244,0,0,0-.245.245v4.366a.244.244,0,0,0,.245.245H24.594a1.02,1.02,0,1,1-.014,2.04Z" transform="translate(-1.05 -56.13)"/>
            </g>
            <g id="Group_1205764" data-name="Group 1205764" transform="translate(16.825 57.261)">
              <path id="Path_1244282" data-name="Path 1244282" d="M23.349,65.258a9.919,9.919,0,1,1,6.6-2.5,1.028,1.028,0,0,1-1.442-.082,1.016,1.016,0,0,1,.082-1.442,7.88,7.88,0,1,0-5.236,2,7.71,7.71,0,0,0,2.775-.5,1.024,1.024,0,1,1,.721,1.918,10.563,10.563,0,0,1-3.5.612Z" transform="translate(-13.42 -45.4)"/>
            </g>
            <g id="Group_1205765" data-name="Group 1205765" transform="translate(23.503 61.709)">
              <path id="Path_1244283" data-name="Path 1244283" d="M21.581,59.633a3.251,3.251,0,0,1-3.251-3.251,1.02,1.02,0,0,1,2.04,0,1.211,1.211,0,1,0,1.211-1.211,3.251,3.251,0,1,1,3.251-3.251,1.02,1.02,0,0,1-2.04,0,1.211,1.211,0,1,0-1.211,1.211,3.251,3.251,0,1,1,0,6.5Z" transform="translate(-18.33 -48.67)"/>
            </g>
            <g id="Group_1205766" data-name="Group 1205766" transform="translate(25.734 60.172)">
              <path id="Path_1244284" data-name="Path 1244284" d="M20.99,51.117a1.028,1.028,0,0,1-1.02-1.02V48.56a1.02,1.02,0,0,1,2.04,0V50.1A1.028,1.028,0,0,1,20.99,51.117Z" transform="translate(-19.97 -47.54)"/>
            </g>
            <g id="Group_1205767" data-name="Group 1205767" transform="translate(25.734 70.631)">
              <path id="Path_1244285" data-name="Path 1244285" d="M20.99,58.807a1.028,1.028,0,0,1-1.02-1.02V56.25a1.02,1.02,0,1,1,2.04,0v1.537A1.028,1.028,0,0,1,20.99,58.807Z" transform="translate(-19.97 -55.23)"/>
            </g>
            <g id="Group_1205768" data-name="Group 1205768" transform="translate(40.804 5.25)">
              <path id="Path_1244286" data-name="Path 1244286" d="M41.591,28.242a10.541,10.541,0,0,1,0-21.082,1.028,1.028,0,0,1,1.02,1.02v8.5h8.5a1.028,1.028,0,0,1,1.02,1.02A10.55,10.55,0,0,1,41.591,28.242ZM40.571,9.268a8.5,8.5,0,1,0,9.466,9.466H41.591a1.028,1.028,0,0,1-1.02-1.02Z" transform="translate(-31.05 -7.16)"/>
            </g>
            <g id="Group_1205769" data-name="Group 1205769" transform="translate(50.325 5.25)">
              <path id="Path_1244287" data-name="Path 1244287" d="M48.591,18.721H39.07a1.028,1.028,0,0,1-1.02-1.02V8.18a1.028,1.028,0,0,1,1.02-1.02A10.559,10.559,0,0,1,49.611,17.7,1.019,1.019,0,0,1,48.591,18.721Zm-8.5-2.04H47.5a8.534,8.534,0,0,0-7.426-7.426v7.426Z" transform="translate(-38.05 -7.16)"/>
            </g>
            <g id="Group_1205773" data-name="Group 1205773" transform="translate(14.118 22.755)">
              <g id="Group_1205772" data-name="Group 1205772" transform="translate(0 0)">
                <g id="Group_1205770" data-name="Group 1205770">
                  <path id="Path_1244288" data-name="Path 1244288" d="M23.209,22.07H12.45a1.02,1.02,0,0,1,0-2.04H23.209a1.02,1.02,0,1,1,0,2.04Z" transform="translate(-11.43 -20.03)"/>
                </g>
                <g id="Group_1205771" data-name="Group 1205771" transform="translate(15.682)">
                  <path id="Path_1244289" data-name="Path 1244289" d="M26.537,22.07H23.98a1.02,1.02,0,1,1,0-2.04h2.557a1.02,1.02,0,0,1,0,2.04Z" transform="translate(-22.96 -20.03)"/>
                </g>
              </g>
            </g>
            <g id="Group_1205777" data-name="Group 1205777" transform="translate(14.118 27.379)">
              <g id="Group_1205776" data-name="Group 1205776">
                <g id="Group_1205774" data-name="Group 1205774">
                  <path id="Path_1244290" data-name="Path 1244290" d="M23.209,25.47H12.45a1.02,1.02,0,0,1,0-2.04H23.209a1.02,1.02,0,0,1,0,2.04Z" transform="translate(-11.43 -23.43)"/>
                </g>
                <g id="Group_1205775" data-name="Group 1205775" transform="translate(15.682)">
                  <path id="Path_1244291" data-name="Path 1244291" d="M26.537,25.47H23.98a1.02,1.02,0,0,1,0-2.04h2.557a1.02,1.02,0,0,1,0,2.04Z" transform="translate(-22.96 -23.43)"/>
                </g>
              </g>
            </g>
            <g id="Group_1205781" data-name="Group 1205781" transform="translate(14.118 32.017)">
              <g id="Group_1205780" data-name="Group 1205780">
                <g id="Group_1205778" data-name="Group 1205778">
                  <path id="Path_1244292" data-name="Path 1244292" d="M23.209,28.88H12.45a1.02,1.02,0,0,1,0-2.04H23.209a1.02,1.02,0,1,1,0,2.04Z" transform="translate(-11.43 -26.84)"/>
                </g>
                <g id="Group_1205779" data-name="Group 1205779" transform="translate(15.682)">
                  <path id="Path_1244293" data-name="Path 1244293" d="M26.537,28.88H23.98a1.02,1.02,0,1,1,0-2.04h2.557a1.02,1.02,0,0,1,0,2.04Z" transform="translate(-22.96 -26.84)"/>
                </g>
              </g>
            </g>
            <g id="Group_1205782" data-name="Group 1205782" transform="translate(22.524 78.499)">
              <path id="Path_1244294" data-name="Path 1244294" d="M21.84,63.307H18.63a1.02,1.02,0,1,1,0-2.04.266.266,0,0,0,.122-.068,1.019,1.019,0,0,1,.789-.163,11.765,11.765,0,0,0,2.3.231,1.02,1.02,0,0,1,0,2.04Z" transform="translate(-17.61 -61.015)"/>
            </g>
          </g>
        </g>
        <g id="Group_1205787" data-name="Group 1205787" transform="translate(14.135 37.879)">
          <g id="Group_1205785" data-name="Group 1205785" transform="translate(0 0.534)">
            <path id="Path_1244295" data-name="Path 1244295" d="M12.459,47.1a1.009,1.009,0,0,1-.721-.3,1.026,1.026,0,0,1,0-1.442L19.5,37.592a1.018,1.018,0,0,1,1.442,0l3.482,3.482,9.235-9.235a1.019,1.019,0,0,1,1.442,1.442l-9.956,9.956a1.052,1.052,0,0,1-1.442,0l-3.482-3.482L13.18,46.8A1.069,1.069,0,0,1,12.459,47.1Z" transform="translate(-11.442 -31.542)"/>
          </g>
          <g id="Group_1205786" data-name="Group 1205786" transform="translate(17.637)">
            <path id="Path_1244296" data-name="Path 1244296" d="M29.932,37.692a1.028,1.028,0,0,1-1.02-1.02V33.19H25.43a1.02,1.02,0,0,1,0-2.04h4.5a1.028,1.028,0,0,1,1.02,1.02v4.5A1.019,1.019,0,0,1,29.932,37.692Z" transform="translate(-24.41 -31.15)"/>
          </g>
        </g>
      </g>
    </g>
  </g>
</svg>
