<svg xmlns="http://www.w3.org/2000/svg" xmlns:xlink="http://www.w3.org/1999/xlink" width="400" height="233" viewBox="0 0 400 233">
  <defs>
    <clipPath id="clip-path">
      <rect id="Rectangle_411170" data-name="Rectangle 411170" width="320" height="217" transform="translate(1053.051 5995.089)" fill="#fff" stroke="#707070" stroke-width="1"/>
    </clipPath>
    <clipPath id="clip-path-2">
      <rect id="Rectangle_411169" data-name="Rectangle 411169" width="272.118" height="255.703" fill="none"/>
    </clipPath>
  </defs>
  <g id="Group_1208854" data-name="Group 1208854" transform="translate(-1020 -5988.172)">
    <rect id="Rectangle_410811" data-name="Rectangle 410811" width="400" height="233" transform="translate(1020 5988.172)" fill="#f0edfc"/>
    <g id="Mask_Group_1099351" data-name="Mask Group 1099351" transform="translate(0 8.911)" clip-path="url(#clip-path)">
      <g id="Group_1208853" data-name="Group 1208853" transform="translate(1077.358 6000.932)">
        <g id="Group_1208852" data-name="Group 1208852" clip-path="url(#clip-path-2)">
          <path id="Path_1247313" data-name="Path 1247313" d="M259.125,158.023H81.134a2.016,2.016,0,0,1-2.018-2.015V19.578a2.016,2.016,0,0,1,2.018-2.015H259.125a2.017,2.017,0,0,1,2.018,2.015V156.009a2.017,2.017,0,0,1-2.018,2.015" transform="translate(-20.211 -4.487)" fill="#fff"/>
          <path id="Path_1247314" data-name="Path 1247314" d="M258.993,158.274H81a2.4,2.4,0,0,1-2.4-2.4V19.445a2.4,2.4,0,0,1,2.4-2.4H258.993a2.4,2.4,0,0,1,2.4,2.4v136.43a2.4,2.4,0,0,1-2.4,2.4M81,17.814a1.633,1.633,0,0,0-1.631,1.631v136.43A1.633,1.633,0,0,0,81,157.507H258.993a1.632,1.632,0,0,0,1.631-1.631V19.445a1.633,1.633,0,0,0-1.631-1.631Z" transform="translate(-20.079 -4.354)"/>
          <path id="Path_1247315" data-name="Path 1247315" d="M81.133,17.563H259.124a2.016,2.016,0,0,1,2.018,2.015v9.528H79.115V19.578a2.017,2.017,0,0,1,2.018-2.015" transform="translate(-20.21 -4.487)" fill="#ccf5ec"/>
          <path id="Path_1247316" data-name="Path 1247316" d="M261.395,29.359H78.6V19.445a2.4,2.4,0,0,1,2.4-2.4H258.993a2.4,2.4,0,0,1,2.4,2.4ZM79.37,28.589H260.624V19.445a1.633,1.633,0,0,0-1.631-1.631H81a1.633,1.633,0,0,0-1.632,1.631Z" transform="translate(-20.079 -4.354)"/>
          <path id="Path_1247317" data-name="Path 1247317" d="M106.582,24.522a2.306,2.306,0,1,1,2.306,2.306,2.307,2.307,0,0,1-2.306-2.306" transform="translate(-27.227 -5.675)" fill="#fff"/>
          <path id="Path_1247318" data-name="Path 1247318" d="M108.756,27.082a2.69,2.69,0,1,1,2.69-2.692,2.693,2.693,0,0,1-2.69,2.692m0-4.612a1.921,1.921,0,1,0,1.922,1.92,1.922,1.922,0,0,0-1.922-1.92" transform="translate(-27.095 -5.544)"/>
          <path id="Path_1247319" data-name="Path 1247319" d="M96.248,24.522a2.306,2.306,0,1,1,2.306,2.306,2.306,2.306,0,0,1-2.306-2.306" transform="translate(-24.587 -5.675)" fill="#fff"/>
          <path id="Path_1247320" data-name="Path 1247320" d="M98.422,27.082a2.69,2.69,0,1,1,2.69-2.692,2.693,2.693,0,0,1-2.69,2.692m0-4.612a1.921,1.921,0,1,0,1.919,1.92,1.924,1.924,0,0,0-1.919-1.92" transform="translate(-24.455 -5.544)"/>
          <path id="Path_1247321" data-name="Path 1247321" d="M85.914,24.522a2.306,2.306,0,1,1,2.306,2.306,2.307,2.307,0,0,1-2.306-2.306" transform="translate(-21.947 -5.675)" fill="#3f7266"/>
          <path id="Path_1247322" data-name="Path 1247322" d="M88.088,27.082A2.69,2.69,0,1,1,90.78,24.39a2.693,2.693,0,0,1-2.692,2.692m0-4.612a1.921,1.921,0,1,0,1.922,1.92,1.922,1.922,0,0,0-1.922-1.92" transform="translate(-21.815 -5.544)"/>
          <path id="Path_1247323" data-name="Path 1247323" d="M122.143,108.259H35.22a2.014,2.014,0,0,1-2.015-2.015V40.957a2.014,2.014,0,0,1,2.015-2.015h86.923a2.016,2.016,0,0,1,2.017,2.015v65.288a2.016,2.016,0,0,1-2.017,2.015" transform="translate(-8.482 -9.948)" fill="#fff"/>
          <path id="Path_1247324" data-name="Path 1247324" d="M122.011,108.514H35.088a2.4,2.4,0,0,1-2.4-2.4V40.828a2.4,2.4,0,0,1,2.4-2.4h86.923a2.4,2.4,0,0,1,2.4,2.4v65.285a2.4,2.4,0,0,1-2.4,2.4M35.088,39.2a1.633,1.633,0,0,0-1.631,1.631v65.285a1.635,1.635,0,0,0,1.631,1.631h86.923a1.633,1.633,0,0,0,1.631-1.631V40.828a1.631,1.631,0,0,0-1.631-1.631Z" transform="translate(-8.351 -9.816)"/>
          <rect id="Rectangle_411147" data-name="Rectangle 411147" width="10.1" height="7.402" transform="translate(31.631 46.952)" fill="#fff"/>
          <path id="Path_1247325" data-name="Path 1247325" d="M52.452,70.714h-10.1a.385.385,0,0,1-.384-.384v-7.4a.386.386,0,0,1,.384-.386h10.1a.384.384,0,0,1,.384.386v7.4a.384.384,0,0,1-.384.384m-9.714-.77h9.33V63.314h-9.33Z" transform="translate(-10.721 -15.977)"/>
          <rect id="Rectangle_411148" data-name="Rectangle 411148" width="10.1" height="7.402" transform="translate(48.389 46.952)" fill="#fff"/>
          <path id="Path_1247326" data-name="Path 1247326" d="M74.96,70.714H64.86a.385.385,0,0,1-.384-.384v-7.4a.386.386,0,0,1,.384-.386h10.1a.386.386,0,0,1,.386.386v7.4a.386.386,0,0,1-.386.384m-9.713-.77h9.33V63.314h-9.33Z" transform="translate(-16.471 -15.977)"/>
          <rect id="Rectangle_411149" data-name="Rectangle 411149" width="10.1" height="7.402" transform="translate(65.151 46.952)" fill="#fff"/>
          <path id="Path_1247327" data-name="Path 1247327" d="M97.472,70.714h-10.1a.384.384,0,0,1-.383-.384v-7.4a.384.384,0,0,1,.383-.386h10.1a.384.384,0,0,1,.384.386v7.4a.384.384,0,0,1-.384.384m-9.716-.77h9.33V63.314h-9.33Z" transform="translate(-22.222 -15.977)"/>
          <rect id="Rectangle_411150" data-name="Rectangle 411150" width="10.1" height="7.402" transform="translate(81.909 46.952)" fill="#fff"/>
          <path id="Path_1247328" data-name="Path 1247328" d="M119.98,70.714h-10.1a.385.385,0,0,1-.384-.384v-7.4a.386.386,0,0,1,.384-.386h10.1a.386.386,0,0,1,.386.386v7.4a.386.386,0,0,1-.386.384m-9.713-.77h9.33V63.314h-9.33Z" transform="translate(-27.971 -15.977)"/>
          <rect id="Rectangle_411151" data-name="Rectangle 411151" width="10.1" height="7.402" transform="translate(98.67 46.952)" fill="#ccf5ec"/>
          <path id="Path_1247329" data-name="Path 1247329" d="M142.875,70.714H132.007V62.543h10.868Zm-10.1-.77h9.33V63.314h-9.33Z" transform="translate(-33.722 -15.977)"/>
          <rect id="Rectangle_411152" data-name="Rectangle 411152" width="10.1" height="7.402" transform="translate(31.631 59.43)" fill="#ccf5ec"/>
          <path id="Path_1247330" data-name="Path 1247330" d="M52.836,87.477H41.968V79.3H52.836Zm-10.1-.77h9.33V80.074h-9.33Z" transform="translate(-10.721 -20.258)"/>
          <rect id="Rectangle_411153" data-name="Rectangle 411153" width="10.1" height="7.402" transform="translate(48.389 59.43)" fill="#fff"/>
          <path id="Path_1247331" data-name="Path 1247331" d="M74.96,87.477H64.86a.386.386,0,0,1-.384-.386v-7.4a.386.386,0,0,1,.384-.386h10.1a.386.386,0,0,1,.386.386v7.4a.386.386,0,0,1-.386.386m-9.713-.77h9.33V80.074h-9.33Z" transform="translate(-16.471 -20.258)"/>
          <rect id="Rectangle_411154" data-name="Rectangle 411154" width="10.1" height="7.402" transform="translate(65.151 59.43)" fill="#fff"/>
          <path id="Path_1247332" data-name="Path 1247332" d="M97.472,87.477h-10.1a.384.384,0,0,1-.383-.386v-7.4a.384.384,0,0,1,.383-.386h10.1a.384.384,0,0,1,.384.386v7.4a.384.384,0,0,1-.384.386m-9.716-.77h9.33V80.074h-9.33Z" transform="translate(-22.222 -20.258)"/>
          <rect id="Rectangle_411155" data-name="Rectangle 411155" width="10.1" height="7.402" transform="translate(81.909 59.43)" fill="#fff"/>
          <path id="Path_1247333" data-name="Path 1247333" d="M119.98,87.477h-10.1a.386.386,0,0,1-.384-.386v-7.4a.386.386,0,0,1,.384-.386h10.1a.386.386,0,0,1,.386.386v7.4a.386.386,0,0,1-.386.386m-9.713-.77h9.33V80.074h-9.33Z" transform="translate(-27.971 -20.258)"/>
          <rect id="Rectangle_411156" data-name="Rectangle 411156" width="10.1" height="7.402" transform="translate(98.67 59.43)" fill="#fff"/>
          <path id="Path_1247334" data-name="Path 1247334" d="M142.49,87.477h-10.1a.384.384,0,0,1-.383-.386v-7.4a.384.384,0,0,1,.383-.386h10.1a.385.385,0,0,1,.386.386v7.4a.385.385,0,0,1-.386.386m-9.714-.77h9.33V80.074h-9.33Z" transform="translate(-33.722 -20.258)"/>
          <rect id="Rectangle_411157" data-name="Rectangle 411157" width="10.1" height="7.404" transform="translate(31.631 71.909)" fill="#fff"/>
          <path id="Path_1247335" data-name="Path 1247335" d="M52.452,104.237h-10.1a.385.385,0,0,1-.384-.384v-7.4a.385.385,0,0,1,.384-.384h10.1a.384.384,0,0,1,.384.384v7.4a.384.384,0,0,1-.384.384m-9.714-.77h9.33V96.834h-9.33Z" transform="translate(-10.721 -24.541)"/>
          <rect id="Rectangle_411158" data-name="Rectangle 411158" width="10.1" height="7.404" transform="translate(48.389 71.909)" fill="#fff"/>
          <path id="Path_1247336" data-name="Path 1247336" d="M74.96,104.237H64.86a.385.385,0,0,1-.384-.384v-7.4a.385.385,0,0,1,.384-.384h10.1a.386.386,0,0,1,.386.384v7.4a.386.386,0,0,1-.386.384m-9.713-.77h9.33V96.834h-9.33Z" transform="translate(-16.471 -24.541)"/>
          <rect id="Rectangle_411159" data-name="Rectangle 411159" width="10.1" height="7.404" transform="translate(65.151 71.909)" fill="#ccf5ec"/>
          <path id="Path_1247337" data-name="Path 1247337" d="M97.856,104.237H86.988V96.066H97.856Zm-10.1-.77h9.33V96.834h-9.33Z" transform="translate(-22.222 -24.541)"/>
          <rect id="Rectangle_411160" data-name="Rectangle 411160" width="10.1" height="7.404" transform="translate(81.909 71.909)" fill="#fff"/>
          <path id="Path_1247338" data-name="Path 1247338" d="M119.98,104.237h-10.1a.385.385,0,0,1-.384-.384v-7.4a.385.385,0,0,1,.384-.384h10.1a.386.386,0,0,1,.386.384v7.4a.386.386,0,0,1-.386.384m-9.713-.77h9.33V96.834h-9.33Z" transform="translate(-27.971 -24.541)"/>
          <rect id="Rectangle_411161" data-name="Rectangle 411161" width="10.1" height="7.404" transform="translate(98.67 71.909)" fill="#fff"/>
          <path id="Path_1247339" data-name="Path 1247339" d="M142.49,104.237h-10.1a.384.384,0,0,1-.383-.384v-7.4a.384.384,0,0,1,.383-.384h10.1a.385.385,0,0,1,.386.384v7.4a.385.385,0,0,1-.386.384m-9.714-.77h9.33V96.834h-9.33Z" transform="translate(-33.722 -24.541)"/>
          <rect id="Rectangle_411162" data-name="Rectangle 411162" width="10.1" height="7.402" transform="translate(31.631 84.39)" fill="#fcdf39"/>
          <path id="Path_1247340" data-name="Path 1247340" d="M52.836,121H41.968v-8.171H52.836Zm-10.1-.768h9.33V113.6h-9.33Z" transform="translate(-10.721 -28.822)"/>
          <rect id="Rectangle_411163" data-name="Rectangle 411163" width="10.1" height="7.402" transform="translate(48.389 84.39)" fill="#fff"/>
          <path id="Path_1247341" data-name="Path 1247341" d="M74.96,121H64.86a.384.384,0,0,1-.384-.384v-7.4a.385.385,0,0,1,.384-.384h10.1a.386.386,0,0,1,.386.384v7.4a.384.384,0,0,1-.386.384m-9.713-.768h9.33V113.6h-9.33Z" transform="translate(-16.471 -28.822)"/>
          <rect id="Rectangle_411164" data-name="Rectangle 411164" width="10.1" height="7.402" transform="translate(65.151 84.39)" fill="#fff"/>
          <path id="Path_1247342" data-name="Path 1247342" d="M97.472,121h-10.1a.382.382,0,0,1-.383-.384v-7.4a.384.384,0,0,1,.383-.384h10.1a.384.384,0,0,1,.384.384v7.4a.382.382,0,0,1-.384.384m-9.716-.768h9.33V113.6h-9.33Z" transform="translate(-22.222 -28.822)"/>
          <rect id="Rectangle_411165" data-name="Rectangle 411165" width="10.1" height="7.402" transform="translate(81.909 84.39)" fill="#fff"/>
          <path id="Path_1247343" data-name="Path 1247343" d="M119.98,121h-10.1a.384.384,0,0,1-.384-.384v-7.4a.385.385,0,0,1,.384-.384h10.1a.386.386,0,0,1,.386.384v7.4a.384.384,0,0,1-.386.384m-9.713-.768h9.33V113.6h-9.33Z" transform="translate(-27.971 -28.822)"/>
          <rect id="Rectangle_411166" data-name="Rectangle 411166" width="10.1" height="7.402" transform="translate(98.67 84.39)" fill="#fff"/>
          <path id="Path_1247344" data-name="Path 1247344" d="M142.49,121h-10.1a.382.382,0,0,1-.383-.384v-7.4a.384.384,0,0,1,.383-.384h10.1a.385.385,0,0,1,.386.384v7.4a.384.384,0,0,1-.386.384m-9.714-.768h9.33V113.6h-9.33Z" transform="translate(-33.722 -28.822)"/>
          <path id="Path_1247345" data-name="Path 1247345" d="M124.16,50.567V40.957a2.017,2.017,0,0,0-2.017-2.015H35.22a2.015,2.015,0,0,0-2.015,2.015v9.609Z" transform="translate(-8.482 -9.948)" fill="#b7a8f1"/>
          <rect id="Rectangle_411167" data-name="Rectangle 411167" width="44.936" height="7.309" transform="translate(8.064 118.852) rotate(-45)" fill="#7fe5cf"/>
          <path id="Path_1247346" data-name="Path 1247346" d="M15.812,154.256,10.1,148.543l32.318-32.318,5.714,5.711Zm-4.623-5.714,4.623,4.625,31.229-31.231-4.623-4.623Z" transform="translate(-2.58 -29.69)"/>
          <path id="Path_1247347" data-name="Path 1247347" d="M75.9,119.349a23.12,23.12,0,1,1,0-32.7,23.122,23.122,0,0,1,0,32.7" transform="translate(-9.306 -20.406)" fill="#ccf5ec"/>
          <path id="Path_1247348" data-name="Path 1247348" d="M59.415,126.372a23.509,23.509,0,1,1,16.62-6.886,23.337,23.337,0,0,1-16.62,6.886m0-46.238a22.733,22.733,0,1,0,16.077,6.658,22.584,22.584,0,0,0-16.077-6.658" transform="translate(-9.174 -20.274)"/>
          <path id="Path_1247349" data-name="Path 1247349" d="M1.7,165.1h0a5.793,5.793,0,0,1,0-8.2l18.835-18.837a5.8,5.8,0,1,1,8.2,8.2L9.9,165.1a5.8,5.8,0,0,1-8.2,0" transform="translate(0 -34.835)" fill="#b7a8f1"/>
          <path id="Path_1247350" data-name="Path 1247350" d="M73.6,117.046a16.8,16.8,0,1,1,0-23.758,16.8,16.8,0,0,1,0,23.758" transform="translate(-11.474 -22.574)" fill="#fff"/>
          <path id="Path_1247351" data-name="Path 1247351" d="M61.585,122.211a17.171,17.171,0,1,1,12.152-5.025,17.127,17.127,0,0,1-12.152,5.025m0-33.583a16.408,16.408,0,1,0,11.609,4.8,16.358,16.358,0,0,0-11.609-4.8m11.881,28.285h0Z" transform="translate(-11.345 -22.442)"/>
          <path id="Path_1247352" data-name="Path 1247352" d="M78.015,101.11A16.8,16.8,0,1,1,57.658,88.87a16.8,16.8,0,0,1,20.357,12.24" transform="translate(-11.474 -22.574)" fill="#fff"/>
          <path id="Path_1247353" data-name="Path 1247353" d="M61.553,122.223a17.235,17.235,0,1,1,4.182-.516,17.3,17.3,0,0,1-4.182.516m.061-33.606a16.563,16.563,0,0,0-4,.493,16.317,16.317,0,1,0,4-.493" transform="translate(-11.341 -22.442)"/>
          <path id="Path_1247354" data-name="Path 1247354" d="M64.4,100.144a4.693,4.693,0,1,1-4.723-4.664,4.7,4.7,0,0,1,4.723,4.664" transform="translate(-14.054 -24.391)" fill="#fff"/>
          <path id="Path_1247355" data-name="Path 1247355" d="M59.575,105.121a5.078,5.078,0,0,1-.032-10.156h.032a5.078,5.078,0,0,1,.032,10.156Zm0-9.389h-.028a4.309,4.309,0,0,0,.028,8.619H59.6a4.309,4.309,0,0,0-.028-8.619" transform="translate(-13.921 -24.259)"/>
          <path id="Path_1247356" data-name="Path 1247356" d="M77.011,118.258a4.695,4.695,0,1,1-4.723-4.666,4.692,4.692,0,0,1,4.723,4.666" transform="translate(-17.274 -29.018)" fill="#fff"/>
          <path id="Path_1247357" data-name="Path 1247357" d="M72.184,123.234a5.079,5.079,0,0,1-.03-10.157,5.146,5.146,0,0,1,3.6,1.465,5.08,5.08,0,0,1-3.537,8.692Zm0-9.389h-.028a4.323,4.323,0,1,0,.028,0" transform="translate(-17.143 -28.886)"/>
          <path id="Path_1247358" data-name="Path 1247358" d="M58.813,117.429a.385.385,0,0,1-.316-.607L71.185,98.808a.385.385,0,0,1,.629.443L59.126,117.267a.385.385,0,0,1-.313.162" transform="translate(-14.926 -25.199)"/>
          <path id="Path_1247359" data-name="Path 1247359" d="M53.144,190.892a13.977,13.977,0,1,0,13.978-13.976,13.979,13.979,0,0,0-13.978,13.976" transform="translate(-13.576 -45.194)" fill="#ccf5ec"/>
          <path id="Path_1247360" data-name="Path 1247360" d="M66.991,205.122a14.361,14.361,0,1,1,14.362-14.36,14.378,14.378,0,0,1-14.362,14.36m0-27.954a13.592,13.592,0,1,0,13.592,13.594,13.607,13.607,0,0,0-13.592-13.594" transform="translate(-13.444 -45.062)"/>
          <path id="Path_1247361" data-name="Path 1247361" d="M78.877,208.95a.39.39,0,0,1-.345-.214.385.385,0,0,1,.175-.515,11.541,11.541,0,0,0,4.419-3.851.384.384,0,1,1,.636.432,12.272,12.272,0,0,1-4.714,4.107.38.38,0,0,1-.171.041" transform="translate(-20.051 -52.165)"/>
          <path id="Path_1247362" data-name="Path 1247362" d="M63.321,206.081a.39.39,0,0,1-.143-.028,12.322,12.322,0,0,1-7.419-14.382.385.385,0,1,1,.747.185,11.548,11.548,0,0,0,6.956,13.482.385.385,0,0,1-.141.743" transform="translate(-14.152 -48.889)"/>
          <path id="Path_1247363" data-name="Path 1247363" d="M59.9,183.921a.376.376,0,0,1-.257-.1.385.385,0,0,1-.029-.544,12.293,12.293,0,0,1,13.642-3.2.385.385,0,1,1-.281.716,11.517,11.517,0,0,0-12.788,3,.39.39,0,0,1-.287.127" transform="translate(-15.203 -45.782)"/>
          <path id="Path_1247364" data-name="Path 1247364" d="M85.929,191.4a.385.385,0,0,1-.382-.345,11.506,11.506,0,0,0-4.963-8.34.385.385,0,1,1,.433-.636,12.265,12.265,0,0,1,5.294,8.9.382.382,0,0,1-.341.422.252.252,0,0,1-.041,0" transform="translate(-20.543 -46.496)"/>
          <path id="Path_1247365" data-name="Path 1247365" d="M73.193,200.014H67.479a1.752,1.752,0,0,1-1.749-1.749V197.4a.385.385,0,0,1,.771,0v.861a.981.981,0,0,0,.978.979h5.714a.983.983,0,0,0,.981-.979v-3.471a.982.982,0,0,0-.981-.98H67.479a1.752,1.752,0,0,1-1.749-1.749v-3.471a1.75,1.75,0,0,1,1.749-1.749h5.714a1.75,1.75,0,0,1,1.749,1.749v.861a.384.384,0,1,1-.768,0v-.861a.982.982,0,0,0-.981-.979H67.479a.979.979,0,0,0-.978.979v3.471a.979.979,0,0,0,.978.979h5.714a1.75,1.75,0,0,1,1.749,1.75v3.471a1.752,1.752,0,0,1-1.749,1.749" transform="translate(-16.791 -47.731)"/>
          <path id="Path_1247366" data-name="Path 1247366" d="M71.785,187a.386.386,0,0,1-.386-.384v-1.785a.385.385,0,0,1,.771,0v1.785a.385.385,0,0,1-.384.384" transform="translate(-18.239 -47.119)"/>
          <path id="Path_1247367" data-name="Path 1247367" d="M71.785,206.051a.386.386,0,0,1-.386-.384v-1.785a.385.385,0,0,1,.771,0v1.785a.385.385,0,0,1-.384.384" transform="translate(-18.239 -51.985)"/>
          <path id="Path_1247368" data-name="Path 1247368" d="M296.344,159.009H228.285a2.017,2.017,0,0,1-2.017-2.018V48.942a2.015,2.015,0,0,1,2.017-2.015h68.059a2.014,2.014,0,0,1,2.014,2.015v108.05a2.016,2.016,0,0,1-2.014,2.018" transform="translate(-57.802 -11.988)" fill="#fff"/>
          <path id="Path_1247369" data-name="Path 1247369" d="M296.212,159.261H228.153a2.4,2.4,0,0,1-2.4-2.4V48.81a2.4,2.4,0,0,1,2.4-2.4h68.059a2.4,2.4,0,0,1,2.4,2.4V156.86a2.4,2.4,0,0,1-2.4,2.4M228.153,47.179a1.633,1.633,0,0,0-1.631,1.631V156.86a1.633,1.633,0,0,0,1.631,1.631h68.059a1.633,1.633,0,0,0,1.631-1.631V48.81a1.632,1.632,0,0,0-1.631-1.631Z" transform="translate(-57.67 -11.855)"/>
          <path id="Path_1247370" data-name="Path 1247370" d="M287.7,37.828H272.521V35.4a5.578,5.578,0,1,0-11.157,0v2.426H246.188a1.8,1.8,0,0,0-1.8,1.8V46.6a1.8,1.8,0,0,0,1.8,1.8H287.7a1.8,1.8,0,0,0,1.8-1.8V39.625a1.8,1.8,0,0,0-1.8-1.8m-20.756-.173A2.253,2.253,0,1,1,269.2,35.4a2.254,2.254,0,0,1-2.254,2.254" transform="translate(-62.43 -7.618)" fill="#7f74a8"/>
          <path id="Path_1247371" data-name="Path 1247371" d="M287.566,48.653H246.054a2.186,2.186,0,0,1-2.182-2.184V39.5a2.185,2.185,0,0,1,2.182-2.183h14.793V35.27a5.963,5.963,0,1,1,11.926,0v2.042h14.793a2.183,2.183,0,0,1,2.181,2.183v6.974a2.183,2.183,0,0,1-2.181,2.184M246.054,38.082a1.414,1.414,0,0,0-1.411,1.413v6.974a1.414,1.414,0,0,0,1.411,1.413h41.513a1.414,1.414,0,0,0,1.413-1.413V39.5a1.415,1.415,0,0,0-1.413-1.413H272.389a.384.384,0,0,1-.384-.386V35.27a5.194,5.194,0,0,0-10.389,0V37.7a.385.385,0,0,1-.384.386Zm20.756-.175a2.637,2.637,0,1,1,2.639-2.637,2.639,2.639,0,0,1-2.639,2.637m0-4.507a1.87,1.87,0,1,0,1.87,1.87,1.871,1.871,0,0,0-1.87-1.87" transform="translate(-62.299 -7.487)"/>
          <path id="Path_1247372" data-name="Path 1247372" d="M249.252,122.029V70.645a2.015,2.015,0,0,1,2.015-2.015h82.125a2.015,2.015,0,0,1,2.015,2.015v51.384a2.014,2.014,0,0,1-2.015,2.015H251.267a2.014,2.014,0,0,1-2.015-2.015" transform="translate(-63.673 -17.532)" fill="#ccf5ec"/>
          <path id="Path_1247373" data-name="Path 1247373" d="M333.259,124.3H251.134a2.4,2.4,0,0,1-2.4-2.4V70.513a2.4,2.4,0,0,1,2.4-2.4h82.125a2.4,2.4,0,0,1,2.4,2.4V121.9a2.4,2.4,0,0,1-2.4,2.4M251.134,68.882a1.633,1.633,0,0,0-1.631,1.631V121.9a1.633,1.633,0,0,0,1.631,1.631h82.125a1.634,1.634,0,0,0,1.631-1.631V70.513a1.634,1.634,0,0,0-1.631-1.631Z" transform="translate(-63.54 -17.4)"/>
          <path id="Path_1247374" data-name="Path 1247374" d="M238.023,66.046v0Z" transform="translate(-60.804 -16.872)" fill="#fff"/>
          <path id="Path_1247375" data-name="Path 1247375" d="M237.89,125.56a.386.386,0,0,1-.386-.384V65.914a.385.385,0,0,1,.771,0v59.262a.385.385,0,0,1-.384.384" transform="translate(-60.672 -16.74)"/>
          <path id="Path_1247376" data-name="Path 1247376" d="M269.669,104.151h-6.643a2.014,2.014,0,0,1-2.015-2.015V95.493a2.016,2.016,0,0,1,2.015-2.017h6.643a2.019,2.019,0,0,1,2.018,2.017v6.643a2.017,2.017,0,0,1-2.018,2.015" transform="translate(-66.677 -23.879)" fill="#fff"/>
          <path id="Path_1247377" data-name="Path 1247377" d="M269.536,104.4h-6.643a2.4,2.4,0,0,1-2.4-2.4V95.361a2.4,2.4,0,0,1,2.4-2.4h6.643a2.4,2.4,0,0,1,2.4,2.4V102a2.4,2.4,0,0,1-2.4,2.4m-6.643-10.677a1.635,1.635,0,0,0-1.631,1.634V102a1.633,1.633,0,0,0,1.631,1.631h6.643A1.632,1.632,0,0,0,271.167,102V95.361a1.635,1.635,0,0,0-1.631-1.634Z" transform="translate(-66.544 -23.747)"/>
          <path id="Path_1247378" data-name="Path 1247378" d="M345.69,89.413H331.351a2.016,2.016,0,0,1-2.015-2.018V80.753a2.015,2.015,0,0,1,2.015-2.015H345.69a2.015,2.015,0,0,1,2.015,2.015V87.4a2.016,2.016,0,0,1-2.015,2.018" transform="translate(-84.131 -20.114)" fill="#fff"/>
          <path id="Path_1247379" data-name="Path 1247379" d="M345.558,89.665H331.219a2.4,2.4,0,0,1-2.4-2.4V80.622a2.4,2.4,0,0,1,2.4-2.4h14.339a2.4,2.4,0,0,1,2.4,2.4v6.642a2.4,2.4,0,0,1-2.4,2.4M331.219,78.991a1.632,1.632,0,0,0-1.629,1.631v6.642a1.632,1.632,0,0,0,1.629,1.631h14.339a1.633,1.633,0,0,0,1.631-1.631V80.622a1.633,1.633,0,0,0-1.631-1.631Z" transform="translate(-83.999 -19.983)"/>
          <path id="Path_1247380" data-name="Path 1247380" d="M273.373,127.438H261.842a1.632,1.632,0,1,1,0-3.265h11.532a1.632,1.632,0,0,1,0,3.265" transform="translate(-66.472 -31.721)"/>
          <path id="Path_1247381" data-name="Path 1247381" d="M298.015,127.438H286.484a1.632,1.632,0,0,1,0-3.265h11.531a1.632,1.632,0,0,1,0,3.265" transform="translate(-72.767 -31.721)"/>
          <path id="Path_1247382" data-name="Path 1247382" d="M322.656,127.438H311.125a1.632,1.632,0,0,1,0-3.265h11.531a1.632,1.632,0,1,1,0,3.265" transform="translate(-79.062 -31.721)"/>
          <path id="Path_1247383" data-name="Path 1247383" d="M347.3,127.438H335.768a1.632,1.632,0,1,1,0-3.265H347.3a1.632,1.632,0,0,1,0,3.265" transform="translate(-85.357 -31.721)"/>
          <path id="Path_1247384" data-name="Path 1247384" d="M299.717,184.134H251.994a.384.384,0,0,1,0-.768h47.722a.384.384,0,1,1,0,.768" transform="translate(-64.276 -46.842)"/>
          <path id="Path_1247385" data-name="Path 1247385" d="M331.561,53.337a12.888,12.888,0,1,1-12.89-12.89,12.89,12.89,0,0,1,12.89,12.89" transform="translate(-78.114 -10.332)" fill="#fff"/>
          <path id="Path_1247386" data-name="Path 1247386" d="M318.539,66.475A13.272,13.272,0,1,1,331.812,53.2a13.288,13.288,0,0,1-13.274,13.271m0-25.775a12.5,12.5,0,1,0,12.5,12.5,12.518,12.518,0,0,0-12.5-12.5" transform="translate(-77.982 -10.201)"/>
          <path id="Path_1247387" data-name="Path 1247387" d="M320.471,58.8a.769.769,0,0,1-.586-.27l-6.872-8.081a.769.769,0,1,1,1.172-1l6.186,7.273,10.661-17.34a.769.769,0,1,1,1.31.8L321.128,58.438a.77.77,0,0,1-.6.363.578.578,0,0,1-.061,0" transform="translate(-79.914 -9.968)"/>
          <path id="Path_1247388" data-name="Path 1247388" d="M247.733,66.142H216.066a2.017,2.017,0,0,1-2.016-2.017V32.457a2.015,2.015,0,0,1,2.016-2.015h31.668a2.014,2.014,0,0,1,2.015,2.015V64.125a2.016,2.016,0,0,1-2.015,2.017" transform="translate(-54.68 -7.777)" fill="#fff"/>
          <path id="Path_1247389" data-name="Path 1247389" d="M247.6,66.393H215.933a2.4,2.4,0,0,1-2.4-2.4V32.324a2.4,2.4,0,0,1,2.4-2.4H247.6a2.4,2.4,0,0,1,2.4,2.4V63.992a2.4,2.4,0,0,1-2.4,2.4m-31.668-35.7a1.633,1.633,0,0,0-1.631,1.631V63.992a1.633,1.633,0,0,0,1.631,1.631H247.6a1.631,1.631,0,0,0,1.629-1.631V32.324a1.631,1.631,0,0,0-1.629-1.631Z" transform="translate(-54.548 -7.644)"/>
          <path id="Path_1247390" data-name="Path 1247390" d="M220.516,45.286h0Z" transform="translate(-56.332 -11.569)" fill="#fcdf39"/>
          <path id="Path_1247391" data-name="Path 1247391" d="M237.923,45.538h-17.54a.384.384,0,1,1,0-.768h17.54a.384.384,0,1,1,0,.768" transform="translate(-56.2 -11.437)"/>
          <path id="Path_1247392" data-name="Path 1247392" d="M220.516,50.634h0Z" transform="translate(-56.332 -12.935)" fill="#fcdf39"/>
          <path id="Path_1247393" data-name="Path 1247393" d="M246.14,50.886H220.383a.385.385,0,1,1,0-.77H246.14a.385.385,0,0,1,0,.77" transform="translate(-56.2 -12.802)"/>
          <path id="Path_1247394" data-name="Path 1247394" d="M220.516,55.98h0Z" transform="translate(-56.332 -14.3)" fill="#fcdf39"/>
          <path id="Path_1247395" data-name="Path 1247395" d="M246.454,56.232h-26.07a.385.385,0,1,1,0-.77h26.07a.385.385,0,0,1,0,.77" transform="translate(-56.2 -14.168)"/>
          <path id="Path_1247396" data-name="Path 1247396" d="M220.516,61.326h0Z" transform="translate(-56.332 -15.666)" fill="#fcdf39"/>
          <path id="Path_1247397" data-name="Path 1247397" d="M246.454,61.58h-26.07a.385.385,0,1,1,0-.77h26.07a.385.385,0,0,1,0,.77" transform="translate(-56.2 -15.534)"/>
          <path id="Path_1247398" data-name="Path 1247398" d="M220.516,66.674h0Z" transform="translate(-56.332 -17.032)" fill="#fcdf39"/>
          <path id="Path_1247399" data-name="Path 1247399" d="M225.981,66.926h-5.6a.385.385,0,1,1,0-.77h5.6a.385.385,0,0,1,0,.77" transform="translate(-56.2 -16.9)"/>
          <path id="Path_1247400" data-name="Path 1247400" d="M239.674,21.95l-1.815-1.815-1.815,1.815-1.815-1.815-1.814,1.815-1.741-1.742V35.122l1.741-1.743,1.814,1.815,1.815-1.815,1.815,1.815,1.815-1.815,1.74,1.743V20.21Z" transform="translate(-58.927 -5.144)" fill="#b7a8f1"/>
          <path id="Path_1247401" data-name="Path 1247401" d="M234.1,35.448h0a.39.39,0,0,1-.272-.112l-1.543-1.543-1.467,1.467a.386.386,0,0,1-.659-.273V20.078a.386.386,0,0,1,.659-.273l1.467,1.467,1.543-1.543a.4.4,0,0,1,.545,0l1.543,1.543,1.543-1.543a.388.388,0,0,1,.545,0l1.543,1.543,1.47-1.467a.38.38,0,0,1,.418-.084.386.386,0,0,1,.239.357V34.989a.387.387,0,0,1-.239.355.382.382,0,0,1-.418-.085l-1.47-1.467L238,35.335a.388.388,0,0,1-.545,0l-1.543-1.543-1.543,1.543a.389.389,0,0,1-.273.112m1.815-2.584a.378.378,0,0,1,.272.114l1.543,1.542,1.545-1.542a.378.378,0,0,1,.543,0l1.083,1.083V21.007l-1.083,1.082a.379.379,0,0,1-.543,0l-1.545-1.542-1.543,1.542a.382.382,0,0,1-.545,0L234.1,20.546l-1.543,1.542a.379.379,0,0,1-.543,0l-1.086-1.082V34.058l1.086-1.081a.378.378,0,0,1,.543,0l1.543,1.542,1.543-1.542a.377.377,0,0,1,.273-.114" transform="translate(-58.794 -5.012)"/>
          <path id="Path_1247402" data-name="Path 1247402" d="M160.523,142.01s6.291-13.353-3.246-15.225,3.246,15.225,3.246,15.225" transform="translate(-39.274 -32.351)"/>
          <path id="Path_1247403" data-name="Path 1247403" d="M99.27,315.2s-2-.255-2.462,4.6-1.077,11.747,23.851,13.532,46.47-1.831,39.7-18.941-61.089.811-61.089.811" transform="translate(-24.696 -78.422)" fill="#b7a8f1"/>
          <path id="Path_1247404" data-name="Path 1247404" d="M131.369,333.981c-3.7,0-7.4-.164-10.87-.414-12.156-.87-19.544-3.041-22.583-6.635-2.083-2.463-1.829-5.154-1.622-7.317.214-2.269.788-3.789,1.7-4.521a1.775,1.775,0,0,1,1.089-.427c3.028-.993,54.73-17.672,61.5-.564,1.894,4.784,1.695,8.8-.6,11.919-4.566,6.227-16.62,7.958-28.617,7.958M99.092,315.437c-.125,0-1.638.089-2.033,4.248-.2,2.126-.432,4.534,1.443,6.749,2.9,3.428,10.113,5.511,22.051,6.365,14.523,1.045,33.044.634,38.812-7.231,2.124-2.9,2.295-6.658.5-11.184-6.561-16.579-60.069.857-60.61,1.033l-.082.028-.08-.009Z" transform="translate(-24.564 -78.278)"/>
          <path id="Path_1247405" data-name="Path 1247405" d="M158.537,250.564c0,7.385,2.505,16.574,3.051,25.527.418,6.842-.345,14.709-4.046,18.182-7.924,7.442-23.924,7.488-33.681,7.488-10.153,0-23.953-1.213-29.546-6.259-8.456-7.629-11.929-31.495-11.929-44.11,0-23.283,17.958-42.159,40.112-42.159s36.039,18.047,36.039,41.33" transform="translate(-21.046 -53.45)" fill="#7f74a8"/>
          <path id="Path_1247406" data-name="Path 1247406" d="M110.133,210.8c-8.256,1.543-38.127,5.582-39.274,62.749-.718,35.793,43.572,5.377,43.572,5.377Z" transform="translate(-18.099 -53.851)" fill="#7f74a8"/>
          <path id="Path_1247407" data-name="Path 1247407" d="M150.475,211.135c20.661-.007,37.55,14.932,47.018,25.729,15.634,17.831,23.324,7.358,20.661,17.282-1.774,6.61-2.721,16.581-6.683,19.444-8.571,6.19-25.428-8.519-33.1-14.755-8.7-7.067-28.966-25.645-24.884-29.725s-11.808-17.972-3.008-17.974" transform="translate(-37.75 -53.936)" fill="#7f74a8"/>
          <path id="Path_1247408" data-name="Path 1247408" d="M244.17,211.629c.184,5.407-4.968,59.4-20.01,62.1-11.1,2-13.28-22.938-13.28-22.938s7.611-23.66,15.344-42.2c1.967-4.719,17.84-.062,17.946,3.039" transform="translate(-53.871 -52.772)" fill="#7f74a8"/>
          <path id="Path_1247409" data-name="Path 1247409" d="M129.337,312.773c-13.446,0-28.238-2.313-32.342-6.736-6.534-7.035-3.649-17.521-1.738-24.462.327-1.192.638-2.322.867-3.307,1.481-6.365,2.633-19.762,1.145-27.12a.385.385,0,1,1,.754-.154c1.508,7.46.348,21.015-1.15,27.447-.234,1-.545,2.138-.877,3.339-1.974,7.181-4.682,17.013,1.561,23.735,4.064,4.379,20.9,7.228,37.511,6.34,12.724-.675,21.786-3.423,24.864-7.539s4.38-9.987,3.968-17.933c-.223-4.3-1.284-12.295-2.308-20.021-.908-6.845-1.767-13.308-1.944-16.5a.385.385,0,0,1,.363-.4.363.363,0,0,1,.4.363c.175,3.164,1.031,9.614,1.938,16.446,1.029,7.739,2.092,15.745,2.315,20.082.42,8.133-.927,14.162-4.121,18.433-3.215,4.3-12.487,7.158-25.441,7.847-1.867.1-3.805.15-5.77.15" transform="translate(-23.743 -63.724)" fill="#fff"/>
          <path id="Path_1247410" data-name="Path 1247410" d="M224.035,257.2a.382.382,0,0,1-.307-.153c-4.793-6.311-14.325-16.061-14.421-16.158a.385.385,0,1,1,.55-.539c.1.1,9.659,9.885,14.484,16.232a.387.387,0,0,1-.075.54.379.379,0,0,1-.232.077" transform="translate(-53.441 -61.369)" fill="#fff"/>
          <path id="Path_1247411" data-name="Path 1247411" d="M155.87,161.948c3.5-3.778,3.2-8.215.763-7.208a2.582,2.582,0,0,1-2.812-.659,103.924,103.924,0,0,0-11.2-21.938s-16.179-11.588-31.152-.523c-15.818,11.688-13.235,23.5-6.72,33.317,5.352,8.06,19.611,10.5,19.611,10.5l-5.613,6.415-.529,7.751a18.2,18.2,0,0,0,12.072,4.521,12.843,12.843,0,0,0,9.775-4.38l-.162-7.208h-.016c5.265-.182,14.523-2.038,16.166-12.649a25.445,25.445,0,0,0-.184-7.933l0,0" transform="translate(-25.458 -32.401)" fill="#fff"/>
          <path id="Path_1247412" data-name="Path 1247412" d="M129.793,194.388a18.432,18.432,0,0,1-11.972-4.632.391.391,0,0,1-.118-.3l.529-7.753a.4.4,0,0,1,.1-.227l5.171-5.909c-2.926-.595-14.419-3.337-19.2-10.534-8.632-13.006-6.406-24.073,6.813-33.842,15.023-11.1,31.438.4,31.6.52a.369.369,0,0,1,.093.093,105.292,105.292,0,0,1,11.217,21.938,2.161,2.161,0,0,0,2.336.525,1.521,1.521,0,0,1,1.979.445c.922,1.325.252,4.525-2.188,7.24a25.705,25.705,0,0,1,.153,7.871c-1.638,10.593-10.634,12.69-16.137,12.958l.153,6.833a.379.379,0,0,1-.077.238,13.109,13.109,0,0,1-10.075,4.534c-.125,0-.25,0-.372,0m-11.309-5.068a18.023,18.023,0,0,0,11.318,4.3c.115,0,.232,0,.348,0a12.664,12.664,0,0,0,9.4-4.126l-.156-6.993a.392.392,0,0,1-.01-.088.382.382,0,0,1,.364-.384c5.216-.177,14.205-2.017,15.8-12.322a25.045,25.045,0,0,0-.182-7.812.4.4,0,0,1,.036-.234.463.463,0,0,1,.039-.061.149.149,0,0,1,.025-.032c2.374-2.56,2.907-5.463,2.246-6.413-.082-.118-.329-.473-1.054-.175a2.94,2.94,0,0,1-3.215-.727.377.377,0,0,1-.106-.161A104.006,104.006,0,0,0,142.21,132.3c-1.031-.707-16.5-10.943-30.643-.488-12.822,9.473-14.991,20.2-6.629,32.795,5.2,7.826,19.214,10.3,19.355,10.329a.387.387,0,0,1,.3.25.383.383,0,0,1-.075.381l-5.527,6.318Zm37.256-27.492h0Z" transform="translate(-25.331 -32.28)"/>
          <path id="Path_1247413" data-name="Path 1247413" d="M167.768,163.408c.411,1.392.1,2.712-.688,2.944s-1.768-.707-2.179-2.1-.1-2.712.691-2.946,1.765.707,2.176,2.1" transform="translate(-42.079 -41.198)"/>
          <path id="Path_1247414" data-name="Path 1247414" d="M160.791,155.363a.247.247,0,0,1-.059,0,.386.386,0,0,1-.323-.439c.557-3.676,3.26-3.423,3.292-3.421a.38.38,0,0,1,.339.423.384.384,0,0,1-.42.34c-.084-.007-2.007-.15-2.45,2.774a.384.384,0,0,1-.379.327" transform="translate(-40.977 -38.7)"/>
          <path id="Path_1247415" data-name="Path 1247415" d="M171.036,182.209c-2.662,0-4.273-2.942-4.289-2.976a.382.382,0,0,1,.157-.52.386.386,0,0,1,.52.157c.07.134,1.788,3.253,4.5,2.435a.385.385,0,1,1,.22.738,3.829,3.829,0,0,1-1.106.166" transform="translate(-42.585 -45.642)"/>
          <path id="Path_1247416" data-name="Path 1247416" d="M147.347,169.8c-.207-1.061-5.17-5.032-8.673-.97-3.837,4.448-.409,10.756,6.588,11.136Z" transform="translate(-35.017 -42.671)" fill="#fff"/>
          <path id="Path_1247417" data-name="Path 1247417" d="M145.127,180.216H145.1c-3.737-.2-6.815-2.1-8.03-4.966a6.329,6.329,0,0,1,1.172-6.806,5.073,5.073,0,0,1,5.429-1.724c2.054.545,3.764,2.094,3.914,2.872a.385.385,0,0,1-.3.452.39.39,0,0,1-.453-.3,5.613,5.613,0,0,0-3.353-2.274,4.344,4.344,0,0,0-4.65,1.481,5.593,5.593,0,0,0-1.049,6c1.1,2.588,3.923,4.312,7.367,4.5a.384.384,0,0,1-.02.768" transform="translate(-34.883 -42.538)"/>
          <path id="Path_1247418" data-name="Path 1247418" d="M147.885,175.31a.384.384,0,0,1-.366-.27c-.069-.214-1.7-5.262-5.863-3.994a.385.385,0,1,1-.225-.736c4.907-1.494,6.8,4.444,6.822,4.5a.385.385,0,0,1-.252.482.416.416,0,0,1-.116.016" transform="translate(-36.06 -43.445)"/>
          <path id="Path_1247419" data-name="Path 1247419" d="M135.718,144.44a26.068,26.068,0,0,0,4.5-5.755c6.45-10.613,2.543-19.246-2.669-20.961-4.5-1.479-11.427.922-19.405,2.1l-.011,0c-.125.018-.248.039-.372.059-.316.048-.627.1-.936.155-.2.036-.4.068-.6.109-4.355.827-8.113,2.222-10.368,4.239l0,0a13.919,13.919,0,0,0-4.53,5.438c-2.059,4.56-.6,7.047-1.145,9.646l-.227.121c-13.245,9.925-4.635,26.543,12.617,34.044,2.619,1.138,2.924,4.152,3.633,5.849a1.517,1.517,0,0,0,1.937.838,31.531,31.531,0,0,1,6.327-1.284,26.942,26.942,0,0,1,4.452.023,2.615,2.615,0,0,0,2.814-2.488l.459-9.6-2.494-3.251,6.51-6.644a8.3,8.3,0,0,1,.143-2.76,25.55,25.55,0,0,0,.861-2.534,6.673,6.673,0,0,0-1.715-4.352,2.25,2.25,0,0,1,.211-3" transform="translate(-23.888 -29.954)"/>
          <path id="Path_1247420" data-name="Path 1247420" d="M247.784,168.31l3.782-3.181a.423.423,0,0,0-.311-.745l-4.825.447-43.262,16.817,1.354,3.479Z" transform="translate(-51.9 -41.992)" fill="#fd9826"/>
          <path id="Path_1247421" data-name="Path 1247421" d="M204.13,185.492l-1.631-4.2.359-.139,43.312-16.836,4.878-.454a.815.815,0,0,1,.82.493.8.8,0,0,1-.225.931l-3.891,3.244Zm-.636-3.758,1.074,2.762,42.845-16.654,3.735-3.14-4.8.375Z" transform="translate(-51.73 -41.86)"/>
          <path id="Path_1247422" data-name="Path 1247422" d="M210.107,184.562l1.311,3.494-2.354.915-1.318-3.493Z" transform="translate(-53.07 -47.148)"/>
          <path id="Path_1247423" data-name="Path 1247423" d="M246.567,181.57s4.091-6.034,8-5.729c1.129.086,2.651,1.007,2.133,3.78-.493,2.617-3.407,11.068-3.642,10.993s-6.492-9.044-6.492-9.044" transform="translate(-62.987 -44.917)" fill="#fff"/>
          <path id="Path_1247424" data-name="Path 1247424" d="M248,181.589s3.047-5.571,5.407-4.023c3.38,2.219-7.158,25.725-7.158,25.725a11.833,11.833,0,0,1-7.336.379c-2.167-.675-4.609-2.537-5.243-4.293,0,0,1.2-3.812.471-5.189-1.733-3.26-4.489-9.191-3.017-15.607a11.568,11.568,0,0,1,4.869-7.422c3.668-2.583,11.217-6.195,13.443-3.5,0,0-2.671,6.716-2.432,7.19Z" transform="translate(-58.935 -42.587)" fill="#fff"/>
          <path id="Path_1247425" data-name="Path 1247425" d="M241.755,204.355a10.322,10.322,0,0,1-3.088-.452c-2.135-.663-4.773-2.54-5.492-4.53a.4.4,0,0,1,0-.246c.322-1.018,1.038-3.88.5-4.893-1.157-2.174-4.679-8.792-3.056-15.87a12.012,12.012,0,0,1,5.023-7.654c3.466-2.438,11.438-6.486,13.964-3.426a.392.392,0,0,1,.06.389,52.593,52.593,0,0,0-2.421,6.938.383.383,0,0,1-.2.452.388.388,0,0,1-.517-.17c-.086-.17-.314-.617,2.328-7.278-2.231-2.15-9.354,1.317-12.774,3.725a11.148,11.148,0,0,0-4.716,7.2c-1.56,6.8,1.858,13.228,2.983,15.338.732,1.377-.17,4.589-.4,5.357.628,1.526,2.812,3.273,4.95,3.939a11.457,11.457,0,0,0,6.935-.311c4.017-8.984,9.485-23.626,7.233-25.1a1.237,1.237,0,0,0-1.03-.164c-1.532.382-3.282,3.053-3.828,4.05a.386.386,0,0,1-.677-.37c.086-.156,2.144-3.885,4.318-4.426a2,2,0,0,1,1.639.266c3.477,2.281-5.235,22.229-7.018,26.2a.369.369,0,0,1-.2.2,12.6,12.6,0,0,1-4.515.843" transform="translate(-58.805 -42.453)"/>
          <path id="Path_1247426" data-name="Path 1247426" d="M239.119,176.571s11.747-10.55,15.027-8.119c2.158,1.6-2.512,4.852-5.954,7.581Z" transform="translate(-61.084 -42.939)" fill="#fff"/>
          <path id="Path_1247427" data-name="Path 1247427" d="M238.987,176.829a.386.386,0,0,1-.257-.672c1.227-1.1,12.074-10.689,15.514-8.143a1.574,1.574,0,0,1,.7,1.278c.023,1.709-2.8,3.907-5.522,6.032-.384.3-.761.592-1.124.881a.385.385,0,1,1-.479-.6c.366-.29.745-.586,1.129-.886,2.338-1.823,5.246-4.089,5.23-5.416a.8.8,0,0,0-.393-.668c-2.483-1.833-11.34,5.221-14.543,8.1a.4.4,0,0,1-.257.1" transform="translate(-60.953 -42.811)"/>
          <path id="Path_1247428" data-name="Path 1247428" d="M246.178,181.9a.388.388,0,0,1-.255-.1.384.384,0,0,1-.033-.543c.538-.611,5.334-5.964,7.744-6.316a2.653,2.653,0,0,1,2.605.984,3.71,3.71,0,0,1,.418,3.541.386.386,0,0,1-.707-.309,2.994,2.994,0,0,0-.322-2.767,1.861,1.861,0,0,0-1.881-.686c-1.808.261-5.87,4.464-7.281,6.061a.386.386,0,0,1-.288.13" transform="translate(-62.789 -44.682)"/>
          <path id="Path_1247429" data-name="Path 1247429" d="M228.532,130.162H188.54a2.016,2.016,0,0,1-2.017-2.015v-14.2a2.017,2.017,0,0,1,2.017-2.015h39.992a2.015,2.015,0,0,1,2.015,2.015v14.2a2.014,2.014,0,0,1-2.015,2.015" transform="translate(-47.648 -28.593)" fill="#fff"/>
          <path id="Path_1247430" data-name="Path 1247430" d="M228.4,130.414H188.408a2.4,2.4,0,0,1-2.4-2.4v-14.2a2.4,2.4,0,0,1,2.4-2.4H228.4a2.4,2.4,0,0,1,2.4,2.4v14.2a2.4,2.4,0,0,1-2.4,2.4m-39.992-18.233a1.635,1.635,0,0,0-1.631,1.631v14.2a1.633,1.633,0,0,0,1.631,1.631H228.4a1.632,1.632,0,0,0,1.631-1.631v-14.2a1.634,1.634,0,0,0-1.631-1.631Z" transform="translate(-47.517 -28.461)"/>
          <path id="Path_1247431" data-name="Path 1247431" d="M200.265,116.277v0Z" transform="translate(-51.159 -29.704)" fill="#fff"/>
          <path id="Path_1247432" data-name="Path 1247432" d="M200.132,128.81a.384.384,0,0,1-.386-.384V116.145a.385.385,0,0,1,.771,0v12.281a.384.384,0,0,1-.384.384" transform="translate(-51.026 -29.572)"/>
          <path id="Path_1247433" data-name="Path 1247433" d="M203.839,116.532H192.553a.385.385,0,1,1,0-.77h11.286a.385.385,0,0,1,0,.77" transform="translate(-49.09 -29.572)"/>
          <path id="Path_1247434" data-name="Path 1247434" d="M219.326,128.816a.382.382,0,0,1-.354-.236l-4.679-11.423L209.61,128.58a.381.381,0,0,1-.7-.289l5.035-12.283a.4.4,0,0,1,.7,0l5.034,12.283a.379.379,0,0,1-.209.5.352.352,0,0,1-.143.03" transform="translate(-53.359 -29.58)"/>
          <path id="Path_1247435" data-name="Path 1247435" d="M217.81,125.456h-5.452a.38.38,0,1,1,0-.761h5.452a.38.38,0,0,1,0,.761" transform="translate(-54.151 -31.854)"/>
          <path id="Path_1247436" data-name="Path 1247436" d="M227.473,128.809a.383.383,0,0,1-.32-.588l7.867-12.279a.38.38,0,1,1,.64.411l-7.867,12.281a.378.378,0,0,1-.32.175" transform="translate(-58.012 -29.573)"/>
          <path id="Path_1247437" data-name="Path 1247437" d="M235.34,128.809a.378.378,0,0,1-.32-.175l-7.867-12.281a.381.381,0,0,1,.115-.526.377.377,0,0,1,.525.115l7.867,12.279a.381.381,0,0,1-.113.527.393.393,0,0,1-.207.061" transform="translate(-58.012 -29.573)"/>
          <path id="Path_1247438" data-name="Path 1247438" d="M294.355,220.263h-.736a2.016,2.016,0,0,1-2.017-2.015v-7.37h4.77v7.37a2.016,2.016,0,0,1-2.017,2.015" transform="translate(-74.492 -53.87)" fill="#ccf5ec"/>
          <path id="Path_1247439" data-name="Path 1247439" d="M294.223,220.515h-.735a2.4,2.4,0,0,1-2.4-2.4v-7.753h5.538v7.753a2.4,2.4,0,0,1-2.4,2.4m-2.366-9.384v6.985a1.635,1.635,0,0,0,1.631,1.631h.735a1.634,1.634,0,0,0,1.632-1.631v-6.985Z" transform="translate(-74.36 -53.739)"/>
          <path id="Path_1247440" data-name="Path 1247440" d="M329.157,160.609l-2.872-2.872-2.871,2.872-2.872-2.872-2.872,2.872-2.871-2.872-2.872,2.872-2.872-2.872-2.871,2.872-2.874-2.872-2.87,2.872-3.126-3.126v47.124a2.016,2.016,0,0,1-2.017,2.015h34.968a2.014,2.014,0,0,0,2.015-2.015V157.483Z" transform="translate(-75.436 -40.23)" fill="#fff"/>
          <path id="Path_1247441" data-name="Path 1247441" d="M330.136,206.875H295.167a.384.384,0,0,1,0-.768,1.634,1.634,0,0,0,1.631-1.631V157.351a.386.386,0,0,1,.657-.273l2.855,2.853,2.6-2.6a.4.4,0,0,1,.543,0l2.6,2.6,2.6-2.6a.384.384,0,0,1,.543,0l2.6,2.6,2.6-2.6a.384.384,0,0,1,.544,0l2.6,2.6,2.6-2.6a.385.385,0,0,1,.544,0l2.6,2.6,2.6-2.6a.4.4,0,0,1,.545,0l2.6,2.6,2.854-2.853a.385.385,0,0,1,.656.273v47.124a2.4,2.4,0,0,1-2.4,2.4m-33.208-.768h33.208a1.636,1.636,0,0,0,1.631-1.631v-46.2l-2.469,2.47a.4.4,0,0,1-.546,0l-2.6-2.6-2.6,2.6a.388.388,0,0,1-.546,0l-2.6-2.6-2.6,2.6a.384.384,0,0,1-.543,0l-2.6-2.6-2.6,2.6a.387.387,0,0,1-.545,0l-2.6-2.6-2.6,2.6a.4.4,0,0,1-.543,0l-2.6-2.6-2.6,2.6a.384.384,0,0,1-.543,0l-2.47-2.47v46.2a2.4,2.4,0,0,1-.64,1.631" transform="translate(-75.304 -40.098)"/>
          <path id="Path_1247442" data-name="Path 1247442" d="M303.489,168.04h0Z" transform="translate(-77.528 -42.927)" fill="#fcdf39"/>
          <path id="Path_1247443" data-name="Path 1247443" d="M317.578,168.293H303.357a.384.384,0,1,1,0-.768h14.221a.384.384,0,1,1,0,.768" transform="translate(-77.396 -42.795)"/>
          <path id="Path_1247444" data-name="Path 1247444" d="M303.489,173.941h0Z" transform="translate(-77.528 -44.434)" fill="#fcdf39"/>
          <path id="Path_1247445" data-name="Path 1247445" d="M320.331,174.192H303.357a.385.385,0,0,1,0-.769h16.974a.385.385,0,0,1,0,.769" transform="translate(-77.396 -44.302)"/>
          <path id="Path_1247446" data-name="Path 1247446" d="M303.489,179.839h0Z" transform="translate(-77.528 -45.941)" fill="#fcdf39"/>
          <path id="Path_1247447" data-name="Path 1247447" d="M329.684,180.09H303.357a.385.385,0,0,1,0-.77h26.327a.385.385,0,1,1,0,.77" transform="translate(-77.396 -45.808)"/>
          <path id="Path_1247448" data-name="Path 1247448" d="M303.489,185.737h0Z" transform="translate(-77.528 -47.448)" fill="#fcdf39"/>
          <path id="Path_1247449" data-name="Path 1247449" d="M329.684,185.989H303.357a.384.384,0,1,1,0-.768h26.327a.384.384,0,1,1,0,.768" transform="translate(-77.396 -47.316)"/>
          <path id="Path_1247450" data-name="Path 1247450" d="M303.489,191.635h0Z" transform="translate(-77.528 -48.954)" fill="#fcdf39"/>
          <path id="Path_1247451" data-name="Path 1247451" d="M316.479,191.887H303.358a.384.384,0,1,1,0-.768h13.121a.384.384,0,1,1,0,.768" transform="translate(-77.397 -48.823)"/>
          <path id="Path_1247452" data-name="Path 1247452" d="M303.489,217.179h0Z" transform="translate(-77.528 -55.48)" fill="#fff"/>
          <path id="Path_1247453" data-name="Path 1247453" d="M312.983,217.434h-9.625a.385.385,0,0,1,0-.77h9.625a.385.385,0,0,1,0,.77" transform="translate(-77.397 -55.348)"/>
          <path id="Path_1247454" data-name="Path 1247454" d="M59.561,41.1h0a4.941,4.941,0,0,1-4.925-4.927V23.647a4.926,4.926,0,0,1,9.853,0V36.169A4.942,4.942,0,0,1,59.561,41.1" transform="translate(-13.957 -4.783)" fill="#b7a8f1"/>
          <path id="Path_1247455" data-name="Path 1247455" d="M123.563,41.1h0a4.941,4.941,0,0,1-4.925-4.927V23.647a4.926,4.926,0,0,1,9.852,0V36.169a4.941,4.941,0,0,1-4.927,4.927" transform="translate(-30.307 -4.783)" fill="#b7a8f1"/>
          <path id="Path_1247456" data-name="Path 1247456" d="M187.425,55.314h-46.15A2.014,2.014,0,0,1,139.26,53.3V2.533A2.015,2.015,0,0,1,141.275.516h46.15a2.015,2.015,0,0,1,2.015,2.017V53.3a2.014,2.014,0,0,1-2.015,2.015" transform="translate(-35.575 -0.132)" fill="#fff"/>
          <path id="Path_1247457" data-name="Path 1247457" d="M187.293,55.567h-46.15a2.4,2.4,0,0,1-2.4-2.4V2.4a2.4,2.4,0,0,1,2.4-2.4h46.15a2.4,2.4,0,0,1,2.4,2.4V53.168a2.4,2.4,0,0,1-2.4,2.4M141.143.771A1.633,1.633,0,0,0,139.512,2.4V53.168a1.635,1.635,0,0,0,1.631,1.631h46.15a1.636,1.636,0,0,0,1.631-1.631V2.4A1.634,1.634,0,0,0,187.293.771Z" transform="translate(-35.443 0)"/>
          <path id="Path_1247458" data-name="Path 1247458" d="M189.441,9.578V2.533A2.015,2.015,0,0,0,187.426.516H141.275a2.015,2.015,0,0,0-2.015,2.017V9.578Z" transform="translate(-35.575 -0.132)" fill="#b7a8f1"/>
          <path id="Path_1247459" data-name="Path 1247459" d="M163.975,36.118H145.442a.808.808,0,0,1-.809-.809V19.085a.811.811,0,0,1,.809-.812h18.532a.81.81,0,0,1,.809.812V35.31a.807.807,0,0,1-.809.809" transform="translate(-36.947 -4.668)" fill="#fff"/>
          <path id="Path_1247460" data-name="Path 1247460" d="M163.842,36.372H145.31a1.2,1.2,0,0,1-1.195-1.195V18.952a1.2,1.2,0,0,1,1.195-1.194h18.532a1.2,1.2,0,0,1,1.2,1.194V35.177a1.2,1.2,0,0,1-1.2,1.195M145.31,18.528a.425.425,0,0,0-.424.424V35.177a.425.425,0,0,0,.424.424h18.532a.425.425,0,0,0,.425-.424V18.952a.425.425,0,0,0-.425-.424Z" transform="translate(-36.815 -4.536)"/>
          <path id="Path_1247461" data-name="Path 1247461" d="M193.561,36.118H175.029a.81.81,0,0,1-.812-.809V19.085a.813.813,0,0,1,.812-.812h18.532a.81.81,0,0,1,.809.812V35.31a.807.807,0,0,1-.809.809" transform="translate(-44.505 -4.668)" fill="#fff"/>
          <path id="Path_1247462" data-name="Path 1247462" d="M193.429,36.372H174.895a1.2,1.2,0,0,1-1.193-1.195V18.952a1.2,1.2,0,0,1,1.193-1.194h18.535a1.2,1.2,0,0,1,1.2,1.194V35.177a1.2,1.2,0,0,1-1.2,1.195M174.895,18.528a.426.426,0,0,0-.425.424V35.177a.426.426,0,0,0,.425.424h18.535a.425.425,0,0,0,.425-.424V18.952a.425.425,0,0,0-.425-.424Z" transform="translate(-44.373 -4.536)"/>
          <path id="Path_1247463" data-name="Path 1247463" d="M163.975,62.635H145.442a.81.81,0,0,1-.809-.809V45.6a.808.808,0,0,1,.809-.809h18.532a.807.807,0,0,1,.809.809V61.827a.809.809,0,0,1-.809.809" transform="translate(-36.947 -11.442)" fill="#fff"/>
          <path id="Path_1247464" data-name="Path 1247464" d="M163.842,62.888H145.31a1.2,1.2,0,0,1-1.195-1.195V45.468a1.194,1.194,0,0,1,1.195-1.192h18.532a1.194,1.194,0,0,1,1.2,1.192V61.693a1.2,1.2,0,0,1-1.2,1.195M145.31,45.044a.425.425,0,0,0-.424.424V61.693a.426.426,0,0,0,.424.427h18.532a.426.426,0,0,0,.425-.427V45.468a.425.425,0,0,0-.425-.424Z" transform="translate(-36.815 -11.311)"/>
          <path id="Path_1247465" data-name="Path 1247465" d="M193.561,62.635H175.029a.811.811,0,0,1-.812-.809V45.6a.81.81,0,0,1,.812-.809h18.532a.807.807,0,0,1,.809.809V61.827a.809.809,0,0,1-.809.809" transform="translate(-44.505 -11.442)" fill="#ccf5ec"/>
          <path id="Path_1247466" data-name="Path 1247466" d="M193.439,62.871H174.9a1.169,1.169,0,0,1-1.165-1.17V45.476a1.167,1.167,0,0,1,1.165-1.167h18.535a1.168,1.168,0,0,1,1.168,1.167V61.7a1.17,1.17,0,0,1-1.168,1.17M174.9,45.025a.453.453,0,0,0-.45.452V61.7a.451.451,0,0,0,.45.452h18.535a.454.454,0,0,0,.453-.452V45.476a.455.455,0,0,0-.453-.452Z" transform="translate(-44.383 -11.319)"/>
          <path id="Path_1247467" data-name="Path 1247467" d="M191.256,23.091l-10.67,10.67Z" transform="translate(-46.132 -5.899)" fill="#fff"/>
          <path id="Path_1247468" data-name="Path 1247468" d="M180.453,34.015a.386.386,0,0,1-.273-.114.382.382,0,0,1,0-.542l10.67-10.671a.385.385,0,0,1,.545.543L180.725,33.9a.387.387,0,0,1-.273.114" transform="translate(-45.999 -5.767)"/>
          <path id="Path_1247469" data-name="Path 1247469" d="M180.585,23.091l10.67,10.67Z" transform="translate(-46.132 -5.899)" fill="#fff"/>
          <path id="Path_1247470" data-name="Path 1247470" d="M191.124,34.015a.391.391,0,0,1-.273-.114l-10.67-10.67a.385.385,0,0,1,.545-.543L191.4,33.36a.385.385,0,0,1-.273.656" transform="translate(-46 -5.767)"/>
          <path id="Path_1247471" data-name="Path 1247471" d="M191.743,54.444H179.187a.385.385,0,0,1,0-.77h12.556a.385.385,0,0,1,0,.77" transform="translate(-45.677 -13.711)"/>
          <path id="Path_1247472" data-name="Path 1247472" d="M191.743,59.61H179.187a.384.384,0,0,1,0-.768h12.556a.384.384,0,1,1,0,.768" transform="translate(-45.677 -15.032)"/>
          <path id="Path_1247473" data-name="Path 1247473" d="M162.337,30.511h-13.1a.384.384,0,1,1,0-.768h13.1a.384.384,0,1,1,0,.768" transform="translate(-38.025 -7.598)"/>
          <path id="Path_1247474" data-name="Path 1247474" d="M157.623,26.322a1.873,1.873,0,1,1,1.872-1.872,1.876,1.876,0,0,1-1.872,1.872m0-2.976a1.1,1.1,0,1,0,1.1,1.1,1.105,1.105,0,0,0-1.1-1.1" transform="translate(-39.787 -5.767)"/>
          <path id="Path_1247475" data-name="Path 1247475" d="M157.623,36.656a1.873,1.873,0,1,1,1.872-1.874,1.876,1.876,0,0,1-1.872,1.874m0-2.976a1.1,1.1,0,1,0,1.1,1.1,1.1,1.1,0,0,0-1.1-1.1" transform="translate(-39.787 -8.407)"/>
          <path id="Path_1247476" data-name="Path 1247476" d="M161.456,57.026H151.037a.384.384,0,0,1,0-.768h10.418a.384.384,0,1,1,0,.768" transform="translate(-38.485 -14.371)"/>
          <path id="Path_1247477" data-name="Path 1247477" d="M271.52,168.423a3.429,3.429,0,0,1-2.543-1c-2.03-2.049-1.386-6.522-1.356-6.711a.381.381,0,0,1,.436-.322.386.386,0,0,1,.325.436c-.007.043-.618,4.282,1.143,6.056a2.915,2.915,0,0,0,2.642.72,13.313,13.313,0,0,0,7.681-3.927c-3.237-3.706-4.748-9.048-4.068-12.586.529-2.758,2.308-4.107,4.868-3.685,2.826.457,4.491,2.8,4.455,6.261a16.138,16.138,0,0,1-4.19,9.984,10.879,10.879,0,0,0,5.463,3.242.385.385,0,0,1-.168.752,11.693,11.693,0,0,1-5.845-3.408,14.068,14.068,0,0,1-8.09,4.13,5.416,5.416,0,0,1-.754.053m8.23-20.321c-2.135,0-2.931,1.658-3.214,3.138-.641,3.333.854,8.351,3.864,11.849a15.287,15.287,0,0,0,3.932-9.425c.034-3.094-1.354-5.1-3.808-5.5a4.768,4.768,0,0,0-.774-.066" transform="translate(-68.335 -37.637)"/>
          <rect id="Rectangle_411168" data-name="Rectangle 411168" width="3.202" height="6.187" transform="translate(94.697 121.826) rotate(-45.49)" fill="#fcdf39"/>
          <path id="Path_1247478" data-name="Path 1247478" d="M131.419,167.537l-4.962-4.875,2.783-2.833L134.2,164.7Zm-3.873-4.884,3.864,3.793,1.7-1.733-3.864-3.8Z" transform="translate(-32.304 -40.829)"/>
          <path id="Path_1247479" data-name="Path 1247479" d="M100.883,134.746h0a2.666,2.666,0,0,1,3.771-.034l19.6,19.258-3.739,3.805-19.593-19.255a2.667,2.667,0,0,1-.034-3.773" transform="translate(-25.576 -34.218)" fill="#fff"/>
          <path id="Path_1247480" data-name="Path 1247480" d="M120.378,158.026a.388.388,0,0,1-.27-.109l-19.593-19.255a3.053,3.053,0,0,1,2.11-5.231,3.144,3.144,0,0,1,2.167.874l19.593,19.258a.381.381,0,0,1,0,.543l-3.737,3.808a.492.492,0,0,1-.275.113M102.654,134.2h-.02a2.284,2.284,0,0,0-1.581,3.912L120.374,157.1l3.2-3.258-19.321-18.984a2.259,2.259,0,0,0-1.6-.654" transform="translate(-25.444 -34.086)"/>
          <path id="Path_1247481" data-name="Path 1247481" d="M129.4,172.2a10.143,10.143,0,1,0,10.143-10.143A10.143,10.143,0,0,0,129.4,172.2" transform="translate(-33.057 -41.399)" fill="#fff"/>
          <path id="Path_1247482" data-name="Path 1247482" d="M139.417,182.6a10.528,10.528,0,1,1,10.529-10.529A10.54,10.54,0,0,1,139.417,182.6m0-20.287a9.758,9.758,0,1,0,9.759,9.757,9.768,9.768,0,0,0-9.759-9.757" transform="translate(-32.925 -41.267)"/>
          <path id="Path_1247483" data-name="Path 1247483" d="M133.4,173.222a7.173,7.173,0,1,0,7.171-7.172,7.173,7.173,0,0,0-7.171,7.172" transform="translate(-34.077 -42.418)" fill="#ccf5ec"/>
          <path id="Path_1247484" data-name="Path 1247484" d="M140.437,180.648a7.557,7.557,0,1,1,7.558-7.558,7.564,7.564,0,0,1-7.558,7.558m0-14.344a6.787,6.787,0,1,0,6.788,6.786,6.8,6.8,0,0,0-6.788-6.786" transform="translate(-33.945 -42.287)"/>
        </g>
      </g>
    </g>
  </g>
</svg>
