<svg xmlns="http://www.w3.org/2000/svg" width="83" height="83" viewBox="0 0 83 83">
  <g id="Group_1208721" data-name="Group 1208721" transform="translate(-1090.051 -8535)">
    <g id="Group_1208695" data-name="Group 1208695" transform="translate(752 5452)">
      <circle id="Ellipse_12656" data-name="Ellipse 12656" cx="41.5" cy="41.5" r="41.5" transform="translate(338.051 3083)" fill="#b7a8f1"/>
    </g>
    <g id="riesgo" transform="translate(1102.057 8538.958)">
      <g id="Group_1208720" data-name="Group 1208720" transform="translate(1.875 11.922)">
        <g id="Group_1208717" data-name="Group 1208717" transform="translate(0 33.953)">
          <path id="Path_1246917" data-name="Path 1246917" d="M32.956,330.369v12.123a19.539,19.539,0,0,1,2.395-.948,6.458,6.458,0,0,1,2.478-.371,5.94,5.94,0,0,1,2.553.755h0l5.774,3.059a5.446,5.446,0,0,0,4.1.54l17.763-4.759A2.984,2.984,0,0,0,66.479,335l-12.37,3.314.045-.075a3.314,3.314,0,0,0-1.19-4.513l-9.956-5.8a5.222,5.222,0,0,0-4.137,0Z" transform="translate(-30.319 -327.5)" fill="#ffd6bd" fill-rule="evenodd"/>
          <path id="Path_1246918" data-name="Path 1246918" d="M135.117,395.959a3.315,3.315,0,0,0,4.064-.59,3.27,3.27,0,0,1-.308.71,3.309,3.309,0,0,1-4.513,1.19c-1.938-1.131-3.884-2.242-5.827-3.364a.759.759,0,1,1,.759-1.315C131.233,393.71,133.171,394.826,135.117,395.959Z" transform="translate(-115.04 -385.336)" fill="#f9c6aa" fill-rule="evenodd"/>
          <path id="Path_1246919" data-name="Path 1246919" d="M13.054,328.365v14.819a.659.659,0,0,1-.657.657H9.658A.659.659,0,0,1,9,343.184V328.365a.659.659,0,0,1,.657-.657H12.4A.659.659,0,0,1,13.054,328.365Z" transform="translate(-9.001 -327.685)" fill="#64b5f6" fill-rule="evenodd"/>
        </g>
        <path id="Path_1246920" data-name="Path 1246920" d="M78.99,19.032h5.694v2.857a14.4,14.4,0,0,1,5.182,2.148l2.021-2.021,4.026,4.026-2.021,2.021a14.4,14.4,0,0,1,2.148,5.182H98.9v5.694H96.039a14.4,14.4,0,0,1-2.148,5.182l2.021,2.021-4.026,4.026-2.021-2.021a14.4,14.4,0,0,1-5.182,2.148V53.15H78.99V50.294a14.4,14.4,0,0,1-5.182-2.148l-2.021,2.021-4.026-4.026,2.021-2.021a14.4,14.4,0,0,1-2.148-5.182H64.778V33.245h2.857a14.4,14.4,0,0,1,2.148-5.182l-2.021-2.021,4.026-4.026,2.021,2.021a14.4,14.4,0,0,1,5.182-2.148Z" transform="translate(-58.639 -19.032)" fill="#8d9ca8" fill-rule="evenodd"/>
        <g id="Group_1208718" data-name="Group 1208718" transform="translate(12.542 6.403)">
          <circle id="Ellipse_12665" data-name="Ellipse 12665" cx="10.657" cy="10.657" r="10.657" fill="#ffda2d"/>
          <circle id="Ellipse_12666" data-name="Ellipse 12666" cx="7.77" cy="7.77" r="7.77" transform="translate(2.886 2.886)" fill="#fdb800"/>
        </g>
        <g id="Group_1208719" data-name="Group 1208719" transform="translate(24.38 11.986)">
          <path id="Path_1246921" data-name="Path 1246921" d="M246.4,128.43l13.9,23.19a1.386,1.386,0,0,1-1.191,2.1H231.89a1.386,1.386,0,0,1-1.191-2.1l13.9-23.19A1.051,1.051,0,0,1,246.4,128.43Z" transform="translate(-230.498 -127.921)" fill="#fc685b" fill-rule="evenodd"/>
          <path id="Path_1246922" data-name="Path 1246922" d="M351.7,193.75a1.484,1.484,0,1,1-1.484,1.484A1.484,1.484,0,0,1,351.7,193.75Zm1.153-2.928a1.155,1.155,0,0,1-2.306,0l-.708-10.278c0-2.331,3.722-2.331,3.722,0Z" transform="translate(-336.706 -173.196)" fill="#ffda2d" fill-rule="evenodd"/>
        </g>
      </g>
      <path id="Path_1246923" data-name="Path 1246923" d="M41.528,41.474a.589.589,0,0,0,0,.061c0,.2-.2.2-.273.2s-.273,0-.273-.2c0-.02,0-.041,0-.061L40.273,31.23c.016-.8.818-.841.98-.841s.963.041.98.841Zm-.275-12.846a2.605,2.605,0,0,0-2.742,2.629c0,.02,0,.041,0,.06l.707,10.252a2.036,2.036,0,0,0,4.066,0l.707-10.252c0-.02,0-.04,0-.06a2.6,2.6,0,0,0-2.742-2.629Zm0,17.923a.6.6,0,1,1,.6-.6A.6.6,0,0,1,41.252,46.55Zm0-2.968a2.365,2.365,0,1,0,2.364,2.364A2.367,2.367,0,0,0,41.252,43.582ZM55.3,48.572a.5.5,0,0,0-.009-.512L41.4,24.87a.171.171,0,0,0-.291,0l-13.9,23.19a.505.505,0,0,0,.436.768H54.858A.5.5,0,0,0,55.3,48.572ZM25.073,38.758a9.776,9.776,0,1,1,9.776-9.776A9.787,9.787,0,0,1,25.073,38.758Zm-1.967,6.4V43.185a.881.881,0,0,0-.708-.864A13.472,13.472,0,0,1,17.533,40.3a.88.88,0,0,0-1.111.11l-1.4,1.4-2.781-2.781,1.4-1.4a.881.881,0,0,0,.11-1.111,13.47,13.47,0,0,1-2.017-4.865.881.881,0,0,0-.863-.709H8.895V27.015h1.976a.88.88,0,0,0,.863-.709,13.471,13.471,0,0,1,2.017-4.865.88.88,0,0,0-.11-1.111l-1.4-1.4,2.781-2.781,1.4,1.4a.88.88,0,0,0,1.111.11A13.472,13.472,0,0,1,22.4,15.643a.88.88,0,0,0,.708-.863V12.8h3.933V14.78a.88.88,0,0,0,.709.863,13.469,13.469,0,0,1,4.865,2.017.88.88,0,0,0,1.111-.11l1.4-1.4L37.9,18.932l-1.4,1.4a.882.882,0,0,0-.11,1.111,13.45,13.45,0,0,1,1.959,4.595l-1.745,2.912a11.544,11.544,0,1,0-6.123,10.218L26.895,45.16Zm33.7,1.994-13.9-23.189a1.931,1.931,0,0,0-3.311,0,15.164,15.164,0,0,0-1.349-2.887l1.524-1.523a.881.881,0,0,0,0-1.245l-4.027-4.027a.881.881,0,0,0-1.245,0l-1.523,1.523A15.183,15.183,0,0,0,28.8,14.074V11.923a.88.88,0,0,0-.88-.88H22.226a.88.88,0,0,0-.88.88v2.152a15.185,15.185,0,0,0-4.178,1.731l-1.522-1.523a.881.881,0,0,0-1.245,0L10.375,18.31a.88.88,0,0,0,0,1.245L11.9,21.077a15.187,15.187,0,0,0-1.732,4.177H8.014a.881.881,0,0,0-.88.881v5.693a.881.881,0,0,0,.88.88h2.152A15.177,15.177,0,0,0,11.9,36.887l-1.523,1.522a.881.881,0,0,0,0,1.245L14.4,43.68a.881.881,0,0,0,1.245,0l1.522-1.522a15.208,15.208,0,0,0,4.178,1.732v2.152a.88.88,0,0,0,.88.88H25.84l-.14.232a2.266,2.266,0,0,0,1.946,3.435H54.858A2.267,2.267,0,0,0,56.8,47.154Zm-29-16.507a2.551,2.551,0,0,1-1.851,2.45V33.4a.881.881,0,0,1-1.761,0v-.269a2.561,2.561,0,0,1-1.521-1A.88.88,0,1,1,24.1,31.1a.79.79,0,0,0,.636.329h.524a.785.785,0,0,0,0-1.569h-.372a2.546,2.546,0,0,1-.695-4.995v-.307a.881.881,0,0,1,1.761,0v.269a2.562,2.562,0,0,1,1.521,1,.881.881,0,0,1-1.427,1.032.789.789,0,0,0-.636-.329h-.524a.784.784,0,1,0,0,1.569h.372a2.549,2.549,0,0,1,2.546,2.545Zm-2.732,5.225a6.89,6.89,0,1,1,6.89-6.89,6.9,6.9,0,0,1-6.89,6.89Zm0-15.541a8.651,8.651,0,1,1-8.651,8.651A8.661,8.661,0,0,1,25.073,20.331ZM39.35,58.293,21.588,63.052a4.585,4.585,0,0,1-3.462-.467l-5.774-3.059a6.768,6.768,0,0,0-5.544-.5V48.748l3.954-1.633a4.318,4.318,0,0,1,3.411-.019l9.9,5.77a2.42,2.42,0,0,1-2.437,4.183l-5.318-3.1a.881.881,0,1,0-.887,1.522l5.319,3.1A4.18,4.18,0,0,0,26.2,57.462L38.262,54.23a2.1,2.1,0,0,1,1.089,4.063Zm-36.6,2.858V46.779H5.047V61.151Zm37.982-8.233a3.842,3.842,0,0,0-2.931-.389L27.011,55.422a4.187,4.187,0,0,0-2.049-4.077l-9.957-5.8a.869.869,0,0,0-.106-.052,6.083,6.083,0,0,0-4.811,0L6.808,46.843v-.287A1.54,1.54,0,0,0,5.27,45.019H2.532A1.54,1.54,0,0,0,.994,46.556V61.375a1.54,1.54,0,0,0,1.538,1.538H5.27a1.54,1.54,0,0,0,1.538-1.538v-.481a5.222,5.222,0,0,1,4.72.189L17.3,64.141a6.663,6.663,0,0,0,3.141.827,6.2,6.2,0,0,0,1.6-.213l17.764-4.759a3.861,3.861,0,0,0,.93-7.076Z" fill-rule="evenodd"/>
    </g>
  </g>
</svg>
