<svg xmlns="http://www.w3.org/2000/svg" width="83" height="83" viewBox="0 0 83 83">
  <g id="Group_1208730" data-name="Group 1208730" transform="translate(3413 3073)">
    <g id="Group_1208722" data-name="Group 1208722" transform="translate(-4503.051 -11608)">
      <g id="Group_1208695" data-name="Group 1208695" transform="translate(752 5452)">
        <circle id="Ellipse_12656" data-name="Ellipse 12656" cx="41.5" cy="41.5" r="41.5" transform="translate(338.051 3083)" fill="#b7a8f1"/>
      </g>
    </g>
    <g id="documento" transform="translate(-3399 -3059)">
      <g id="Group_1208728" data-name="Group 1208728" transform="translate(1.866 1.866)">
        <g id="Group_1208723" data-name="Group 1208723" transform="translate(12.996 1.733)">
          <path id="Path_1246924" data-name="Path 1246924" d="M46.164,9.2a3.469,3.469,0,0,1-2.452-1.014L42.127,6.6h-2.6A3.458,3.458,0,0,1,36.174,4H17V47.322H48.192V9.2Z" transform="translate(-17 -4)" fill="#e6e9ed"/>
        </g>
        <g id="Group_1208724" data-name="Group 1208724" transform="translate(16.462 5.199)">
          <path id="Path_1246925" data-name="Path 1246925" d="M21,8H34.863V18.4H21Z" transform="translate(-21 -8)" fill="#b4dd7f"/>
        </g>
        <g id="Group_1208725" data-name="Group 1208725" transform="translate(26.859 29.459)">
          <path id="Path_1246926" data-name="Path 1246926" d="M33,36H46.863V48.13H33Z" transform="translate(-33 -36)" fill="#fcd770"/>
        </g>
        <g id="Group_1208726" data-name="Group 1208726" transform="translate(0 32.924)">
          <path id="Path_1246927" data-name="Path 1246927" d="M26.26,55.6a1.745,1.745,0,0,1,1.733,1.733,1.738,1.738,0,0,1-1.733,1.733H9.7a7,7,0,0,1-3.1-.728L2.866,56.462H2v-13h.866l3.015-2.01A8.622,8.622,0,0,1,10.69,40H21.061a.869.869,0,0,1,.866.866,3.465,3.465,0,0,1-3.466,3.466H15v7.8h13a1.738,1.738,0,0,1,1.733,1.733A1.745,1.745,0,0,1,27.993,55.6Z" transform="translate(-2 -40)" fill="#f0d0b4"/>
        </g>
        <g id="Group_1208727" data-name="Group 1208727" transform="translate(32.058 0)">
          <path id="Path_1246928" data-name="Path 1246928" d="M58.928,5.466V17.6h-.866l-3.734,1.871a7,7,0,0,1-3.1.728h-.1V8.931H49.1a3.469,3.469,0,0,1-2.452-1.014L45.065,6.332h-2.6a3.458,3.458,0,0,1-3.353-2.6A3.169,3.169,0,0,1,39,2.866.869.869,0,0,1,39.866,2H50.238a8.622,8.622,0,0,1,4.809,1.456l3.015,2.01Z" transform="translate(-39 -2)" fill="#f0d0b4"/>
        </g>
      </g>
      <g id="Group_1208729" data-name="Group 1208729" transform="translate(1 1)">
        <path id="Path_1246929" data-name="Path 1246929" d="M53.248,4.466,50.451,2.6A9.5,9.5,0,0,0,45.165,1H34.791a1.735,1.735,0,0,0-1.733,1.733H14V33.924H10.554a9.5,9.5,0,0,0-5.287,1.6L2.47,37.39H1V52.119H2.528L6.081,53.9a7.841,7.841,0,0,0,3.487.823H26.127a2.591,2.591,0,0,0,2.409-3.566A2.556,2.556,0,0,0,30.3,47.787H46.921V20.89a7.848,7.848,0,0,0,2.718-.785l3.552-1.776h1.528V4.466ZM28.726,48.654a.867.867,0,0,1-.866.866h-10.4v1.733h8.664a.866.866,0,0,1,0,1.733H9.568a6.092,6.092,0,0,1-2.713-.64L2.937,50.387h-.2V39.123H3l3.234-2.156a7.775,7.775,0,0,1,4.325-1.31H20.928a2.6,2.6,0,0,1-2.6,2.6H14.5l-1.33,1.33a4.306,4.306,0,0,1-3.064,1.269H9.664v1.733h.446A6.018,6.018,0,0,0,14,41.177v6.61H27.859A.867.867,0,0,1,28.726,48.654Zm16.462-2.6H15.729V39.989h2.6a4.337,4.337,0,0,0,4.332-4.332,1.735,1.735,0,0,0-1.733-1.733h-5.2V4.466h17.7a4.335,4.335,0,0,0,3.965,2.6h2.241L40.961,8.4a4.3,4.3,0,0,0,3.064,1.268h1.164Zm7.8-29.459h-.2l-3.917,1.959a6.084,6.084,0,0,1-1.943.591V7.931h-2.9a2.583,2.583,0,0,1-1.839-.761L40.348,5.332H37.39a2.6,2.6,0,0,1-2.6-2.6H45.165a7.773,7.773,0,0,1,4.325,1.31L52.723,6.2h.263Z" transform="translate(-1 -1)"/>
        <path id="Path_1246930" data-name="Path 1246930" d="M32,48.863H47.6V35H32Zm1.733-12.13h12.13v10.4H33.733Z" transform="translate(-5.141 -5.541)"/>
        <path id="Path_1246931" data-name="Path 1246931" d="M38.638,43.745l-1.12-1.12L36.293,43.85,38.638,46.2l6.678-6.678-1.225-1.225Z" transform="translate(-5.714 -5.981)"/>
        <path id="Path_1246932" data-name="Path 1246932" d="M20,49h8.664v1.733H20Z" transform="translate(-3.538 -7.411)"/>
        <path id="Path_1246933" data-name="Path 1246933" d="M28,45h1.733v1.733H28Z" transform="translate(-4.606 -6.877)"/>
        <path id="Path_1246934" data-name="Path 1246934" d="M28,41h1.733v1.733H28Z" transform="translate(-4.606 -6.343)"/>
        <path id="Path_1246935" data-name="Path 1246935" d="M35.6,7H20V19.13H35.6ZM33.863,17.4H21.733V8.733h12.13Z" transform="translate(-3.538 -1.801)"/>
        <path id="Path_1246936" data-name="Path 1246936" d="M40,19h8.664v1.733H40Z" transform="translate(-6.209 -3.404)"/>
        <path id="Path_1246937" data-name="Path 1246937" d="M40,15h8.664v1.733H40Z" transform="translate(-6.209 -2.87)"/>
        <path id="Path_1246938" data-name="Path 1246938" d="M40,11h1.733v1.733H40Z" transform="translate(-6.209 -2.336)"/>
        <path id="Path_1246939" data-name="Path 1246939" d="M44,11h5.2v1.733H44Z" transform="translate(-6.743 -2.336)"/>
        <path id="Path_1246940" data-name="Path 1246940" d="M20,23h1.733v1.733H20Z" transform="translate(-3.538 -3.939)"/>
        <path id="Path_1246941" data-name="Path 1246941" d="M24,23H46.527v1.733H24Z" transform="translate(-4.072 -3.939)"/>
        <path id="Path_1246942" data-name="Path 1246942" d="M20,27H45.993v1.733H20Z" transform="translate(-3.538 -4.473)"/>
        <path id="Path_1246943" data-name="Path 1246943" d="M20,31h1.733v1.733H20Z" transform="translate(-3.538 -5.007)"/>
        <path id="Path_1246944" data-name="Path 1246944" d="M28,31h1.733v1.733H28Z" transform="translate(-4.606 -5.007)"/>
        <path id="Path_1246945" data-name="Path 1246945" d="M24,31h1.733v1.733H24Z" transform="translate(-4.072 -5.007)"/>
        <path id="Path_1246946" data-name="Path 1246946" d="M32,31H47.6v1.733H32Z" transform="translate(-5.141 -5.007)"/>
        <path id="Path_1246947" data-name="Path 1246947" d="M20,35h8.664v1.733H20Z" transform="translate(-3.538 -5.541)"/>
      </g>
    </g>
  </g>
</svg>
