<svg xmlns="http://www.w3.org/2000/svg" width="83" height="83" viewBox="0 0 83 83">
  <g id="Group_1208696" data-name="Group 1208696" transform="translate(-427.051 -8535)">
    <g id="Group_1208693" data-name="Group 1208693" transform="translate(89 5452)">
      <circle id="Ellipse_12656" data-name="Ellipse 12656" cx="41.5" cy="41.5" r="41.5" transform="translate(338.051 3083)" fill="#b7a8f1"/>
    </g>
    <g id="deuda" transform="translate(441.051 8549)">
      <path id="Path_1246869" data-name="Path 1246869" d="M11.428,3H35.871a.843.843,0,0,1,.843.843v47.2a.843.843,0,0,1-.843.843H3.843A.843.843,0,0,1,3,51.042V11.428Z" transform="translate(-0.157 -0.157)" fill="#c9dfff"/>
      <path id="Path_1246870" data-name="Path 1246870" d="M10,41H26.857v4.214H10Z" transform="translate(-1.257 -6.129)" fill="#f0be59"/>
      <path id="Path_1246871" data-name="Path 1246871" d="M7,46H23.857v4.214H7Z" transform="translate(-0.786 -6.915)" fill="#e39d10"/>
      <path id="Path_1246872" data-name="Path 1246872" d="M10,51H26.857v4.214H10Z" transform="translate(-1.257 -7.701)" fill="#f0be59"/>
      <path id="Path_1246873" data-name="Path 1246873" d="M7,56H23.857v4.214H7Z" transform="translate(-0.786 -8.487)" fill="#f0be59"/>
      <path id="Path_1246874" data-name="Path 1246874" d="M49,3h3.371V6.371H49Z" transform="translate(-7.387 -0.157)" fill="#10bde0"/>
      <path id="Path_1246875" data-name="Path 1246875" d="M11.428,10.586V3L3,11.428h7.586A.843.843,0,0,0,11.428,10.586Z" transform="translate(-0.157 -0.157)" fill="#10bde0"/>
      <path id="Path_1246876" data-name="Path 1246876" d="M55.542,29H38.686A1.686,1.686,0,0,0,37,30.686v8.428H57.228V30.686A1.686,1.686,0,0,0,55.542,29Zm-1.686,6.743H40.371V32.371H53.857Z" transform="translate(-5.501 -4.243)" fill="#7d7d7d"/>
      <path id="Path_1246877" data-name="Path 1246877" d="M47.114,41H37V56.171a1.686,1.686,0,0,0,1.686,1.686H55.542a1.686,1.686,0,0,0,1.686-1.686V41Z" transform="translate(-5.501 -6.129)" fill="#ebebeb"/>
      <path id="Path_1246878" data-name="Path 1246878" d="M41,33H54.485v3.371H41Z" transform="translate(-6.129 -4.872)" fill="#10bde0"/>
      <circle id="Ellipse_12662" data-name="Ellipse 12662" cx="7.5" cy="7.5" r="7.5" transform="translate(13 20)" fill="#e39d10"/>
      <path id="Path_1246879" data-name="Path 1246879" d="M47,7h6.743V23.014H47Z" transform="translate(-7.072 -0.786)" fill="#c9dfff"/>
      <path id="Path_1246880" data-name="Path 1246880" d="M54,57.5h1.686v.843H54Z" transform="translate(-8.172 -8.722)"/>
      <path id="Path_1246881" data-name="Path 1246881" d="M54,53.5h1.686v.843H54Z" transform="translate(-8.172 -8.094)"/>
      <path id="Path_1246882" data-name="Path 1246882" d="M55.385,28H38.529A2.529,2.529,0,0,0,36,30.529v23.6a2.529,2.529,0,0,0,2.529,2.529H55.385a2.529,2.529,0,0,0,2.529-2.529v-23.6A2.529,2.529,0,0,0,55.385,28ZM38.529,29.686H55.385a.843.843,0,0,1,.843.843v7.586H37.686V30.529A.843.843,0,0,1,38.529,29.686ZM47.8,39.8h8.428v6.743H47.8Zm-1.686,6.743H37.686V39.8h8.428Zm-8.428,7.586v-5.9h8.428v6.743H38.529A.843.843,0,0,1,37.686,54.128Zm17.7.843H47.8V48.228h8.428v5.9A.843.843,0,0,1,55.385,54.971Z" transform="translate(-5.343 -4.086)"/>
      <path id="Path_1246883" data-name="Path 1246883" d="M40.843,37.057H54.328a.843.843,0,0,0,.843-.843V32.843A.843.843,0,0,0,54.328,32H40.843a.843.843,0,0,0-.843.843v3.371A.843.843,0,0,0,40.843,37.057Zm.843-3.371h11.8v1.686h-11.8Z" transform="translate(-5.972 -4.715)"/>
      <path id="Path_1246884" data-name="Path 1246884" d="M40,46.371h1.686v1.686h1.686V46.371h1.686V44.686H43.371V43H41.686v1.686H40Z" transform="translate(-5.972 -6.444)"/>
      <path id="Path_1246885" data-name="Path 1246885" d="M52,45h5.057v1.686H52Z" transform="translate(-7.858 -6.758)"/>
      <path id="Path_1246886" data-name="Path 1246886" d="M44.939,54.485l-1.192-1.192-1.192,1.192-1.192-1.192-1.192,1.192,1.192,1.192-1.192,1.192,1.192,1.192,1.192-1.192,1.192,1.192,1.192-1.192-1.192-1.192Z" transform="translate(-5.999 -8.061)"/>
      <path id="Path_1246887" data-name="Path 1246887" d="M52,55h5.057v1.686H52Z" transform="translate(-7.858 -8.33)"/>
      <path id="Path_1246888" data-name="Path 1246888" d="M28.971,27.285a8.428,8.428,0,1,0-13.464,6.743H8.743a.843.843,0,0,0-.843.843v3.371H6.214a.843.843,0,0,0-.843.843V43.3a.843.843,0,0,0,.843.843H7.9V46.67H6.214a.843.843,0,0,0-.843.843v3.371H3.686V12.114h6.743a1.686,1.686,0,0,0,1.686-1.686V3.686h23.6V22.228H37.4V3.686A1.686,1.686,0,0,0,35.714,2H11.271v.008a.837.837,0,0,0-.6.239L2.247,10.675a.835.835,0,0,0-.239.6H2V50.885A1.686,1.686,0,0,0,3.686,52.57H28.971V50.885H23.914V48.356H25.6a.843.843,0,0,0,.843-.843V43.3a.843.843,0,0,0-.843-.843H23.914V39.928H25.6a.843.843,0,0,0,.843-.843V34.871a.843.843,0,0,0-.843-.843h-.022A8.412,8.412,0,0,0,28.971,27.285ZM10.428,4.877v5.551H4.877ZM7.057,50.885V48.356H22.228v2.529Zm17.7-4.214H9.586V44.142H24.757ZM8.743,42.456H7.057V39.928H22.228v2.529Zm16.014-6.743v2.529H9.586V35.714ZM13.8,27.285a6.743,6.743,0,1,1,6.743,6.743A6.743,6.743,0,0,1,13.8,27.285Z"/>
      <path id="Path_1246889" data-name="Path 1246889" d="M24.371,26H22.686v1a2.523,2.523,0,0,0,.843,4.9.843.843,0,1,1,0,1.686H21v1.686h1.686v.843h1.686v-1a2.523,2.523,0,0,0-.843-4.9.843.843,0,0,1,0-1.686h2.529V26.843H24.371Z" transform="translate(-2.986 -3.772)"/>
      <path id="Path_1246890" data-name="Path 1246890" d="M51.9,2H48.529a.843.843,0,0,0-.843.843V5.371h-.843A.843.843,0,0,0,46,6.214V22.228h1.686V7.057h5.057V22.228h1.686V7.9h1.686V18.857H57.8V7.9a1.686,1.686,0,0,0-1.686-1.686H54.428a.843.843,0,0,0-.843-.843h-.843V2.843A.843.843,0,0,0,51.9,2ZM49.371,3.686h1.686V5.371H49.371Z" transform="translate(-6.915)"/>
      <path id="Path_1246891" data-name="Path 1246891" d="M17,10H31.328v1.686H17Z" transform="translate(-2.357 -1.257)"/>
      <path id="Path_1246892" data-name="Path 1246892" d="M6,16H34.657v1.686H6Z" transform="translate(-0.629 -2.2)"/>
      <path id="Path_1246893" data-name="Path 1246893" d="M6,20H16.114v1.686H6Z" transform="translate(-0.629 -2.829)"/>
      <path id="Path_1246894" data-name="Path 1246894" d="M31,20h7.586v1.686H31Z" transform="translate(-4.558 -2.829)"/>
    </g>
  </g>
</svg>
