<svg xmlns="http://www.w3.org/2000/svg" width="144" height="144" viewBox="0 0 144 144">
  <g id="Group_1208928" data-name="Group 1208928" transform="translate(-436.051 -11979)">
    <g id="Group_1208901" data-name="Group 1208901" transform="translate(-323 3444)">
      <g id="Group_1208694" data-name="Group 1208694" transform="translate(759.051 8535)">
        <circle id="Ellipse_12656" data-name="Ellipse 12656" cx="72" cy="72" r="72" fill="#b7a8f1"/>
      </g>
    </g>
    <g id="estado-financiero" transform="translate(460.043 12003)">
      <path id="Path_1247685" data-name="Path 1247685" d="M100.025,11h42.894l9.306,9.306V78.983h-52.2Z" transform="translate(-78.859 -4.981)" fill="#cfe8ff" fill-rule="evenodd"/>
      <path id="Path_1247686" data-name="Path 1247686" d="M395.143,53.878l2.015,2.015v58.676h-2.015Z" transform="translate(-323.792 -40.566)" fill="#b6dbff" fill-rule="evenodd"/>
      <path id="Path_1247687" data-name="Path 1247687" d="M11.045,344.19H64.782v26.662H11.045Z" transform="translate(-5.01 -281.51)" fill="#2dd62d"/>
      <path id="Path_1247688" data-name="Path 1247688" d="M76.75,360.6a2.7,2.7,0,0,0,2.381,3.333v4.435H32.789v-4.435A2.7,2.7,0,0,0,35.17,360.6Z" transform="translate(-23.057 -295.133)" fill="#29b933" fill-rule="evenodd"/>
      <path id="Path_1247689" data-name="Path 1247689" d="M36.122,365.933H75.8a3.333,3.333,0,0,0,3.333,3.333v12.6A3.333,3.333,0,0,0,75.8,385.2H36.122a3.333,3.333,0,0,0-3.333-3.333v-12.6A3.333,3.333,0,0,0,36.122,365.933Z" transform="translate(-23.057 -299.555)" fill="#96ff96" fill-rule="evenodd"/>
      <circle id="Ellipse_12718" data-name="Ellipse 12718" cx="9.601" cy="9.601" r="9.601" transform="translate(22.617 84.923) rotate(-85.927)" fill="#29b933"/>
      <path id="Path_1247690" data-name="Path 1247690" d="M122.277,366.123a9.032,9.032,0,1,1-9.583,9.015A9.6,9.6,0,0,1,122.277,366.123Z" transform="translate(-89.374 -299.713)" fill="#2dd62d" fill-rule="evenodd"/>
      <path id="Path_1247691" data-name="Path 1247691" d="M319.724,344.19h1.245v26.662h-1.245Z" transform="translate(-261.198 -281.51)" fill="#29b933"/>
      <path id="Path_1247692" data-name="Path 1247692" d="M352.266,11l9.306,9.306h-9.306Z" transform="translate(-288.206 -4.981)" fill="#4eb1fc" fill-rule="evenodd"/>
      <path id="Path_1247693" data-name="Path 1247693" d="M145.557,174.511h6.188v23.257h-6.188Z" transform="translate(-116.648 -140.685)" fill="#4eb1fc"/>
      <path id="Path_1247694" data-name="Path 1247694" d="M81.832,238.53H88.02V250.9H81.832Z" transform="translate(-63.76 -193.818)" fill="#fdc72e"/>
      <path id="Path_1247695" data-name="Path 1247695" d="M209.282,185.03h6.188V206.5h-6.188Z" transform="translate(-169.537 -149.415)" fill="#2dd62d"/>
      <path id="Path_1247696" data-name="Path 1247696" d="M273.007,135.8h6.188v29.84h-6.188Z" transform="translate(-222.425 -108.554)" fill="#f89b00"/>
      <path id="Path_1247697" data-name="Path 1247697" d="M18.106,270.182h6.188v6.988H18.106Z" transform="translate(-10.871 -220.087)" fill="#fb545c"/>
      <path id="Path_1247698" data-name="Path 1247698" d="M298.6,135.8h1.835v29.84H298.6Z" transform="translate(-243.667 -108.554)" fill="#e68207"/>
      <path id="Path_1247699" data-name="Path 1247699" d="M234.875,185.03h1.835V206.5h-1.835Z" transform="translate(-190.778 -149.415)" fill="#29b933"/>
      <path id="Path_1247700" data-name="Path 1247700" d="M171.15,174.511h1.835v23.257H171.15Z" transform="translate(-137.889 -140.685)" fill="#2a92fa"/>
      <path id="Path_1247701" data-name="Path 1247701" d="M107.424,238.53h1.835V250.9h-1.835Z" transform="translate(-85 -193.818)" fill="#f9ac00"/>
      <path id="Path_1247702" data-name="Path 1247702" d="M43.7,270.182h1.835v6.988H43.7Z" transform="translate(-32.111 -220.087)" fill="#e8333c"/>
      <g id="Group_1208926" data-name="Group 1208926" transform="translate(57.381 45.186)">
        <path id="Path_1247703" data-name="Path 1247703" d="M331.124,306.736c6.056,2.388,11.214,10.9,13.083,18.153,3.135,12.161-3.823,14.684-15.232,14.883-11.409-.2-18.367-2.722-15.232-14.883,1.869-7.25,7.027-15.765,13.083-18.153h4.3Z" transform="translate(-312.991 -295.611)" fill="#d19458" fill-rule="evenodd"/>
        <path id="Path_1247704" data-name="Path 1247704" d="M327.119,339.715c-10.293-.453-16.337-3.34-13.376-14.826,1.869-7.25,7.027-15.765,13.083-18.153h.587c6.056,2.388,11.214,10.9,13.083,18.153C343.457,336.375,337.412,339.262,327.119,339.715Z" transform="translate(-312.99 -295.611)" fill="#e6b17c" fill-rule="evenodd"/>
        <path id="Path_1247705" data-name="Path 1247705" d="M357.761,253.906l-3.1.009c-7.023-9.618-5.368-13.043-2.106-12.028a5.794,5.794,0,0,1,2.073,1.229c.909.749,1.634,1.1,2.41,0,1.689-2.4,3.2-2.4,4.891,0,.776,1.1,1.5.753,2.41,0a5.8,5.8,0,0,1,2.073-1.229c3.262-1.015,4.917,2.41-2.106,12.028l-3.1-.009c-.648,0-1.184.006-1.719.006s-1.07,0-1.719-.006Z" transform="translate(-343.495 -241.314)" fill="#d19458" fill-rule="evenodd"/>
        <path id="Path_1247706" data-name="Path 1247706" d="M357.761,253.907h-.274l-.3,0-1.422,0-1.116,0c-7.018-9.614-5.363-13.037-2.1-12.023a5.794,5.794,0,0,1,2.073,1.229c.909.749,1.634,1.1,2.41,0,1.689-2.4,3.2-2.4,4.891,0,.776,1.1,1.5.753,2.41,0a9.475,9.475,0,0,1,.855-.652c.889,1.458.033,5.105-4.595,11.445l-1.116,0-1.422,0-.3,0Z" transform="translate(-343.495 -241.315)" fill="#e6b17c" fill-rule="evenodd"/>
      </g>
      <rect id="Rectangle_411197" data-name="Rectangle 411197" width="16.055" height="3.565" rx="1.782" transform="translate(65.338 56.001)" fill="#96602a"/>
      <g id="Group_1208927" data-name="Group 1208927" transform="translate(5.008 5)">
        <path id="Path_1247707" data-name="Path 1247707" d="M371.04,304.913h-9.476a1.782,1.782,0,0,0,0,3.565h9.476a1.782,1.782,0,0,0,0-3.565Z" transform="translate(-299.452 -253.912)" fill="#ab733a" fill-rule="evenodd"/>
        <path id="Path_1247708" data-name="Path 1247708" d="M8.253,56.063H12.4V51.115H8.253Zm-2.04,1.02V50.095a1.023,1.023,0,0,1,1.024-1.02h6.187a1.016,1.016,0,0,1,1.016,1.02v6.988a1.015,1.015,0,0,1-1.016,1.02H7.237A1.022,1.022,0,0,1,6.213,57.083Zm49.534-28.82H51.6v27.8h4.146Zm1.024-2.04a1.015,1.015,0,0,1,1.016,1.02v29.84a1.015,1.015,0,0,1-1.016,1.02H50.585a1.022,1.022,0,0,1-1.024-1.02V27.243a1.022,1.022,0,0,1,1.024-1.02ZM44.914,36.635H40.768V56.063h4.146Zm1.016-2.04a1.022,1.022,0,0,1,1.024,1.02V57.083A1.022,1.022,0,0,1,45.93,58.1H39.744a1.015,1.015,0,0,1-1.016-1.02V35.615a1.015,1.015,0,0,1,1.016-1.02ZM23.24,45.733H19.094v10.33H23.24Zm1.016-2.04a1.022,1.022,0,0,1,1.024,1.02v12.37a1.022,1.022,0,0,1-1.024,1.02H18.07a1.02,1.02,0,0,1-1.016-1.02V44.713a1.021,1.021,0,0,1,1.016-1.02Zm9.817-8.847H29.927V56.063h4.146Zm1.024-2.04a1.016,1.016,0,0,1,1.016,1.02V57.083A1.015,1.015,0,0,1,35.1,58.1H28.911a1.022,1.022,0,0,1-1.024-1.02V33.826a1.023,1.023,0,0,1,1.024-1.02H35.1ZM10.81,47.491a1.021,1.021,0,0,1-.721-1.742l20.6-20.6a1.026,1.026,0,0,1,1.123-.218l10.054,4.262L53.994,17.061l-.574.084a1.02,1.02,0,0,1-.295-2.019l3.622-.53a1.021,1.021,0,0,1,.869.288,1.059,1.059,0,0,1,.287.869L57.37,19.37a1.019,1.019,0,0,1-1.008.873.977.977,0,0,1-.147-.011,1.02,1.02,0,0,1-.86-1.158l.082-.57L42.825,31.117a1.024,1.024,0,0,1-1.123.218L31.648,27.073,11.531,47.192a1.011,1.011,0,0,1-.721.3Zm66.3,30.1a4.548,4.548,0,0,0-2.721-1.618v4.342c1.434-.151,2.573-.739,2.794-1.51a1.5,1.5,0,0,0-.074-1.214ZM72.349,73.35V68.885a3.84,3.84,0,0,0-2.139.958,1.772,1.772,0,0,0-.533,1.339,1.917,1.917,0,0,0,.828,1.367,5.5,5.5,0,0,0,1.844.8ZM78.9,76.6a3.548,3.548,0,0,1,.254,2.773c-.557,1.879-2.655,2.81-4.761,2.986v1.393a1.02,1.02,0,1,1-2.04,0V82.3c-2.565-.361-4.441-1.767-4.908-3.75a1.022,1.022,0,0,1,1.991-.463c.279,1.181,1.532,1.875,2.917,2.139V75.461a8.34,8.34,0,0,1-3.089-1.3,3.974,3.974,0,0,1-1.622-2.831,3.786,3.786,0,0,1,1.106-2.9,5.907,5.907,0,0,1,3.605-1.6V65.406a1.02,1.02,0,1,1,2.04,0v1.422a8.078,8.078,0,0,1,1.254.239,4.7,4.7,0,0,1,3.622,3.3,1.021,1.021,0,0,1-1.991.452c-.262-1.137-1.606-1.627-2.18-1.785a5.805,5.805,0,0,0-.7-.151v4.975c.164.043.336.086.5.133,2.016.574,3.368,1.453,4.007,2.611Zm8.71-1.881c1.147,4.448.934,7.626-.656,9.718-1.95,2.558-6.138,3.758-13.586,3.89-7.449-.132-11.636-1.332-13.586-3.89-1.59-2.091-1.8-5.27-.656-9.718a33.155,33.155,0,0,1,7.735-14.146c.09.008.172.013.262.013H79.609c.09,0,.18,0,.262-.013a33.069,33.069,0,0,1,7.735,14.146ZM39.113,84.627H51.846a4.375,4.375,0,0,1,3.212-3.213V70.608a4.377,4.377,0,0,1-3.212-3.214H39.113a10.613,10.613,0,0,1,0,17.232ZM26.7,67.394H13.956a4.364,4.364,0,0,1-3.212,3.214V81.414a4.362,4.362,0,0,1,3.212,3.213H26.7a10.613,10.613,0,0,1,0-17.232Zm14.791,8.616A8.584,8.584,0,1,1,32.9,67.427,8.6,8.6,0,0,1,41.489,76.011ZM58.762,88.326V86.374a8.148,8.148,0,0,1-.606-.7,8.331,8.331,0,0,1-1.336-2.654,1.028,1.028,0,0,1-.738.315,2.319,2.319,0,0,0-2.319,2.313,1.015,1.015,0,0,1-1.016,1.02H13.055a1.02,1.02,0,0,1-1.016-1.02A2.319,2.319,0,0,0,9.72,83.334,1.021,1.021,0,0,1,8.7,82.314V69.708a1.02,1.02,0,0,1,1.016-1.02,2.319,2.319,0,0,0,2.319-2.314,1.021,1.021,0,0,1,1.016-1.02H52.748a1.015,1.015,0,0,1,1.016,1.02,2.319,2.319,0,0,0,2.319,2.314,1.015,1.015,0,0,1,1.016,1.02v4.677c.016-.059.033-.117.049-.177a34.45,34.45,0,0,1,1.614-4.761V63.7H7.048v24.63Zm9.071-33.345H78.9c3.343-5.1,3.466-7.529,2.991-8.161-.279-.368-1.057-.16-1.286-.088a4.683,4.683,0,0,0-1.68,1l-.049.039a3.009,3.009,0,0,1-2.27.913,2.4,2.4,0,0,1-1.622-1.117c-.623-.881-1.2-1.365-1.614-1.365s-.992.484-1.606,1.365a2.426,2.426,0,0,1-1.631,1.117,3.017,3.017,0,0,1-2.27-.913l-.041-.039a4.757,4.757,0,0,0-1.68-1c-.238-.072-1.016-.28-1.295.088-.467.631-.352,3.056,2.991,8.161ZM65.08,14.306h5.826L65.08,8.484v5.822ZM79.609,58.545a.762.762,0,0,0,0-1.524H67.121a.762.762,0,1,0,0,1.524Zm8.964,27.127c-3.007,3.955-9.366,4.592-15.192,4.694h-.033c-4.449-.077-9.2-.47-12.545-2.412v1.393a1.022,1.022,0,0,1-1.024,1.019H6.024a1.015,1.015,0,0,1-1.016-1.019V62.675a1.016,1.016,0,0,1,1.016-1.02H59.779a1.023,1.023,0,0,1,1.024,1.02v2.643a30.972,30.972,0,0,1,4.171-5.733,2.8,2.8,0,0,1,.7-4.2c-2.925-4.656-3.778-8.029-2.458-9.791a3.036,3.036,0,0,1,3.532-.814,6.652,6.652,0,0,1,2.368,1.378l.049.038a2.249,2.249,0,0,0,.688.46.917.917,0,0,0,.238-.264,5.372,5.372,0,0,1,2.262-2.028V16.347H64.064a1.023,1.023,0,0,1-1.024-1.021V7.041H22.183V30.188a1.02,1.02,0,1,1-2.04,0V6.021a1,1,0,0,1,.3-.722,1.017,1.017,0,0,1,.721-.3h42.9a1.031,1.031,0,0,1,.721.3l9.3,9.306a1,1,0,0,1,.3.721V44.367A5.414,5.414,0,0,1,76.643,46.4a1.28,1.28,0,0,0,.238.264,2.341,2.341,0,0,0,.7-.46l.041-.038a6.628,6.628,0,0,1,2.376-1.378,3.023,3.023,0,0,1,3.523.815c1.319,1.762.467,5.135-2.458,9.789a2.8,2.8,0,0,1,.7,4.2A35.2,35.2,0,0,1,89.59,74.209c1.311,5.093.975,8.842-1.016,11.464ZM35.327,78.3a2.576,2.576,0,0,0-1.4-.9v2.378c.795-.145,1.336-.49,1.434-.828a.788.788,0,0,0-.033-.647Zm-3.442-3.566V72.291a2.169,2.169,0,0,0-1.032.529.989.989,0,0,0-.3.737,1.131,1.131,0,0,0,.483.771,2.886,2.886,0,0,0,.852.411Zm5.228,2.579a4.735,4.735,0,0,0-3.04-2.008c-.049-.014-.1-.025-.147-.039V72.284l.139.034c.361.1,1.2.4,1.352,1.063a1.021,1.021,0,0,0,1.991-.452,3.645,3.645,0,0,0-2.794-2.576,5.857,5.857,0,0,0-.688-.145v-.765a1.02,1.02,0,1,0-2.04,0v.773a4.446,4.446,0,0,0-2.507,1.191,2.986,2.986,0,0,0-.86,2.3,3.106,3.106,0,0,0,1.262,2.235,5.855,5.855,0,0,0,2.106.925v2.826a1.921,1.921,0,0,1-1.516-1.236,1.022,1.022,0,0,0-1.991.464,4.072,4.072,0,0,0,3.507,2.862v.8a1.02,1.02,0,1,0,2.04,0v-.739a3.761,3.761,0,0,0,3.392-2.315,2.809,2.809,0,0,0-.2-2.208ZM15.5,77.031a1.02,1.02,0,1,1,0-2.04H17.52a1.02,1.02,0,0,1,0,2.04Zm35.817-1.02a1.02,1.02,0,0,1-1.016,1.02H48.282a1.02,1.02,0,0,1,0-2.04h2.024A1.02,1.02,0,0,1,51.322,76.01Z" transform="translate(-5.008 -5)" fill="#021047" fill-rule="evenodd"/>
      </g>
    </g>
  </g>
</svg>
