<svg xmlns="http://www.w3.org/2000/svg" xmlns:xlink="http://www.w3.org/1999/xlink" width="144" height="144" viewBox="0 0 144 144">
  <defs>
    <clipPath id="clip-path">
      <path id="path1905" d="M0-682.665H88.145v88.145H0Z" transform="translate(0 682.665)"/>
    </clipPath>
  </defs>
  <g id="Group_1208929" data-name="Group 1208929" transform="translate(-1020.051 -12233)">
    <g id="Group_1208902" data-name="Group 1208902" transform="translate(261 3698)">
      <g id="Group_1208694" data-name="Group 1208694" transform="translate(759.051 8535)">
        <circle id="Ellipse_12656" data-name="Ellipse 12656" cx="72" cy="72" r="72" fill="#b7a8f1"/>
      </g>
    </g>
    <g id="g1899" transform="translate(1042.979 12943.447)">
      <g id="g1901" transform="translate(0 -682.665)">
        <g id="g1903" clip-path="url(#clip-path)">
          <g id="g1909" transform="translate(18.406 17.962)">
            <path id="path1911" d="M0,0V63.187a5.7,5.7,0,0,0,5.7,5.7h54.19a5.7,5.7,0,0,0,5.7-5.7V0Z" fill="#f9f5f3"/>
          </g>
          <g id="g1913" transform="translate(74.34 17.962)">
            <path id="path1915" d="M-38.473,0V63.187a5.7,5.7,0,0,1-5.7,5.7h3.96a5.7,5.7,0,0,0,5.7-5.7V0Z" transform="translate(44.177)" fill="#f9eae0"/>
          </g>
          <g id="g1917" transform="translate(8.48 45.554)">
            <path id="path1919" d="M-204.552-150.142l-22.26-22.26-8.067,8.067,22.26,22.26a1.377,1.377,0,0,0,.974.4h1.229l6.267-6.267v-1.229a1.377,1.377,0,0,0-.4-.974" transform="translate(234.879 172.402)" fill="#a0c8ff"/>
          </g>
          <g id="g1921" transform="translate(14.571 45.554)">
            <path id="path1923" d="M-163.468-150.142l-22.26-22.26-1.976,1.976,23.036,23.036a1.376,1.376,0,0,1,.372.684l1.232-1.232v-1.229a1.377,1.377,0,0,0-.4-.974" transform="translate(187.704 172.402)" fill="#91b2fa"/>
          </g>
          <g id="g1925" transform="translate(31.232 68.307)">
            <path id="path1927" d="M-53.812-44.523v-6.119a1.375,1.375,0,0,0-.089-.482l-7.89,7.89a1.375,1.375,0,0,0,.482.089h6.119a1.377,1.377,0,0,0,1.377-1.377" transform="translate(61.791 51.124)" fill="#f9eae0"/>
          </g>
          <g id="g1929" transform="translate(4.141 41.216)">
            <path id="path1931" d="M-32.839-5.635-36.872-1.6a2.852,2.852,0,0,0,0,4.033l4.033,4.033L-24.772-1.6l-4.033-4.033a2.852,2.852,0,0,0-4.033,0" transform="translate(37.708 6.47)" fill="#fa8ebb"/>
          </g>
          <g id="g1933" transform="translate(9.051 41.217)">
            <path id="path1935" d="M0-5.378c.013.013.028.024.041.037L6.05.669,8.026-1.307,3.992-5.341A2.85,2.85,0,0,0,0-5.378" transform="translate(0 6.175)" fill="#f57fb0"/>
          </g>
          <g id="g1937" transform="translate(18.406 6.995)">
            <path id="path1939" d="M-403.973,0h-54.19a5.7,5.7,0,0,0-5.7,5.7V14.26h65.6V5.7a5.7,5.7,0,0,0-5.7-5.7" transform="translate(463.867)" fill="#ffce69"/>
          </g>
          <g id="g1941" transform="translate(74.34 6.995)">
            <path id="path1943" d="M-26.707,0h-3.96a5.7,5.7,0,0,1,5.7,5.7V14.26H-21V5.7a5.7,5.7,0,0,0-5.7-5.7" transform="translate(30.667)" fill="#ffbd61"/>
          </g>
          <g id="g1945" transform="translate(26.962 1.291)">
            <path id="path1947" d="M0-57.71a2.852,2.852,0,0,0,2.852,2.852A2.852,2.852,0,0,0,5.7-57.71v-5.7a2.852,2.852,0,0,0-2.852-2.852A2.852,2.852,0,0,0,0-63.414Z" transform="translate(0 66.267)" fill="#bdd3dd"/>
          </g>
          <g id="g1949" transform="translate(69.743 1.291)">
            <path id="path1951" d="M0-57.71a2.852,2.852,0,0,0,2.852,2.852A2.852,2.852,0,0,0,5.7-57.71v-5.7a2.852,2.852,0,0,0-2.852-2.852A2.852,2.852,0,0,0,0-63.414Z" transform="translate(0 66.267)" fill="#bdd3dd"/>
          </g>
          <g id="g1953" transform="translate(41.222 1.291)">
            <path id="path1955" d="M0-57.71a2.852,2.852,0,0,0,2.852,2.852A2.852,2.852,0,0,0,5.7-57.71v-5.7a2.852,2.852,0,0,0-2.852-2.852A2.852,2.852,0,0,0,0-63.414Z" transform="translate(0 66.267)" fill="#bdd3dd"/>
          </g>
          <g id="g1957" transform="translate(55.483 1.291)">
            <path id="path1959" d="M0-57.71a2.852,2.852,0,0,0,2.852,2.852A2.852,2.852,0,0,0,5.7-57.71v-5.7a2.852,2.852,0,0,0-2.852-2.852A2.852,2.852,0,0,0,0-63.414Z" transform="translate(0 66.267)" fill="#bdd3dd"/>
          </g>
          <g id="g1961" transform="translate(70.616 1.291)">
            <path id="path1963" d="M-13.353,0a2.841,2.841,0,0,0-1.98.8,2.842,2.842,0,0,1,.872,2.05v5.7a2.842,2.842,0,0,1-.872,2.05,2.84,2.84,0,0,0,1.98.8A2.852,2.852,0,0,0-10.5,8.556v-5.7A2.852,2.852,0,0,0-13.353,0" transform="translate(15.333)" fill="#abc4d6"/>
          </g>
          <g id="g1965" transform="translate(56.355 1.291)">
            <path id="path1967" d="M-13.353,0a2.841,2.841,0,0,0-1.98.8,2.842,2.842,0,0,1,.872,2.05v5.7a2.841,2.841,0,0,1-.872,2.05,2.84,2.84,0,0,0,1.98.8A2.852,2.852,0,0,0-10.5,8.556v-5.7A2.852,2.852,0,0,0-13.353,0" transform="translate(15.333)" fill="#abc4d6"/>
          </g>
          <g id="g1969" transform="translate(42.095 1.291)">
            <path id="path1971" d="M-13.353,0a2.841,2.841,0,0,0-1.98.8,2.842,2.842,0,0,1,.872,2.05v5.7a2.842,2.842,0,0,1-.872,2.05,2.84,2.84,0,0,0,1.98.8A2.852,2.852,0,0,0-10.5,8.556v-5.7A2.852,2.852,0,0,0-13.353,0" transform="translate(15.333)" fill="#abc4d6"/>
          </g>
          <g id="g1973" transform="translate(27.834 1.291)">
            <path id="path1975" d="M-13.353,0a2.841,2.841,0,0,0-1.98.8,2.842,2.842,0,0,1,.872,2.05v5.7a2.841,2.841,0,0,1-.872,2.05,2.84,2.84,0,0,0,1.98.8A2.852,2.852,0,0,0-10.5,8.556v-5.7A2.852,2.852,0,0,0-13.353,0" transform="translate(15.333)" fill="#abc4d6"/>
          </g>
          <g id="g1977" transform="translate(2.852 39.925)">
            <path id="path1979" d="M-182.754-243.954h-8.067a1.291,1.291,0,0,1-.913-.378L-217.9-270.5a4.148,4.148,0,0,1,0-5.859l4.033-4.033a4.116,4.116,0,0,1,2.93-1.214,4.116,4.116,0,0,1,2.93,1.214l26.167,26.167a1.291,1.291,0,0,1,.378.913v8.067A1.291,1.291,0,0,1-182.754-243.954Zm-7.532-2.582h6.241v-6.241l-25.789-25.789a1.55,1.55,0,0,0-1.1-.457,1.55,1.55,0,0,0-1.1.457l-4.034,4.034a1.563,1.563,0,0,0,0,2.207Z" transform="translate(219.113 281.605)"/>
          </g>
          <g id="g1981" transform="translate(37.919 74.994)">
            <path id="path1983" d="M-6.692-5.4a1.287,1.287,0,0,1-.913-.378L-9.622-7.8a1.291,1.291,0,0,1,0-1.826,1.291,1.291,0,0,1,1.826,0l2.017,2.017a1.291,1.291,0,0,1,0,1.826A1.287,1.287,0,0,1-6.692-5.4Z" transform="translate(10 10)"/>
          </g>
          <g id="g1985" transform="translate(7.719 44.793)">
            <path id="path1987" d="M-71.186.649A1.287,1.287,0,0,1-72.1.271a1.291,1.291,0,0,1,0-1.826l8.067-8.067a1.291,1.291,0,0,1,1.826,0,1.291,1.291,0,0,1,0,1.826L-70.273.271A1.287,1.287,0,0,1-71.186.649Z" transform="translate(72.477 10)"/>
          </g>
          <g id="g1989" transform="translate(29.852 66.927)">
            <path id="path1991" d="M-71.186.649A1.287,1.287,0,0,1-72.1.271a1.291,1.291,0,0,1,0-1.826l8.067-8.067a1.291,1.291,0,0,1,1.826,0,1.291,1.291,0,0,1,0,1.826L-70.273.271A1.287,1.287,0,0,1-71.186.649Z" transform="translate(72.477 10)"/>
          </g>
          <g id="g1993" transform="translate(11.752 48.827)">
            <path id="path1995" d="M13.425,14.716a1.287,1.287,0,0,1-.913-.378L-9.622-7.8a1.291,1.291,0,0,1,0-1.826,1.291,1.291,0,0,1,1.826,0L14.338,12.512a1.291,1.291,0,0,1-.913,2.2Z" transform="translate(10 10)"/>
          </g>
          <g id="g1997" transform="translate(74.156 5.704)">
            <path id="path1999" d="M-66.419-171.7A1.291,1.291,0,0,1-67.71-173V-191.65a4.418,4.418,0,0,0-4.413-4.413h-2.852a1.291,1.291,0,0,1-1.291-1.291,1.291,1.291,0,0,1,1.291-1.291h2.852a7,7,0,0,1,7,7V-173A1.291,1.291,0,0,1-66.419-171.7Z" transform="translate(76.266 198.645)"/>
          </g>
          <g id="g2001" transform="translate(71.907 35.227)">
            <path id="path2003" d="M-3.607-346.922h-5.1A1.291,1.291,0,0,1-10-348.214,1.291,1.291,0,0,1-8.709-349.5h5.1a4.418,4.418,0,0,0,4.413-4.413v-44.631A1.291,1.291,0,0,1,2.1-399.84a1.291,1.291,0,0,1,1.291,1.291v44.631A7,7,0,0,1-3.607-346.922Z" transform="translate(10 399.84)"/>
          </g>
          <g id="g2005" transform="translate(17.115 62.478)">
            <path id="path2007" d="M40.919,15.666H-3a7,7,0,0,1-7-7V-8.709A1.291,1.291,0,0,1-8.709-10,1.291,1.291,0,0,1-7.418-8.709V8.671A4.418,4.418,0,0,0-3,13.084H40.919a1.291,1.291,0,0,1,0,2.582Z" transform="translate(10 10)"/>
          </g>
          <g id="g2009" transform="translate(17.115 5.704)">
            <path id="path2011" d="M-74.977,32.779a1.291,1.291,0,0,1-1.291-1.291V-3a7,7,0,0,1,7-7h2.852a1.291,1.291,0,0,1,1.291,1.291A1.291,1.291,0,0,1-66.42-7.418h-2.852A4.418,4.418,0,0,0-73.685-3V31.487A1.291,1.291,0,0,1-74.977,32.779Z" transform="translate(76.268 10)"/>
          </g>
          <g id="g2013" transform="translate(31.375 5.704)">
            <path id="path2015" d="M-66.419-7.418h-8.556a1.291,1.291,0,0,1-1.291-1.291A1.291,1.291,0,0,1-74.975-10h8.556a1.291,1.291,0,0,1,1.291,1.291A1.291,1.291,0,0,1-66.419-7.418Z" transform="translate(76.266 10)"/>
          </g>
          <g id="g2017" transform="translate(45.635 5.704)">
            <path id="path2019" d="M-66.42-7.418h-8.556a1.291,1.291,0,0,1-1.291-1.291A1.291,1.291,0,0,1-74.977-10h8.556a1.291,1.291,0,0,1,1.291,1.291A1.291,1.291,0,0,1-66.42-7.418Z" transform="translate(76.268 10)"/>
          </g>
          <g id="g2021" transform="translate(59.926 5.704)">
            <path id="path2023" d="M-66.218-7.418h-8.526a1.291,1.291,0,0,1-1.291-1.291A1.291,1.291,0,0,1-74.745-10h8.526a1.291,1.291,0,0,1,1.291,1.291A1.291,1.291,0,0,1-66.218-7.418Z" transform="translate(76.036 10)"/>
          </g>
          <g id="g2025" transform="translate(17.115 19.964)">
            <path id="path2027" d="M56.889-7.418h-65.6A1.291,1.291,0,0,1-10-8.709,1.291,1.291,0,0,1-8.709-10h65.6A1.291,1.291,0,0,1,58.18-8.709,1.291,1.291,0,0,1,56.889-7.418Z" transform="translate(10 10)"/>
          </g>
          <g id="g2029" transform="translate(27.097 28.521)">
            <path id="path2031" d="M36.924-7.418H-8.709A1.291,1.291,0,0,1-10-8.709,1.291,1.291,0,0,1-8.709-10H36.924a1.291,1.291,0,0,1,1.291,1.291A1.291,1.291,0,0,1,36.924-7.418Z" transform="translate(10 10)"/>
          </g>
          <g id="g2033" transform="translate(27.097 37.077)">
            <path id="path2035" d="M36.924-7.418H-8.709A1.291,1.291,0,0,1-10-8.709,1.291,1.291,0,0,1-8.709-10H36.924a1.291,1.291,0,0,1,1.291,1.291A1.291,1.291,0,0,1,36.924-7.418Z" transform="translate(10 10)"/>
          </g>
          <g id="g2037" transform="translate(27.097 45.633)">
            <path id="path2039" d="M36.924-7.418H-8.709A1.291,1.291,0,0,1-10-8.709,1.291,1.291,0,0,1-8.709-10H36.924a1.291,1.291,0,0,1,1.291,1.291A1.291,1.291,0,0,1,36.924-7.418Z" transform="translate(10 10)"/>
          </g>
          <g id="g2041" transform="translate(27.097 54.189)">
            <path id="path2043" d="M36.924-7.418H-8.709A1.291,1.291,0,0,1-10-8.709,1.291,1.291,0,0,1-8.709-10H36.924a1.291,1.291,0,0,1,1.291,1.291A1.291,1.291,0,0,1,36.924-7.418Z" transform="translate(10 10)"/>
          </g>
          <g id="g2045" transform="translate(42.783 62.746)">
            <path id="path2047" d="M21.238-7.418H-8.709A1.291,1.291,0,0,1-10-8.709,1.291,1.291,0,0,1-8.709-10H21.238a1.291,1.291,0,0,1,1.291,1.291A1.291,1.291,0,0,1,21.238-7.418Z" transform="translate(10 10)"/>
          </g>
          <g id="g2049" transform="translate(25.671 0)">
            <path id="path2051" d="M-5.857-62.276A4.148,4.148,0,0,1-10-66.419v-5.7a4.148,4.148,0,0,1,4.143-4.143,4.148,4.148,0,0,1,4.143,4.143v5.7A4.148,4.148,0,0,1-5.857-62.276Zm0-11.408a1.563,1.563,0,0,0-1.561,1.561v5.7a1.563,1.563,0,0,0,1.561,1.561A1.563,1.563,0,0,0-4.3-66.419v-5.7A1.563,1.563,0,0,0-5.857-73.684Z" transform="translate(10 76.266)"/>
          </g>
          <g id="g2053" transform="translate(68.452 0)">
            <path id="path2055" d="M-5.857-62.276A4.148,4.148,0,0,1-10-66.419v-5.7a4.148,4.148,0,0,1,4.143-4.143,4.148,4.148,0,0,1,4.143,4.143v5.7A4.148,4.148,0,0,1-5.857-62.276Zm0-11.408a1.563,1.563,0,0,0-1.561,1.561v5.7a1.563,1.563,0,0,0,1.561,1.561A1.563,1.563,0,0,0-4.3-66.419v-5.7A1.563,1.563,0,0,0-5.857-73.684Z" transform="translate(10 76.266)"/>
          </g>
          <g id="g2057" transform="translate(39.931 0)">
            <path id="path2059" d="M-5.857-62.276A4.148,4.148,0,0,1-10-66.419v-5.7a4.148,4.148,0,0,1,4.143-4.143,4.148,4.148,0,0,1,4.143,4.143v5.7A4.148,4.148,0,0,1-5.857-62.276Zm0-11.408a1.563,1.563,0,0,0-1.561,1.561v5.7a1.563,1.563,0,0,0,1.561,1.561A1.563,1.563,0,0,0-4.3-66.419v-5.7A1.563,1.563,0,0,0-5.857-73.684Z" transform="translate(10 76.266)"/>
          </g>
          <g id="g2061" transform="translate(54.192 0)">
            <path id="path2063" d="M-5.857-62.276A4.148,4.148,0,0,1-10-66.419v-5.7a4.148,4.148,0,0,1,4.143-4.143,4.148,4.148,0,0,1,4.143,4.143v5.7A4.148,4.148,0,0,1-5.857-62.276Zm0-11.408a1.563,1.563,0,0,0-1.561,1.561v5.7a1.563,1.563,0,0,0,1.561,1.561A1.563,1.563,0,0,0-4.3-66.419v-5.7A1.563,1.563,0,0,0-5.857-73.684Z" transform="translate(10 76.266)"/>
          </g>
        </g>
      </g>
    </g>
  </g>
</svg>
