<svg xmlns="http://www.w3.org/2000/svg" width="144" height="144" viewBox="0 0 144 144">
  <g id="Group_1208907" data-name="Group 1208907" transform="translate(-1020.051 -11176)">
    <g id="Group_1208898" data-name="Group 1208898" transform="translate(261 2641)">
      <g id="Group_1208694" data-name="Group 1208694" transform="translate(759.051 8535)">
        <circle id="Ellipse_12656" data-name="Ellipse 12656" cx="72" cy="72" r="72" fill="#b7a8f1"/>
      </g>
    </g>
    <g id="ganador" transform="translate(1039.839 11202.046)">
      <g id="Group_1208906" data-name="Group 1208906" transform="translate(10.008 2.41)">
        <g id="Group_1208903" data-name="Group 1208903" transform="translate(0 54.498)">
          <path id="Path_1247643" data-name="Path 1247643" d="M48.08,327l5.553,20.722A34.626,34.626,0,0,1,57.293,345a11.446,11.446,0,0,1,4.065-1.77,10.513,10.513,0,0,1,4.711.122.006.006,0,0,1,.005,0l11.27,2.584a9.632,9.632,0,0,0,7.258-.956l28.184-16.272a5.28,5.28,0,0,0-5.28-9.144L87.88,330.9l.042-.148a5.864,5.864,0,0,0-4.1-7.17l-19.676-5.358a9.245,9.245,0,0,0-7.073,1.888Z" transform="translate(-42.531 -318.131)" fill="#ffd6bd" fill-rule="evenodd"/>
          <path id="Path_1247644" data-name="Path 1247644" d="M175.713,383.648a5.866,5.866,0,0,0,6.678-2.87,5.718,5.718,0,0,1-.2,1.354,5.859,5.859,0,0,1-7.17,4.1c-3.829-1.045-7.665-2.054-11.5-3.082a1.343,1.343,0,1,1,.695-2.6C168.042,381.582,171.866,382.6,175.713,383.648Z" transform="translate(-136.798 -369.515)" fill="#f9c6aa" fill-rule="evenodd"/>
          <path id="Path_1247645" data-name="Path 1247645" d="M74.86,359.314l.832,3.106a34.634,34.634,0,0,1,3.66-2.717,11.447,11.447,0,0,1,4.065-1.77,10.512,10.512,0,0,1,4.711.122.006.006,0,0,1,.005,0l11.27,2.584a9.632,9.632,0,0,0,7.258-.956l28.184-16.272a5.3,5.3,0,0,0,1.932-7.212c-.044-.076-.088-.15-.136-.222a5.288,5.288,0,0,1-2.629,4.328L105.829,356.58a9.634,9.634,0,0,1-7.258.956L87.3,354.951a.006.006,0,0,1-.005,0,10.513,10.513,0,0,0-4.711-.122,11.4,11.4,0,0,0-4.065,1.77A34.446,34.446,0,0,0,74.86,359.314Z" transform="translate(-64.59 -332.833)" fill="#f9c6aa" fill-rule="evenodd"/>
          <path id="Path_1247646" data-name="Path 1247646" d="M23.573,339.5l6.787,25.33a1.167,1.167,0,0,1-.822,1.424l-4.682,1.255a1.167,1.167,0,0,1-1.424-.822l-6.787-25.33a1.166,1.166,0,0,1,.822-1.424l4.682-1.255A1.166,1.166,0,0,1,23.573,339.5Z" transform="translate(-16.606 -335.02)" fill="#64b5f6" fill-rule="evenodd"/>
          <path id="Path_1247647" data-name="Path 1247647" d="M23.573,339.491l.079.294-4.384,1.174a1.166,1.166,0,0,0-.822,1.424l6.708,25.035-.3.079a1.167,1.167,0,0,1-1.424-.822l-6.787-25.33a1.166,1.166,0,0,1,.822-1.424l4.682-1.255A1.168,1.168,0,0,1,23.573,339.491Z" transform="translate(-16.606 -335.015)" fill="#42a5f5" fill-rule="evenodd"/>
        </g>
        <g id="Group_1208904" data-name="Group 1208904" transform="translate(25.259 0)">
          <path id="Path_1247648" data-name="Path 1247648" d="M189.83,19.757V23.3c9,8.4,16.889,20.538,9.171,30.645a15.362,15.362,0,0,1-12.575,6.22H175.591a15.364,15.364,0,0,1-12.575-6.221c-7.715-10.107.171-22.245,9.173-30.643V19.757a14.939,14.939,0,0,0-2.357-4.185c-2.65-3.783-2.114-5.065,4.362-2.671,2.717,1,1.573-3.9,6.816-3.9s4.1,4.9,6.817,3.9c6.473-2.392,7.011-1.111,4.361,2.671a14.968,14.968,0,0,0-2.357,4.187Z" transform="translate(-159.886 -9)" fill="#72d561" fill-rule="evenodd"/>
          <path id="Path_1247649" data-name="Path 1247649" d="M230.483,19.757V23.3c9,8.4,16.889,20.538,9.171,30.645a15.362,15.362,0,0,1-12.575,6.22h-2.523a15.364,15.364,0,0,0,12.575-6.22c7.716-10.107-.169-22.246-9.171-30.645V19.757a14.939,14.939,0,0,1,2.357-4.185c1.322-1.888,1.851-3.154,1.245-3.649,3.48-.834,3.422.591,1.278,3.649a14.94,14.94,0,0,0-2.357,4.185ZM209.24,11.923c.55-.45,2.031-.268,4.7.652a1.31,1.31,0,0,1-1.615.324A28.261,28.261,0,0,0,209.24,11.923ZM220.4,9.111c3.808.721,3.082,4.7,5.555,3.789.317-.116.619-.226.908-.324C225.9,11.516,225.418,9,221.662,9A6.786,6.786,0,0,0,220.4,9.111Z" transform="translate(-200.539 -9)" fill="#57ca5a" fill-rule="evenodd"/>
          <path id="Path_1247650" data-name="Path 1247650" d="M213.6,66.75h19.44a2.346,2.346,0,1,1,0,4.693H213.6a2.346,2.346,0,1,1,0-4.693Z" transform="translate(-202.195 -56.569)" fill="#ffda2d" fill-rule="evenodd"/>
          <path id="Path_1247651" data-name="Path 1247651" d="M213.6,66.75h19.44a2.353,2.353,0,0,1,2.2,1.546,2.322,2.322,0,0,0-.88-.173H214.922a2.353,2.353,0,0,0-2.346,2.346,2.323,2.323,0,0,0,.141.8,2.345,2.345,0,0,1,.88-4.52Z" transform="translate(-202.195 -56.569)" fill="#ffc700" fill-rule="evenodd"/>
        </g>
        <g id="Group_1208905" data-name="Group 1208905" transform="translate(8.356 9.484)">
          <path id="Path_1247652" data-name="Path 1247652" d="M74.546,72.834h3.175a.862.862,0,0,0,.682-1.391L71.98,63.131a.863.863,0,0,0-1.366,0L64.19,71.445a.862.862,0,0,0,.684,1.391h3.175V88.771a1.132,1.132,0,0,0,1.13,1.13h4.236a1.132,1.132,0,0,0,1.13-1.13Zm61.47,0h3.175a.862.862,0,0,0,.682-1.391l-6.424-8.312a.863.863,0,0,0-1.366,0l-6.424,8.314a.862.862,0,0,0,.684,1.391h3.175V88.771a1.132,1.132,0,0,0,1.13,1.13h4.236a1.132,1.132,0,0,0,1.13-1.13Z" transform="translate(-64.006 -62.795)" fill="#ffda2d" fill-rule="evenodd"/>
          <path id="Path_1247653" data-name="Path 1247653" d="M104.2,72.834h2.276a.862.862,0,0,0,.682-1.391l-6.424-8.312a.863.863,0,0,0-1.366,0l-.455.589,5.969,7.725A.861.861,0,0,1,104.2,72.834ZM99.894,89.9a1.134,1.134,0,0,0,1.128-1.13V72.834H103.3V88.769a1.132,1.132,0,0,1-1.13,1.13Zm65.772-17.065h2.276a.862.862,0,0,0,.682-1.391L162.2,63.131a.863.863,0,0,0-1.366,0l-.455.589,5.969,7.725a.86.86,0,0,1-.682,1.389Zm-4.3,17.065a1.134,1.134,0,0,0,1.128-1.13V72.834h2.276V88.769a1.133,1.133,0,0,1-1.13,1.13Z" transform="translate(-92.757 -62.795)" fill="#ffc700" fill-rule="evenodd"/>
        </g>
      </g>
      <path id="Path_1247654" data-name="Path 1247654" d="M25.657,13.653l5.31,6.87H28.906a1.41,1.41,0,0,0-1.41,1.41V37.588H23.818V21.933a1.411,1.411,0,0,0-1.41-1.41H20.347Zm-6.426,9.691H21V37.867a2.545,2.545,0,0,0,2.54,2.542h4.236a2.544,2.544,0,0,0,2.54-2.542V23.343h1.765a2.272,2.272,0,0,0,1.8-3.663l-6.424-8.314a2.272,2.272,0,0,0-3.6,0L17.433,19.68a2.272,2.272,0,0,0,1.8,3.663Zm71.143-2.821a1.408,1.408,0,0,0-1.41,1.41V37.588H85.286V21.933a1.411,1.411,0,0,0-1.41-1.41H81.815l5.31-6.87,5.31,6.87Zm4.975-.843-6.424-8.314a2.272,2.272,0,0,0-3.6,0L78.9,19.68a2.272,2.272,0,0,0,1.8,3.663h1.766V37.867a2.545,2.545,0,0,0,2.54,2.542h4.236a2.544,2.544,0,0,0,2.54-2.542V23.343h1.765a2.272,2.272,0,0,0,1.8-3.663ZM51.061,31.612a4.945,4.945,0,0,1,3.919-4.83V25.073a1.41,1.41,0,1,1,2.821,0v1.652a4.962,4.962,0,0,1,3.307,2,1.41,1.41,0,1,1-2.287,1.652,2.126,2.126,0,0,0-1.715-.883H56a2.116,2.116,0,1,0,0,4.231h.788A4.936,4.936,0,0,1,57.8,43.494V45.2a1.41,1.41,0,0,1-2.821,0V43.548a4.962,4.962,0,0,1-3.307-2,1.41,1.41,0,1,1,2.285-1.654,2.126,2.126,0,0,0,1.715.883h1.111a2.116,2.116,0,1,0,0-4.231H56a4.936,4.936,0,0,1-4.934-4.933Zm-13.169.64c-2.04,5.365-1.491,10.155,1.627,14.241A13.938,13.938,0,0,0,50.974,52.16H61.809a13.936,13.936,0,0,0,11.454-5.666c3.12-4.086,3.667-8.876,1.629-14.243-2.057-5.41-6.294-10.3-9.638-13.561H47.53c-3.344,3.265-7.581,8.15-9.638,13.561ZM49.085,7.632a3.338,3.338,0,0,0,1.167.227c1.5,0,2.29-1.269,2.754-2.017A3.358,3.358,0,0,1,56.39,3.821a3.357,3.357,0,0,1,3.387,2.024c.571.92,1.634,2.634,3.921,1.788a19.664,19.664,0,0,1,3.723-1.088,13.145,13.145,0,0,1-1.007,1.627,23.343,23.343,0,0,0-1.9,3.008H48.265a23.023,23.023,0,0,0-1.9-3.008,13.146,13.146,0,0,1-1.007-1.627,19.664,19.664,0,0,1,3.723,1.088Zm-2.413,8.24a.936.936,0,1,1,0-1.872H66.113a.936.936,0,1,1,0,1.872ZM37.276,48.2c-3.75-4.913-4.43-10.618-2.022-16.956,1.99-5.236,5.782-9.946,9.1-13.365a3.751,3.751,0,0,1,.848-6.4c-.27-.427-.628-.956-1.141-1.691-1.317-1.881-2.389-3.815-1.312-5.211,1.148-1.488,3.649-.947,7.316.409a.868.868,0,0,0,.1.032,6.348,6.348,0,0,0,.446-.661A6.093,6.093,0,0,1,56.39,1a6.093,6.093,0,0,1,5.782,3.357,6.163,6.163,0,0,0,.446.661.769.769,0,0,0,.1-.032c3.667-1.356,6.169-1.9,7.316-.409,1.079,1.4.007,3.33-1.31,5.211-.515.733-.873,1.262-1.141,1.691a3.751,3.751,0,0,1,.848,6.4c3.314,3.417,7.106,8.129,9.1,13.365C79.936,37.586,79.255,43.291,75.5,48.2a16.881,16.881,0,0,1-13.7,6.773H50.973A16.871,16.871,0,0,1,37.276,48.2ZM79.559,66.333,51.375,82.6a8.256,8.256,0,0,1-6.239.8l-11.27-2.583A11.88,11.88,0,0,0,24.1,82.6l-4.785-17.86L25.4,60.074c2.07-1.587,4.037-2.14,5.846-1.648L50.927,63.78A4.431,4.431,0,0,1,48.6,72.33L38.089,69.469a1.41,1.41,0,1,0-.74,2.722l10.511,2.861A7.245,7.245,0,0,0,56.515,70.7L75.689,59.628a3.871,3.871,0,0,1,3.87,6.7Zm-61.426,21.7,4.2-1.127L15.677,62.054l-4.2,1.127Zm61.22-31.507a6.637,6.637,0,0,0-5.075.663l-17.317,10a7.263,7.263,0,0,0-5.292-6.124L31.991,55.706c-2.666-.726-5.536.011-8.3,2.13L18.526,61.79l-.189-.7a2.576,2.576,0,0,0-3.15-1.821L10.5,60.52a2.573,2.573,0,0,0-1.819,3.15L15.472,89a2.58,2.58,0,0,0,2.486,1.907,2.616,2.616,0,0,0,.665-.086l4.682-1.255a2.578,2.578,0,0,0,1.819-3.152l-.247-.922a9.406,9.406,0,0,1,8.358-1.922l11.27,2.583a12.815,12.815,0,0,0,2.872.338,10.652,10.652,0,0,0,5.409-1.447L80.971,68.773a6.68,6.68,0,0,0-1.618-12.247Z" fill-rule="evenodd"/>
    </g>
  </g>
</svg>
