<svg xmlns="http://www.w3.org/2000/svg" xmlns:xlink="http://www.w3.org/1999/xlink" width="112.094" height="100" viewBox="0 0 112.094 100">
  <defs>
    <clipPath id="clip-path">
      <rect id="Rectangle_411042" data-name="Rectangle 411042" width="100" height="100" transform="translate(335.781 4440)" fill="#fff" stroke="#707070" stroke-width="1"/>
    </clipPath>
  </defs>
  <g id="Group_1208828" data-name="Group 1208828" transform="translate(-915.25 -10000)">
    <g id="Mask_Group_1099339" data-name="Mask Group 1099339" transform="translate(579.469 5560)" clip-path="url(#clip-path)">
      <g id="Group_1207982" data-name="Group 1207982" transform="translate(-470.656 2458.387)">
        <g id="Rectangle_411041" data-name="Rectangle 411041" transform="translate(806.951 1984)" fill="#7f74a8" stroke="#5a5378" stroke-width="3">
          <rect width="79.44" height="79.44" rx="10" stroke="none"/>
          <rect x="1.5" y="1.5" width="76.44" height="76.44" rx="8.5" fill="none"/>
        </g>
      </g>
    </g>
    <g id="identificando" transform="translate(928.664 10048.99)">
      <g id="Group_1208826" data-name="Group 1208826" transform="translate(9.293 -45.973)">
        <g id="Group_1208814" data-name="Group 1208814" transform="translate(0 0)">
          <g id="Group_1208806" data-name="Group 1208806" transform="translate(17.327 52.523)">
            <path id="Path_1247241" data-name="Path 1247241" d="M135.358,277.023a27.55,27.55,0,0,0,4.649,5.118l-12.641,12.392-4.813-4.96Z" transform="translate(-122.553 -277.023)" fill="#a79ba7" fill-rule="evenodd"/>
          </g>
          <g id="Group_1208807" data-name="Group 1208807" transform="translate(19.849 56.533)">
            <path id="Path_1247242" data-name="Path 1247242" d="M150.783,301.681a3.175,3.175,0,0,0,1.376,1.845L139.6,316l-1.538-1.685Z" transform="translate(-138.063 -301.681)" fill="#837683" fill-rule="evenodd"/>
          </g>
          <g id="Group_1208808" data-name="Group 1208808" transform="translate(0 61.701)">
            <path id="Path_1247243" data-name="Path 1247243" d="M22.131,357.877l-5.431-5.6a2.5,2.5,0,0,1,.053-3.521l15.044-14.6a2.5,2.5,0,0,1,3.522.053l5.431,5.6a2.5,2.5,0,0,1-.053,3.522l-15.044,14.6a2.5,2.5,0,0,1-3.522-.053Z" transform="translate(-16 -333.461)" fill="#f1ba84" fill-rule="evenodd"/>
          </g>
          <g id="Group_1208809" data-name="Group 1208809" transform="translate(0 68.741)">
            <path id="Path_1247244" data-name="Path 1247244" d="M40.762,377.36l-15.044,14.6A2.5,2.5,0,0,1,22.2,391.9l-5.432-5.6a2.466,2.466,0,0,1-.473-.689,2.5,2.5,0,0,0,.406,2.914l5.432,5.6a2.5,2.5,0,0,0,3.521.053l15.044-14.6a2.5,2.5,0,0,0,.526-2.832A2.47,2.47,0,0,1,40.762,377.36Z" transform="translate(-15.999 -376.752)" fill="#e3a76f" fill-rule="evenodd"/>
          </g>
          <g id="Group_1208810" data-name="Group 1208810" transform="translate(11.916)">
            <circle id="Ellipse_12685" data-name="Ellipse 12685" cx="27.394" cy="27.394" r="27.394" transform="translate(0 38.735) rotate(-45)" fill="#9facba"/>
          </g>
          <g id="Group_1208811" data-name="Group 1208811" transform="translate(49.331 11.339)">
            <path id="Path_1247245" data-name="Path 1247245" d="M320.69,23.755a27.394,27.394,0,1,1,0,54.788q-.669,0-1.33-.033a27.394,27.394,0,0,0,0-54.723q.661-.032,1.33-.033Z" transform="translate(-319.36 -23.755)" fill="#8d9ca8" fill-rule="evenodd"/>
          </g>
          <g id="Group_1208812" data-name="Group 1208812" transform="translate(20.648 8.732)">
            <circle id="Ellipse_12686" data-name="Ellipse 12686" cx="21.219" cy="21.219" r="21.219" transform="translate(0 30.004) rotate(-45)" fill="#eceff1"/>
          </g>
          <g id="Group_1208813" data-name="Group 1208813" transform="translate(29.441 17.514)">
            <path id="Path_1247246" data-name="Path 1247246" d="M218.269,61.73c.482,0,.96.018,1.435.049a21.218,21.218,0,0,0,0,42.339c-.474.032-.952.049-1.435.049a21.219,21.219,0,1,1,0-42.438Z" transform="translate(-197.05 -61.73)" fill="#d1d1d6" fill-rule="evenodd"/>
          </g>
        </g>
        <g id="Group_1208820" data-name="Group 1208820" transform="translate(34.435 25.168)">
          <g id="Group_1208817" data-name="Group 1208817" transform="translate(0 9.343)">
            <g id="Group_1208815" data-name="Group 1208815">
              <path id="Path_1247247" data-name="Path 1247247" d="M228.963,173.882h14.052a1.2,1.2,0,0,0,1.152-1.551,8.543,8.543,0,0,0-16.356,0,1.2,1.2,0,0,0,1.152,1.551Z" transform="translate(-227.757 -166.26)" fill="#8ac9fe" fill-rule="evenodd"/>
            </g>
            <g id="Group_1208816" data-name="Group 1208816" transform="translate(7.029 0)">
              <path id="Path_1247248" data-name="Path 1247248" d="M279.212,173.883a1.2,1.2,0,0,0,1.152-1.551,8.55,8.55,0,0,0-9.381-5.987,8.55,8.55,0,0,1,6.975,5.987,1.2,1.2,0,0,1-1.152,1.551Z" transform="translate(-270.983 -166.261)" fill="#60b7ff" fill-rule="evenodd"/>
            </g>
          </g>
          <g id="Group_1208818" data-name="Group 1208818" transform="translate(3.914 0)">
            <circle id="Ellipse_12687" data-name="Ellipse 12687" cx="4.318" cy="4.318" r="4.318" fill="#f6dccd"/>
          </g>
          <g id="Group_1208819" data-name="Group 1208819" transform="translate(7.631)">
            <path id="Path_1247249" data-name="Path 1247249" d="M275.284,108.8a4.318,4.318,0,1,1-.6,8.595,4.319,4.319,0,0,0,0-8.553A4.369,4.369,0,0,1,275.284,108.8Z" transform="translate(-274.682 -108.802)" fill="#f1cbbc" fill-rule="evenodd"/>
          </g>
        </g>
        <g id="Group_1208825" data-name="Group 1208825" transform="translate(50.843 43.079)">
          <g id="Group_1208823" data-name="Group 1208823">
            <g id="Group_1208821" data-name="Group 1208821">
              <ellipse id="Ellipse_12688" data-name="Ellipse 12688" cx="12.354" cy="12.354" rx="12.354" ry="12.354" transform="matrix(0.987, -0.16, 0.16, 0.987, 0, 3.953)" fill="#8ac9fe"/>
            </g>
            <g id="Group_1208822" data-name="Group 1208822" transform="translate(13.372 1.808)">
              <path id="Path_1247250" data-name="Path 1247250" d="M411.7,230.061c-.273,0-.544.01-.813.027a12.353,12.353,0,0,1,0,24.653c.269.018.54.027.813.027a12.354,12.354,0,0,0,0-24.708Z" transform="translate(-410.891 -230.061)" fill="#60b7ff" fill-rule="evenodd"/>
            </g>
          </g>
          <g id="Group_1208824" data-name="Group 1208824" transform="translate(6.375 8.25)">
            <path id="Path_1247251" data-name="Path 1247251" d="M368.5,274.081a2.186,2.186,0,0,1,3.082,0l2.208,2.208,5.975-5.975a2.179,2.179,0,0,1,3.082,3.082l-7.473,7.473c-1.081,1.081-2.526.641-3.484-.317l-3.39-3.39A2.186,2.186,0,0,1,368.5,274.081Z" transform="translate(-367.867 -269.679)" fill="#eceff1" fill-rule="evenodd"/>
          </g>
        </g>
      </g>
      <g id="Group_1208827" data-name="Group 1208827" transform="translate(7.991 -35.936)">
        <path id="Path_1247252" data-name="Path 1247252" d="M80.575,59.84l-7.47,7.473a.73.73,0,0,1-.674.24A1.87,1.87,0,0,1,71.46,67l-3.391-3.39a.89.89,0,0,1,0-1.242.876.876,0,0,1,1.24,0l2.212,2.208a1.3,1.3,0,0,0,1.837,0L79.336,58.6a.86.86,0,0,1,.62-.255.873.873,0,0,1,.62.255.89.89,0,0,1,0,1.242Zm-3.085-3.082-5.052,5.055-1.286-1.288a3.483,3.483,0,1,0-4.929,4.922l3.391,3.389a4.469,4.469,0,0,0,2.419,1.289,3.42,3.42,0,0,0,.528.041,3.334,3.334,0,0,0,2.38-1.013l7.47-7.474a3.48,3.48,0,0,0-4.921-4.921Zm-2.924-9.644H64.6a1.3,1.3,0,1,1,0-2.6h9.966a1.3,1.3,0,1,1,0,2.6ZM63.3,40.731a1.306,1.306,0,0,1,1.3-1.3h9.966a1.3,1.3,0,0,1,0,2.6H64.6A1.306,1.306,0,0,1,63.3,40.731Zm0-5.082a1.305,1.305,0,0,1,1.3-1.3h9.966a1.3,1.3,0,1,1,0,2.6H64.6A1.305,1.305,0,0,1,63.3,35.649Zm-18.615,10.9a7.6,7.6,0,0,1,7.271-5.352h.008a7.6,7.6,0,0,1,7.271,5.352Zm4.072-11.159a3.2,3.2,0,1,1,3.207,3.205h-.008a3.2,3.2,0,0,1-3.2-3.205ZM56.1,39.46a5.806,5.806,0,1,0-8.274,0,10.178,10.178,0,0,0-6.016,8.249,1.295,1.295,0,0,0,1.294,1.44H60.821a1.322,1.322,0,0,0,.972-.432,1.308,1.308,0,0,0,.321-1.008A10.18,10.18,0,0,0,56.1,39.46ZM74.322,74.007A11.053,11.053,0,1,0,63.27,62.954,11.066,11.066,0,0,0,74.322,74.007ZM60.667,62.954a13.652,13.652,0,0,1,18.3-12.839,19.628,19.628,0,0,0,.827-5.669A19.839,19.839,0,1,0,59.956,64.285c.26,0,.521-.007.773-.017-.038-.433-.061-.871-.061-1.314Zm-26.8-18.508A26.121,26.121,0,0,0,59.956,70.539a26.488,26.488,0,0,0,2.916-.163,13.531,13.531,0,0,1-1.638-3.527c-.421.024-.857.038-1.278.038A22.441,22.441,0,1,1,82.4,44.446a22.185,22.185,0,0,1-1.056,6.8,13.612,13.612,0,0,1,3.016,2.458,25.821,25.821,0,0,0,1.691-9.261,26.092,26.092,0,1,0-52.185,0Zm-.1,27.16-3-3.092,6.6-6.4a29.263,29.263,0,0,0,2.9,3.185Zm-.681,4.746a1.147,1.147,0,0,0,.36-.836,1.184,1.184,0,0,0-.329-.846l-5.434-5.6a1.178,1.178,0,0,0-.834-.357,1.2,1.2,0,0,0-.85.332l-15.04,14.6a1.192,1.192,0,0,0-.031,1.682l5.434,5.6a1.193,1.193,0,0,0,1.684.025ZM88.651,44.446A28.695,28.695,0,1,0,35.83,59.969l-6.95,6.748a3.8,3.8,0,0,0-2-.6,3.734,3.734,0,0,0-2.694,1.067L9.141,81.779a3.789,3.789,0,0,0-.076,5.36l5.427,5.6a3.8,3.8,0,0,0,5.365.08L34.9,78.22a3.8,3.8,0,0,0,.6-4.678l6.735-6.537a28.565,28.565,0,0,0,17.719,6.135,29.056,29.056,0,0,0,4.853-.409A13.642,13.642,0,0,0,86.155,56.157a28.441,28.441,0,0,0,2.5-11.711Z" transform="translate(-7.991 -15.751)" fill="#242222" fill-rule="evenodd"/>
      </g>
    </g>
  </g>
</svg>
