<svg xmlns="http://www.w3.org/2000/svg" width="83" height="83" viewBox="0 0 83 83">
  <g id="Group_1208833" data-name="Group 1208833" transform="translate(-339 -10957)">
    <g id="Group_1208829" data-name="Group 1208829" transform="translate(0 3308)">
      <g id="Group_1208793" data-name="Group 1208793" transform="translate(-262.051 -1036)">
        <g id="Group_1208734" data-name="Group 1208734" transform="translate(174 150)">
          <g id="Group_1208693" data-name="Group 1208693" transform="translate(89 5452)">
            <circle id="Ellipse_12656" data-name="Ellipse 12656" cx="41.5" cy="41.5" r="41.5" transform="translate(338.051 3083)" fill="#b7a8f1"/>
          </g>
        </g>
      </g>
    </g>
    <g id="version" transform="translate(354 10972)">
      <path id="Path_1247253" data-name="Path 1247253" d="M10.612,1H28.937a1.746,1.746,0,0,1,1.746,1.746V39.413a1.746,1.746,0,0,1-1.746,1.746H2.746A1.746,1.746,0,0,1,1,39.413v-28.8a4.236,4.236,0,0,1,1.241-3L7.617,2.241a4.236,4.236,0,0,1,3-1.241Z" transform="translate(-0.127 -0.127)" fill="#e8f9f9"/>
      <path id="Path_1247254" data-name="Path 1247254" d="M10.421,1.01A1.753,1.753,0,0,0,8.85,2.756V7.112A1.751,1.751,0,0,1,7.1,8.858H2.747a1.758,1.758,0,0,0-1.737,1.51,4.237,4.237,0,0,1,1.231-2.75L7.619,2.241a4.2,4.2,0,0,1,2.8-1.231Z" transform="translate(-0.128 -0.128)" fill="#a2c6cc"/>
      <path id="Path_1247255" data-name="Path 1247255" d="M22.612,7H40.937a1.746,1.746,0,0,1,1.746,1.746V45.413a1.746,1.746,0,0,1-1.746,1.746H14.746A1.746,1.746,0,0,1,13,45.413v-28.8a4.236,4.236,0,0,1,1.241-3l5.376-5.376a4.236,4.236,0,0,1,3-1.241Z" transform="translate(-1.651 -0.889)" fill="#c7dfe5"/>
      <path id="Path_1247256" data-name="Path 1247256" d="M22.421,7.01A1.753,1.753,0,0,0,20.85,8.756v4.356A1.751,1.751,0,0,1,19.1,14.858H14.747a1.758,1.758,0,0,0-1.737,1.51,4.237,4.237,0,0,1,1.231-2.75l5.378-5.378a4.2,4.2,0,0,1,2.8-1.231Z" transform="translate(-1.652 -0.89)" fill="#a2c6cc"/>
      <path id="Path_1247257" data-name="Path 1247257" d="M34.612,13H52.937a1.746,1.746,0,0,1,1.746,1.746V51.413a1.746,1.746,0,0,1-1.746,1.746H26.746A1.746,1.746,0,0,1,25,51.413v-28.8a4.236,4.236,0,0,1,1.241-3l5.376-5.376a4.236,4.236,0,0,1,3-1.241Z" transform="translate(-3.175 -1.651)" fill="#e8f9f9"/>
      <path id="Path_1247258" data-name="Path 1247258" d="M34.421,13.01a1.753,1.753,0,0,0-1.571,1.746v4.356A1.751,1.751,0,0,1,31.1,20.858H26.747a1.758,1.758,0,0,0-1.737,1.51,4.237,4.237,0,0,1,1.231-2.75l5.378-5.378a4.2,4.2,0,0,1,2.8-1.231Z" transform="translate(-3.176 -1.652)" fill="#a2c6cc"/>
      <g id="Group_1208832" data-name="Group 1208832" transform="translate(0 0)">
        <path id="Path_1247259" data-name="Path 1247259" d="M2.619,41.9h7.857v2.619A2.619,2.619,0,0,0,13.1,47.143h7.857v2.619a2.619,2.619,0,0,0,2.619,2.619H49.762a2.619,2.619,0,0,0,2.619-2.619V19.206a.873.873,0,0,0-1.746,0V49.762a.873.873,0,0,1-.873.873H23.572a.873.873,0,0,1-.873-.873v-28.8c0-.028.007-.054.008-.081a.873.873,0,0,1,.865-.8h4.356a2.619,2.619,0,0,0,2.619-2.619V13.1a.882.882,0,0,1,.873-.88H49.762a.873.873,0,0,1,.873.873v2.619a.873.873,0,0,0,1.746,0V13.1a2.619,2.619,0,0,0-2.619-2.619H41.9V7.857a2.619,2.619,0,0,0-2.619-2.619H31.429V2.619A2.619,2.619,0,0,0,28.81,0H10.485A5.073,5.073,0,0,0,6.872,1.5L1.5,6.872A5.073,5.073,0,0,0,0,10.485v28.8A2.619,2.619,0,0,0,2.619,41.9ZM27.928,18.333H23.933L28.8,13.465V17.46a.873.873,0,0,1-.873.873ZM40.159,7.857v2.619H31.421a5.073,5.073,0,0,0-3.6,1.495l-5.377,5.377a5.07,5.07,0,0,0-1.484,3.45c0,.054-.017.107-.017.162h0V45.4H13.1a.873.873,0,0,1-.873-.873v-28.8a.883.883,0,0,1,.882-.882H17.46a2.619,2.619,0,0,0,2.619-2.619V7.866a.883.883,0,0,1,.882-.882H39.286a.873.873,0,0,1,.873.873ZM13.457,13.1l4.877-4.877v4a.873.873,0,0,1-.873.873ZM7.857,2.98v4a.873.873,0,0,1-.873.873h-4ZM2.628,9.6H6.984A2.619,2.619,0,0,0,9.6,6.984V2.628a.883.883,0,0,1,.882-.882H28.81a.873.873,0,0,1,.873.873V5.238H20.961a5.073,5.073,0,0,0-3.613,1.5l-5.376,5.376a5.073,5.073,0,0,0-1.5,3.613V40.159H2.619a.873.873,0,0,1-.873-.873v-28.8A.883.883,0,0,1,2.628,9.6Z" transform="translate(0 0)" fill="#262626"/>
        <path id="Path_1247260" data-name="Path 1247260" d="M19.264,24.538a3.275,3.275,0,0,0,1.974-2.919A2.619,2.619,0,0,0,18.619,19,2.954,2.954,0,0,0,16.1,20.571a.873.873,0,0,0,1.546.811,1.241,1.241,0,0,1,.975-.636.873.873,0,0,1,.873.873c0,.7-.33.931-1.144,1.433A4.031,4.031,0,0,0,16,26.857a.873.873,0,0,0,.873.873h3.492a.873.873,0,1,0,0-1.746h-2.5C18.081,25.267,18.6,24.945,19.264,24.538Z" transform="translate(-2.031 -2.413)" fill="#262626"/>
        <path id="Path_1247261" data-name="Path 1247261" d="M30.619,31.984H28.873a.873.873,0,0,0,0,1.746h1.746a2.619,2.619,0,0,0,1.95-4.365A2.619,2.619,0,0,0,30.619,25H28.873a.873.873,0,1,0,0,1.746h1.746a.873.873,0,0,1,0,1.746.873.873,0,0,0,0,1.746.873.873,0,0,1,0,1.746Z" transform="translate(-3.555 -3.174)" fill="#262626"/>
        <path id="Path_1247262" data-name="Path 1247262" d="M4.873,19.984a.873.873,0,1,0,0,1.746H8.365a.873.873,0,1,0,0-1.746H7.492V13.873A.873.873,0,0,0,6,13.256L4.256,15A.873.873,0,1,0,5.49,16.236l.256-.256v4Z" transform="translate(-0.508 -1.651)" fill="#262626"/>
        <path id="Path_1247263" data-name="Path 1247263" d="M31.619,37.873A.873.873,0,0,0,30.746,37h-.873a.873.873,0,0,0,0,1.746h.873A.873.873,0,0,0,31.619,37.873Z" transform="translate(-3.682 -4.698)" fill="#262626"/>
        <path id="Path_1247264" data-name="Path 1247264" d="M51.46,37H34.873a.873.873,0,0,0,0,1.746H51.46a.873.873,0,0,0,0-1.746Z" transform="translate(-4.317 -4.698)" fill="#262626"/>
        <path id="Path_1247265" data-name="Path 1247265" d="M29.873,50.746h.873a.873.873,0,1,0,0-1.746h-.873a.873.873,0,1,0,0,1.746Z" transform="translate(-3.682 -6.222)" fill="#262626"/>
        <path id="Path_1247266" data-name="Path 1247266" d="M51.46,49H34.873a.873.873,0,1,0,0,1.746H51.46a.873.873,0,1,0,0-1.746Z" transform="translate(-4.317 -6.222)" fill="#262626"/>
        <path id="Path_1247267" data-name="Path 1247267" d="M31.873,42.746h.873a.873.873,0,0,0,0-1.746h-.873a.873.873,0,0,0,0,1.746Z" transform="translate(-3.936 -5.206)" fill="#262626"/>
        <path id="Path_1247268" data-name="Path 1247268" d="M52.857,41H45.873a.873.873,0,0,0,0,1.746h6.984a.873.873,0,0,0,0-1.746Z" transform="translate(-5.714 -5.206)" fill="#262626"/>
        <path id="Path_1247269" data-name="Path 1247269" d="M36.873,42.746h4.365a.873.873,0,0,0,0-1.746H36.873a.873.873,0,0,0,0,1.746Z" transform="translate(-4.571 -5.206)" fill="#262626"/>
        <path id="Path_1247270" data-name="Path 1247270" d="M32.746,45h-.873a.873.873,0,1,0,0,1.746h.873a.873.873,0,0,0,0-1.746Z" transform="translate(-3.936 -5.714)" fill="#262626"/>
        <path id="Path_1247271" data-name="Path 1247271" d="M52.857,45H45.873a.873.873,0,0,0,0,1.746h6.984a.873.873,0,0,0,0-1.746Z" transform="translate(-5.714 -5.714)" fill="#262626"/>
        <path id="Path_1247272" data-name="Path 1247272" d="M36.873,46.746h4.365a.873.873,0,1,0,0-1.746H36.873a.873.873,0,1,0,0,1.746Z" transform="translate(-4.571 -5.714)" fill="#262626"/>
        <path id="Path_1247273" data-name="Path 1247273" d="M31.873,54.746h.873a.873.873,0,0,0,0-1.746h-.873a.873.873,0,0,0,0,1.746Z" transform="translate(-3.936 -6.73)" fill="#262626"/>
        <path id="Path_1247274" data-name="Path 1247274" d="M52.857,53H45.873a.873.873,0,0,0,0,1.746h6.984a.873.873,0,0,0,0-1.746Z" transform="translate(-5.714 -6.73)" fill="#262626"/>
        <path id="Path_1247275" data-name="Path 1247275" d="M36.873,53a.873.873,0,0,0,0,1.746h4.365a.873.873,0,0,0,0-1.746Z" transform="translate(-4.571 -6.73)" fill="#262626"/>
      </g>
    </g>
  </g>
</svg>
