<svg xmlns="http://www.w3.org/2000/svg" width="1239.051" height="353.163" viewBox="0 0 1239.051 353.163">
  <g id="Group_1209607" data-name="Group 1209607" transform="translate(-180.949 -5953.813)">
    <rect id="Rectangle_411012" data-name="Rectangle 411012" width="1239.051" height="97" transform="translate(180.949 6015.476)" fill="#f6f6f6"/>
    <rect id="Rectangle_411013" data-name="Rectangle 411013" width="1239.051" height="97" transform="translate(180.949 6112.476)" fill="#fff"/>
    <rect id="Rectangle_411014" data-name="Rectangle 411014" width="1239.051" height="97" transform="translate(180.949 6209.476)" fill="#f6f6f6"/>
    <path id="Path_1245843" data-name="Path 1245843" d="M0,0H1239.051V60.672H0Z" transform="translate(180.949 5954.8)" fill="#fd9826"/>
    <path id="Path_1248456" data-name="Path 1248456" d="M-15.236-5.1H-20.21V0H-23.3V-12.8h8.561v2.382H-20.21v2.944h4.975ZM-9.171.176a4.889,4.889,0,0,1-3.542-1.305,4.507,4.507,0,0,1-1.354-3.4v-.246a5.84,5.84,0,0,1,.541-2.575,3.955,3.955,0,0,1,1.578-1.727,4.763,4.763,0,0,1,2.461-.611A4.117,4.117,0,0,1-6.324-8.442a4.887,4.887,0,0,1,1.16,3.467v1.151h-5.889a2.135,2.135,0,0,0,.694,1.257,2.066,2.066,0,0,0,1.389.457,2.662,2.662,0,0,0,2.2-.984l1.354,1.6A3.784,3.784,0,0,1-6.987-.277,5.3,5.3,0,0,1-9.171.176ZM-9.505-7.4q-1.3,0-1.547,1.723h2.988v-.229a1.467,1.467,0,0,0-.36-1.1A1.434,1.434,0,0,0-9.505-7.4ZM.048-2.109a1.317,1.317,0,0,0,.967-.338,1.241,1.241,0,0,0,.334-.945H4.126A3.288,3.288,0,0,1,3.006-.826a4.168,4.168,0,0,1-2.887,1,4.22,4.22,0,0,1-3.27-1.3,5.125,5.125,0,0,1-1.2-3.6v-.123A5.792,5.792,0,0,1-3.814-7.4a3.872,3.872,0,0,1,1.534-1.7A4.573,4.573,0,0,1,.092-9.686,4.116,4.116,0,0,1,3.037-8.657a3.647,3.647,0,0,1,1.09,2.786H1.349A1.626,1.626,0,0,0,.989-7a1.244,1.244,0,0,0-.967-.4q-1.151,0-1.345,1.468a10.357,10.357,0,0,0-.062,1.283,4.068,4.068,0,0,0,.343,1.986A1.187,1.187,0,0,0,.048-2.109ZM8.275-8.49a2.964,2.964,0,0,1,2.426-1.2,2.956,2.956,0,0,1,2.373.932A4.186,4.186,0,0,1,13.891-6V0H10.92V-5.933a1.674,1.674,0,0,0-.308-1.112A1.322,1.322,0,0,0,9.567-7.4a1.424,1.424,0,0,0-1.292.58V0H5.313V-13.5H8.275ZM20.9,0a3.344,3.344,0,0,1-.281-.853A2.754,2.754,0,0,1,18.33.176a3.374,3.374,0,0,1-2.285-.813,2.588,2.588,0,0,1-.94-2.043,2.66,2.66,0,0,1,1.143-2.338,5.821,5.821,0,0,1,3.322-.791h.914v-.5q0-1.31-1.134-1.31a.925.925,0,0,0-1.055,1.037H15.333a2.659,2.659,0,0,1,1.173-2.241A4.927,4.927,0,0,1,19.5-9.686a4.323,4.323,0,0,1,2.874.888,3.086,3.086,0,0,1,1.081,2.435v4.21a4.311,4.311,0,0,0,.4,2V0ZM19.042-1.934a1.652,1.652,0,0,0,.918-.237,1.487,1.487,0,0,0,.523-.536V-4.228h-.861q-1.547,0-1.547,1.389a.848.848,0,0,0,.272.655A.986.986,0,0,0,19.042-1.934Z" transform="translate(274.949 5987)" fill="#12263f"/>
    <path id="Path_1248455" data-name="Path 1248455" d="M4.052-4.342V0H.967V-12.8H6.073a5.948,5.948,0,0,1,2.6.541,4.074,4.074,0,0,1,1.749,1.538,4.2,4.2,0,0,1,.62,2.263A3.7,3.7,0,0,1,9.7-5.462,5.561,5.561,0,0,1,6.021-4.342Zm0-2.382H6.073A1.906,1.906,0,0,0,7.44-7.172a1.665,1.665,0,0,0,.47-1.266A2.059,2.059,0,0,0,7.427-9.87a1.712,1.712,0,0,0-1.318-.545H4.052ZM18.3-6.829l-.976-.07a1.752,1.752,0,0,0-1.793.879V0H12.568V-9.51h2.777l.1,1.222a2.294,2.294,0,0,1,2.083-1.4,2.888,2.888,0,0,1,.826.105Zm.378,1.986a5.613,5.613,0,0,1,.554-2.536,3.96,3.96,0,0,1,1.591-1.709,4.791,4.791,0,0,1,2.435-.6,4.373,4.373,0,0,1,3.366,1.323,5.076,5.076,0,0,1,1.23,3.6v.105a4.925,4.925,0,0,1-1.235,3.529A4.384,4.384,0,0,1,23.273.176a4.434,4.434,0,0,1-3.261-1.217,4.761,4.761,0,0,1-1.327-3.3Zm2.962.185a3.538,3.538,0,0,0,.413,1.934,1.376,1.376,0,0,0,1.222.615q1.582,0,1.617-2.435v-.3q0-2.558-1.635-2.558-1.485,0-1.608,2.206Zm11.54,2.549a1.317,1.317,0,0,0,.967-.338,1.241,1.241,0,0,0,.334-.945h2.777A3.288,3.288,0,0,1,36.136-.826a4.168,4.168,0,0,1-2.887,1,4.22,4.22,0,0,1-3.27-1.3,5.125,5.125,0,0,1-1.2-3.6v-.123A5.792,5.792,0,0,1,29.316-7.4a3.872,3.872,0,0,1,1.534-1.7,4.573,4.573,0,0,1,2.373-.593,4.116,4.116,0,0,1,2.944,1.028,3.647,3.647,0,0,1,1.09,2.786H34.479A1.626,1.626,0,0,0,34.119-7a1.244,1.244,0,0,0-.967-.4Q32-7.4,31.808-5.933a10.357,10.357,0,0,0-.062,1.283,4.068,4.068,0,0,0,.343,1.986A1.187,1.187,0,0,0,33.179-2.109ZM43.11.176a4.889,4.889,0,0,1-3.542-1.305,4.507,4.507,0,0,1-1.354-3.4v-.246a5.84,5.84,0,0,1,.541-2.575,3.955,3.955,0,0,1,1.578-1.727,4.763,4.763,0,0,1,2.461-.611,4.117,4.117,0,0,1,3.164,1.244,4.887,4.887,0,0,1,1.16,3.467v1.151H41.229a2.135,2.135,0,0,0,.694,1.257,2.066,2.066,0,0,0,1.389.457,2.662,2.662,0,0,0,2.2-.984l1.354,1.6A3.784,3.784,0,0,1,45.294-.277,5.3,5.3,0,0,1,43.11.176ZM42.776-7.4q-1.3,0-1.547,1.723h2.988v-.229a1.467,1.467,0,0,0-.36-1.1A1.434,1.434,0,0,0,42.776-7.4ZM53.288-2.672a.684.684,0,0,0-.4-.606,6.016,6.016,0,0,0-1.5-.475A6.853,6.853,0,0,1,49.562-4.4a3.062,3.062,0,0,1-1.1-.971,2.319,2.319,0,0,1-.378-1.31,2.628,2.628,0,0,1,1.081-2.158A4.453,4.453,0,0,1,52-9.686a4.934,4.934,0,0,1,3.023.853,2.666,2.666,0,0,1,1.143,2.241H53.191q0-1.143-1.2-1.143a1.194,1.194,0,0,0-.782.259.8.8,0,0,0-.316.646.737.737,0,0,0,.387.642,3.654,3.654,0,0,0,1.235.4A10.671,10.671,0,0,1,54-5.405,2.706,2.706,0,0,1,56.145-2.76,2.491,2.491,0,0,1,54.989-.642,5.068,5.068,0,0,1,52,.176a5.172,5.172,0,0,1-2.18-.439,3.645,3.645,0,0,1-1.494-1.2,2.707,2.707,0,0,1-.536-1.591h2.769a1.145,1.145,0,0,0,.439.962,1.808,1.808,0,0,0,1.081.3,1.422,1.422,0,0,0,.91-.246A.787.787,0,0,0,53.288-2.672Zm3.867-2.171a5.613,5.613,0,0,1,.554-2.536A3.96,3.96,0,0,1,59.3-9.088a4.791,4.791,0,0,1,2.435-.6A4.373,4.373,0,0,1,65.1-8.363a5.076,5.076,0,0,1,1.23,3.6v.105A4.925,4.925,0,0,1,65.1-1.129,4.384,4.384,0,0,1,61.752.176a4.434,4.434,0,0,1-3.261-1.217,4.761,4.761,0,0,1-1.327-3.3Zm2.962.185a3.538,3.538,0,0,0,.413,1.934,1.376,1.376,0,0,0,1.222.615q1.582,0,1.617-2.435v-.3q0-2.558-1.635-2.558-1.485,0-1.608,2.206ZM68.651,1.1h-2.1l4.368-13.9h2.109ZM77.379,0H74.3V-12.8h3.076Zm4.808-9.51.1,1.116A3.27,3.27,0,0,1,85-9.686a2.407,2.407,0,0,1,2.435,1.433,3.165,3.165,0,0,1,2.795-1.433q2.892,0,2.971,3.5V0H90.229V-6a1.813,1.813,0,0,0-.246-1.063,1.048,1.048,0,0,0-.9-.334,1.4,1.4,0,0,0-1.31.782l.009.123V0H84.814V-5.985a1.906,1.906,0,0,0-.237-1.081,1.045,1.045,0,0,0-.905-.334,1.42,1.42,0,0,0-1.3.782V0H79.409V-9.51ZM103.72-4.685a5.735,5.735,0,0,1-1,3.538A3.2,3.2,0,0,1,100.028.176a2.742,2.742,0,0,1-2.153-.958V3.656H94.913V-9.51h2.769l.088.879a2.742,2.742,0,0,1,2.241-1.055,3.224,3.224,0,0,1,2.733,1.3,5.805,5.805,0,0,1,.976,3.564Zm-2.962-.185q0-2.531-1.477-2.531a1.394,1.394,0,0,0-1.406.756V-2.9a1.439,1.439,0,0,0,1.424.791q1.415,0,1.459-2.443Zm9.932,3.841a3.054,3.054,0,0,1-2.54,1.2,3,3,0,0,1-2.369-.91,3.826,3.826,0,0,1-.8-2.615V-9.51h2.962v6.179a1.065,1.065,0,0,0,1.187,1.222,1.548,1.548,0,0,0,1.45-.729V-9.51h2.979V0h-2.777Zm9.088,1.2a4.889,4.889,0,0,1-3.542-1.305,4.507,4.507,0,0,1-1.354-3.4v-.246a5.84,5.84,0,0,1,.541-2.575A3.955,3.955,0,0,1,117-9.075a4.763,4.763,0,0,1,2.461-.611,4.117,4.117,0,0,1,3.164,1.244,4.887,4.887,0,0,1,1.16,3.467v1.151H117.9a2.135,2.135,0,0,0,.694,1.257,2.066,2.066,0,0,0,1.389.457,2.662,2.662,0,0,0,2.2-.984l1.354,1.6a3.784,3.784,0,0,1-1.569,1.217A5.3,5.3,0,0,1,119.777.176ZM119.443-7.4q-1.3,0-1.547,1.723h2.988v-.229a1.467,1.467,0,0,0-.36-1.1A1.434,1.434,0,0,0,119.443-7.4Zm10.512,4.729a.684.684,0,0,0-.4-.606,6.016,6.016,0,0,0-1.5-.475,6.853,6.853,0,0,1-1.828-.646,3.062,3.062,0,0,1-1.1-.971,2.319,2.319,0,0,1-.378-1.31,2.628,2.628,0,0,1,1.081-2.158,4.453,4.453,0,0,1,2.83-.848,4.934,4.934,0,0,1,3.023.853,2.666,2.666,0,0,1,1.143,2.241h-2.971q0-1.143-1.2-1.143a1.194,1.194,0,0,0-.782.259.8.8,0,0,0-.316.646.737.737,0,0,0,.387.642,3.654,3.654,0,0,0,1.235.4,10.671,10.671,0,0,1,1.49.378,2.706,2.706,0,0,1,2.145,2.646,2.491,2.491,0,0,1-1.156,2.118,5.068,5.068,0,0,1-2.993.817,5.172,5.172,0,0,1-2.18-.439,3.645,3.645,0,0,1-1.494-1.2,2.707,2.707,0,0,1-.536-1.591h2.769a1.145,1.145,0,0,0,.439.962,1.808,1.808,0,0,0,1.081.3,1.422,1.422,0,0,0,.91-.246A.787.787,0,0,0,129.955-2.672Zm7.69-9.2V-9.51h1.564v2.057h-1.564V-3.1a1.111,1.111,0,0,0,.193.747,1.037,1.037,0,0,0,.765.211,4.345,4.345,0,0,0,.738-.053V-.079a5.466,5.466,0,0,1-1.67.255,3.1,3.1,0,0,1-2.259-.721,2.954,2.954,0,0,1-.729-2.188v-4.72h-1.213V-9.51h1.213v-2.364Zm2.092,7.031a5.613,5.613,0,0,1,.554-2.536,3.96,3.96,0,0,1,1.591-1.709,4.791,4.791,0,0,1,2.435-.6,4.373,4.373,0,0,1,3.366,1.323,5.076,5.076,0,0,1,1.23,3.6v.105a4.925,4.925,0,0,1-1.235,3.529A4.384,4.384,0,0,1,144.334.176a4.434,4.434,0,0,1-3.261-1.217,4.761,4.761,0,0,1-1.327-3.3Zm2.962.185a3.538,3.538,0,0,0,.413,1.934,1.376,1.376,0,0,0,1.222.615q1.582,0,1.617-2.435v-.3q0-2.558-1.635-2.558-1.485,0-1.608,2.206Z" transform="translate(370 5987)" fill="#12263f"/>
    <line id="Line_672" data-name="Line 672" y2="352.163" transform="translate(334.949 5954.313)" fill="none" stroke="#afafaf" stroke-linecap="round" stroke-width="1"/>
    <line id="Line_673" data-name="Line 673" y2="352.163" transform="translate(570 5954.313)" fill="none" stroke="#afafaf" stroke-linecap="round" stroke-width="1"/>
    <g id="Rectangle_411016" data-name="Rectangle 411016" transform="translate(180.949 5954.8)" fill="none" stroke="#707070" stroke-width="1">
      <rect width="1239.051" height="351.676" stroke="none"/>
      <rect x="0.5" y="0.5" width="1238.051" height="350.676" fill="none"/>
    </g>
    <path id="Path_1248457" data-name="Path 1248457" d="M9.026-5.1H4.052V0H.967V-12.8H9.527v2.382H4.052v2.944H9.026ZM15.732,0a3.344,3.344,0,0,1-.281-.853A2.754,2.754,0,0,1,13.166.176a3.374,3.374,0,0,1-2.285-.813,2.588,2.588,0,0,1-.94-2.043,2.66,2.66,0,0,1,1.143-2.338,5.821,5.821,0,0,1,3.322-.791h.914v-.5q0-1.31-1.134-1.31a.925.925,0,0,0-1.055,1.037H10.169a2.659,2.659,0,0,1,1.173-2.241,4.927,4.927,0,0,1,2.993-.861,4.323,4.323,0,0,1,2.874.888A3.086,3.086,0,0,1,18.29-6.363v4.21a4.311,4.311,0,0,0,.4,2V0ZM13.878-1.934a1.652,1.652,0,0,0,.918-.237,1.487,1.487,0,0,0,.523-.536V-4.228h-.861q-1.547,0-1.547,1.389a.848.848,0,0,0,.272.655A.986.986,0,0,0,13.878-1.934ZM23.054,0H20.083V-13.5h2.971ZM28,0H25.031V-13.5H28Zm7.181,0A3.344,3.344,0,0,1,34.9-.853,2.754,2.754,0,0,1,32.616.176a3.374,3.374,0,0,1-2.285-.813,2.588,2.588,0,0,1-.94-2.043,2.66,2.66,0,0,1,1.143-2.338,5.821,5.821,0,0,1,3.322-.791h.914v-.5q0-1.31-1.134-1.31a.925.925,0,0,0-1.055,1.037H29.619a2.659,2.659,0,0,1,1.173-2.241,4.927,4.927,0,0,1,2.993-.861,4.323,4.323,0,0,1,2.874.888A3.086,3.086,0,0,1,37.74-6.363v4.21a4.311,4.311,0,0,0,.4,2V0ZM33.328-1.934a1.652,1.652,0,0,0,.918-.237,1.487,1.487,0,0,0,.523-.536V-4.228h-.861q-1.547,0-1.547,1.389a.848.848,0,0,0,.272.655A.986.986,0,0,0,33.328-1.934Z" transform="translate(612.543 5987)" fill="#12263f"/>
    <line id="Line_674" data-name="Line 674" y2="352.163" transform="translate(705 5954.313)" fill="none" stroke="#afafaf" stroke-linecap="round" stroke-width="1"/>
    <path id="Path_1248458" data-name="Path 1248458" d="M-31.32-4.333a4.673,4.673,0,0,1-.721,2.36,4.35,4.35,0,0,1-1.85,1.586,6.3,6.3,0,0,1-2.72.563,5.025,5.025,0,0,1-3.973-1.644,6.786,6.786,0,0,1-1.45-4.641v-.633a7.746,7.746,0,0,1,.655-3.292,4.961,4.961,0,0,1,1.885-2.18,5.26,5.26,0,0,1,2.848-.769A5.516,5.516,0,0,1-32.9-11.755a4.844,4.844,0,0,1,1.608,3.379H-34.37a2.292,2.292,0,0,0-.589-1.679,2.422,2.422,0,0,0-1.687-.51,1.843,1.843,0,0,0-1.687.861A5.536,5.536,0,0,0-38.9-6.952v.905a6.126,6.126,0,0,0,.514,2.927,1.882,1.882,0,0,0,1.771.879,2.369,2.369,0,0,0,1.626-.5,2.126,2.126,0,0,0,.6-1.591ZM-24.64,0a3.344,3.344,0,0,1-.281-.853A2.754,2.754,0,0,1-27.207.176a3.374,3.374,0,0,1-2.285-.813,2.588,2.588,0,0,1-.94-2.043A2.66,2.66,0,0,1-29.29-5.019a5.821,5.821,0,0,1,3.322-.791h.914v-.5q0-1.31-1.134-1.31a.925.925,0,0,0-1.055,1.037H-30.2A2.659,2.659,0,0,1-29.03-8.824a4.927,4.927,0,0,1,2.993-.861,4.323,4.323,0,0,1,2.874.888,3.086,3.086,0,0,1,1.081,2.435v4.21a4.311,4.311,0,0,0,.4,2V0Zm-1.854-1.934a1.652,1.652,0,0,0,.918-.237,1.487,1.487,0,0,0,.523-.536V-4.228h-.861q-1.547,0-1.547,1.389a.848.848,0,0,0,.272.655A.986.986,0,0,0-26.495-1.934Zm11.716.905a3.054,3.054,0,0,1-2.54,1.2,3,3,0,0,1-2.369-.91,3.826,3.826,0,0,1-.8-2.615V-9.51h2.962v6.179a1.065,1.065,0,0,0,1.187,1.222,1.548,1.548,0,0,0,1.45-.729V-9.51h2.979V0h-2.777Zm9.466-1.644a.684.684,0,0,0-.4-.606,6.016,6.016,0,0,0-1.5-.475A6.853,6.853,0,0,1-9.04-4.4a3.062,3.062,0,0,1-1.1-.971,2.319,2.319,0,0,1-.378-1.31A2.628,2.628,0,0,1-9.435-8.837,4.453,4.453,0,0,1-6.6-9.686a4.934,4.934,0,0,1,3.023.853A2.666,2.666,0,0,1-2.439-6.592H-5.41q0-1.143-1.2-1.143a1.194,1.194,0,0,0-.782.259.8.8,0,0,0-.316.646.737.737,0,0,0,.387.642,3.654,3.654,0,0,0,1.235.4,10.671,10.671,0,0,1,1.49.378A2.706,2.706,0,0,1-2.457-2.76,2.491,2.491,0,0,1-3.612-.642,5.068,5.068,0,0,1-6.6.176a5.172,5.172,0,0,1-2.18-.439,3.645,3.645,0,0,1-1.494-1.2,2.707,2.707,0,0,1-.536-1.591h2.769a1.145,1.145,0,0,0,.439.962,1.808,1.808,0,0,0,1.081.3,1.422,1.422,0,0,0,.91-.246A.787.787,0,0,0-5.313-2.672ZM4.285,0A3.344,3.344,0,0,1,4-.853,2.754,2.754,0,0,1,1.718.176,3.374,3.374,0,0,1-.567-.637a2.588,2.588,0,0,1-.94-2.043A2.66,2.66,0,0,1-.365-5.019,5.821,5.821,0,0,1,2.958-5.81h.914v-.5q0-1.31-1.134-1.31A.925.925,0,0,0,1.683-6.583H-1.279A2.659,2.659,0,0,1-.105-8.824a4.927,4.927,0,0,1,2.993-.861A4.323,4.323,0,0,1,5.761-8.8,3.086,3.086,0,0,1,6.842-6.363v4.21a4.311,4.311,0,0,0,.4,2V0ZM2.43-1.934a1.652,1.652,0,0,0,.918-.237,1.487,1.487,0,0,0,.523-.536V-4.228H3.01q-1.547,0-1.547,1.389a.848.848,0,0,0,.272.655A.986.986,0,0,0,2.43-1.934Zm16.286-4.9-.976-.07a1.752,1.752,0,0,0-1.793.879V0H12.986V-9.51h2.777l.1,1.222a2.294,2.294,0,0,1,2.083-1.4,2.888,2.888,0,0,1,.826.105ZM24.877,0A3.344,3.344,0,0,1,24.6-.853,2.754,2.754,0,0,1,22.311.176a3.374,3.374,0,0,1-2.285-.813,2.588,2.588,0,0,1-.94-2.043,2.66,2.66,0,0,1,1.143-2.338A5.821,5.821,0,0,1,23.55-5.81h.914v-.5q0-1.31-1.134-1.31a.925.925,0,0,0-1.055,1.037H19.314a2.659,2.659,0,0,1,1.173-2.241,4.927,4.927,0,0,1,2.993-.861,4.323,4.323,0,0,1,2.874.888,3.086,3.086,0,0,1,1.081,2.435v4.21a4.311,4.311,0,0,0,.4,2V0ZM23.023-1.934a1.652,1.652,0,0,0,.918-.237,1.487,1.487,0,0,0,.523-.536V-4.228H23.6q-1.547,0-1.547,1.389a.848.848,0,0,0,.272.655A.986.986,0,0,0,23.023-1.934ZM32.3,0H29.325V-9.51H32.3ZM31.2-13.324h3.129l-2.443,2.76H29.465ZM37.7-2.285h4.333V0H33.957V-1.652l4.219-5.572H34.141V-9.51h7.8v1.6Z" transform="translate(767 5991.476)" fill="#12263f"/>
    <line id="Line_675" data-name="Line 675" y2="352.163" transform="translate(863.457 5954.313)" fill="none" stroke="#afafaf" stroke-linecap="round" stroke-width="1"/>
    <line id="Line_676" data-name="Line 676" y2="352.163" transform="translate(1147.543 5954.313)" fill="none" stroke="#afafaf" stroke-linecap="round" stroke-width="1"/>
    <path id="Path_1248459" data-name="Path 1248459" d="M-28.745,0h-3.076V-12.8h3.076Zm4.808-9.51.1,1.116a3.27,3.27,0,0,1,2.716-1.292A2.407,2.407,0,0,1-18.69-8.253,3.165,3.165,0,0,1-15.9-9.686q2.892,0,2.971,3.5V0H-15.9V-6a1.813,1.813,0,0,0-.246-1.063,1.048,1.048,0,0,0-.9-.334,1.4,1.4,0,0,0-1.31.782l.009.123V0h-2.971V-5.985a1.906,1.906,0,0,0-.237-1.081,1.045,1.045,0,0,0-.905-.334,1.42,1.42,0,0,0-1.3.782V0h-2.962V-9.51ZM-2.4-4.685a5.735,5.735,0,0,1-1,3.538A3.2,3.2,0,0,1-6.1.176,2.742,2.742,0,0,1-8.249-.782V3.656H-11.21V-9.51h2.769l.088.879A2.742,2.742,0,0,1-6.113-9.686a3.224,3.224,0,0,1,2.733,1.3A5.805,5.805,0,0,1-2.4-4.825Zm-2.962-.185q0-2.531-1.477-2.531a1.394,1.394,0,0,0-1.406.756V-2.9a1.439,1.439,0,0,0,1.424.791q1.415,0,1.459-2.443ZM4.258,0a3.344,3.344,0,0,1-.281-.853A2.754,2.754,0,0,1,1.692.176,3.374,3.374,0,0,1-.593-.637a2.588,2.588,0,0,1-.94-2.043A2.66,2.66,0,0,1-.391-5.019,5.821,5.821,0,0,1,2.931-5.81h.914v-.5q0-1.31-1.134-1.31A.925.925,0,0,0,1.657-6.583H-1.305A2.659,2.659,0,0,1-.132-8.824a4.927,4.927,0,0,1,2.993-.861A4.323,4.323,0,0,1,5.735-8.8,3.086,3.086,0,0,1,6.816-6.363v4.21a4.311,4.311,0,0,0,.4,2V0ZM2.4-1.934a1.652,1.652,0,0,0,.918-.237,1.487,1.487,0,0,0,.523-.536V-4.228H2.984q-1.547,0-1.547,1.389a.848.848,0,0,0,.272.655A.986.986,0,0,0,2.4-1.934Zm10.072-.176a1.317,1.317,0,0,0,.967-.338,1.241,1.241,0,0,0,.334-.945h2.777A3.288,3.288,0,0,1,15.434-.826a4.168,4.168,0,0,1-2.887,1,4.22,4.22,0,0,1-3.27-1.3,5.125,5.125,0,0,1-1.2-3.6v-.123A5.792,5.792,0,0,1,8.613-7.4a3.872,3.872,0,0,1,1.534-1.7,4.573,4.573,0,0,1,2.373-.593,4.116,4.116,0,0,1,2.944,1.028,3.647,3.647,0,0,1,1.09,2.786H13.777A1.626,1.626,0,0,0,13.417-7a1.244,1.244,0,0,0-.967-.4Q11.3-7.4,11.1-5.933a10.357,10.357,0,0,0-.062,1.283,4.068,4.068,0,0,0,.343,1.986A1.187,1.187,0,0,0,12.476-2.109Zm8.78-9.765V-9.51h1.564v2.057H21.256V-3.1a1.111,1.111,0,0,0,.193.747,1.037,1.037,0,0,0,.765.211,4.345,4.345,0,0,0,.738-.053V-.079a5.466,5.466,0,0,1-1.67.255,3.1,3.1,0,0,1-2.259-.721,2.954,2.954,0,0,1-.729-2.188v-4.72H17.082V-9.51h1.213v-2.364Zm2.092,7.031A5.613,5.613,0,0,1,23.9-7.378a3.96,3.96,0,0,1,1.591-1.709,4.791,4.791,0,0,1,2.435-.6,4.373,4.373,0,0,1,3.366,1.323,5.076,5.076,0,0,1,1.23,3.6v.105a4.925,4.925,0,0,1-1.235,3.529A4.384,4.384,0,0,1,27.945.176a4.434,4.434,0,0,1-3.261-1.217,4.761,4.761,0,0,1-1.327-3.3Zm2.962.185a3.538,3.538,0,0,0,.413,1.934,1.376,1.376,0,0,0,1.222.615q1.582,0,1.617-2.435v-.3q0-2.558-1.635-2.558-1.485,0-1.608,2.206Z" transform="translate(928 5991.476)" fill="#12263f"/>
    <line id="Line_677" data-name="Line 677" y2="352.163" transform="translate(1020 5954.313)" fill="none" stroke="#afafaf" stroke-linecap="round" stroke-width="1"/>
    <path id="Path_1248460" data-name="Path 1248460" d="M8.235-2.391H4.008L3.27,0h-3.3L4.667-12.8h2.9L12.3,0H8.982ZM4.746-4.772H7.5L6.117-9.211ZM17.112-2.109a1.317,1.317,0,0,0,.967-.338,1.241,1.241,0,0,0,.334-.945H21.19A3.288,3.288,0,0,1,20.07-.826a4.168,4.168,0,0,1-2.887,1,4.22,4.22,0,0,1-3.27-1.3,5.125,5.125,0,0,1-1.2-3.6v-.123A5.792,5.792,0,0,1,13.25-7.4a3.872,3.872,0,0,1,1.534-1.7,4.573,4.573,0,0,1,2.373-.593A4.116,4.116,0,0,1,20.1-8.657a3.647,3.647,0,0,1,1.09,2.786H18.413A1.626,1.626,0,0,0,18.053-7a1.244,1.244,0,0,0-.967-.4q-1.151,0-1.345,1.468a10.357,10.357,0,0,0-.062,1.283,4.068,4.068,0,0,0,.343,1.986A1.187,1.187,0,0,0,17.112-2.109Zm9.352,0a1.317,1.317,0,0,0,.967-.338,1.241,1.241,0,0,0,.334-.945h2.777A3.288,3.288,0,0,1,29.421-.826a4.168,4.168,0,0,1-2.887,1,4.22,4.22,0,0,1-3.27-1.3,5.125,5.125,0,0,1-1.2-3.6v-.123A5.792,5.792,0,0,1,22.6-7.4a3.872,3.872,0,0,1,1.534-1.7,4.573,4.573,0,0,1,2.373-.593,4.116,4.116,0,0,1,2.944,1.028,3.647,3.647,0,0,1,1.09,2.786H27.765A1.626,1.626,0,0,0,27.4-7a1.244,1.244,0,0,0-.967-.4q-1.151,0-1.345,1.468a10.357,10.357,0,0,0-.062,1.283,4.068,4.068,0,0,0,.343,1.986A1.187,1.187,0,0,0,26.464-2.109ZM34.919,0H31.948V-9.51h2.971ZM31.772-11.962A1.322,1.322,0,0,1,32.229-13a1.724,1.724,0,0,1,1.187-.4A1.724,1.724,0,0,1,34.6-13a1.322,1.322,0,0,1,.457,1.037,1.322,1.322,0,0,1-.457,1.037,1.724,1.724,0,0,1-1.187.4,1.724,1.724,0,0,1-1.187-.4A1.322,1.322,0,0,1,31.772-11.962Zm4.6,7.119a5.613,5.613,0,0,1,.554-2.536,3.96,3.96,0,0,1,1.591-1.709,4.791,4.791,0,0,1,2.435-.6,4.373,4.373,0,0,1,3.366,1.323,5.076,5.076,0,0,1,1.23,3.6v.105A4.925,4.925,0,0,1,44.31-1.129,4.384,4.384,0,0,1,40.966.176a4.434,4.434,0,0,1-3.261-1.217,4.761,4.761,0,0,1-1.327-3.3Zm2.962.185a3.538,3.538,0,0,0,.413,1.934,1.376,1.376,0,0,0,1.222.615q1.582,0,1.617-2.435v-.3q0-2.558-1.635-2.558-1.485,0-1.608,2.206ZM41.353-13.5h3.129l-2.443,2.76H39.621ZM49.57-9.51l.1,1.116a3.225,3.225,0,0,1,2.716-1.292A2.713,2.713,0,0,1,54.6-8.8a4.226,4.226,0,0,1,.76,2.672V0H52.392V-6a1.6,1.6,0,0,0-.29-1.059A1.342,1.342,0,0,0,51.047-7.4a1.413,1.413,0,0,0-1.292.686V0H46.793V-9.51ZM6.188,25a3.344,3.344,0,0,1-.281-.853,2.754,2.754,0,0,1-2.285,1.028,3.374,3.374,0,0,1-2.285-.813A2.588,2.588,0,0,1,.4,22.319a2.66,2.66,0,0,1,1.143-2.338A5.821,5.821,0,0,1,4.86,19.19h.914v-.5q0-1.31-1.134-1.31a.925.925,0,0,0-1.055,1.037H.624A2.659,2.659,0,0,1,1.8,16.176a4.927,4.927,0,0,1,2.993-.861,4.323,4.323,0,0,1,2.874.888,3.086,3.086,0,0,1,1.081,2.435v4.21a4.311,4.311,0,0,0,.4,2V25ZM4.333,23.066a1.652,1.652,0,0,0,.918-.237,1.487,1.487,0,0,0,.523-.536V20.772H4.913q-1.547,0-1.547,1.389a.848.848,0,0,0,.272.655A.986.986,0,0,0,4.333,23.066Zm14.88-2.751a5.735,5.735,0,0,1-1,3.538,3.2,3.2,0,0,1-2.694,1.323,2.742,2.742,0,0,1-2.153-.958v4.438H10.406V15.49h2.769l.088.879A2.742,2.742,0,0,1,15.5,15.314a3.224,3.224,0,0,1,2.733,1.3,5.805,5.805,0,0,1,.976,3.564Zm-2.962-.185q0-2.531-1.477-2.531a1.394,1.394,0,0,0-1.406.756V22.1a1.439,1.439,0,0,0,1.424.791q1.415,0,1.459-2.443ZM23.643,25H20.672V11.5h2.971Zm4.948,0H25.62V15.49h2.971ZM25.444,13.038A1.322,1.322,0,0,1,25.9,12a1.943,1.943,0,0,1,2.373,0,1.405,1.405,0,0,1,0,2.074,1.943,1.943,0,0,1-2.373,0A1.322,1.322,0,0,1,25.444,13.038Zm8.991,9.853a1.317,1.317,0,0,0,.967-.338,1.241,1.241,0,0,0,.334-.945h2.777a3.288,3.288,0,0,1-1.121,2.566,4.168,4.168,0,0,1-2.887,1,4.22,4.22,0,0,1-3.27-1.3,5.125,5.125,0,0,1-1.2-3.6v-.123a5.792,5.792,0,0,1,.532-2.544,3.872,3.872,0,0,1,1.534-1.7,4.573,4.573,0,0,1,2.373-.593,4.116,4.116,0,0,1,2.944,1.028,3.647,3.647,0,0,1,1.09,2.786H35.736A1.626,1.626,0,0,0,35.376,18a1.244,1.244,0,0,0-.967-.4q-1.151,0-1.345,1.468A10.357,10.357,0,0,0,33,20.351a4.068,4.068,0,0,0,.343,1.986A1.187,1.187,0,0,0,34.436,22.891ZM45.123,25a3.344,3.344,0,0,1-.281-.853,2.754,2.754,0,0,1-2.285,1.028,3.374,3.374,0,0,1-2.285-.813,2.588,2.588,0,0,1-.94-2.043,2.66,2.66,0,0,1,1.143-2.338A5.821,5.821,0,0,1,43.8,19.19h.914v-.5q0-1.31-1.134-1.31a.925.925,0,0,0-1.055,1.037H39.56a2.659,2.659,0,0,1,1.173-2.241,4.927,4.927,0,0,1,2.993-.861A4.323,4.323,0,0,1,46.6,16.2a3.086,3.086,0,0,1,1.081,2.435v4.21a4.311,4.311,0,0,0,.4,2V25Zm-1.854-1.934a1.652,1.652,0,0,0,.918-.237,1.487,1.487,0,0,0,.523-.536V20.772h-.861q-1.547,0-1.547,1.389a.848.848,0,0,0,.272.655A.986.986,0,0,0,43.269,23.066Zm5.678-2.892a5.809,5.809,0,0,1,.976-3.56,3.211,3.211,0,0,1,2.725-1.3,2.731,2.731,0,0,1,2.145,1V11.5h2.971V25H55.1l-.149-1.02a2.8,2.8,0,0,1-2.32,1.2,3.205,3.205,0,0,1-2.689-1.3A5.993,5.993,0,0,1,48.946,20.175Zm2.962.185q0,2.531,1.477,2.531a1.458,1.458,0,0,0,1.406-.826V18.443A1.419,1.419,0,0,0,53.4,17.6q-1.371,0-1.485,2.215ZM64.8,25a3.344,3.344,0,0,1-.281-.853,2.754,2.754,0,0,1-2.285,1.028,3.374,3.374,0,0,1-2.285-.813,2.588,2.588,0,0,1-.94-2.043,2.66,2.66,0,0,1,1.143-2.338,5.821,5.821,0,0,1,3.322-.791h.914v-.5q0-1.31-1.134-1.31A.925.925,0,0,0,62.2,18.417H59.238a2.659,2.659,0,0,1,1.173-2.241,4.927,4.927,0,0,1,2.993-.861,4.323,4.323,0,0,1,2.874.888,3.086,3.086,0,0,1,1.081,2.435v4.21a4.311,4.311,0,0,0,.4,2V25Zm-1.854-1.934a1.652,1.652,0,0,0,.918-.237,1.487,1.487,0,0,0,.523-.536V20.772h-.861q-1.547,0-1.547,1.389a.848.848,0,0,0,.272.655A.986.986,0,0,0,62.947,23.066Z" transform="translate(1037 5978.976)" fill="#12263f"/>
    <path id="Path_1248461" data-name="Path 1248461" d="M8.9-5.423H4.052v3.05h5.73V0H.967V-12.8H9.8v2.382H4.052v2.7H8.9Zm5.563,1.9,1.5-5.985h3.12L15.987,0H12.964l-3.1-9.51H12.99ZM23.1,0H20.127V-9.51H23.1ZM19.951-11.962A1.322,1.322,0,0,1,20.408-13a1.724,1.724,0,0,1,1.187-.4,1.724,1.724,0,0,1,1.187.4,1.322,1.322,0,0,1,.457,1.037,1.322,1.322,0,0,1-.457,1.037,1.724,1.724,0,0,1-1.187.4,1.724,1.724,0,0,1-1.187-.4A1.322,1.322,0,0,1,19.951-11.962Zm4.6,7.137a5.809,5.809,0,0,1,.976-3.56,3.211,3.211,0,0,1,2.725-1.3,2.731,2.731,0,0,1,2.145,1V-13.5h2.971V0H30.7l-.149-1.02a2.8,2.8,0,0,1-2.32,1.2,3.205,3.205,0,0,1-2.689-1.3A5.993,5.993,0,0,1,24.548-4.825Zm2.962.185q0,2.531,1.477,2.531a1.458,1.458,0,0,0,1.406-.826V-6.557A1.419,1.419,0,0,0,29-7.4q-1.371,0-1.485,2.215ZM39.647.176a4.889,4.889,0,0,1-3.542-1.305,4.507,4.507,0,0,1-1.354-3.4v-.246a5.84,5.84,0,0,1,.541-2.575A3.955,3.955,0,0,1,36.87-9.075a4.763,4.763,0,0,1,2.461-.611A4.117,4.117,0,0,1,42.5-8.442a4.887,4.887,0,0,1,1.16,3.467v1.151H37.767a2.135,2.135,0,0,0,.694,1.257,2.066,2.066,0,0,0,1.389.457,2.662,2.662,0,0,0,2.2-.984l1.354,1.6A3.784,3.784,0,0,1,41.832-.277,5.3,5.3,0,0,1,39.647.176ZM39.313-7.4q-1.3,0-1.547,1.723h2.988v-.229a1.467,1.467,0,0,0-.36-1.1A1.434,1.434,0,0,0,39.313-7.4ZM47.566-9.51l.1,1.116a3.225,3.225,0,0,1,2.716-1.292A2.713,2.713,0,0,1,52.6-8.8a4.226,4.226,0,0,1,.76,2.672V0H50.388V-6a1.6,1.6,0,0,0-.29-1.059A1.342,1.342,0,0,0,49.043-7.4a1.413,1.413,0,0,0-1.292.686V0H44.789V-9.51Zm11.452,7.4a1.317,1.317,0,0,0,.967-.338,1.241,1.241,0,0,0,.334-.945H63.1A3.288,3.288,0,0,1,61.976-.826a4.168,4.168,0,0,1-2.887,1,4.22,4.22,0,0,1-3.27-1.3,5.125,5.125,0,0,1-1.2-3.6v-.123A5.792,5.792,0,0,1,55.156-7.4a3.872,3.872,0,0,1,1.534-1.7,4.573,4.573,0,0,1,2.373-.593,4.116,4.116,0,0,1,2.944,1.028A3.647,3.647,0,0,1,63.1-5.871H60.319A1.626,1.626,0,0,0,59.959-7a1.244,1.244,0,0,0-.967-.4q-1.151,0-1.345,1.468a10.357,10.357,0,0,0-.062,1.283,4.068,4.068,0,0,0,.343,1.986A1.187,1.187,0,0,0,59.019-2.109ZM67.474,0H64.5V-9.51h2.971ZM64.327-11.962A1.322,1.322,0,0,1,64.784-13a1.724,1.724,0,0,1,1.187-.4,1.724,1.724,0,0,1,1.187.4,1.322,1.322,0,0,1,.457,1.037,1.322,1.322,0,0,1-.457,1.037,1.724,1.724,0,0,1-1.187.4,1.724,1.724,0,0,1-1.187-.4A1.322,1.322,0,0,1,64.327-11.962ZM74.654,0a3.344,3.344,0,0,1-.281-.853A2.754,2.754,0,0,1,72.088.176,3.374,3.374,0,0,1,69.8-.637a2.588,2.588,0,0,1-.94-2.043A2.66,2.66,0,0,1,70-5.019a5.821,5.821,0,0,1,3.322-.791h.914v-.5q0-1.31-1.134-1.31a.925.925,0,0,0-1.055,1.037H69.091a2.659,2.659,0,0,1,1.173-2.241,4.927,4.927,0,0,1,2.993-.861,4.323,4.323,0,0,1,2.874.888,3.086,3.086,0,0,1,1.081,2.435v4.21a4.311,4.311,0,0,0,.4,2V0ZM72.8-1.934a1.652,1.652,0,0,0,.918-.237,1.487,1.487,0,0,0,.523-.536V-4.228H73.38q-1.547,0-1.547,1.389a.848.848,0,0,0,.272.655A.986.986,0,0,0,72.8-1.934Z" transform="translate(1175 5991.476)" fill="#12263f"/>
    <path id="Path_1248462" data-name="Path 1248462" d="M-18.725-5.423h-4.852v3.05h5.73V0h-8.815V-12.8h8.833v2.382h-5.748v2.7h4.852Zm6.979,2.751a.684.684,0,0,0-.4-.606,6.016,6.016,0,0,0-1.5-.475A6.853,6.853,0,0,1-15.473-4.4a3.062,3.062,0,0,1-1.1-.971,2.319,2.319,0,0,1-.378-1.31,2.628,2.628,0,0,1,1.081-2.158,4.453,4.453,0,0,1,2.83-.848,4.934,4.934,0,0,1,3.023.853A2.666,2.666,0,0,1-8.873-6.592h-2.971q0-1.143-1.2-1.143a1.194,1.194,0,0,0-.782.259.8.8,0,0,0-.316.646.737.737,0,0,0,.387.642,3.654,3.654,0,0,0,1.235.4,10.671,10.671,0,0,1,1.49.378A2.706,2.706,0,0,1-8.89-2.76,2.491,2.491,0,0,1-10.046-.642a5.068,5.068,0,0,1-2.993.817,5.172,5.172,0,0,1-2.18-.439,3.645,3.645,0,0,1-1.494-1.2,2.707,2.707,0,0,1-.536-1.591h2.769a1.145,1.145,0,0,0,.439.962,1.808,1.808,0,0,0,1.081.3,1.422,1.422,0,0,0,.91-.246A.787.787,0,0,0-11.747-2.672Zm7.69-9.2V-9.51h1.564v2.057H-4.056V-3.1a1.111,1.111,0,0,0,.193.747,1.037,1.037,0,0,0,.765.211A4.345,4.345,0,0,0-2.36-2.2V-.079A5.466,5.466,0,0,1-4.03.176,3.1,3.1,0,0,1-6.289-.545a2.954,2.954,0,0,1-.729-2.188v-4.72H-8.231V-9.51h1.213v-2.364ZM4.03,0a3.344,3.344,0,0,1-.281-.853A2.754,2.754,0,0,1,1.463.176,3.374,3.374,0,0,1-.822-.637a2.588,2.588,0,0,1-.94-2.043A2.66,2.66,0,0,1-.62-5.019,5.821,5.821,0,0,1,2.7-5.81h.914v-.5q0-1.31-1.134-1.31A.925.925,0,0,0,1.428-6.583H-1.534A2.659,2.659,0,0,1-.36-8.824a4.927,4.927,0,0,1,2.993-.861A4.323,4.323,0,0,1,5.506-8.8,3.086,3.086,0,0,1,6.587-6.363v4.21a4.311,4.311,0,0,0,.4,2V0ZM2.175-1.934a1.652,1.652,0,0,0,.918-.237,1.487,1.487,0,0,0,.523-.536V-4.228H2.755q-1.547,0-1.547,1.389a.848.848,0,0,0,.272.655A.986.986,0,0,0,2.175-1.934ZM7.853-4.825a5.809,5.809,0,0,1,.976-3.56,3.211,3.211,0,0,1,2.725-1.3,2.731,2.731,0,0,1,2.145,1V-13.5h2.971V0H14.005l-.149-1.02a2.8,2.8,0,0,1-2.32,1.2,3.205,3.205,0,0,1-2.689-1.3A5.993,5.993,0,0,1,7.853-4.825Zm2.962.185q0,2.531,1.477,2.531A1.458,1.458,0,0,0,13.7-2.936V-6.557A1.419,1.419,0,0,0,12.309-7.4q-1.371,0-1.485,2.215Zm7.163-.2a5.613,5.613,0,0,1,.554-2.536,3.96,3.96,0,0,1,1.591-1.709,4.791,4.791,0,0,1,2.435-.6,4.373,4.373,0,0,1,3.366,1.323,5.076,5.076,0,0,1,1.23,3.6v.105a4.925,4.925,0,0,1-1.235,3.529A4.384,4.384,0,0,1,22.575.176a4.434,4.434,0,0,1-3.261-1.217,4.761,4.761,0,0,1-1.327-3.3Zm2.962.185a3.538,3.538,0,0,0,.413,1.934,1.376,1.376,0,0,0,1.222.615q1.582,0,1.617-2.435v-.3q0-2.558-1.635-2.558-1.485,0-1.608,2.206Z" transform="translate(1339.457 5991.476)" fill="#12263f"/>
    <line id="Line_678" data-name="Line 678" y2="352.163" transform="translate(1284.543 5954.313)" fill="none" stroke="#afafaf" stroke-linecap="round" stroke-width="1"/>
  </g>
</svg>
