<svg xmlns="http://www.w3.org/2000/svg" xmlns:xlink="http://www.w3.org/1999/xlink" width="505" height="403" viewBox="0 0 505 403">
  <defs>
    <clipPath id="clip-path">
      <path id="path3483" d="M0-682.665H40.783v40.783H0Z" transform="translate(0 682.665)" fill="#12263f"/>
    </clipPath>
    <clipPath id="clip-path-2">
      <rect id="Rectangle_411223" data-name="Rectangle 411223" width="170" height="169.77" fill="#c6bbeb"/>
    </clipPath>
    <clipPath id="clip-path-3">
      <rect id="Rectangle_411223-2" data-name="Rectangle 411223" width="170" height="169.77" fill="#bed0ad"/>
    </clipPath>
    <clipPath id="clip-path-4">
      <rect id="Rectangle_411223-3" data-name="Rectangle 411223" width="170" height="169.77" fill="#f4a9a2"/>
    </clipPath>
  </defs>
  <g id="Group_1209507" data-name="Group 1209507" transform="translate(-180 -3628.572)">
    <rect id="Rectangle_411001" data-name="Rectangle 411001" width="505" height="403" rx="10" transform="translate(180 3628.572)" fill="#feead2"/>
    <circle id="Ellipse_12699" data-name="Ellipse 12699" cx="170" cy="170" r="170" transform="translate(260 3657)" fill="#fed5a7"/>
    <path id="Path_1248403" data-name="Path 1248403" d="M5.722-2.241,9.378-12.8h1.846L6.478,0H4.983L.246-12.8H2.083ZM16.242.176A4.155,4.155,0,0,1,13.1-1.094a4.714,4.714,0,0,1-1.213-3.4v-.3a5.707,5.707,0,0,1,.541-2.527,4.217,4.217,0,0,1,1.512-1.74,3.8,3.8,0,0,1,2.1-.628,3.562,3.562,0,0,1,2.883,1.222,5.289,5.289,0,0,1,1.028,3.5v.677H13.509a3.38,3.38,0,0,0,.822,2.272,2.583,2.583,0,0,0,2,.866A2.832,2.832,0,0,0,17.789-1.5a3.666,3.666,0,0,0,1.046-.932l.993.773A3.993,3.993,0,0,1,16.242.176Zm-.2-8.525a2.169,2.169,0,0,0-1.652.716,3.482,3.482,0,0,0-.826,2.008h4.764v-.123a3.1,3.1,0,0,0-.668-1.92A2.042,2.042,0,0,0,16.04-8.35Zm10.389.3a4.873,4.873,0,0,0-.8-.062A2.143,2.143,0,0,0,23.458-6.75V0H21.832V-9.51h1.582l.026,1.1a2.532,2.532,0,0,1,2.268-1.274,1.661,1.661,0,0,1,.721.123ZM29.689,0H28.063V-9.51h1.626ZM27.932-12.032a.971.971,0,0,1,.242-.668.907.907,0,0,1,.716-.272.922.922,0,0,1,.721.272.96.96,0,0,1,.246.668.929.929,0,0,1-.246.659.938.938,0,0,1-.721.264.924.924,0,0,1-.716-.264A.938.938,0,0,1,27.932-12.032ZM32.836,0V-8.253h-1.5V-9.51h1.5v-.809a3.3,3.3,0,0,1,.91-2.479,3.528,3.528,0,0,1,2.571-.888,7.741,7.741,0,0,1,2.487.536l-.272,1.371a5.633,5.633,0,0,0-2.092-.439,2.047,2.047,0,0,0-1.507.47,1.938,1.938,0,0,0-.461,1.411v.826h1.942v1.257H34.471V0Zm6.776,0H37.978V-9.51h1.635Zm6.46-1.151a2.342,2.342,0,0,0,1.521-.527A1.855,1.855,0,0,0,48.313-3h1.538a2.949,2.949,0,0,1-.562,1.556A3.7,3.7,0,0,1,47.9-.264a3.994,3.994,0,0,1-1.833.439,3.918,3.918,0,0,1-3.089-1.3,5.163,5.163,0,0,1-1.147-3.546v-.272a5.725,5.725,0,0,1,.51-2.47,3.883,3.883,0,0,1,1.463-1.679,4.157,4.157,0,0,1,2.254-.6,3.814,3.814,0,0,1,2.659.958A3.424,3.424,0,0,1,49.852-6.24H48.313a2.241,2.241,0,0,0-.7-1.516,2.174,2.174,0,0,0-1.551-.593,2.276,2.276,0,0,0-1.92.892,4.19,4.19,0,0,0-.681,2.58v.308a4.106,4.106,0,0,0,.677,2.531A2.287,2.287,0,0,0,46.072-1.151ZM57.551,0a3.416,3.416,0,0,1-.229-1A3.628,3.628,0,0,1,54.615.176a3.357,3.357,0,0,1-2.307-.8,2.573,2.573,0,0,1-.9-2.017,2.688,2.688,0,0,1,1.129-2.307,5.325,5.325,0,0,1,3.177-.822H57.3v-.747a1.826,1.826,0,0,0-.51-1.358,2.049,2.049,0,0,0-1.5-.505,2.371,2.371,0,0,0-1.459.439,1.3,1.3,0,0,0-.589,1.063H51.6a2.244,2.244,0,0,1,.505-1.375A3.449,3.449,0,0,1,53.477-9.3a4.613,4.613,0,0,1,1.9-.387,3.759,3.759,0,0,1,2.575.822A2.964,2.964,0,0,1,58.922-6.6v4.377a5.351,5.351,0,0,0,.334,2.083V0Zm-2.7-1.239a2.858,2.858,0,0,0,1.45-.4A2.392,2.392,0,0,0,57.3-2.663V-4.614H56.021q-2.988,0-2.988,1.749a1.48,1.48,0,0,0,.51,1.2A1.959,1.959,0,0,0,54.853-1.239ZM66.067-8.051a4.873,4.873,0,0,0-.8-.062A2.143,2.143,0,0,0,63.1-6.75V0H61.471V-9.51h1.582l.026,1.1a2.532,2.532,0,0,1,2.268-1.274,1.661,1.661,0,0,1,.721.123Z" transform="translate(475 3943)" fill="#12263f"/>
    <g id="g3477" transform="translate(469 4559.237)">
      <g id="g3479" transform="translate(0 -682.665)">
        <g id="g3481" clip-path="url(#clip-path)">
          <g id="g3487" transform="translate(15.128 0)">
            <path id="path3489" d="M-240.543-62.687h-15.592a2.377,2.377,0,0,1-2.374-2.374v-1.751a.8.8,0,0,1,.8-.8h3.3v-.548a2.9,2.9,0,0,1,2.9-2.9h6.34a2.9,2.9,0,0,1,2.9,2.9v.548h3.3a.8.8,0,0,1,.8.8v1.751A2.377,2.377,0,0,1-240.543-62.687Zm-16.373-3.328v.954a.782.782,0,0,0,.781.781h15.592a.782.782,0,0,0,.781-.781v-.954h-3.3a.8.8,0,0,1-.8-.8v-1.344a1.309,1.309,0,0,0-1.307-1.307h-6.34a1.309,1.309,0,0,0-1.307,1.307v1.344a.8.8,0,0,1-.8.8Z" transform="translate(258.509 71.057)" fill="#12263f"/>
          </g>
          <g id="g3491" transform="translate(10.327 21.061)">
            <path id="path3493" d="M-13.331-13.161a.751.751,0,0,1-.637-.346l-.007-.012h0l-.055-.09a.807.807,0,0,1,.262-1.1.787.787,0,0,1,1.085.246l.02.033h0l.031.053h0a.82.82,0,0,1-.259,1.085A.828.828,0,0,1-13.331-13.161Z" transform="translate(14.145 14.826)" fill="#12263f"/>
          </g>
          <g id="g3495" transform="translate(10.206 3.45)">
            <path id="path3497" d="M-463.662-475.045h-26.29a1.949,1.949,0,0,1-1.947-1.947v-9.995a.8.8,0,0,1,.233-.563l.211-.211-.2-.2a.8.8,0,0,1-.233-.563.8.8,0,0,1,.233-.563l2.791-2.791A.8.8,0,0,1-487.9-492a6.578,6.578,0,0,0,7.907-1.057,6.524,6.524,0,0,0,1.923-4.644,6.524,6.524,0,0,0-1.923-4.644,6.525,6.525,0,0,0-4.644-1.924,6.523,6.523,0,0,0-4.644,1.924,6.539,6.539,0,0,0-1.123,1.5.8.8,0,0,1-.9.391.8.8,0,0,1-.6-.772v-9.2a1.949,1.949,0,0,1,1.947-1.947h3.772a.8.8,0,0,1,.8.8v1.751a.781.781,0,0,0,.781.781h15.591a.781.781,0,0,0,.781-.781v-1.751a.8.8,0,0,1,.8-.8h3.772a1.934,1.934,0,0,1,1.376.57,1.934,1.934,0,0,1,.57,1.377v21.661a.8.8,0,0,1-.8.8.8.8,0,0,1-.8-.8v-21.661a.352.352,0,0,0-.1-.25.352.352,0,0,0-.25-.1h-2.976v.954a2.376,2.376,0,0,1-2.374,2.374H-484.6a2.376,2.376,0,0,1-2.374-2.374v-.954h-2.976a.354.354,0,0,0-.354.354v6.861a8.1,8.1,0,0,1,5.67-2.292,8.107,8.107,0,0,1,5.771,2.391,8.106,8.106,0,0,1,2.39,5.77,8.107,8.107,0,0,1-2.39,5.77,8.17,8.17,0,0,1-5.781,2.389,8.125,8.125,0,0,1-3.5-.79l-1.814,1.814.2.195a.8.8,0,0,1,0,1.126l-.541.541v9.665a.354.354,0,0,0,.354.354h26.29a.354.354,0,0,0,.354-.354v-4.777a.8.8,0,0,1,.8-.8.8.8,0,0,1,.8.8v4.777A1.949,1.949,0,0,1-463.662-475.045Z" transform="translate(491.899 512.379)" fill="#12263f"/>
          </g>
          <g id="g3499" transform="translate(23.853 4.185)">
            <path id="path3501" fill="#12263f"/>
          </g>
          <g id="g3503" transform="translate(15.218 28.099)">
            <path id="path3505" d="M-120.6-84.913a4.263,4.263,0,0,1-4.259-4.259A4.263,4.263,0,0,1-120.6-93.43a.8.8,0,0,1,.8.8.8.8,0,0,1-.8.8,2.669,2.669,0,0,0-2.665,2.666,2.669,2.669,0,0,0,2.665,2.665,2.659,2.659,0,0,0,2.464-1.647.8.8,0,0,1,1.041-.431.8.8,0,0,1,.431,1.041A4.247,4.247,0,0,1-120.6-84.913Z" transform="translate(124.854 93.43)" fill="#12263f"/>
          </g>
          <g id="g3507" transform="translate(26.915 15.21)">
            <path id="path3509" d="M-5.992-11.74h-6.544a.8.8,0,0,1-.8-.8.8.8,0,0,1,.8-.8h6.544a.8.8,0,0,1,.8.8A.8.8,0,0,1-5.992-11.74Z" transform="translate(13.333 13.333)" fill="#12263f"/>
          </g>
          <g id="g3511" transform="translate(26.915 18.989)">
            <path id="path3513" d="M-8.471-11.74h-4.066a.8.8,0,0,1-.8-.8.8.8,0,0,1,.8-.8h4.066a.8.8,0,0,1,.8.8A.8.8,0,0,1-8.471-11.74Z" transform="translate(13.333 13.333)" fill="#12263f"/>
          </g>
          <g id="g3515" transform="translate(26.369 29.593)">
            <path id="path3517" d="M-5.446-11.74h-7.091a.8.8,0,0,1-.8-.8.8.8,0,0,1,.8-.8h7.091a.8.8,0,0,1,.8.8A.8.8,0,0,1-5.446-11.74Z" transform="translate(13.333 13.333)" fill="#12263f"/>
          </g>
          <g id="g3519" transform="translate(26.369 33.372)">
            <path id="path3521" d="M-7.924-11.74h-4.613a.8.8,0,0,1-.8-.8.8.8,0,0,1,.8-.8h4.613a.8.8,0,0,1,.8.8A.8.8,0,0,1-7.924-11.74Z" transform="translate(13.333 13.333)" fill="#12263f"/>
          </g>
          <g id="g3523" transform="translate(17.895 29.18)">
            <path id="path3525" d="M-11.45-39.158a.794.794,0,0,1-.563-.233L-13.1-40.478a.8.8,0,0,1,0-1.126.8.8,0,0,1,1.126,0l.524.524,2.335-2.335a.8.8,0,0,1,1.126,0,.8.8,0,0,1,0,1.126l-2.9,2.9A.794.794,0,0,1-11.45-39.158Z" transform="translate(13.333 43.649)" fill="#12263f"/>
          </g>
          <g id="g3527" transform="translate(39.594 30.571)">
            <path id="path3529" fill="#12263f"/>
          </g>
          <g id="g3531" transform="translate(0.395 23.09)">
            <path id="path3533" d="M-183.3-83.317a.794.794,0,0,1,.563.233l4.182,4.181a.8.8,0,0,1,.233.563.8.8,0,0,1-.233.563l-5.538,5.539a3.729,3.729,0,0,1-2.654,1.1,3.729,3.729,0,0,1-2.654-1.1,3.758,3.758,0,0,1,0-5.308l5.538-5.538A.794.794,0,0,1-183.3-83.317Zm3.055,4.978-3.055-3.055-4.975,4.975a2.146,2.146,0,0,0-.633,1.528,2.146,2.146,0,0,0,.633,1.528,2.146,2.146,0,0,0,1.528.633,2.146,2.146,0,0,0,1.528-.633Z" transform="translate(190.499 83.317)" fill="#12263f"/>
          </g>
          <g id="g3535" transform="translate(7.538 21.053)">
            <path id="path3537" d="M-56.265-13.333a.8.8,0,0,1,.1.006.8.8,0,0,1,.586.387,6.581,6.581,0,0,0,1.024,1.323,6.593,6.593,0,0,0,1.38,1.058.8.8,0,0,1,.393.586.8.8,0,0,1-.226.668L-55.8-6.513a.8.8,0,0,1-.563.233.8.8,0,0,1-.563-.233L-59.607-9.2a.8.8,0,0,1,0-1.126l2.778-2.778A.8.8,0,0,1-56.265-13.333Zm1.444,3.591a8.226,8.226,0,0,1-.859-.748,8.245,8.245,0,0,1-.7-.8l-1.533,1.533L-56.361-8.2Z" transform="translate(59.84 13.333)" fill="#12263f"/>
          </g>
          <g id="g3539" transform="translate(9.308 9.966)">
            <path id="path3541" d="M-41.277-49.437a8.107,8.107,0,0,1,5.77,2.39,8.17,8.17,0,0,1,0,11.541,8.107,8.107,0,0,1-5.77,2.39,8.107,8.107,0,0,1-5.77-2.39,8.107,8.107,0,0,1-2.39-5.77,8.107,8.107,0,0,1,2.39-5.77A8.107,8.107,0,0,1-41.277-49.437Zm0,14.728a6.524,6.524,0,0,0,4.644-1.924,6.575,6.575,0,0,0,0-9.288,6.524,6.524,0,0,0-4.644-1.924,6.524,6.524,0,0,0-4.644,1.924,6.524,6.524,0,0,0-1.924,4.644,6.524,6.524,0,0,0,1.924,4.644A6.524,6.524,0,0,0-41.277-34.709Z" transform="translate(49.437 49.437)" fill="#12263f"/>
          </g>
          <g id="g3543" transform="translate(13.606 15.513)">
            <path id="path3545" d="M-10.5-43.225a.794.794,0,0,1-.563-.233L-13.1-45.5a.8.8,0,0,1,0-1.126.8.8,0,0,1,1.126,0l1.478,1.478,3.608-3.608a.8.8,0,0,1,1.126,0,.8.8,0,0,1,0,1.126l-4.171,4.171A.794.794,0,0,1-10.5-43.225Z" transform="translate(13.333 48.989)" fill="#12263f"/>
          </g>
        </g>
      </g>
    </g>
    <g id="Group_1209504" data-name="Group 1209504" transform="translate(257.541 3657.231)">
      <g id="Group_1209503" data-name="Group 1209503" clip-path="url(#clip-path-2)">
        <path id="Path_1248275" data-name="Path 1248275" d="M170,0V169.77H0A170.007,170.007,0,0,1,170,0" fill="#c6bbeb"/>
      </g>
    </g>
    <path id="Path_1248405" data-name="Path 1248405" d="M3.173-5.01V0H1.485V-12.8h4.72A4.742,4.742,0,0,1,9.5-11.725a3.635,3.635,0,0,1,1.191,2.839,3.587,3.587,0,0,1-1.165,2.87A4.954,4.954,0,0,1,6.188-5.01Zm0-1.38H6.205a3.035,3.035,0,0,0,2.074-.637A2.328,2.328,0,0,0,9-8.868,2.4,2.4,0,0,0,8.279-10.7,2.843,2.843,0,0,0,6.3-11.408H3.173ZM14.353,0H12.727V-13.5h1.626Zm8.473,0A3.416,3.416,0,0,1,22.6-1,3.628,3.628,0,0,1,19.89.176a3.357,3.357,0,0,1-2.307-.8,2.573,2.573,0,0,1-.9-2.017,2.688,2.688,0,0,1,1.129-2.307,5.325,5.325,0,0,1,3.177-.822H22.57v-.747a1.826,1.826,0,0,0-.51-1.358,2.049,2.049,0,0,0-1.5-.505,2.371,2.371,0,0,0-1.459.439,1.3,1.3,0,0,0-.589,1.063H16.875a2.244,2.244,0,0,1,.505-1.375A3.449,3.449,0,0,1,18.751-9.3a4.613,4.613,0,0,1,1.9-.387,3.759,3.759,0,0,1,2.575.822A2.964,2.964,0,0,1,24.2-6.6v4.377A5.351,5.351,0,0,0,24.53-.141V0Zm-2.7-1.239a2.858,2.858,0,0,0,1.45-.4,2.392,2.392,0,0,0,.993-1.028V-4.614H21.3q-2.988,0-2.988,1.749a1.48,1.48,0,0,0,.51,1.2A1.959,1.959,0,0,0,20.127-1.239ZM28.283-9.51l.053,1.2a3.465,3.465,0,0,1,2.848-1.371q3.015,0,3.041,3.4V0H32.6V-6.293a2.189,2.189,0,0,0-.47-1.521,1.884,1.884,0,0,0-1.437-.492,2.347,2.347,0,0,0-1.389.422,2.865,2.865,0,0,0-.932,1.107V0H26.745V-9.51ZM40.623.176a4.155,4.155,0,0,1-3.146-1.27,4.714,4.714,0,0,1-1.213-3.4v-.3A5.707,5.707,0,0,1,36.8-7.317a4.217,4.217,0,0,1,1.512-1.74,3.8,3.8,0,0,1,2.1-.628A3.562,3.562,0,0,1,43.3-8.464a5.289,5.289,0,0,1,1.028,3.5v.677H37.89a3.38,3.38,0,0,0,.822,2.272,2.583,2.583,0,0,0,2,.866A2.832,2.832,0,0,0,42.17-1.5a3.666,3.666,0,0,0,1.046-.932l.993.773A3.993,3.993,0,0,1,40.623.176Zm-.2-8.525a2.169,2.169,0,0,0-1.652.716,3.482,3.482,0,0,0-.826,2.008h4.764v-.123a3.1,3.1,0,0,0-.668-1.92A2.042,2.042,0,0,0,40.421-8.35ZM52.084,0a3.416,3.416,0,0,1-.229-1A3.628,3.628,0,0,1,49.148.176a3.357,3.357,0,0,1-2.307-.8,2.573,2.573,0,0,1-.9-2.017A2.688,2.688,0,0,1,47.07-4.944a5.325,5.325,0,0,1,3.177-.822h1.582v-.747a1.826,1.826,0,0,0-.51-1.358,2.049,2.049,0,0,0-1.5-.505,2.371,2.371,0,0,0-1.459.439,1.3,1.3,0,0,0-.589,1.063H46.134a2.244,2.244,0,0,1,.505-1.375A3.449,3.449,0,0,1,48.01-9.3a4.613,4.613,0,0,1,1.9-.387,3.759,3.759,0,0,1,2.575.822A2.964,2.964,0,0,1,53.455-6.6v4.377a5.351,5.351,0,0,0,.334,2.083V0Zm-2.7-1.239a2.858,2.858,0,0,0,1.45-.4,2.392,2.392,0,0,0,.993-1.028V-4.614H50.555q-2.988,0-2.988,1.749a1.48,1.48,0,0,0,.51,1.2A1.959,1.959,0,0,0,49.386-1.239ZM60.6-8.051a4.873,4.873,0,0,0-.8-.062A2.143,2.143,0,0,0,57.63-6.75V0H56V-9.51h1.582l.026,1.1A2.532,2.532,0,0,1,59.88-9.686a1.661,1.661,0,0,1,.721.123Z" transform="translate(329 3768)" fill="#12263f"/>
    <g id="plan-de-accion" transform="translate(342.553 3676.069)">
      <g id="Group_1208856" data-name="Group 1208856" transform="translate(0 19.29)">
        <path id="Trazado_1247491" data-name="Trazado 1247491" d="M29.316,111.319H2.2a2.2,2.2,0,0,1-2.2-2.2V74.849a2.2,2.2,0,0,1,2.2-2.2H5.8a.69.69,0,1,1,0,1.38H2.2a.82.82,0,0,0-.819.819V109.12a.82.82,0,0,0,.819.819H29.316a.82.82,0,0,0,.819-.819V90.075a.69.69,0,0,1,1.38,0V109.12A2.2,2.2,0,0,1,29.316,111.319Z" transform="translate(0 -68.106)" fill="#12263f"/>
        <path id="Trazado_1247492" data-name="Trazado 1247492" d="M244.844,74.105a.689.689,0,0,1-.216-.035.812.812,0,0,0-.254-.041H237.53a.69.69,0,0,1,0-1.38h6.844a2.189,2.189,0,0,1,.686.11.69.69,0,0,1-.216,1.345Z" transform="translate(-215.058 -68.106)" fill="#12263f"/>
        <path id="Trazado_1247493" data-name="Trazado 1247493" d="M59.387,139.881H35.69a.69.69,0,0,1-.69-.69V108.34a.69.69,0,0,1,.69-.69H57.721a.69.69,0,1,1,0,1.38H36.38V138.5H58.7V120.17a.69.69,0,1,1,1.38,0v19.022A.69.69,0,0,1,59.387,139.881Z" transform="translate(-31.781 -99.887)" fill="#12263f"/>
        <path id="Trazado_1247494" data-name="Trazado 1247494" d="M91.817,23.243a2.758,2.758,0,0,1,2.755,2.721h2.288a2.135,2.135,0,0,1,2.049,1.51l.858,2.766a1.655,1.655,0,0,1-1.581,2.145H85.38a1.655,1.655,0,0,1-1.573-2.172l.911-2.774a2.14,2.14,0,0,1,2.038-1.476h2.306A2.758,2.758,0,0,1,91.817,23.243Zm6.368,7.763a.276.276,0,0,0,.263-.357l-.858-2.766a.762.762,0,0,0-.731-.539H93.882a.69.69,0,0,1-.69-.69V26a1.375,1.375,0,0,0-2.751,0v.656a.69.69,0,0,1-.69.69h-3a.764.764,0,0,0-.727.526l-.911,2.774a.276.276,0,0,0,.262.362Z" transform="translate(-76.025 -23.243)" fill="#12263f"/>
      </g>
      <path id="Rectángulo_411179" data-name="Rectángulo 411179" d="M-6.81-7.5h3.571a.69.69,0,0,1,.69.69v3.571a.69.69,0,0,1-.69.69H-6.81a.69.69,0,0,1-.69-.69V-6.81A.69.69,0,0,1-6.81-7.5Zm2.881,1.38H-6.12v2.192h2.192Z" transform="translate(13.938 37.772)" fill="#12263f"/>
      <path id="Rectángulo_411180" data-name="Rectángulo 411180" d="M-6.81-7.5h3.571a.69.69,0,0,1,.69.69v3.571a.69.69,0,0,1-.69.69H-6.81a.69.69,0,0,1-.69-.69V-6.81A.69.69,0,0,1-6.81-7.5Zm2.881,1.38H-6.12v2.192h2.192Z" transform="translate(13.938 44.719)" fill="#12263f"/>
      <path id="Rectángulo_411181" data-name="Rectángulo 411181" d="M-6.81-7.5h3.571a.69.69,0,0,1,.69.69v3.571a.69.69,0,0,1-.69.69H-6.81a.69.69,0,0,1-.69-.69V-6.81A.69.69,0,0,1-6.81-7.5Zm2.881,1.38H-6.12v2.192h2.192Z" transform="translate(13.938 51.667)" fill="#12263f"/>
      <path id="Rectángulo_411182" data-name="Rectángulo 411182" d="M-6.81-7.5h3.571a.69.69,0,0,1,.69.69v3.571a.69.69,0,0,1-.69.69H-6.81a.69.69,0,0,1-.69-.69V-6.81A.69.69,0,0,1-6.81-7.5Zm2.881,1.38H-6.12v2.192h2.192Z" transform="translate(13.938 58.614)" fill="#12263f"/>
      <path id="Línea_708" data-name="Línea 708" d="M3.154-6.12H-6.81a.69.69,0,0,1-.69-.69.69.69,0,0,1,.69-.69H3.154a.69.69,0,0,1,.69.69A.69.69,0,0,1,3.154-6.12Z" transform="translate(21.233 39.557)" fill="#12263f"/>
      <path id="Línea_709" data-name="Línea 709" d="M3.154-6.12H-6.81a.69.69,0,0,1-.69-.69.69.69,0,0,1,.69-.69H3.154a.69.69,0,0,1,.69.69A.69.69,0,0,1,3.154-6.12Z" transform="translate(21.233 46.505)" fill="#12263f"/>
      <path id="Línea_710" data-name="Línea 710" d="M3.154-6.12H-6.81a.69.69,0,0,1-.69-.69.69.69,0,0,1,.69-.69H3.154a.69.69,0,0,1,.69.69A.69.69,0,0,1,3.154-6.12Z" transform="translate(21.233 53.452)" fill="#12263f"/>
      <path id="Línea_711" data-name="Línea 711" d="M3.154-6.12H-6.81a.69.69,0,0,1-.69-.69.69.69,0,0,1,.69-.69H3.154a.69.69,0,0,1,.69.69A.69.69,0,0,1,3.154-6.12Z" transform="translate(21.233 60.4)" fill="#12263f"/>
      <path id="Elipse_12701" data-name="Elipse 12701" d="M2.033-7.5a9.544,9.544,0,0,1,9.533,9.533,9.544,9.544,0,0,1-9.533,9.533A9.544,9.544,0,0,1-7.5,2.033,9.544,9.544,0,0,1,2.033-7.5Zm0,17.687A8.153,8.153,0,1,0-6.12,2.033,8.163,8.163,0,0,0,2.033,10.187Z" transform="translate(31.197 30.714)" fill="#12263f"/>
      <path id="Trazado_1247495" data-name="Trazado 1247495" d="M301.28,113.538a6.356,6.356,0,0,1-6.051-4.507.69.69,0,1,1,1.322-.4,4.935,4.935,0,1,0,0-2.819.69.69,0,0,1-1.322-.394,6.314,6.314,0,1,1,6.052,8.116Z" transform="translate(-268.05 -74.477)" fill="#12263f"/>
      <path id="Trazado_1247496" data-name="Trazado 1247496" d="M330.762,142.1a3.1,3.1,0,1,1,3.1-3.1A3.1,3.1,0,0,1,330.762,142.1Zm0-4.811a1.716,1.716,0,1,0,1.716,1.716A1.718,1.718,0,0,0,330.762,137.29Z" transform="translate(-297.532 -106.258)" fill="#12263f"/>
      <path id="Línea_712" data-name="Línea 712" d="M-6.81,6.4A.688.688,0,0,1-7.3,6.2a.69.69,0,0,1,0-.975L5.223-7.3a.69.69,0,0,1,.975,0,.69.69,0,0,1,0,.975L-6.323,6.2A.688.688,0,0,1-6.81,6.4Z" transform="translate(40.04 27.036)" fill="#12263f"/>
      <path id="Trazado_1247497" data-name="Trazado 1247497" d="M448.777,40.538h0a1.6,1.6,0,0,1-.552-.1l-2.011-.739a.69.69,0,0,1-.25-1.135l3.217-3.217a.69.69,0,0,1,.975,0l1.315,1.315a1.305,1.305,0,0,1,0,1.844l-1.562,1.562A1.591,1.591,0,0,1,448.777,40.538Zm-1.075-1.76,1,.367.076.014a.221.221,0,0,0,.157-.065l1.509-1.509-.774-.774Z" transform="translate(-404.766 -14.761)" fill="#12263f"/>
      <path id="Trazado_1247498" data-name="Trazado 1247498" d="M438.605,24.982a.69.69,0,0,1-.647-.452l-.739-2.011a1.606,1.606,0,0,1,.371-1.685l1.562-1.562a1.3,1.3,0,0,1,1.844,0l1.315,1.315a.69.69,0,0,1,0,.975l-3.217,3.217A.69.69,0,0,1,438.605,24.982Zm1.468-4.681-1.509,1.509a.223.223,0,0,0-.051.233l.367,1,1.967-1.967Z" transform="translate(-396.92)" fill="#12263f"/>
    </g>
    <g id="Group_1209505" data-name="Group 1209505" transform="translate(432.5 3658.231)">
      <g id="Group_1209503-2" data-name="Group 1209503" clip-path="url(#clip-path-3)">
        <path id="Path_1248275-2" data-name="Path 1248275" d="M0,0V169.77H170A170.007,170.007,0,0,0,0,0" fill="#bed0ad"/>
      </g>
    </g>
    <path id="Path_1248402" data-name="Path 1248402" d="M11.32,0h-1.7V-5.915H3.173V0H1.485V-12.8H3.173v5.5H9.624v-5.5h1.7Zm8.613,0a3.416,3.416,0,0,1-.229-1A3.628,3.628,0,0,1,17,.176a3.357,3.357,0,0,1-2.307-.8,2.573,2.573,0,0,1-.9-2.017,2.688,2.688,0,0,1,1.129-2.307A5.325,5.325,0,0,1,18.1-5.766h1.582v-.747a1.826,1.826,0,0,0-.51-1.358,2.049,2.049,0,0,0-1.5-.505,2.371,2.371,0,0,0-1.459.439,1.3,1.3,0,0,0-.589,1.063H13.983a2.244,2.244,0,0,1,.505-1.375A3.449,3.449,0,0,1,15.86-9.3a4.613,4.613,0,0,1,1.9-.387,3.759,3.759,0,0,1,2.575.822A2.964,2.964,0,0,1,21.3-6.6v4.377a5.351,5.351,0,0,0,.334,2.083V0Zm-2.7-1.239a2.858,2.858,0,0,0,1.45-.4,2.392,2.392,0,0,0,.993-1.028V-4.614H18.4q-2.988,0-2.988,1.749a1.48,1.48,0,0,0,.51,1.2A1.959,1.959,0,0,0,17.235-1.239Zm10.433.088a2.342,2.342,0,0,0,1.521-.527A1.855,1.855,0,0,0,29.909-3h1.538a2.949,2.949,0,0,1-.562,1.556A3.7,3.7,0,0,1,29.5-.264a3.994,3.994,0,0,1-1.833.439,3.918,3.918,0,0,1-3.089-1.3,5.163,5.163,0,0,1-1.147-3.546v-.272a5.725,5.725,0,0,1,.51-2.47A3.883,3.883,0,0,1,25.4-9.088a4.157,4.157,0,0,1,2.254-.6,3.814,3.814,0,0,1,2.659.958A3.424,3.424,0,0,1,31.447-6.24H29.909a2.241,2.241,0,0,0-.7-1.516,2.174,2.174,0,0,0-1.551-.593,2.276,2.276,0,0,0-1.92.892,4.19,4.19,0,0,0-.681,2.58v.308a4.106,4.106,0,0,0,.677,2.531A2.287,2.287,0,0,0,27.668-1.151ZM37.222.176a4.155,4.155,0,0,1-3.146-1.27,4.714,4.714,0,0,1-1.213-3.4v-.3A5.707,5.707,0,0,1,33.4-7.317a4.217,4.217,0,0,1,1.512-1.74,3.8,3.8,0,0,1,2.1-.628A3.562,3.562,0,0,1,39.9-8.464a5.289,5.289,0,0,1,1.028,3.5v.677H34.488a3.38,3.38,0,0,0,.822,2.272,2.583,2.583,0,0,0,2,.866A2.832,2.832,0,0,0,38.769-1.5a3.666,3.666,0,0,0,1.046-.932l.993.773A3.993,3.993,0,0,1,37.222.176Zm-.2-8.525a2.169,2.169,0,0,0-1.652.716,3.482,3.482,0,0,0-.826,2.008H39.3v-.123a3.1,3.1,0,0,0-.668-1.92A2.042,2.042,0,0,0,37.02-8.35Zm10.389.3a4.873,4.873,0,0,0-.8-.062A2.143,2.143,0,0,0,44.438-6.75V0H42.812V-9.51h1.582l.026,1.1a2.532,2.532,0,0,1,2.268-1.274,1.661,1.661,0,0,1,.721.123Z" transform="translate(475 3768)" fill="#12263f"/>
    <g id="ingenieria" transform="translate(467 3693.812)">
      <path id="Path_1247491" data-name="Path 1247491" d="M2.063,39a.786.786,0,0,0,.618.706l2.741.591a12.424,12.424,0,0,0,.368,1.378l-2.075,1.88a.786.786,0,0,0-.182.921,15.726,15.726,0,0,0,1.255,2.19.786.786,0,0,0,.888.3l2.664-.858a12.6,12.6,0,0,0,1.015,1.015L8.5,49.785a.786.786,0,0,0,.3.888,15.726,15.726,0,0,0,2.19,1.255.787.787,0,0,0,.921-.182l1.88-2.075a12.661,12.661,0,0,0,1.379.368l.591,2.741a.788.788,0,0,0,.705.618c.418.033.838.063,1.265.063s.846-.03,1.265-.063a.786.786,0,0,0,.706-.618l.591-2.741a12.439,12.439,0,0,0,1.379-.368l1.88,2.075a.785.785,0,0,0,.921.182,15.805,15.805,0,0,0,2.19-1.255.786.786,0,0,0,.3-.888L26.1,47.121a12.721,12.721,0,0,0,1.015-1.014l2.664.858a.785.785,0,0,0,.888-.3,15.726,15.726,0,0,0,1.255-2.19.786.786,0,0,0-.182-.921l-2.075-1.88a12.66,12.66,0,0,0,.368-1.379l2.741-.591A.788.788,0,0,0,33.4,39c.032-.419.062-.838.062-1.265s-.03-.846-.063-1.265a.786.786,0,0,0-.618-.706l-2.741-.591a12.438,12.438,0,0,0-.368-1.379l2.075-1.88a.786.786,0,0,0,.182-.921A15.806,15.806,0,0,0,30.67,28.8a.785.785,0,0,0-.888-.3l-2.664.858A12.6,12.6,0,0,0,26.1,28.343l.858-2.664a.786.786,0,0,0-.3-.888,15.726,15.726,0,0,0-2.19-1.255.785.785,0,0,0-.921.182l-1.88,2.075a12.661,12.661,0,0,0-1.379-.368L19.7,22.684a.788.788,0,0,0-.705-.618,15.984,15.984,0,0,0-2.53,0,.786.786,0,0,0-.706.618l-.591,2.741a12.424,12.424,0,0,0-1.378.368l-1.88-2.075a.786.786,0,0,0-.921-.182A15.726,15.726,0,0,0,8.8,24.791a.786.786,0,0,0-.3.888l.858,2.664A12.6,12.6,0,0,0,8.34,29.357L5.677,28.5a.785.785,0,0,0-.888.3,15.726,15.726,0,0,0-1.255,2.19.786.786,0,0,0,.182.921l2.075,1.88a12.661,12.661,0,0,0-.368,1.379l-2.741.591a.788.788,0,0,0-.618.705C2.03,36.886,2,37.305,2,37.732s.03.846.063,1.265Zm1.527-1.822L6.265,36.6a.787.787,0,0,0,.61-.643,10.964,10.964,0,0,1,.565-2.116.786.786,0,0,0-.208-.861l-2.02-1.831c.176-.337.36-.661.551-.967l2.592.835a.789.789,0,0,0,.85-.25,11.058,11.058,0,0,1,1.556-1.556.786.786,0,0,0,.25-.85l-.835-2.592q.459-.287.967-.551l1.831,2.021a.787.787,0,0,0,.862.208,10.911,10.911,0,0,1,2.116-.565.787.787,0,0,0,.643-.61l.577-2.676a10.358,10.358,0,0,1,1.116,0l.578,2.676a.787.787,0,0,0,.643.61,10.964,10.964,0,0,1,2.116.565.785.785,0,0,0,.861-.208l1.831-2.02c.337.176.661.36.967.551l-.835,2.592a.787.787,0,0,0,.25.85,11.058,11.058,0,0,1,1.556,1.556.784.784,0,0,0,.85.25L29.7,30.18q.287.459.551.966l-2.021,1.831a.786.786,0,0,0-.208.862,10.911,10.911,0,0,1,.565,2.116.787.787,0,0,0,.61.643l2.676.577c.01.185.017.371.017.558s-.006.374-.017.558l-2.676.578a.787.787,0,0,0-.61.643,10.964,10.964,0,0,1-.565,2.116.786.786,0,0,0,.208.861l2.02,1.831c-.176.337-.36.661-.551.967L27.1,44.45a.783.783,0,0,0-.85.25A11.1,11.1,0,0,1,24.7,46.256a.786.786,0,0,0-.25.849l.835,2.592q-.459.287-.966.551l-1.831-2.021a.789.789,0,0,0-.862-.208,10.911,10.911,0,0,1-2.116.565.787.787,0,0,0-.643.61l-.577,2.676a10.358,10.358,0,0,1-1.116,0L16.594,49.2a.787.787,0,0,0-.643-.61,10.964,10.964,0,0,1-2.116-.565.785.785,0,0,0-.861.208l-1.831,2.02c-.337-.176-.661-.36-.967-.551l.835-2.592a.787.787,0,0,0-.25-.85A11.058,11.058,0,0,1,9.206,44.7a.785.785,0,0,0-.85-.25l-2.592.835q-.287-.459-.551-.967l2.021-1.831a.786.786,0,0,0,.208-.862,10.911,10.911,0,0,1-.565-2.116.787.787,0,0,0-.61-.643l-2.677-.576c-.009-.185-.017-.371-.017-.558S3.579,37.359,3.589,37.175Z" transform="translate(0 -4.274)"/>
      <path id="Path_1247492" data-name="Path 1247492" d="M49.261,13.2a.786.786,0,0,0,.545-.66,9.249,9.249,0,0,0,.069-1.1,9.409,9.409,0,0,0-.068-1.1.786.786,0,0,0-.545-.66l-2.181-.685q-.1-.268-.217-.525l1.057-2.025a.788.788,0,0,0-.08-.852,9.522,9.522,0,0,0-1.556-1.556.788.788,0,0,0-.852-.081L43.406,5.012q-.257-.118-.525-.216L42.2,2.615a.786.786,0,0,0-.66-.545,8.7,8.7,0,0,0-2.2,0,.786.786,0,0,0-.66.545L37.994,4.8q-.268.1-.525.217L35.443,3.956a.79.79,0,0,0-.852.08,9.522,9.522,0,0,0-1.556,1.556.787.787,0,0,0-.081.852L34.011,8.47q-.118.257-.216.525l-2.181.685a.786.786,0,0,0-.545.66,8.843,8.843,0,0,0,0,2.2.786.786,0,0,0,.545.66l2.181.685q.1.268.217.525l-1.057,2.025a.788.788,0,0,0,.08.852,9.522,9.522,0,0,0,1.556,1.556.788.788,0,0,0,.852.081l2.025-1.056q.257.118.525.216l.685,2.181a.786.786,0,0,0,.66.545,9.3,9.3,0,0,0,1.1.069,9.409,9.409,0,0,0,1.1-.068.786.786,0,0,0,.66-.545l.685-2.181q.268-.1.525-.217l2.025,1.057a.787.787,0,0,0,.852-.08,9.522,9.522,0,0,0,1.556-1.556.787.787,0,0,0,.081-.852l-1.057-2.025q.119-.257.217-.525Zm-3.036-.7a.789.789,0,0,0-.517.525,5.54,5.54,0,0,1-.42,1.018.784.784,0,0,0,0,.736l1,1.913a8.027,8.027,0,0,1-.59.59l-1.913-1a.787.787,0,0,0-.736,0,5.539,5.539,0,0,1-1.018.42.789.789,0,0,0-.525.517l-.648,2.064a6.626,6.626,0,0,1-.829,0l-.648-2.064a.789.789,0,0,0-.525-.517,5.465,5.465,0,0,1-1.017-.42.786.786,0,0,0-.737,0l-1.913,1a8.027,8.027,0,0,1-.59-.59l1-1.913a.787.787,0,0,0,0-.736,5.54,5.54,0,0,1-.42-1.018.789.789,0,0,0-.517-.525l-2.064-.648c-.009-.144-.013-.282-.013-.414s0-.271.013-.414l2.064-.648a.789.789,0,0,0,.517-.525,5.465,5.465,0,0,1,.42-1.017.786.786,0,0,0,0-.737l-1-1.913a8.026,8.026,0,0,1,.59-.59l1.913,1a.789.789,0,0,0,.736,0,5.54,5.54,0,0,1,1.018-.42.789.789,0,0,0,.525-.517l.648-2.064a6.625,6.625,0,0,1,.829,0L41.5,5.65a.789.789,0,0,0,.525.517,5.465,5.465,0,0,1,1.017.42.786.786,0,0,0,.737,0l1.913-1a8.027,8.027,0,0,1,.59.59l-1,1.913a.787.787,0,0,0,0,.736,5.54,5.54,0,0,1,.42,1.018.789.789,0,0,0,.517.525l2.064.648c.009.144.013.282.013.414s0,.271-.013.414Z" transform="translate(-6.193)"/>
      <path id="Path_1247493" data-name="Path 1247493" d="M57.149,33.264l-1.351-.48a6.374,6.374,0,0,0-.265-.643l.614-1.294a.783.783,0,0,0-.091-.821A7.915,7.915,0,0,0,54.7,28.674a.787.787,0,0,0-.822-.091l-1.295.614a6.28,6.28,0,0,0-.642-.264l-.481-1.351a.788.788,0,0,0-.646-.517,7.247,7.247,0,0,0-1.909,0,.786.786,0,0,0-.646.517l-.48,1.351a6.374,6.374,0,0,0-.643.265l-1.294-.614a.787.787,0,0,0-.821.091,7.915,7.915,0,0,0-1.353,1.352.788.788,0,0,0-.091.822l.614,1.295a6.28,6.28,0,0,0-.264.642l-1.351.481a.788.788,0,0,0-.517.646,7.705,7.705,0,0,0-.064.953,7.883,7.883,0,0,0,.063.954.786.786,0,0,0,.517.646l1.351.48a6.373,6.373,0,0,0,.265.643l-.614,1.294a.783.783,0,0,0,.091.821,7.915,7.915,0,0,0,1.352,1.353.788.788,0,0,0,.822.091l1.295-.614a6.281,6.281,0,0,0,.642.264l.481,1.351a.788.788,0,0,0,.646.517,7.6,7.6,0,0,0,.954.064,7.882,7.882,0,0,0,.954-.063.786.786,0,0,0,.646-.517l.48-1.351a6.373,6.373,0,0,0,.643-.265l1.294.614a.781.781,0,0,0,.821-.091A7.915,7.915,0,0,0,56.055,39.7a.788.788,0,0,0,.091-.822l-.614-1.295a6.28,6.28,0,0,0,.264-.642l1.351-.481a.788.788,0,0,0,.517-.646,7.6,7.6,0,0,0,.064-.954,7.883,7.883,0,0,0-.063-.954.787.787,0,0,0-.517-.647Zm-1,1.888-1.247.443a.786.786,0,0,0-.495.531,4.68,4.68,0,0,1-.436,1.059.788.788,0,0,0-.026.724l.565,1.19q-.2.215-.41.41l-1.19-.565a.789.789,0,0,0-.724.026,4.682,4.682,0,0,1-1.059.436.789.789,0,0,0-.532.495l-.443,1.247a5.377,5.377,0,0,1-.574,0L49.136,39.9a.786.786,0,0,0-.531-.495,4.679,4.679,0,0,1-1.059-.436.793.793,0,0,0-.724-.026l-1.19.565q-.215-.2-.41-.41l.565-1.19a.786.786,0,0,0-.026-.724,4.682,4.682,0,0,1-.436-1.059.789.789,0,0,0-.495-.532l-1.247-.443c-.006-.1-.009-.19-.009-.287s0-.193.008-.287l1.247-.444a.784.784,0,0,0,.494-.531,4.7,4.7,0,0,1,.437-1.059.788.788,0,0,0,.026-.724l-.565-1.19q.2-.215.41-.41l1.19.565a.784.784,0,0,0,.724-.026,4.682,4.682,0,0,1,1.059-.436.789.789,0,0,0,.532-.495l.443-1.247a5.377,5.377,0,0,1,.574,0l.443,1.247a.786.786,0,0,0,.531.495,4.68,4.68,0,0,1,1.059.436.784.784,0,0,0,.724.026l1.19-.565q.215.2.41.41l-.565,1.19a.786.786,0,0,0,.026.724,4.682,4.682,0,0,1,.436,1.059.789.789,0,0,0,.495.532l1.247.443c.006.1.009.191.009.288s0,.192-.008.287Z" transform="translate(-8.542 -5.339)"/>
      <path id="Path_1247494" data-name="Path 1247494" d="M19.651,48.3A8.651,8.651,0,1,0,11,39.651,8.661,8.661,0,0,0,19.651,48.3Zm0-15.729a7.078,7.078,0,1,1-7.078,7.078A7.087,7.087,0,0,1,19.651,32.573Z" transform="translate(-1.922 -6.193)"/>
      <path id="Path_1247495" data-name="Path 1247495" d="M2.022,22.782,3.23,23.79a18.837,18.837,0,0,1,14.5-6.8c.4,0,.8.023,1.2.048l-.969.969,1.112,1.112,2.359-2.359a.786.786,0,0,0,0-1.112l-2.359-2.359-1.112,1.112,1.069,1.069c-.433-.028-.866-.052-1.3-.052a20.406,20.406,0,0,0-15.712,7.36Z" transform="translate(-0.005 -2.411)"/>
      <path id="Path_1247496" data-name="Path 1247496" d="M41.932,9a3.932,3.932,0,1,0,3.932,3.932A3.937,3.937,0,0,0,41.932,9Zm0,6.292a2.359,2.359,0,1,1,2.359-2.359A2.362,2.362,0,0,1,41.932,15.292Z" transform="translate(-7.688 -1.495)"/>
      <path id="Path_1247497" data-name="Path 1247497" d="M51.146,33a3.146,3.146,0,1,0,3.146,3.146A3.149,3.149,0,0,0,51.146,33Zm0,4.719a1.573,1.573,0,1,1,1.573-1.573A1.574,1.574,0,0,1,51.146,37.719Z" transform="translate(-9.823 -6.62)"/>
      <path id="Path_1247498" data-name="Path 1247498" d="M59.663,4.8l-3.932-.786a.785.785,0,0,0-.926.617l-.786,3.932,1.542.309.424-2.117a11.8,11.8,0,0,1,1.165,5.108,11.671,11.671,0,0,1-2.587,7.373l1.228.984a13.38,13.38,0,0,0,1.552-14.28l2.013.4Z" transform="translate(-11.108 -0.427)"/>
    </g>
    <g id="Group_1209506" data-name="Group 1209506" transform="translate(257.541 3827.918)">
      <g id="Group_1209503-3" data-name="Group 1209503" clip-path="url(#clip-path-4)">
        <path id="Path_1248275-3" data-name="Path 1248275" d="M170,169.77V0H0A170.007,170.007,0,0,0,170,169.77" fill="#f4a9a2"/>
      </g>
    </g>
    <path id="Path_1248404" data-name="Path 1248404" d="M8.552-3.34H3.19L1.986,0H.246L5.133-12.8H6.609L11.5,0H9.773ZM3.7-4.729H8.051l-2.18-5.985ZM16.787-1.151a2.342,2.342,0,0,0,1.521-.527A1.855,1.855,0,0,0,19.028-3h1.538A2.949,2.949,0,0,1,20-1.441,3.7,3.7,0,0,1,18.62-.264a3.994,3.994,0,0,1-1.833.439,3.918,3.918,0,0,1-3.089-1.3,5.163,5.163,0,0,1-1.147-3.546v-.272a5.725,5.725,0,0,1,.51-2.47,3.883,3.883,0,0,1,1.463-1.679,4.157,4.157,0,0,1,2.254-.6,3.814,3.814,0,0,1,2.659.958A3.424,3.424,0,0,1,20.566-6.24H19.028a2.241,2.241,0,0,0-.7-1.516,2.174,2.174,0,0,0-1.551-.593,2.276,2.276,0,0,0-1.92.892,4.19,4.19,0,0,0-.681,2.58v.308a4.106,4.106,0,0,0,.677,2.531A2.287,2.287,0,0,0,16.787-1.151ZM24.6-11.812v2.3h1.775v1.257H24.6v5.9a1.317,1.317,0,0,0,.237.857,1,1,0,0,0,.809.286,3.937,3.937,0,0,0,.773-.105V0a4.714,4.714,0,0,1-1.248.176,2.025,2.025,0,0,1-1.644-.659,2.832,2.832,0,0,1-.554-1.872v-5.9H21.243V-9.51h1.731v-2.3ZM34.146-.94A3.454,3.454,0,0,1,31.359.176a2.956,2.956,0,0,1-2.316-.883,3.823,3.823,0,0,1-.8-2.615V-9.51h1.626v6.144q0,2.162,1.758,2.162A2.434,2.434,0,0,0,34.1-2.593V-9.51h1.626V0H34.181ZM44.068,0a3.416,3.416,0,0,1-.229-1A3.628,3.628,0,0,1,41.133.176a3.357,3.357,0,0,1-2.307-.8,2.573,2.573,0,0,1-.9-2.017,2.688,2.688,0,0,1,1.129-2.307,5.325,5.325,0,0,1,3.177-.822h1.582v-.747a1.826,1.826,0,0,0-.51-1.358,2.049,2.049,0,0,0-1.5-.505,2.371,2.371,0,0,0-1.459.439,1.3,1.3,0,0,0-.589,1.063H38.118a2.244,2.244,0,0,1,.505-1.375A3.449,3.449,0,0,1,39.995-9.3a4.613,4.613,0,0,1,1.9-.387,3.759,3.759,0,0,1,2.575.822A2.964,2.964,0,0,1,45.439-6.6v4.377a5.351,5.351,0,0,0,.334,2.083V0Zm-2.7-1.239a2.858,2.858,0,0,0,1.45-.4,2.392,2.392,0,0,0,.993-1.028V-4.614H42.539q-2.988,0-2.988,1.749a1.48,1.48,0,0,0,.51,1.2A1.959,1.959,0,0,0,41.37-1.239ZM52.585-8.051a4.873,4.873,0,0,0-.8-.062A2.143,2.143,0,0,0,49.614-6.75V0H47.988V-9.51H49.57l.026,1.1a2.532,2.532,0,0,1,2.268-1.274,1.661,1.661,0,0,1,.721.123Z" transform="translate(337 3943)" fill="#12263f"/>
    <path id="sistema-informatico" d="M46.162,17.562h-12.7a5.834,5.834,0,0,0-.344-.776l.3-.672a.674.674,0,0,0-.139-.75l-1.16-1.16a.674.674,0,0,0-.75-.139l-.672.3a5.837,5.837,0,0,0-1.047-.434l-.264-.686a.674.674,0,0,0-.629-.432H27.12a.674.674,0,0,0-.629.432l-.264.686a5.837,5.837,0,0,0-1.047.434l-.672-.3a.674.674,0,0,0-.75.139l-1.16,1.16a.674.674,0,0,0-.139.75l.3.672a5.835,5.835,0,0,0-.344.775h-8.7a3.626,3.626,0,0,0-3.622,3.622V24.93l-.34.34a.674.674,0,0,0-.139.75l.428.964a7.379,7.379,0,0,0-.624,1.5l-.984.378A.674.674,0,0,0,8,29.5v2.132a.674.674,0,0,0,.432.629l.984.379a7.375,7.375,0,0,0,.624,1.5l-.428.964a.674.674,0,0,0,.139.75l.34.34v5.269a3.626,3.626,0,0,0,3.622,3.622h9.525v3.336H19.424A2.971,2.971,0,0,0,16.236,51.1v2.009a.674.674,0,0,0,.674.674H42.963a.674.674,0,0,0,.674-.674V51.1a2.971,2.971,0,0,0-3.188-2.682H36.636V45.085h9.525a3.626,3.626,0,0,0,3.622-3.622V21.184a3.626,3.626,0,0,0-3.622-3.622ZM23.54,18.5a4.492,4.492,0,0,1,.546-1.317.674.674,0,0,0,.042-.627l-.249-.561.505-.505.561.249a.674.674,0,0,0,.627-.042,4.493,4.493,0,0,1,1.317-.546.674.674,0,0,0,.473-.413l.22-.572H28.3l.22.572a.674.674,0,0,0,.473.413,4.5,4.5,0,0,1,1.317.546.674.674,0,0,0,.627.042l.561-.249.505.505-.249.561a.674.674,0,0,0,.042.627A4.49,4.49,0,0,1,32.34,18.5a.674.674,0,0,0,.413.473l.572.22V19.9l-.572.22a.674.674,0,0,0-.413.473,4.5,4.5,0,0,1-.546,1.317.674.674,0,0,0-.042.627L32,23.1l-.505.505-.561-.249a.674.674,0,0,0-.627.042,4.489,4.489,0,0,1-1.317.546.674.674,0,0,0-.473.414l-.22.572h-.715l-.22-.572a.674.674,0,0,0-.473-.413,4.493,4.493,0,0,1-1.317-.546.674.674,0,0,0-.627-.042l-.561.249-.505-.505.249-.561a.674.674,0,0,0-.042-.627A4.49,4.49,0,0,1,23.54,20.6a.674.674,0,0,0-.413-.473l-.572-.22v-.714l.572-.22a.674.674,0,0,0,.414-.473ZM24.576,40.67a.618.618,0,1,1-.9-.551h.561A.618.618,0,0,1,24.576,40.67ZM13.9,37.5q.282.108.573.192l.379.984a.672.672,0,0,0,.044.092h-1Zm7.938-.143L22.1,37.1l1.184.937v.731H18.2a.677.677,0,0,0,.044-.092l.379-.984a7.38,7.38,0,0,0,1.5-.624l.964.428a.674.674,0,0,0,.75-.139Zm2.789,1.411V37.715a.674.674,0,0,0-.256-.528l-1.317-1.042.291-.29a.674.674,0,0,0,.139-.75l-.428-.964a7.379,7.379,0,0,0,.624-1.5l.983-.378a.674.674,0,0,0,.432-.629v-.392h1.68a1.966,1.966,0,1,0,0-1.348H25.1V29.5a.674.674,0,0,0-.432-.629l-.984-.379a7.377,7.377,0,0,0-.624-1.5l.428-.964a.674.674,0,0,0-.139-.75l-1.507-1.507a.674.674,0,0,0-.75-.139l-.964.428a7.369,7.369,0,0,0-1.5-.624l-.378-.984a.674.674,0,0,0-.629-.432H15.484a.674.674,0,0,0-.629.432l-.379.984q-.291.084-.573.192V21.375h8.459a5.822,5.822,0,0,0,.4.931l-.3.672a.674.674,0,0,0,.139.75l1.16,1.16a.674.674,0,0,0,.75.139l.672-.3a5.824,5.824,0,0,0,1.047.434l.264.686a.674.674,0,0,0,.629.432h1.64a.674.674,0,0,0,.629-.432l.264-.685a5.838,5.838,0,0,0,1.047-.434l.671.3a.674.674,0,0,0,.75-.139l1.16-1.16a.674.674,0,0,0,.139-.75l-.3-.672a5.834,5.834,0,0,0,.4-.931H45.971v17.4H24.631Zm3.377-8.21a.618.618,0,1,1,.618.618A.619.619,0,0,1,28.008,30.562ZM13.712,18.91h7.495v1.117H13.638a1.084,1.084,0,0,0-1.083,1.083v2.756l-.548-.243a.673.673,0,0,0-.569.012V21.184a2.277,2.277,0,0,1,2.274-2.274ZM9.348,31.165V29.959l.873-.336a.674.674,0,0,0,.413-.473,6.04,6.04,0,0,1,.734-1.771.674.674,0,0,0,.042-.627l-.38-.856.853-.853.856.38a.674.674,0,0,0,.627-.042,6.042,6.042,0,0,1,1.771-.734.674.674,0,0,0,.473-.414l.336-.873h1.206l.336.873a.674.674,0,0,0,.473.413,6.038,6.038,0,0,1,1.771.734.674.674,0,0,0,.627.042l.856-.38.853.853-.38.856a.674.674,0,0,0,.042.627,6.041,6.041,0,0,1,.734,1.771.674.674,0,0,0,.413.473l.873.336v1.206l-.873.336a.674.674,0,0,0-.414.473,6.035,6.035,0,0,1-.734,1.771.674.674,0,0,0-.042.627l.38.856-.853.853-.856-.38a.674.674,0,0,0-.627.042,6.042,6.042,0,0,1-1.771.734.674.674,0,0,0-.473.413l-.336.873H15.947l-.336-.873a.674.674,0,0,0-.473-.413,6.042,6.042,0,0,1-1.771-.734.674.674,0,0,0-.627-.042l-.856.38-.853-.853.38-.856a.674.674,0,0,0-.042-.627,6.04,6.04,0,0,1-.734-1.771.674.674,0,0,0-.413-.473ZM42.29,51.1v1.335H17.585V51.1c0-.723.843-1.335,1.84-1.335H40.45C41.447,49.769,42.29,50.38,42.29,51.1Zm-7-2.682h-10.7V45.085h10.7Zm13.147-6.957a2.276,2.276,0,0,1-2.274,2.274H13.712a2.276,2.276,0,0,1-2.274-2.274V37.489a.673.673,0,0,0,.569.012l.548-.243v2.188a.674.674,0,0,0,.674.674h8.84a1.966,1.966,0,1,0,3.775,0h20.8a.674.674,0,0,0,.674-.674V21.11a1.084,1.084,0,0,0-1.083-1.083H34.673V18.91H46.162a2.276,2.276,0,0,1,2.274,2.274v20.28ZM43.921,23.316a.674.674,0,0,1-.674.674H34.924a.674.674,0,0,1,0-1.348h8.323A.674.674,0,0,1,43.921,23.316Zm0,2.968a.674.674,0,0,1-.674.674H34.924a.674.674,0,0,1,0-1.348h8.323A.674.674,0,0,1,43.921,26.284Zm0,2.968a.674.674,0,0,1-.674.674H34.924a.674.674,0,0,1,0-1.348h8.323A.674.674,0,0,1,43.921,29.252Zm0,2.968a.674.674,0,0,1-.674.674H34.924a.674.674,0,0,1,0-1.348h8.323A.674.674,0,0,1,43.921,32.221Zm0,2.968a.674.674,0,0,1-.674.674H34.924a.674.674,0,0,1,0-1.348h8.323A.674.674,0,0,1,43.921,35.189ZM27.94,22.828a3.281,3.281,0,1,0-3.282-3.281A3.285,3.285,0,0,0,27.94,22.828Zm0-5.215a1.934,1.934,0,1,1-1.934,1.934A1.936,1.936,0,0,1,27.94,17.613ZM16.55,34.83a4.268,4.268,0,1,0-4.268-4.268A4.273,4.273,0,0,0,16.55,34.83Zm0-7.188a2.92,2.92,0,1,1-2.92,2.92A2.924,2.924,0,0,1,16.55,27.641Z" transform="translate(331 3867.187)" fill="#12263f"/>
    <path id="Path_1247489" data-name="Path 1247489" d="M4165-7883.928v329.836" transform="translate(-3735 11545.928)" fill="none" stroke="#ff8b0a" stroke-width="2"/>
    <path id="Path_1247490" data-name="Path 1247490" d="M4165-7883.928v324.764" transform="translate(-7291.546 -336.546) rotate(90)" fill="none" stroke="#ff8b0a" stroke-width="2"/>
    <circle id="Ellipse_12700" data-name="Ellipse 12700" cx="60" cy="60" r="60" transform="translate(370 3767)" fill="#f9f9f6"/>
    <g id="Ellipse_12701" data-name="Ellipse 12701" transform="translate(390 3787)" fill="#f9f9f6" stroke="#34ad93" stroke-width="1">
      <circle cx="40" cy="40" r="40" stroke="none"/>
      <circle cx="40" cy="40" r="39.5" fill="none"/>
    </g>
    <path id="Polygon_7" data-name="Polygon 7" d="M5.5,0,11,10H0Z" transform="translate(459.929 3860.425) rotate(-135)" fill="#34ad93"/>
    <path id="Polygon_5" data-name="Polygon 5" d="M5.5,0,11,10H0Z" transform="matrix(0.799, 0.602, -0.602, 0.799, 403.117, 3790.697)" fill="#34ad93"/>
    <path id="Polygon_6" data-name="Polygon 6" d="M5.5,0,11,10H0Z" transform="translate(467.925 3802.646) rotate(135)" fill="#34ad93"/>
    <path id="Polygon_8" data-name="Polygon 8" d="M5.5,0,11,10H0Z" transform="matrix(0.602, -0.799, 0.799, 0.602, 398.197, 3858.384)" fill="#34ad93"/>
    <rect id="Rectangle_411224" data-name="Rectangle 411224" width="7" height="7" transform="translate(400.095 3846.577) rotate(51)" fill="#f9f9f6"/>
    <rect id="Rectangle_411225" data-name="Rectangle 411225" width="7" height="7" transform="translate(410.274 3788.106) rotate(43)" fill="#f9f9f6"/>
    <rect id="Rectangle_411226" data-name="Rectangle 411226" width="7" height="7" transform="translate(464.349 3805.303) rotate(43)" fill="#f9f9f6"/>
    <rect id="Rectangle_411227" data-name="Rectangle 411227" width="7" height="7" transform="translate(452.903 3853) rotate(43)" fill="#f9f9f6"/>
  </g>
</svg>
