<svg xmlns="http://www.w3.org/2000/svg" xmlns:xlink="http://www.w3.org/1999/xlink" width="100" height="100" viewBox="0 0 100 100">
  <defs>
    <clipPath id="clip-path">
      <rect id="Rectangle_410748" data-name="Rectangle 410748" width="100" height="100" transform="translate(335.781 4440)" fill="#fff" stroke="#707070" stroke-width="1"/>
    </clipPath>
  </defs>
  <g id="Group_1208640" data-name="Group 1208640" transform="translate(-285 -8171)">
    <g id="Mask_Group_1099288" data-name="Mask Group 1099288" transform="translate(-50.781 3731)" clip-path="url(#clip-path)">
      <g id="Group_1204994" data-name="Group 1204994" transform="translate(-470.656 2458.387)">
        <g id="Rectangle_410747" data-name="Rectangle 410747" transform="translate(806.951 1984)" fill="#b7a8f1" stroke="#7f74a8" stroke-width="3">
          <rect width="79.44" height="79.44" rx="10" stroke="none"/>
          <rect x="1.5" y="1.5" width="76.44" height="76.44" rx="8.5" fill="none"/>
        </g>
      </g>
    </g>
    <g id="tarea-completa" transform="translate(272.819 8192.33)">
      <g id="Group_1208636" data-name="Group 1208636" transform="translate(27.876 1.152)">
        <g id="Group_1208635" data-name="Group 1208635" transform="translate(0)">
          <path id="Path_1246736" data-name="Path 1246736" d="M86.9,7.5H38.209a3.985,3.985,0,0,0-3.985,3.985v63.3a3.985,3.985,0,0,0,3.985,3.985H86.9a3.985,3.985,0,0,0,3.985-3.985v-63.3A3.985,3.985,0,0,0,86.9,7.5Z" transform="translate(-34.224 -7.5)" fill="#f5f8f9"/>
          <path id="Path_1246737" data-name="Path 1246737" d="M86.9,7.5H84.738V68.635a3.985,3.985,0,0,1-3.985,3.985H34.224v2.161a3.985,3.985,0,0,0,3.985,3.985H86.9a3.985,3.985,0,0,0,3.985-3.985v-63.3A3.985,3.985,0,0,0,86.9,7.5Z" transform="translate(-34.224 -7.5)" fill="#e8edf2"/>
          <g id="Group_1208634" data-name="Group 1208634" transform="translate(33.429 41.642)">
            <circle id="Ellipse_12650" data-name="Ellipse 12650" cx="17.362" cy="17.362" r="17.362" fill="#0593fc"/>
            <path id="Path_1246738" data-name="Path 1246738" d="M299.016,288.3a17.365,17.365,0,0,1-20.3,27.1,17.363,17.363,0,1,0,20.3-27.1Z" transform="translate(-274.575 -286.799)" fill="#0182fc"/>
            <path id="Path_1246739" data-name="Path 1246739" d="M303.058,357.326a2.706,2.706,0,0,1-1.92-.8l-7.119-7.119a.9.9,0,0,1,0-1.275l2.564-2.564a.9.9,0,0,1,1.276,0l5.2,5.2,8.42-8.42a.9.9,0,0,1,1.275,0l2.564,2.564a.9.9,0,0,1,0,1.275l-10.34,10.34A2.707,2.707,0,0,1,303.058,357.326Z" transform="translate(-287.307 -332.319)" fill="#fff"/>
            <g id="Group_1208633" data-name="Group 1208633" transform="translate(13.897 11.377)">
              <path id="Path_1246740" data-name="Path 1246740" d="M355.124,352.553,342.23,365.447a2.71,2.71,0,0,0,3.775-.059l10.34-10.34a.9.9,0,0,0,0-1.275Z" transform="translate(-342.23 -352.553)" fill="#f5f8f9"/>
            </g>
          </g>
          <path id="Path_1246741" data-name="Path 1246741" d="M74.225,56.221V48.268a.768.768,0,0,1,.768-.768h42.831a.768.768,0,0,1,.768.768v7.953a.768.768,0,0,1-.768.768H74.993A.768.768,0,0,1,74.225,56.221Z" transform="translate(-68.079 -41.354)" fill="#5de1c4"/>
          <path id="Path_1246742" data-name="Path 1246742" d="M117.824,47.5H114.4v4.533a.768.768,0,0,1-.768.768H74.225v3.419a.768.768,0,0,0,.768.768h42.831a.768.768,0,0,0,.768-.768V48.268A.768.768,0,0,0,117.824,47.5Z" transform="translate(-68.079 -41.354)" fill="#0ed2b3"/>
          <path id="Path_1246743" data-name="Path 1246743" d="M74.225,56.221V48.268a.768.768,0,0,1,.768-.768h7.764v9.489H74.993A.768.768,0,0,1,74.225,56.221Z" transform="translate(-68.079 -41.354)" fill="#0ed2b3"/>
          <path id="Path_1246744" data-name="Path 1246744" d="M74.225,82v3.419a.768.768,0,0,0,.768.768h7.764V82Z" transform="translate(-68.079 -70.555)" fill="#0ab69f"/>
        </g>
      </g>
      <g id="Group_1208639" data-name="Group 1208639" transform="translate(26.724 0)">
        <g id="Group_1208637" data-name="Group 1208637" transform="translate(8.51 51.962)">
          <path id="Línea_708" data-name="Línea 708" d="M12.435-5.2H-6.348A1.152,1.152,0,0,1-7.5-6.348,1.152,1.152,0,0,1-6.348-7.5H12.435a1.152,1.152,0,0,1,1.152,1.152A1.152,1.152,0,0,1,12.435-5.2Z" transform="translate(7.5 7.5)"/>
          <path id="Línea_709" data-name="Línea 709" d="M12.435-5.2H-6.348A1.152,1.152,0,0,1-7.5-6.348,1.152,1.152,0,0,1-6.348-7.5H12.435a1.152,1.152,0,0,1,1.152,1.152A1.152,1.152,0,0,1,12.435-5.2Z" transform="translate(7.5 15.957)"/>
        </g>
        <g id="Group_1208638" data-name="Group 1208638" transform="translate(8.51 22.094)">
          <path id="Trazado_1246745" data-name="Trazado 1246745" d="M85.678,149.846a1.149,1.149,0,0,1-.815-.338l-2.417-2.417a1.152,1.152,0,0,1,1.63-1.63l1.6,1.6,2.936-2.936a1.152,1.152,0,1,1,1.63,1.63l-3.751,3.751A1.149,1.149,0,0,1,85.678,149.846Z" transform="translate(-82.108 -143.79)"/>
          <path id="Línea_710" data-name="Línea 710" d="M22.79-5.2H-6.348A1.152,1.152,0,0,1-7.5-6.348,1.152,1.152,0,0,1-6.348-7.5H22.79a1.152,1.152,0,0,1,1.152,1.152A1.152,1.152,0,0,1,22.79-5.2Z" transform="translate(18.003 9.667)"/>
          <path id="Trazado_1246746" data-name="Trazado 1246746" d="M85.678,206.862a1.152,1.152,0,0,1-.815-.337l-2.417-2.417a1.152,1.152,0,0,1,1.63-1.63l1.6,1.6,2.936-2.936a1.152,1.152,0,1,1,1.63,1.63l-3.751,3.751A1.152,1.152,0,0,1,85.678,206.862Z" transform="translate(-82.108 -192.045)"/>
          <path id="Línea_711" data-name="Línea 711" d="M22.79-5.2H-6.348A1.152,1.152,0,0,1-7.5-6.348,1.152,1.152,0,0,1-6.348-7.5H22.79a1.152,1.152,0,0,1,1.152,1.152A1.152,1.152,0,0,1,22.79-5.2Z" transform="translate(18.003 18.428)"/>
          <path id="Trazado_1246747" data-name="Trazado 1246747" d="M85.678,263.878a1.153,1.153,0,0,1-.815-.338l-2.417-2.417a1.152,1.152,0,1,1,1.63-1.63l1.6,1.6,2.936-2.936a1.152,1.152,0,0,1,1.63,1.63l-3.751,3.751A1.153,1.153,0,0,1,85.678,263.878Z" transform="translate(-82.108 -240.301)"/>
          <path id="Línea_712" data-name="Línea 712" d="M9.4-5.2H-6.348A1.152,1.152,0,0,1-7.5-6.348,1.152,1.152,0,0,1-6.348-7.5H9.4a1.152,1.152,0,0,1,1.152,1.152A1.152,1.152,0,0,1,9.4-5.2Z" transform="translate(18.003 27.189)"/>
        </g>
        <path id="Trazado_1246748" data-name="Trazado 1246748" d="M262.8,308.04a18.535,18.535,0,0,1-18.514-18.514,18.339,18.339,0,0,1,3.852-11.3,1.152,1.152,0,0,1,1.824,1.408,16.054,16.054,0,0,0-3.371,9.9,16.209,16.209,0,1,0,7.018-13.352,1.152,1.152,0,0,1-1.309-1.9,18.514,18.514,0,1,1,10.5,33.764Z" transform="translate(-210.858 -229.37)"/>
        <path id="Trazado_1246749" data-name="Trazado 1246749" d="M296.711,352.131A3.842,3.842,0,0,1,293.976,351l-7.119-7.119a2.054,2.054,0,0,1,0-2.905l2.564-2.564a2.054,2.054,0,0,1,2.905,0l4.384,4.384,7.6-7.6a2.054,2.054,0,0,1,2.905,0l2.564,2.564a2.057,2.057,0,0,1,0,2.905L299.445,351A3.843,3.843,0,0,1,296.711,352.131Zm-8.047-9.7,6.942,6.942a1.563,1.563,0,0,0,2.21,0l10.162-10.162-2.21-2.21-8.243,8.243a1.152,1.152,0,0,1-1.63,0l-5.022-5.022Z" transform="translate(-246.378 -283.177)"/>
        <path id="Línea_713" data-name="Línea 713" d="M-5.2,9.489H-7.5V0h2.3Z" transform="translate(22.178 7.298)"/>
        <path id="Trazado_1246750" data-name="Trazado 1246750" d="M27.876,55.449A1.152,1.152,0,0,1,26.724,54.3V5.138A5.143,5.143,0,0,1,31.862,0H80.551a5.143,5.143,0,0,1,5.138,5.138V43.812a1.152,1.152,0,0,1-2.3,0V5.138A2.836,2.836,0,0,0,80.551,2.3H31.862a2.836,2.836,0,0,0-2.833,2.833V54.3A1.152,1.152,0,0,1,27.876,55.449Z" transform="translate(-26.724 0)"/>
        <path id="Trazado_1246751" data-name="Trazado 1246751" d="M66.377,395.924H31.862a5.143,5.143,0,0,1-5.138-5.138v-8.759a1.152,1.152,0,0,1,2.3,0v8.759a2.836,2.836,0,0,0,2.833,2.833H66.377a1.152,1.152,0,1,1,0,2.3Z" transform="translate(-26.724 -322.353)"/>
        <path id="Trazado_1246752" data-name="Trazado 1246752" d="M111.477,51.794H68.646a1.923,1.923,0,0,1-1.921-1.921V41.921A1.923,1.923,0,0,1,68.646,40H99.618a1.152,1.152,0,1,1,0,2.3H69.03v7.184h42.063V42.3H105a1.152,1.152,0,0,1,0-2.3h6.481a1.923,1.923,0,0,1,1.921,1.921v7.953A1.923,1.923,0,0,1,111.477,51.794Z" transform="translate(-60.579 -33.854)"/>
      </g>
    </g>
  </g>
</svg>
