<svg xmlns="http://www.w3.org/2000/svg" width="83" height="83" viewBox="0 0 83 83">
  <g id="Group_1208687" data-name="Group 1208687" transform="translate(-1178.051 -3083)">
    <circle id="Ellipse_12658" data-name="Ellipse 12658" cx="41.5" cy="41.5" r="41.5" transform="translate(1178.051 3083)" fill="#b7a8f1"/>
    <g id="Artboard_01" data-name="Artboard 01" transform="translate(1192.395 3095.407)">
      <path id="Path_1246844" data-name="Path 1246844" d="M7.4,55.546A19.195,19.195,0,0,1,31.967,26.305l4.117,3.775a19.189,19.189,0,0,1,2.4,3.768L37.05,53.014a19.267,19.267,0,0,1-2.067,2.533Z" transform="translate(-0.165 -3.54)" fill="#2d9739"/>
      <path id="Path_1246845" data-name="Path 1246845" d="M39.478,34a19.189,19.189,0,0,0-2.4-3.768L32.961,26.46l-.073-.049a14.765,14.765,0,0,0-16.382,0,19.195,19.195,0,0,0-3.1,29.291H35.977a19.267,19.267,0,0,0,2.067-2.533Z" transform="translate(-1.159 -3.696)" fill="#44bc59"/>
      <path id="Path_1246846" data-name="Path 1246846" d="M42.409,33.05a19.259,19.259,0,0,0-1.361-1.9l-1.842-1.689a12.411,12.411,0,0,1-2.86,1.451L32.7,32.156a1.042,1.042,0,0,0-.7.991v5.733a1.02,1.02,0,0,0,1.552.89l3.666-2.292a24.1,24.1,0,0,0,5.191-4.43Z" transform="translate(-5.129 -4.611)" fill="#2d9739"/>
      <rect id="Rectangle_411145" data-name="Rectangle 411145" width="11.684" height="3.338" rx="1.669" transform="translate(15.187 16.12)" fill="#ffc239"/>
      <circle id="Ellipse_12655" data-name="Ellipse 12655" cx="10.015" cy="10.015" r="10.015" transform="translate(11.014 26.135)" fill="#abe4a3"/>
      <path id="Path_1246847" data-name="Path 1246847" d="M23.593,31a9.954,9.954,0,0,0-5.465,1.629A10.007,10.007,0,0,0,31.982,46.483,10.007,10.007,0,0,0,23.593,31Z" transform="translate(-2.564 -4.865)" fill="#cdf8c8"/>
      <path id="Path_1246848" data-name="Path 1246848" d="M19.5,17.511l-2.32-4.173C16.611,11.951,17.39,10,18.668,10H28.682c1.278,0,2.057,1.951,1.486,3.338l-2.32,4.173Z" transform="translate(-2.646 -1.391)" fill="#2d9739"/>
      <path id="Path_1246849" data-name="Path 1246849" d="M24.338,40.842a1.669,1.669,0,1,1,1.669-1.669h1.669a3.338,3.338,0,0,0-2.5-3.22V35H23.5v.953a3.332,3.332,0,0,0,.835,6.558,1.669,1.669,0,1,1-1.669,1.669H21a3.338,3.338,0,0,0,2.5,3.22v.953h1.669V47.4a3.332,3.332,0,0,0-.835-6.558Z" transform="translate(-3.309 -5.527)" fill="#2d9739"/>
      <path id="Path_1246850" data-name="Path 1246850" d="M37,43h3.338V56.353H37Z" transform="translate(-5.956 -6.851)" fill="#ffc239"/>
      <path id="Path_1246851" data-name="Path 1246851" d="M44,36h3.338V55.195H44Z" transform="translate(-7.114 -5.692)" fill="#ffc239"/>
      <path id="Path_1246852" data-name="Path 1246852" d="M51,29h3.338V54.037H51Z" transform="translate(-8.273 -4.534)" fill="#ffc239"/>
      <path id="Path_1246853" data-name="Path 1246853" d="M35.863,38.972a10.006,10.006,0,0,0-3.756-5.612,1.04,1.04,0,0,0-.1.432v5.733a1.02,1.02,0,0,0,1.552.89Z" transform="translate(-5.13 -5.256)" fill="#abe4a3"/>
      <path id="Path_1246854" data-name="Path 1246854" d="M58,23h3.338V53.044H58Z" transform="translate(-9.431 -3.542)" fill="#ffc239"/>
      <path id="Path_1246855" data-name="Path 1246855" d="M30,47h3.338V57.015H30Z" transform="translate(-4.798 -7.512)" fill="#ffc239"/>
      <path id="Path_1246856" data-name="Path 1246856" d="M19.839,19a1.652,1.652,0,0,0-.813.219,1.669,1.669,0,0,0,1.647,1.45h8.346a1.652,1.652,0,0,0,.813-.219A1.669,1.669,0,0,0,28.184,19Z" transform="translate(-2.983 -2.88)" fill="#ffd55d"/>
      <path id="Path_1246857" data-name="Path 1246857" d="M30.52,13.338C31.091,11.951,30.312,10,29.034,10H20.385a1.243,1.243,0,0,0-1.2,1.653l.007.016,1.236,2.223a3.793,3.793,0,0,0,3.318,1.95h5.38Z" transform="translate(-2.998 -1.391)" fill="#44bc59"/>
      <g id="Group_1208685" data-name="Group 1208685" transform="translate(26.871 19.458)">
        <path id="Path_1246858" data-name="Path 1246858" d="M32,47v7.511a1.669,1.669,0,0,0,1.669,1.669V47Z" transform="translate(-32 -26.971)" fill="#ffd55d"/>
        <path id="Path_1246859" data-name="Path 1246859" d="M39,43V53.849a1.669,1.669,0,0,0,1.669,1.669V43Z" transform="translate(-33.158 -26.309)" fill="#ffd55d"/>
        <path id="Path_1246860" data-name="Path 1246860" d="M46,36V52.691a1.669,1.669,0,0,0,1.669,1.669V36Z" transform="translate(-34.316 -25.151)" fill="#ffd55d"/>
        <path id="Path_1246861" data-name="Path 1246861" d="M53,29V51.533A1.669,1.669,0,0,0,54.669,53.2V29Z" transform="translate(-35.474 -23.993)" fill="#ffd55d"/>
        <path id="Path_1246862" data-name="Path 1246862" d="M60,23V50.54a1.669,1.669,0,0,0,1.669,1.669V23Z" transform="translate(-36.632 -23)" fill="#ffd55d"/>
      </g>
      <path id="Path_1246863" data-name="Path 1246863" d="M54.954,12.337a.835.835,0,0,1-1.032,1.032l-4.4-1.256c-2.1,6.991-6.2,13.789-12.307,17.6l-3.666,2.292A1.02,1.02,0,0,1,32,31.116V25.382a1.042,1.042,0,0,1,.7-.99l3.649-1.243c4.882-1.663,9.667-6.71,10.676-11.871L43.3,9.418a.835.835,0,0,1-.089-1.441l7.866-5.244a.835.835,0,0,1,1.265.465Z" transform="translate(-5.129 -0.165)" fill="#f3a606"/>
      <path id="Path_1246864" data-name="Path 1246864" d="M33.552,29.844l3.666-2.292c5.669-3.543,9.611-9.661,11.829-16.117a1.657,1.657,0,0,1,2.027-1.043l2.848.814a.82.82,0,0,0,.679-.1l-2.26-7.9a.835.835,0,0,0-1.265-.465L43.211,7.977A.835.835,0,0,0,43.3,9.418l3.721,1.86c-1.009,5.161-5.794,10.207-10.676,11.872L32.7,24.393a1.042,1.042,0,0,0-.7.989v3.572a1.02,1.02,0,0,0,1.552.89Z" transform="translate(-5.129 -0.165)" fill="#ffc239"/>
      <path id="Path_1246865" data-name="Path 1246865" d="M24.338,37.5a1.669,1.669,0,0,1,1.669,1.669h1.669a3.338,3.338,0,0,0-2.5-3.22V35H23.5v.953a3.332,3.332,0,0,0,.835,6.558,1.669,1.669,0,1,1-1.669,1.669H21a3.338,3.338,0,0,0,2.5,3.22v.953h1.669V47.4a3.332,3.332,0,0,0-.835-6.558,1.669,1.669,0,0,1,0-3.338Z" transform="translate(-3.309 -5.527)"/>
      <path id="Path_1246866" data-name="Path 1246866" d="M50.835,28a.835.835,0,0,0-.835.835V53.871a.835.835,0,0,0,.835.835h3.338a.835.835,0,0,0,.835-.835V28.835A.835.835,0,0,0,54.173,28Zm2.5,25.037H51.669V29.669h1.669Z" transform="translate(-8.107 -4.369)"/>
      <path id="Path_1246867" data-name="Path 1246867" d="M61.173,22H57.835a.835.835,0,0,0-.835.835V52.879a.835.835,0,0,0,.835.835h3.338a.835.835,0,0,0,.835-.835V22.835A.835.835,0,0,0,61.173,22Zm-.835,30.044H58.669V23.669h1.669Z" transform="translate(-9.265 -3.376)"/>
      <path id="Path_1246868" data-name="Path 1246868" d="M37.281,50.337h2.943a.835.835,0,0,0,.835-.835V30.308a.835.835,0,0,0-.835-.835h-1.4a20.1,20.1,0,0,0-1.8-2.861,34.436,34.436,0,0,0,7.928-13.639l3.615,1.034a1.669,1.669,0,0,0,2.059-2.06L48.016,2.8a1.669,1.669,0,0,0-2.53-.931L37.619,7.117A1.669,1.669,0,0,0,37.8,10l3.136,1.568a16.772,16.772,0,0,1-9.054,10.265A19.909,19.909,0,0,0,27,19.533a2.484,2.484,0,0,0-.562-3.907l1.818-3.27a.85.85,0,0,0,.043-.088,3.756,3.756,0,0,0-.35-3.384,2.315,2.315,0,0,0-1.908-1.109H16.022a2.315,2.315,0,0,0-1.908,1.107,3.756,3.756,0,0,0-.35,3.384.849.849,0,0,0,.043.088l1.818,3.266a2.484,2.484,0,0,0-.561,3.908A20.029,20.029,0,0,0,5.4,51.172H1.834v1.669H51.908V51.172H36.657c.218-.271.421-.552.624-.835Zm2.108-1.669H37.72V31.142h1.669Zm3.322-37.4a.835.835,0,0,0-.446-.906l-3.721-1.86L46.41,3.261l2.612,9.14-4.4-1.257a.835.835,0,0,0-1.028.562c-2.31,7.678-6.555,13.763-11.95,17.136L27.98,31.134a.156.156,0,0,1-.167.005.2.2,0,0,1-.108-.188V25.217a.21.21,0,0,1,.132-.2l3.649-1.243c5.365-1.828,10.19-7.2,11.226-12.5ZM33.547,36.984V48.668H31.878V36.984Zm-3.338-.835a9.167,9.167,0,0,1-.835,3.809v-.471a.835.835,0,0,0-.835-.835H25.2a.835.835,0,0,0-.835.835v5.2a9.18,9.18,0,1,1,1.669-16.229v2.489A1.88,1.88,0,0,0,27,32.6a1.818,1.818,0,0,0,1.865-.049l.462-.29A9.175,9.175,0,0,1,30.209,36.149Zm-2.5,4.173v8.346H26.036V40.322ZM15.5,9.81a.72.72,0,0,1,.521-.366H26.036a.72.72,0,0,1,.521.366,2.086,2.086,0,0,1,.209,1.779l-2.056,3.7H17.347l-2.056-3.7A2.086,2.086,0,0,1,15.5,9.81Zm1.355,8.814a.835.835,0,1,1,0-1.669H25.2a.835.835,0,1,1,0,1.669ZM2.669,38.653A18.35,18.35,0,0,1,29.863,22.565l-2.563.874a1.873,1.873,0,0,0-1.264,1.778v1.31a10.849,10.849,0,1,0-1.669,19.946V49.5a.835.835,0,0,0,.835.835H28.54a.835.835,0,0,0,.835-.835V43.067a10.818,10.818,0,0,0,.835-1.148V49.5a.835.835,0,0,0,.835.835h3.338a.835.835,0,0,0,.835-.835V36.149a.835.835,0,0,0-.835-.835H31.843a10.849,10.849,0,0,0-1.079-3.952l1.768-1.1a23.937,23.937,0,0,0,3.282-2.485,18.475,18.475,0,0,1,1.112,1.7h-.04a.835.835,0,0,0-.835.835V49.2a18.469,18.469,0,0,1-1.607,1.975H7.616A18.252,18.252,0,0,1,2.669,38.653Z" transform="translate(0)"/>
    </g>
  </g>
</svg>
