<svg xmlns="http://www.w3.org/2000/svg" width="83" height="83" viewBox="0 0 83 83">
  <g id="Group_1208796" data-name="Group 1208796" transform="translate(-339 -7649)">
    <g id="Group_1208793" data-name="Group 1208793" transform="translate(-262.051 -1036)">
      <g id="Group_1208734" data-name="Group 1208734" transform="translate(174 150)">
        <g id="Group_1208693" data-name="Group 1208693" transform="translate(89 5452)">
          <circle id="Ellipse_12656" data-name="Ellipse 12656" cx="41.5" cy="41.5" r="41.5" transform="translate(338.051 3083)" fill="#b7a8f1"/>
        </g>
      </g>
    </g>
    <g id="_12._Verification" data-name="12. Verification" transform="translate(353 7642)">
      <rect id="Rectangle_411146" data-name="Rectangle 411146" width="32" height="42" rx="16" transform="translate(1 25)" fill="#c1d1f7"/>
      <path id="Path_1247187" data-name="Path 1247187" d="M38.486,393.694H9.694A1.694,1.694,0,0,1,8,392v2.54a1.694,1.694,0,0,0,1.694,1.694H38.486a1.694,1.694,0,0,0,1.694-1.694V392A1.694,1.694,0,0,1,38.486,393.694Z" transform="translate(-7.153 -329.045)" fill="#adbeee"/>
      <path id="Path_1247188" data-name="Path 1247188" d="M31.333,68.036H9.315a.847.847,0,1,1,0-1.694H31.333a.847.847,0,0,0,.847-.847V26.541a.847.847,0,0,0-.847-.847H2.541a.847.847,0,0,0-.847.847V65.5a.847.847,0,0,0,.847.847H5.928a.847.847,0,1,1,0,1.694H2.541A2.541,2.541,0,0,1,0,65.5V26.541A2.541,2.541,0,0,1,2.541,24H31.333a2.541,2.541,0,0,1,2.541,2.541V65.5A2.541,2.541,0,0,1,31.333,68.036Z"/>
      <path id="Path_1247189" data-name="Path 1247189" d="M120.18,88.468v32.18a1.694,1.694,0,0,1-1.694,1.694H89.694A1.694,1.694,0,0,1,88,120.648V81.694A1.694,1.694,0,0,1,89.694,80h22.018Z" transform="translate(-78.685 -50.072)" fill="#eaf2ff"/>
      <path id="Path_1247190" data-name="Path 1247190" d="M118.486,441.694H89.694A1.694,1.694,0,0,1,88,440v2.541a1.694,1.694,0,0,0,1.694,1.694h28.793a1.694,1.694,0,0,0,1.694-1.694V440A1.694,1.694,0,0,1,118.486,441.694Z" transform="translate(-78.685 -371.964)" fill="#c1d1f7"/>
      <path id="Path_1247191" data-name="Path 1247191" d="M111.333,116.036H82.541A2.541,2.541,0,0,1,80,113.5V74.541A2.541,2.541,0,0,1,82.541,72h22.018a.847.847,0,0,1,.6.248l8.468,8.468a.847.847,0,0,1,.248.6V84.7a.847.847,0,1,1-1.694,0V81.666l-7.972-7.972H82.541a.847.847,0,0,0-.847.847V113.5a.847.847,0,0,0,.847.847h28.793a.847.847,0,0,0,.847-.847V89.784a.847.847,0,1,1,1.694,0V113.5A2.541,2.541,0,0,1,111.333,116.036Z" transform="translate(-71.532 -42.919)"/>
      <path id="Path_1247192" data-name="Path 1247192" d="M313.315,82.156h-6.775A2.541,2.541,0,0,1,304,79.616V72.841a.847.847,0,0,1,1.446-.6l8.468,8.468a.847.847,0,0,1-.6,1.446Zm-7.622-7.271v4.731a.847.847,0,0,0,.847.847h4.731Z" transform="translate(-271.82 -42.913)"/>
      <path id="Path_1247193" data-name="Path 1247193" d="M320.468,88.468h-6.775A1.694,1.694,0,0,1,312,86.775V80Z" transform="translate(-278.973 -50.072)" fill="#c1d1f7"/>
      <path id="Path_1247194" data-name="Path 1247194" d="M313.315,82.156h-6.775A2.541,2.541,0,0,1,304,79.616V72.841a.847.847,0,0,1,1.446-.6l8.468,8.468a.847.847,0,0,1-.6,1.446Zm-7.622-7.271v4.731a.847.847,0,0,0,.847.847h4.731Z" transform="translate(-271.82 -42.913)"/>
      <path id="Path_1247195" data-name="Path 1247195" d="M136,128h13.549v3.387H136Z" transform="translate(-121.604 -92.991)" fill="#e38343"/>
      <path id="Path_1247196" data-name="Path 1247196" d="M142.4,125.081H128.847a.847.847,0,0,1-.847-.847v-3.387a.847.847,0,0,1,.847-.847H142.4a.847.847,0,0,1,.847.847v3.387A.847.847,0,0,1,142.4,125.081Zm-12.7-1.694h11.856v-1.694H129.694Z" transform="translate(-114.451 -85.838)"/>
      <path id="Path_1247197" data-name="Path 1247197" d="M136,200h5.081v5.081H136Z" transform="translate(-121.604 -157.37)" fill="#b1da7a"/>
      <path id="Path_1247198" data-name="Path 1247198" d="M133.928,198.775h-5.081a.847.847,0,0,1-.847-.847v-5.081a.847.847,0,0,1,.847-.847h5.081a.847.847,0,0,1,.847.847v5.081A.847.847,0,0,1,133.928,198.775Zm-4.234-1.694h3.387v-3.387h-3.387Z" transform="translate(-114.451 -150.216)"/>
      <path id="Path_1247199" data-name="Path 1247199" d="M219.009,193.694H208.847a.847.847,0,1,1,0-1.694h10.162a.847.847,0,1,1,0,1.694Z" transform="translate(-185.982 -150.216)"/>
      <path id="Path_1247200" data-name="Path 1247200" d="M219.009,225.694H208.847a.847.847,0,1,1,0-1.694h10.162a.847.847,0,1,1,0,1.694Z" transform="translate(-185.982 -178.829)"/>
      <path id="Path_1247201" data-name="Path 1247201" d="M136,288h5.081v5.081H136Z" transform="translate(-121.604 -236.054)" fill="#b1da7a"/>
      <path id="Path_1247202" data-name="Path 1247202" d="M133.928,286.775h-5.081a.847.847,0,0,1-.847-.847v-5.081a.847.847,0,0,1,.847-.847h5.081a.847.847,0,0,1,.847.847v5.081A.847.847,0,0,1,133.928,286.775Zm-4.234-1.694h3.387v-3.387h-3.387Z" transform="translate(-114.451 -228.901)"/>
      <path id="Path_1247203" data-name="Path 1247203" d="M219.009,281.694H208.847a.847.847,0,1,1,0-1.694h10.162a.847.847,0,1,1,0,1.694Z" transform="translate(-185.982 -228.901)"/>
      <path id="Path_1247204" data-name="Path 1247204" d="M219.009,313.694H208.847a.847.847,0,1,1,0-1.694h10.162a.847.847,0,1,1,0,1.694Z" transform="translate(-185.982 -257.514)"/>
      <path id="Path_1247205" data-name="Path 1247205" d="M136,376h5.081v5.081H136Z" transform="translate(-121.604 -314.739)" fill="#b1da7a"/>
      <path id="Path_1247206" data-name="Path 1247206" d="M133.928,374.775h-5.081a.847.847,0,0,1-.847-.847v-5.081a.847.847,0,0,1,.847-.847h5.081a.847.847,0,0,1,.847.847v5.081A.847.847,0,0,1,133.928,374.775Zm-4.234-1.694h3.387v-3.387h-3.387Z" transform="translate(-114.451 -307.586)"/>
      <path id="Path_1247207" data-name="Path 1247207" d="M219.009,369.694H208.847a.847.847,0,1,1,0-1.694h10.162a.847.847,0,1,1,0,1.694Z" transform="translate(-185.982 -307.586)"/>
      <path id="Path_1247208" data-name="Path 1247208" d="M219.009,401.694H208.847a.847.847,0,1,1,0-1.694h10.162a.847.847,0,1,1,0,1.694Z" transform="translate(-185.982 -336.199)"/>
      <path id="Path_1247209" data-name="Path 1247209" d="M395.387,368,392,371.387l7.767,7.767a2.4,2.4,0,1,0,3.388-3.388Z" transform="translate(-350.505 -307.586)" fill="#e38343"/>
      <path id="Path_1247210" data-name="Path 1247210" d="M401.46,391.767,393.694,384,392,385.694l7.767,7.767a2.4,2.4,0,0,0,4.008-1.073A2.4,2.4,0,0,1,401.46,391.767Z" transform="translate(-350.505 -321.892)" fill="#df6117"/>
      <path id="Path_1247211" data-name="Path 1247211" d="M394.3,373.517a3.22,3.22,0,0,1-2.292-.953l-7.768-7.767a.847.847,0,0,1,0-1.2l3.387-3.387a.847.847,0,0,1,1.2,0l7.763,7.771a3.241,3.241,0,0,1-2.29,5.534Zm-8.263-9.315,7.165,7.169a1.551,1.551,0,0,0,2.193-2.193l-7.169-7.165Z" transform="translate(-343.346 -300.4)"/>
      <circle id="Ellipse_12681" data-name="Ellipse 12681" cx="10.5" cy="10.5" r="10.5" transform="translate(26 45)" fill="#596060"/>
      <path id="Path_1247212" data-name="Path 1247212" d="M251.007,317.735A11.009,11.009,0,0,1,240.071,308a11.009,11.009,0,1,0,21.872,0,11.009,11.009,0,0,1-10.936,9.739Z" transform="translate(-214.592 -253.933)" fill="#4c5657"/>
      <path id="Path_1247213" data-name="Path 1247213" d="M243.856,231.711a11.856,11.856,0,1,1,11.856-11.856,11.856,11.856,0,0,1-11.856,11.856Zm0-22.018a10.162,10.162,0,1,0,10.162,10.162A10.162,10.162,0,0,0,243.856,209.694Z" transform="translate(-207.442 -164.523)"/>
      <ellipse id="Ellipse_12682" data-name="Ellipse 12682" cx="8" cy="7.5" rx="8" ry="7.5" transform="translate(28 48)" fill="#b1da7a"/>
      <path id="Path_1247214" data-name="Path 1247214" d="M279.62,250.584a7.622,7.622,0,0,1,7.516,6.352,7.622,7.622,0,1,0-15.032,0A7.622,7.622,0,0,1,279.62,250.584Z" transform="translate(-243.206 -200.332)" fill="#96bf5b"/>
      <path id="Path_1247215" data-name="Path 1247215" d="M272.468,256.937a8.468,8.468,0,1,1,8.468-8.468A8.468,8.468,0,0,1,272.468,256.937Zm0-15.243a6.775,6.775,0,1,0,6.775,6.775A6.775,6.775,0,0,0,272.468,241.694Z" transform="translate(-236.054 -193.135)"/>
      <path id="Path_1247216" data-name="Path 1247216" d="M314.784,301.676l-2.541-2.541a.847.847,0,0,1,1.2-1.2l1.941,1.942,3.635-3.636a.847.847,0,0,1,1.2,1.2l-4.234,4.234a.847.847,0,0,1-1.2,0Z" transform="translate(-278.969 -243.204)"/>
    </g>
  </g>
</svg>
