<svg xmlns="http://www.w3.org/2000/svg" width="83" height="83" viewBox="0 0 83 83">
  <g id="Group_1208804" data-name="Group 1208804" transform="translate(-1179 -7649)">
    <g id="Group_1208795" data-name="Group 1208795" transform="translate(577.949 -1036)">
      <g id="Group_1208734" data-name="Group 1208734" transform="translate(174 150)">
        <g id="Group_1208693" data-name="Group 1208693" transform="translate(89 5452)">
          <circle id="Ellipse_12656" data-name="Ellipse 12656" cx="41.5" cy="41.5" r="41.5" transform="translate(338.051 3083)" fill="#b7a8f1"/>
        </g>
      </g>
    </g>
    <g id="hecho" transform="translate(1197.469 7663.86)">
      <path id="Path_1247231" data-name="Path 1247231" d="M38.343,91.788H8.61a1.11,1.11,0,0,1-1.11-1.11V44.8a1.11,1.11,0,0,1,1.11-1.11H38.343a1.11,1.11,0,0,1,1.11,1.11V90.679A1.11,1.11,0,0,1,38.343,91.788Z" transform="translate(-6.717 -39.119)" fill="#e7e2e6"/>
      <path id="Trazado_1247232" data-name="Trazado 1247232" d="M31.626,85.854H1.893A1.9,1.9,0,0,1,0,83.961V44.87a.783.783,0,0,1,1.566,0V83.961a.327.327,0,0,0,.327.327H31.626a.327.327,0,0,0,.327-.327V38.086a.327.327,0,0,0-.327-.327H1.893a.327.327,0,0,0-.327.327v3.757a.783.783,0,0,1-1.566,0V38.086a1.9,1.9,0,0,1,1.893-1.893H31.626a1.9,1.9,0,0,1,1.893,1.893V83.961A1.9,1.9,0,0,1,31.626,85.854Z" transform="translate(0 -32.402)"/>
      <path id="Path_1247233" data-name="Path 1247233" d="M84.533,55.61H54.8a1.11,1.11,0,0,1-1.11-1.11V8.625a1.11,1.11,0,0,1,1.11-1.11H84.533a1.11,1.11,0,0,1,1.11,1.11V54.5A1.11,1.11,0,0,1,84.533,55.61Z" transform="translate(-48.086 -6.717)" fill="#faf7f8"/>
      <path id="Path_1247234" data-name="Path 1247234" d="M329.416,7.516h-2.307a1.11,1.11,0,0,1,1.11,1.11V54.5a1.11,1.11,0,0,1-1.11,1.11h2.307a1.11,1.11,0,0,0,1.11-1.11V8.626A1.11,1.11,0,0,0,329.416,7.516Z" transform="translate(-292.969 -6.718)" fill="#f0eef0"/>
      <path id="Trazado_1247235" data-name="Trazado 1247235" d="M77.816,49.676H61.92a.783.783,0,0,1,0-1.566h15.9a.327.327,0,0,0,.327-.327V1.908a.327.327,0,0,0-.327-.327H48.083a.327.327,0,0,0-.327.327V47.783a.327.327,0,0,0,.327.327H58.894a.783.783,0,0,1,0,1.566H48.083a1.9,1.9,0,0,1-1.893-1.893V1.908A1.9,1.9,0,0,1,48.083.015H77.816a1.9,1.9,0,0,1,1.893,1.893V47.783A1.9,1.9,0,0,1,77.816,49.676Z" transform="translate(-41.369 0)"/>
      <path id="Path_1247236" data-name="Path 1247236" d="M134.974,45.153H118.449a1.066,1.066,0,0,1-1.066-1.066V41.493a1.066,1.066,0,0,1,1.066-1.066h16.525a1.066,1.066,0,0,1,1.066,1.066v2.593A1.066,1.066,0,0,1,134.974,45.153Z" transform="translate(-105.132 -36.194)" fill="#6ce79a"/>
      <path id="Path_1247237" data-name="Path 1247237" d="M268.474,40.426h-2.035a1.066,1.066,0,0,1,1.066,1.066v2.593a1.066,1.066,0,0,1-1.066,1.066h2.035a1.066,1.066,0,0,0,1.066-1.066V41.492A1.066,1.066,0,0,0,268.474,40.426Z" transform="translate(-238.631 -36.193)" fill="#00d8a2"/>
      <path id="Trazado_1247238" data-name="Trazado 1247238" d="M128.257,39.218H111.732a1.851,1.851,0,0,1-1.849-1.849V34.776a1.851,1.851,0,0,1,1.849-1.849h16.525a1.851,1.851,0,0,1,1.849,1.849v2.593A1.851,1.851,0,0,1,128.257,39.218Zm-16.525-4.726a.284.284,0,0,0-.283.283v2.593a.284.284,0,0,0,.283.283h16.525a.284.284,0,0,0,.284-.283V34.776a.284.284,0,0,0-.283-.283Z" transform="translate(-98.415 -29.477)"/>
      <g id="Group_1208801" data-name="Group 1208801" transform="translate(9.266 12.106)">
        <path id="Línea_708" data-name="Línea 708" d="M16.345-5.934H-6.717A.783.783,0,0,1-7.5-6.717.783.783,0,0,1-6.717-7.5H16.345a.783.783,0,0,1,.783.783A.783.783,0,0,1,16.345-5.934Z" transform="translate(7.5 37.431)"/>
        <path id="Línea_709" data-name="Línea 709" d="M16.345-5.934H-6.717A.783.783,0,0,1-7.5-6.717.783.783,0,0,1-6.717-7.5H16.345a.783.783,0,0,1,.783.783A.783.783,0,0,1,16.345-5.934Z" transform="translate(7.5 33.69)"/>
        <path id="Línea_710" data-name="Línea 710" d="M16.345-5.934H-6.717A.783.783,0,0,1-7.5-6.717.783.783,0,0,1-6.717-7.5H16.345a.783.783,0,0,1,.783.783A.783.783,0,0,1,16.345-5.934Z" transform="translate(7.5 29.948)"/>
        <path id="Línea_711" data-name="Línea 711" d="M16.345-5.934H-6.717A.783.783,0,0,1-7.5-6.717.783.783,0,0,1-6.717-7.5H16.345a.783.783,0,0,1,.783.783A.783.783,0,0,1,16.345-5.934Z" transform="translate(7.5 26.207)"/>
        <path id="Línea_712" data-name="Línea 712" d="M16.345-5.934H-6.717A.783.783,0,0,1-7.5-6.717.783.783,0,0,1-6.717-7.5H16.345a.783.783,0,0,1,.783.783A.783.783,0,0,1,16.345-5.934Z" transform="translate(7.5 22.465)"/>
        <path id="Línea_713" data-name="Línea 713" d="M16.345-5.934H-6.717A.783.783,0,0,1-7.5-6.717.783.783,0,0,1-6.717-7.5H16.345a.783.783,0,0,1,.783.783A.783.783,0,0,1,16.345-5.934Z" transform="translate(7.5 18.724)"/>
        <path id="Línea_714" data-name="Línea 714" d="M16.345-5.934H-6.717A.783.783,0,0,1-7.5-6.717.783.783,0,0,1-6.717-7.5H16.345a.783.783,0,0,1,.783.783A.783.783,0,0,1,16.345-5.934Z" transform="translate(7.5 14.983)"/>
        <path id="Línea_715" data-name="Línea 715" d="M16.345-5.934H-6.717A.783.783,0,0,1-7.5-6.717.783.783,0,0,1-6.717-7.5H16.345a.783.783,0,0,1,.783.783A.783.783,0,0,1,16.345-5.934Z" transform="translate(7.5 11.241)"/>
        <path id="Línea_716" data-name="Línea 716" d="M16.345-5.934H-6.717A.783.783,0,0,1-7.5-6.717.783.783,0,0,1-6.717-7.5H16.345a.783.783,0,0,1,.783.783A.783.783,0,0,1,16.345-5.934Z" transform="translate(7.5 7.5)"/>
      </g>
      <circle id="Ellipse_12684" data-name="Ellipse 12684" cx="12.419" cy="12.419" r="12.419" transform="translate(27.818 20.372)" fill="#6ce79a"/>
      <path id="Path_1247239" data-name="Path 1247239" d="M373.332,195.063a12.543,12.543,0,0,0-1.422.082,12.42,12.42,0,0,1,0,24.676,12.419,12.419,0,1,0,1.422-24.757Z" transform="translate(-333.094 -174.691)" fill="#00d8a2"/>
      <g id="Group_1208802" data-name="Group 1208802" transform="translate(32.761 27.198)">
        <path id="Path_1247240" data-name="Path 1247240" d="M319.411,271.652a1.739,1.739,0,0,1-1.234-.511l-3.766-3.766a1.746,1.746,0,0,1,2.469-2.469l2.532,2.532,6.461-6.461a1.746,1.746,0,0,1,2.469,2.469l-7.7,7.7A1.74,1.74,0,0,1,319.411,271.652Z" transform="translate(-313.899 -260.465)" fill="#faf7f8"/>
      </g>
      <g id="Group_1208803" data-name="Group 1208803" transform="translate(31.978 26.415)">
        <path id="Trazado_1247241" data-name="Trazado 1247241" d="M312.694,265.718a2.512,2.512,0,0,1-1.788-.741l-3.766-3.766a2.528,2.528,0,0,1,3.576-3.576l1.978,1.978,5.907-5.907a2.512,2.512,0,0,1,1.788-.741h0a2.528,2.528,0,0,1,1.788,4.317l-7.7,7.7A2.511,2.511,0,0,1,312.694,265.718Zm-3.766-7.258a.963.963,0,0,0-.681,1.644l3.766,3.766a.963.963,0,0,0,1.362,0l7.7-7.7a.963.963,0,1,0-1.362-1.362l-6.461,6.461a.783.783,0,0,1-1.107,0l-2.532-2.532A.957.957,0,0,0,308.928,258.46Z" transform="translate(-306.399 -252.965)"/>
      </g>
      <path id="Trazado_1247242" data-name="Trazado 1247242" d="M272.242,213.967a13.2,13.2,0,1,1,8.511-23.294.783.783,0,1,1-1.01,1.2,11.631,11.631,0,1,0,1.931,2.081.783.783,0,0,1,1.268-.918,13.2,13.2,0,0,1-10.7,20.935Z" transform="translate(-232.004 -167.974)"/>
    </g>
  </g>
</svg>
