<svg xmlns="http://www.w3.org/2000/svg" width="83" height="83" viewBox="0 0 83 83">
  <g id="Group_1208690" data-name="Group 1208690" transform="translate(-1147.051 -2302)">
    <circle id="Ellipse_12661" data-name="Ellipse 12661" cx="41.5" cy="41.5" r="41.5" transform="translate(1147.051 2302)" fill="#b7a8f1"/>
    <g id="lista-de-verificacion" transform="translate(1160.051 2315)">
      <g id="Group_1208678" data-name="Group 1208678" transform="translate(1.871 1.871)">
        <g id="Group_1208662" data-name="Group 1208662" transform="translate(0 1.743)">
          <path id="Path_1246796" data-name="Path 1246796" d="M42.088,28.4V51.06A3.485,3.485,0,0,1,38.6,54.546H5.486A3.485,3.485,0,0,1,2,51.06V7.486A3.485,3.485,0,0,1,5.486,4h6.972V7.486h-6.1a.874.874,0,0,0-.871.871V50.189a.874.874,0,0,0,.871.871H31.631L38.6,44.088v-12.2Z" transform="translate(-2 -4)" fill="#f5e0cd"/>
        </g>
        <g id="Group_1208663" data-name="Group 1208663" transform="translate(15.687 1.743)">
          <path id="Path_1246797" data-name="Path 1246797" d="M20,4h8.715V7.486H20Z" transform="translate(-20 -4)" fill="#f5e0cd"/>
        </g>
        <g id="Group_1208664" data-name="Group 1208664" transform="translate(29.631 1.743)">
          <path id="Path_1246798" data-name="Path 1246798" d="M46.458,10.554a7.81,7.81,0,0,0-3.442,5.7l-.044-.009V8.357a.874.874,0,0,0-.871-.871H36V4h6.972a3.485,3.485,0,0,1,3.486,3.486Z" transform="translate(-36 -4)" fill="#f5e0cd"/>
        </g>
        <g id="Group_1208665" data-name="Group 1208665" transform="translate(3.486 5.229)">
          <path id="Path_1246799" data-name="Path 1246799" d="M38.245,8H6.871A.874.874,0,0,0,6,8.871V50.7a.874.874,0,0,0,.871.871H32.145V44.6h6.972V8.871A.874.874,0,0,0,38.245,8Z" transform="translate(-6 -8)" fill="#e6e9ed"/>
        </g>
        <g id="Group_1208666" data-name="Group 1208666" transform="translate(24.402)">
          <path id="Path_1246800" data-name="Path 1246800" d="M35.229,7.229V8.1a.874.874,0,0,1-.871.871H30.871A.874.874,0,0,1,30,8.1V2.871A.874.874,0,0,1,30.871,2h3.486a.874.874,0,0,1,.871.871V7.229Z" transform="translate(-30 -2)" fill="#b4dd7f"/>
        </g>
        <g id="Group_1208667" data-name="Group 1208667" transform="translate(10.458)">
          <path id="Path_1246801" data-name="Path 1246801" d="M19.229,7.229V8.1a.874.874,0,0,1-.871.871H14.871A.874.874,0,0,1,14,8.1V2.871A.874.874,0,0,1,14.871,2h3.486a.874.874,0,0,1,.871.871V7.229Z" transform="translate(-14 -2)" fill="#b4dd7f"/>
        </g>
        <g id="Group_1208668" data-name="Group 1208668" transform="translate(29.631 41.831)">
          <path id="Path_1246802" data-name="Path 1246802" d="M42.972,50,36,56.972V50Z" transform="translate(-36 -50)" fill="#ff826e"/>
        </g>
        <g id="Group_1208669" data-name="Group 1208669" transform="translate(6.972 38.345)">
          <path id="Path_1246803" data-name="Path 1246803" d="M10,46h3.486v3.486H10Z" transform="translate(-10 -46)" fill="#fcd770"/>
        </g>
        <g id="Group_1208670" data-name="Group 1208670" transform="translate(6.972 31.374)">
          <path id="Path_1246804" data-name="Path 1246804" d="M10,38h3.486v3.486H10Z" transform="translate(-10 -38)" fill="#fcd770"/>
        </g>
        <g id="Group_1208671" data-name="Group 1208671" transform="translate(6.972 24.402)">
          <path id="Path_1246805" data-name="Path 1246805" d="M10,30h3.486v3.486H10Z" transform="translate(-10 -30)" fill="#fcd770"/>
        </g>
        <g id="Group_1208672" data-name="Group 1208672" transform="translate(6.972 17.43)">
          <path id="Path_1246806" data-name="Path 1246806" d="M10,22h3.486v3.486H10Z" transform="translate(-10 -22)" fill="#fcd770"/>
        </g>
        <g id="Group_1208673" data-name="Group 1208673" transform="translate(6.972 10.458)">
          <path id="Path_1246807" data-name="Path 1246807" d="M10,14h3.486v3.486H10Z" transform="translate(-10 -14)" fill="#fcd770"/>
        </g>
        <g id="Group_1208674" data-name="Group 1208674" transform="translate(13.944 35.731)">
          <path id="Path_1246808" data-name="Path 1246808" d="M27.586,49.972,19.97,52.508a1.4,1.4,0,0,1-.471.078,1.5,1.5,0,0,1-1.5-1.5,1.4,1.4,0,0,1,.078-.471L20.614,43,24.1,46.486Z" transform="translate(-18 -43)" fill="#aab2bd"/>
        </g>
        <g id="Group_1208675" data-name="Group 1208675" transform="translate(20.044 20.358)">
          <path id="Path_1246809" data-name="Path 1246809" d="M48.574,27.617l-3.53,3.53-3.486,3.486L28.486,47.7,25,44.219,43.859,25.36A7.8,7.8,0,0,0,48.574,27.617Z" transform="translate(-25 -25.36)" fill="#b4dd7f"/>
        </g>
        <g id="Group_1208676" data-name="Group 1208676" transform="translate(16.558 15.643)">
          <path id="Path_1246810" data-name="Path 1246810" d="M43.345,24.665,24.486,43.524,21,40.038,41.088,19.95A7.8,7.8,0,0,0,43.345,24.665Z" transform="translate(-21 -19.95)" fill="#fcd770"/>
        </g>
        <g id="Group_1208677" data-name="Group 1208677" transform="translate(36.602 6.972)">
          <path id="Path_1246811" data-name="Path 1246811" d="M51.843,10a7.843,7.843,0,0,1,0,15.687c-.279,0-.558-.017-.828-.044a7.862,7.862,0,0,1-6.972-6.972c-.026-.27-.044-.549-.044-.828s.017-.549.044-.819A7.85,7.85,0,0,1,51.843,10Z" transform="translate(-44 -10)" fill="#ff826e"/>
        </g>
      </g>
      <g id="Group_1208679" data-name="Group 1208679" transform="translate(1 1)">
        <path id="Path_1246812" data-name="Path 1246812" d="M56.136,15.293l-5.484,5.484L49.525,19.65l-1.232,1.232,2.359,2.359,6.717-6.717Z" transform="translate(-7.078 -2.837)"/>
        <path id="Path_1246813" data-name="Path 1246813" d="M46.317,7.972a8.653,8.653,0,0,0-3.486.733V7.1a4.362,4.362,0,0,0-4.357-4.357h-6.1A1.745,1.745,0,0,0,30.631,1H27.145A1.745,1.745,0,0,0,25.4,2.743H18.43A1.745,1.745,0,0,0,16.687,1H13.2a1.745,1.745,0,0,0-1.743,1.743h-6.1A4.362,4.362,0,0,0,1,7.1V50.675a4.362,4.362,0,0,0,4.357,4.357H38.474a4.362,4.362,0,0,0,4.357-4.357v-22.3l3-3c.162.009.322.024.486.024a8.715,8.715,0,0,0,0-17.43ZM38.474,4.486A2.618,2.618,0,0,1,41.088,7.1V9.731a8.765,8.765,0,0,0-1.743,1.748V7.972A1.745,1.745,0,0,0,37.6,6.229H32.374V4.486ZM18.811,39.216l4.978,4.978-6.273,2.091a.637.637,0,0,1-.829-.6.667.667,0,0,1,.031-.2Zm.851-1.613L37.994,19.271a8.7,8.7,0,0,0,1.58,2.927L21.916,39.856Zm7.483-34.86h3.486V7.972H27.145ZM25.4,4.486V6.229H18.43V4.486ZM13.2,2.743h3.486V7.972H13.2Zm3.486,6.972A1.745,1.745,0,0,0,18.43,7.972H25.4a1.745,1.745,0,0,0,1.743,1.743h3.486a1.745,1.745,0,0,0,1.743-1.743H37.6v7.883h.042c-.026.275-.042.552-.042.832,0,.164.016.324.024.486L17.668,37.132l-2.6,7.81a2.371,2.371,0,0,0,3,3l7.808-2.6L37.6,33.606v9.226H30.631V49.8H6.229V7.972h5.229A1.745,1.745,0,0,0,13.2,9.715ZM36.37,44.574l-4,4v-4Zm4.718,6.1a2.618,2.618,0,0,1-2.614,2.614H5.357a2.618,2.618,0,0,1-2.614-2.614V7.1A2.618,2.618,0,0,1,5.357,4.486h6.1V6.229H6.229A1.745,1.745,0,0,0,4.486,7.972V49.8a1.745,1.745,0,0,0,1.743,1.743H31.863l7.483-7.483v-12.2l1.743-1.743ZM25.4,43.342l-2.254-2.254L40.805,23.43a8.711,8.711,0,0,0,2.927,1.58ZM46.317,23.659a6.972,6.972,0,1,1,6.972-6.972A6.98,6.98,0,0,1,46.317,23.659Z" transform="translate(-1 -1)"/>
        <path id="Path_1246814" data-name="Path 1246814" d="M9,18.229h5.229V13H9Zm1.743-3.486h1.743v1.743H10.743Z" transform="translate(-2.028 -2.542)"/>
        <path id="Path_1246815" data-name="Path 1246815" d="M9,26.229h5.229V21H9Zm1.743-3.486h1.743v1.743H10.743Z" transform="translate(-2.028 -3.57)"/>
        <path id="Path_1246816" data-name="Path 1246816" d="M9,34.229h5.229V29H9Zm1.743-3.486h1.743v1.743H10.743Z" transform="translate(-2.028 -4.598)"/>
        <path id="Path_1246817" data-name="Path 1246817" d="M9,42.229h5.229V37H9Zm1.743-3.486h1.743v1.743H10.743Z" transform="translate(-2.028 -5.626)"/>
        <path id="Path_1246818" data-name="Path 1246818" d="M9,50.229h5.229V45H9Zm1.743-3.486h1.743v1.743H10.743Z" transform="translate(-2.028 -6.655)"/>
        <path id="Path_1246819" data-name="Path 1246819" d="M17,13H37.916v1.743H17Z" transform="translate(-3.056 -2.542)"/>
        <path id="Path_1246820" data-name="Path 1246820" d="M17,17H37.916v1.743H17Z" transform="translate(-3.056 -3.056)"/>
        <path id="Path_1246821" data-name="Path 1246821" d="M17,21H27.458v1.743H17Z" transform="translate(-3.056 -3.57)"/>
        <path id="Path_1246822" data-name="Path 1246822" d="M17,25H27.458v1.743H17Z" transform="translate(-3.056 -4.084)"/>
        <path id="Path_1246823" data-name="Path 1246823" d="M17,29h8.715v1.743H17Z" transform="translate(-3.056 -4.598)"/>
        <path id="Path_1246824" data-name="Path 1246824" d="M17,33h8.715v1.743H17Z" transform="translate(-3.056 -5.112)"/>
      </g>
    </g>
  </g>
</svg>
