<svg xmlns="http://www.w3.org/2000/svg" width="83" height="83" viewBox="0 0 83 83">
  <g id="Group_1208755" data-name="Group 1208755" transform="translate(-1090.051 -5969)">
    <g id="Group_1208732" data-name="Group 1208732" transform="translate(663 -2566)">
      <g id="Group_1208693" data-name="Group 1208693" transform="translate(89 5452)">
        <circle id="Ellipse_12656" data-name="Ellipse 12656" cx="41.5" cy="41.5" r="41.5" transform="translate(338.051 3083)" fill="#b7a8f1"/>
      </g>
    </g>
    <g id="_011---Completed-Task-List" data-name="011---Completed-Task-List" transform="translate(1105.051 5984.329)">
      <path id="Path" d="M36.156,25.873V7.882a1.763,1.763,0,0,0-.519-1.248L30.522,1.519A1.763,1.763,0,0,0,29.274,1H3.637A2.637,2.637,0,0,0,1,3.637V41.43a2.637,2.637,0,0,0,2.637,2.637H26.708Z" transform="translate(-0.121 -0.121)" fill="#d0d3da"/>
      <rect id="Rectangle" width="9" height="9" rx="2" transform="translate(5 6)" fill="#85c056"/>
      <rect id="Rectangle-2" data-name="Rectangle" width="9" height="9" rx="2" transform="translate(5 18)" fill="#85c056"/>
      <rect id="Rectangle-3" data-name="Rectangle" width="9" height="9" rx="2" transform="translate(5 31)" fill="#85c056"/>
      <circle id="Oval" cx="13.5" cy="13.5" r="13.5" transform="translate(25 25)" fill="#85c056"/>
      <path id="Path-2" data-name="Path" d="M39.994,7.174H36.637A2.637,2.637,0,0,1,34,4.537V1.18a1.773,1.773,0,0,1,.519.36l5.115,5.115A1.773,1.773,0,0,1,39.994,7.174Z" transform="translate(-4.117 -0.143)" fill="#8e95a0"/>
      <g id="Group_1208754" data-name="Group 1208754" transform="translate(0 0)">
        <path id="Shape" d="M38.672,24.609a13.975,13.975,0,0,0-1.758.122V7.761a2.637,2.637,0,0,0-.223-1.055c-.009-.021-.022-.039-.032-.058a2.646,2.646,0,0,0-.521-.757L31.025.776a2.646,2.646,0,0,0-.759-.521c-.019-.01-.037-.023-.058-.032A2.637,2.637,0,0,0,29.153,0H3.516A3.516,3.516,0,0,0,0,3.516V41.309a3.516,3.516,0,0,0,3.516,3.516H22.852a.879.879,0,1,0,0-1.758H3.516a1.758,1.758,0,0,1-1.758-1.758V3.516A1.758,1.758,0,0,1,3.516,1.758H29V4.395A3.516,3.516,0,0,0,32.519,7.91h2.637V25.073A14.055,14.055,0,1,0,47.109,49.922a.879.879,0,0,0-1.055-1.406,12.3,12.3,0,1,1,2.461-2.461.879.879,0,0,0,1.406,1.055,14.062,14.062,0,0,0-11.25-22.5ZM32.519,6.152a1.758,1.758,0,0,1-1.758-1.758V3l3.152,3.152Z" transform="translate(0 0)" fill="#373737"/>
        <path id="Shape-2" data-name="Shape" d="M17.926,5.258a.879.879,0,0,0-1.243,0L15.006,6.934a2.624,2.624,0,0,0-2.1-1.055H7.637A2.637,2.637,0,0,0,5,8.516v5.273a2.637,2.637,0,0,0,2.637,2.637H12.91a2.637,2.637,0,0,0,2.637-2.637V8.88L17.926,6.5a.879.879,0,0,0,0-1.243Zm-4.137,8.532a.879.879,0,0,1-.879.879H7.637a.879.879,0,0,1-.879-.879V8.516a.879.879,0,0,1,.879-.879H12.91a.874.874,0,0,1,.817.577l-2.575,2.575L10.016,9.652a.879.879,0,0,0-1.243,1.243l1.758,1.758a.879.879,0,0,0,1.243,0l2.015-2.015Z" transform="translate(-0.605 -0.606)" fill="#373737"/>
        <path id="Shape-3" data-name="Shape" d="M17.926,19.258a.879.879,0,0,0-1.243,0l-1.677,1.676a2.624,2.624,0,0,0-2.1-1.055H7.637A2.637,2.637,0,0,0,5,22.516v5.273a2.637,2.637,0,0,0,2.637,2.637H12.91a2.637,2.637,0,0,0,2.637-2.637V22.88L17.926,20.5a.879.879,0,0,0,0-1.243Zm-4.137,8.532a.879.879,0,0,1-.879.879H7.637a.879.879,0,0,1-.879-.879V22.516a.879.879,0,0,1,.879-.879H12.91a.874.874,0,0,1,.817.577l-2.575,2.575-1.136-1.136a.879.879,0,0,0-1.243,1.243l1.758,1.758a.879.879,0,0,0,1.243,0l2.015-2.015Z" transform="translate(-0.605 -2.301)" fill="#373737"/>
        <path id="Shape-4" data-name="Shape" d="M16.683,33.259l-1.677,1.676a2.624,2.624,0,0,0-2.1-1.055H7.637A2.637,2.637,0,0,0,5,36.517v5.273a2.637,2.637,0,0,0,2.637,2.637H12.91a2.637,2.637,0,0,0,2.637-2.637v-4.91L17.926,34.5a.879.879,0,0,0-1.243-1.243Zm-2.894,8.532a.879.879,0,0,1-.879.879H7.637a.879.879,0,0,1-.879-.879V36.517a.879.879,0,0,1,.879-.879H12.91a.874.874,0,0,1,.817.577L11.152,38.79l-1.136-1.136A.879.879,0,0,0,8.773,38.9l1.758,1.758a.879.879,0,0,0,1.243,0l2.015-2.015Z" transform="translate(-0.605 -3.998)" fill="#373737"/>
        <path id="Path-3" data-name="Path" d="M47.688,36.4l-7.32,11.388L38.5,45.926a.879.879,0,0,0-1.243,1.243L39.9,49.806a.879.879,0,0,0,.621.258.828.828,0,0,0,.093-.005.879.879,0,0,0,.646-.4l7.91-12.3a.879.879,0,0,0-1.478-.951Z" transform="translate(-4.482 -4.36)" fill="#373737"/>
        <path id="Path-4" data-name="Path" d="M22.879,9.758h6.152a.879.879,0,0,0,0-1.758H22.879a.879.879,0,0,0,0,1.758Z" transform="translate(-2.664 -0.969)" fill="#373737"/>
        <path id="Path-5" data-name="Path" d="M22.879,14.758h5.273a.879.879,0,1,0,0-1.758H22.879a.879.879,0,0,0,0,1.758Z" transform="translate(-2.664 -1.574)" fill="#373737"/>
        <path id="Path-6" data-name="Path" d="M22.879,23.758H34.3A.879.879,0,0,0,34.3,22H22.879a.879.879,0,1,0,0,1.758Z" transform="translate(-2.664 -2.664)" fill="#373737"/>
        <path id="Path-7" data-name="Path" d="M22.879,28.758h5.273a.879.879,0,1,0,0-1.758H22.879a.879.879,0,1,0,0,1.758Z" transform="translate(-2.664 -3.27)" fill="#373737"/>
        <path id="Path-8" data-name="Path" d="M26.395,36.879A.879.879,0,0,0,25.516,36H22.879a.879.879,0,1,0,0,1.758h2.637A.879.879,0,0,0,26.395,36.879Z" transform="translate(-2.664 -4.359)" fill="#373737"/>
        <path id="Path-9" data-name="Path" d="M22.879,41a.879.879,0,1,0,0,1.758h1.758a.879.879,0,1,0,0-1.758Z" transform="translate(-2.664 -4.965)" fill="#373737"/>
      </g>
    </g>
  </g>
</svg>
