<svg xmlns="http://www.w3.org/2000/svg" width="83" height="83" viewBox="0 0 83 83">
  <g id="Group_1208688" data-name="Group 1208688" transform="translate(-740.051 -3083)">
    <circle id="Ellipse_12657" data-name="Ellipse 12657" cx="41.5" cy="41.5" r="41.5" transform="translate(740.051 3083)" fill="#b7a8f1"/>
    <g id="metodo-de-pago" transform="translate(745.051 3081)">
      <g id="Group_1208682" data-name="Group 1208682" transform="translate(8.918 16.918)">
        <path id="Path_1246835" data-name="Path 1246835" d="M120,24h38.549V46.028H120Z" transform="translate(-108.068 -24)" fill="#4e901e"/>
        <path id="Path_1246836" data-name="Path 1246836" d="M177.042,52.589v7.343a4.589,4.589,0,0,0-4.589,4.589H148.589A4.589,4.589,0,0,0,144,59.932V52.589A4.589,4.589,0,0,0,148.589,48h23.863A4.589,4.589,0,0,0,177.042,52.589Z" transform="translate(-129.315 -45.247)" fill="#91cc04"/>
        <circle id="Ellipse_12653" data-name="Ellipse 12653" cx="4.589" cy="4.589" r="4.589" transform="translate(26.617 6.425)" fill="#ffda44"/>
        <path id="Path_1246837" data-name="Path 1246837" d="M103.035,335.455l3.7,1.164,8.761,2.736-2.736,8.761-1.91-.6a1.835,1.835,0,0,0-1.387.12l-7.971,4.1a1.837,1.837,0,0,1-1.383.117l-19.326-6.035a1.836,1.836,0,0,1-1.2-2.3l.547-1.752a1.836,1.836,0,0,1,2.3-1.2l8.675,2.709a1.837,1.837,0,0,1,.911-2.14l9.554-5.519A1.831,1.831,0,0,1,103.035,335.455Z" transform="translate(-72.212 -299.648)" fill="#ffdaaa"/>
        <path id="Path_1246838" data-name="Path 1246838" d="M0,0H3.671V12.85H0Z" transform="translate(43.853 37.966) rotate(17.33)" fill="#787680"/>
        <rect id="Rectangle_411144" data-name="Rectangle 411144" width="23.863" height="16.521" rx="8.26" transform="translate(0 15.603)" fill="#91cc04"/>
        <path id="Path_1246839" data-name="Path 1246839" d="M16,192H39.863v3.671H16Z" transform="translate(-16 -172.726)" fill="#3e3d42"/>
        <circle id="Ellipse_12654" data-name="Ellipse 12654" cx="9.178" cy="9.178" r="9.178" transform="translate(36.713 17.439)" fill="#ffda44"/>
      </g>
      <g id="Group_1208683" data-name="Group 1208683" transform="translate(8 16)">
        <path id="Path_1246840" data-name="Path 1246840" d="M113.273,331.186a.918.918,0,0,0-.54-.45l-3.5-1.095a.918.918,0,0,0-1.15.6l-.275.88-7.88-2.461-3.7-1.163a2.751,2.751,0,0,0-2.2.242l-9.54,5.51a2.765,2.765,0,0,0-1.358,1.7l-7.509-2.344a2.753,2.753,0,0,0-3.449,1.807l-.547,1.752a2.754,2.754,0,0,0,1.807,3.45l19.326,6.035a2.74,2.74,0,0,0,2.077-.178l7.971-4.1a.925.925,0,0,1,.693-.06l1.03.322-.273.872a.919.919,0,0,0,.6,1.15l3.5,1.095a.919.919,0,0,0,1.15-.6l3.831-12.266a.922.922,0,0,0-.063-.7Zm-9.234,8.377a2.735,2.735,0,0,0-2.081.18l-7.967,4.1a.916.916,0,0,1-.693.059l-19.326-6.035a.918.918,0,0,1-.6-1.15l.547-1.752a.915.915,0,0,1,1.15-.6l8.264,2.58a.116.116,0,0,1,.008.017l.852,1.625a2.754,2.754,0,0,0,3.717,1.161l7.316-3.834a.918.918,0,0,0-.852-1.626l-7.316,3.834a.92.92,0,0,1-1.239-.387l-.851-1.626a.958.958,0,0,1-.07-.171.919.919,0,0,1,.457-1.068l.033-.018,9.555-5.52a.916.916,0,0,1,.733-.08l3.7,1.164,7.881,2.461-2.188,7.009Zm3.988,3.164-1.752-.547.248-.8c.01-.025.021-.049.029-.076l2.735-8.761c.008-.026.015-.053.021-.078l.251-.8,1.752.547Z" transform="translate(-64.207 -291.65)"/>
        <path id="Path_1246841" data-name="Path 1246841" d="M245.507,72a5.507,5.507,0,1,0,5.507,5.507A5.507,5.507,0,0,0,245.507,72Zm0,9.178a3.671,3.671,0,1,1,3.671-3.671,3.671,3.671,0,0,1-3.671,3.671Z" transform="translate(-213.383 -65.575)"/>
        <path id="Path_1246842" data-name="Path 1246842" d="M386.753,210.753h3.671a.918.918,0,1,0,0-1.836h-1.836a.918.918,0,0,0-1.836,0,2.753,2.753,0,0,0,0,5.507h1.721a1.019,1.019,0,0,1,1.033.918.919.919,0,0,1-.918.918h-3.671a.918.918,0,1,0,0,1.836h1.836a.918.918,0,0,0,1.836,0,2.757,2.757,0,0,0,2.753-2.753,2.85,2.85,0,0,0-2.868-2.753h-1.721a.918.918,0,0,1,0-1.836Z" transform="translate(-340.862 -185.972)"/>
        <path id="Path_1246843" data-name="Path 1246843" d="M60.316,35.077V16.918A.918.918,0,0,0,59.4,16H20.85a.918.918,0,0,0-.918.918V31.6H10.753A2.757,2.757,0,0,0,8,34.356v12.85a2.757,2.757,0,0,0,2.753,2.753H30.946A2.757,2.757,0,0,0,33.7,47.206V39.863H45.4a10.1,10.1,0,1,0,14.912-4.786ZM21.767,17.836H58.48V34.129a10.062,10.062,0,0,0-3.671-.691c-.205,0-.41.007-.612.02a3.67,3.67,0,0,1,2.447-.937.918.918,0,0,0,.918-.918V24.26a.918.918,0,0,0-.918-.918,3.676,3.676,0,0,1-3.671-3.671.918.918,0,0,0-.918-.918H28.192a.918.918,0,0,0-.918.918A3.676,3.676,0,0,1,23.6,23.343a.918.918,0,0,0-.918.918V31.6h-.918Zm10.1,29.37a.919.919,0,0,1-.918.918H10.753a.919.919,0,0,1-.918-.918V40.781H31.863Zm0-8.26H9.836V37.11H31.863Zm0-3.671H9.836v-.918a.919.919,0,0,1,.918-.918H30.946a.919.919,0,0,1,.918.918ZM30.946,31.6h-4.3a5.446,5.446,0,0,0-2.126-.842V25.1a5.52,5.52,0,0,0,4.512-4.512H51.215A5.52,5.52,0,0,0,55.727,25.1v5.661a5.507,5.507,0,0,0-4.114,3.2,10.078,10.078,0,0,0-2.6,1.317H33.7v-.918A2.757,2.757,0,0,0,30.946,31.6ZM33.7,38.028V37.11H47.027a10.211,10.211,0,0,0-.676.918ZM54.809,51.8a8.26,8.26,0,1,1,8.26-8.26A8.26,8.26,0,0,1,54.809,51.8Z" transform="translate(-8 -16)"/>
      </g>
    </g>
  </g>
</svg>
