<svg xmlns="http://www.w3.org/2000/svg" width="83" height="83" viewBox="0 0 83 83">
  <g id="Group_1208800" data-name="Group 1208800" transform="translate(-759 -7649)">
    <g id="Group_1208794" data-name="Group 1208794" transform="translate(157.949 -1036)">
      <g id="Group_1208734" data-name="Group 1208734" transform="translate(174 150)">
        <g id="Group_1208693" data-name="Group 1208693" transform="translate(89 5452)">
          <circle id="Ellipse_12656" data-name="Ellipse 12656" cx="41.5" cy="41.5" r="41.5" transform="translate(338.051 3083)" fill="#b7a8f1"/>
        </g>
      </g>
    </g>
    <g id="expediente" transform="translate(774.908 7665)">
      <g id="Group_1208798" data-name="Group 1208798" transform="translate(0.843 0.751)">
        <g id="Group_1208797" data-name="Group 1208797" transform="translate(8.964)">
          <path id="Path_1247217" data-name="Path 1247217" d="M137.873,26.61V53.292a3.994,3.994,0,0,1-3.994,3.995H101.062a4,4,0,0,1-3.885-3.063l-.016-2.284-.093-13.6V11.5A3.994,3.994,0,0,1,101.062,7.5h17.7c1.591,0,6.743,4.393,11.3,9.019C134.215,20.741,137.873,25.158,137.873,26.61Z" transform="translate(-97.068 -7.5)" fill="#ddeafb"/>
          <path id="Path_1247218" data-name="Path 1247218" d="M385.253,107.622V117.4c0-.011,0-.022,0-.034-.3-11.993-10.07-12.548-13.264-15.743l5.452-4.089C381.595,101.752,385.253,106.169,385.253,107.622Z" transform="translate(-344.448 -88.511)" fill="#cbe2ff"/>
          <path id="Path_1247219" data-name="Path 1247219" d="M225.837,7.5H216.1c11.993.3,12.548,10.07,15.743,13.264l4.089-5.452C231.706,11.158,227.29,7.5,225.837,7.5Z" transform="translate(-204.143 -7.5)" fill="#cbe2ff"/>
          <path id="Path_1247220" data-name="Path 1247220" d="M317.564,26.611V28.3a6.443,6.443,0,0,0-6.442-6.442H307.2a4,4,0,0,1-3.995-3.995V13.942A6.443,6.443,0,0,0,296.763,7.5h1.69a11.475,11.475,0,0,1,8.113,3.36L314.2,18.5A11.474,11.474,0,0,1,317.564,26.611Z" transform="translate(-276.759 -7.5)" fill="#bed8fb"/>
        </g>
        <path id="Path_1247221" data-name="Path 1247221" d="M39.23,289.175a17.446,17.446,0,0,1-31.641,0,17.453,17.453,0,0,1,24-8.058v0A17.506,17.506,0,0,1,39.23,289.175Z" transform="translate(-7.589 -251.876)" fill="#ddeafb"/>
        <path id="Path_1247222" data-name="Path 1247222" d="M89.445,285.558a9.4,9.4,0,1,1-17.768-4.282,17.467,17.467,0,0,1,16.657-.159v0a9.354,9.354,0,0,1,1.112,4.439Z" transform="translate(-64.33 -251.876)" fill="#80b4fb"/>
        <circle id="Ellipse_12683" data-name="Ellipse 12683" cx="4.63" cy="4.63" r="4.63" transform="translate(11.086 29.051)" fill="#475959"/>
      </g>
      <g id="Group_1208799" data-name="Group 1208799" transform="translate(0.092 0)">
        <path id="Path_1247223" data-name="Path 1247223" d="M51.363,19.862a12.144,12.144,0,0,0-3.58-8.644L40.145,3.58A12.144,12.144,0,0,0,31.5,0H13.8A4.751,4.751,0,0,0,9.054,4.746V28.872c-.417.192-.828.4-1.23.622A18.381,18.381,0,0,0,.162,37.734a.751.751,0,0,0,0,.634,18.185,18.185,0,0,0,2.62,4.092.751.751,0,0,0,1.146-.972,16.7,16.7,0,0,1-2.252-3.437A16.887,16.887,0,0,1,6.7,32.014a10.15,10.15,0,1,0,19.666-.192,16.835,16.835,0,0,1,5.283,6.228,16.689,16.689,0,0,1-14.987,9.341A16.508,16.508,0,0,1,6.23,43.728.751.751,0,1,0,5.29,44.9a18.108,18.108,0,0,0,3.9,2.385,4.354,4.354,0,0,0,.957,2.287A4.734,4.734,0,0,0,13.8,51.29H46.617a4.751,4.751,0,0,0,4.745-4.746ZM39.083,4.643,46.72,12.28a10.674,10.674,0,0,1,2.625,4.28,7.173,7.173,0,0,0-5.176-2.2H40.248A3.247,3.247,0,0,1,37,11.115V7.194a7.173,7.173,0,0,0-2.2-5.176,10.673,10.673,0,0,1,4.28,2.625ZM16.559,43.079a8.657,8.657,0,0,1-8.648-8.646A8.557,8.557,0,0,1,8.757,30.7a16.7,16.7,0,0,1,15.532-.148,8.65,8.65,0,0,1-7.73,12.528Zm30.058,6.708H13.8a3.235,3.235,0,0,1-2.5-1.174,2.7,2.7,0,0,1-.4-.658,18.187,18.187,0,0,0,22.261-9.587.751.751,0,0,0,0-.634,18.334,18.334,0,0,0-7.933-8.386l-.033-.019A18.212,18.212,0,0,0,10.557,28.26V4.746A3.247,3.247,0,0,1,13.8,1.5H29.811A5.7,5.7,0,0,1,35.5,7.194v3.921a4.751,4.751,0,0,0,4.746,4.746h3.921a5.7,5.7,0,0,1,5.69,5.654V46.543a3.247,3.247,0,0,1-3.243,3.244Z" transform="translate(-0.092 0)"/>
        <path id="Path_1247224" data-name="Path 1247224" d="M388.906,225.5h-4.612a.751.751,0,1,0,0,1.5h4.612a.751.751,0,0,0,0-1.5Z" transform="translate(-345.131 -202.911)"/>
        <path id="Path_1247225" data-name="Path 1247225" d="M177.747,226.251A.751.751,0,0,0,177,225.5H157.644a.751.751,0,1,0,0,1.5H177A.751.751,0,0,0,177.747,226.251Z" transform="translate(-141.185 -202.911)"/>
        <path id="Path_1247226" data-name="Path 1247226" d="M267.321,265.395H249.173a.751.751,0,1,0,0,1.5h18.147a.751.751,0,0,0,0-1.5Z" transform="translate(-223.546 -238.809)"/>
        <path id="Path_1247227" data-name="Path 1247227" d="M315.2,305.29H302.379a.751.751,0,1,0,0,1.5H315.2a.751.751,0,1,0,0-1.5Z" transform="translate(-271.422 -274.708)"/>
        <path id="Path_1247228" data-name="Path 1247228" d="M337.453,345.185H334.1a.751.751,0,0,0,0,1.5h3.352a.751.751,0,0,0,0-1.5Z" transform="translate(-299.966 -310.606)"/>
        <path id="Path_1247229" data-name="Path 1247229" d="M157.642,116.349h10.035a.751.751,0,0,0,0-1.5H157.642a.751.751,0,1,0,0,1.5Z" transform="translate(-141.184 -103.341)"/>
        <path id="Path_1247230" data-name="Path 1247230" d="M116.137,290a5.381,5.381,0,1,0,5.381,5.381A5.387,5.387,0,0,0,116.137,290Zm0,9.26a3.879,3.879,0,1,1,3.879-3.879A3.883,3.883,0,0,1,116.137,299.259Z" transform="translate(-99.67 -260.948)"/>
      </g>
    </g>
  </g>
</svg>
