<svg xmlns="http://www.w3.org/2000/svg" width="83" height="83" viewBox="0 0 83 83">
  <g id="Group_1208775" data-name="Group 1208775" transform="translate(-2616 5604)">
    <g id="Group_1208735" data-name="Group 1208735" transform="translate(2188.949 -14139)">
      <g id="Group_1208693" data-name="Group 1208693" transform="translate(89 5452)">
        <circle id="Ellipse_12656" data-name="Ellipse 12656" cx="41.5" cy="41.5" r="41.5" transform="translate(338.051 3083)" fill="#b7a8f1"/>
      </g>
    </g>
    <g id="fallas" transform="translate(2631.217 -5586.565)">
      <g id="Group_1208767" data-name="Group 1208767" transform="translate(32.244 26.283)">
        <g id="Group_1208760" data-name="Group 1208760" transform="translate(14.783 19.433)">
          <path id="Path_1247037" data-name="Path 1247037" d="M458.051,445.278h4.769v6.08h-4.769Z" transform="translate(-458.051 -445.278)" fill="#ffcbbe"/>
        </g>
        <g id="Group_1208761" data-name="Group 1208761" transform="translate(0 19.433)">
          <path id="Path_1247038" data-name="Path 1247038" d="M314.061,445.278h4.769v6.08h-4.769Z" transform="translate(-314.061 -445.278)" fill="#ffddce"/>
        </g>
        <g id="Group_1208762" data-name="Group 1208762" transform="translate(0 10.014)">
          <path id="Path_1247039" data-name="Path 1247039" d="M328.843,353.542H318.829a4.769,4.769,0,0,0-4.769,4.769v4.65h4.769v6.08h10.014v-6.08h4.769v-4.65A4.769,4.769,0,0,0,328.843,353.542Z" transform="translate(-314.06 -353.542)" fill="#df75a5"/>
        </g>
        <g id="Group_1208763" data-name="Group 1208763" transform="translate(4.769 10.014)">
          <path id="Path_1247040" data-name="Path 1247040" d="M360.509,365.941v3.1h10.014v-6.08h4.769v-4.65a4.769,4.769,0,0,0-4.769-4.769S370.285,362.483,360.509,365.941Z" transform="translate(-360.509 -353.542)" fill="#dd5790"/>
        </g>
        <g id="Group_1208766" data-name="Group 1208766" transform="translate(4.769)">
          <g id="Group_1208764" data-name="Group 1208764">
            <circle id="Ellipse_12680" data-name="Ellipse 12680" cx="5.007" cy="5.007" r="5.007" fill="#ffddce"/>
          </g>
          <g id="Group_1208765" data-name="Group 1208765" transform="translate(0.577 0.577)">
            <path id="Path_1247041" data-name="Path 1247041" d="M372.891,261.618a5.007,5.007,0,0,1-6.763,6.763,5.007,5.007,0,1,0,6.763-6.763Z" transform="translate(-366.128 -261.618)" fill="#ffcbbe"/>
          </g>
        </g>
      </g>
      <g id="Group_1208770" data-name="Group 1208770" transform="translate(0.77 0.77)">
        <g id="Group_1208768" data-name="Group 1208768" transform="translate(0 0)">
          <path id="Path_1247042" data-name="Path 1247042" d="M44.836,9.574V29.279a2.074,2.074,0,0,1-2.074,2.074H38.613v6.637l-6.637-6.637H9.574A2.074,2.074,0,0,1,7.5,29.279V9.574A2.074,2.074,0,0,1,9.574,7.5H42.762a2.074,2.074,0,0,1,2.074,2.074Z" transform="translate(-7.5 -7.5)" fill="#b3e59f"/>
        </g>
        <g id="Group_1208769" data-name="Group 1208769" transform="translate(19.015)">
          <path id="Path_1247043" data-name="Path 1247043" d="M208.959,7.5h-2c-.432,6.148-3.669,13.275-9.345,19.376a40.4,40.4,0,0,1-4.9,4.477h5.46l6.637,6.637V31.354h4.148a2.074,2.074,0,0,0,2.074-2.074V9.574A2.074,2.074,0,0,0,208.959,7.5Z" transform="translate(-192.713 -7.5)" fill="#95d6a4"/>
        </g>
      </g>
      <g id="Group_1208773" data-name="Group 1208773" transform="translate(9.585 5.23)">
        <g id="Group_1208772" data-name="Group 1208772">
          <g id="Group_1208771" data-name="Group 1208771">
            <path id="Path_1247044" data-name="Path 1247044" d="M100.624,65.872a2.481,2.481,0,0,1-1.76-.729l-4.771-4.771a2.489,2.489,0,0,1,3.52-3.52l3.011,3.011,8.2-8.2a2.489,2.489,0,0,1,3.52,3.52l-9.956,9.956a2.481,2.481,0,0,1-1.76.729Z" transform="translate(-93.364 -50.938)" fill="#ecf4ff"/>
          </g>
        </g>
      </g>
      <g id="Group_1208774" data-name="Group 1208774" transform="translate(0 0)">
        <path id="Path_1247045" data-name="Path 1247045" d="M322.113,258.514h-1.085a5.777,5.777,0,1,0-7.844,0H312.1a5.516,5.516,0,0,0-5.464,4.629.77.77,0,1,0,1.519.251,3.981,3.981,0,0,1,3.944-3.34h10.014a4,4,0,0,1,4,4v3.88h-3.229v-1.615a.77.77,0,1,0-1.54,0v7.695h-8.474v-7.695a.77.77,0,1,0-1.54,0v1.615H308.1v-1.072a.77.77,0,0,0-1.54,0v7.922a.77.77,0,0,0,.77.77h19.552a.77.77,0,0,0,.77-.77v-10.73a5.545,5.545,0,0,0-5.539-5.539Zm-9.244-4.237a4.237,4.237,0,1,1,4.245,4.237A4.242,4.242,0,0,1,312.869,254.277Zm-4.769,15.2h3.229v4.54H308.1Zm14.783,4.54v-4.54h3.229v4.54Z" transform="translate(-275.086 -222.987)"/>
        <path id="Path_1247046" data-name="Path 1247046" d="M.77,18.583a.77.77,0,0,0,.77-.77V2.844a1.305,1.305,0,0,1,1.3-1.3H36.032a1.305,1.305,0,0,1,1.3,1.3V4.422a.77.77,0,0,0,1.54,0V2.844A2.847,2.847,0,0,0,36.032,0H2.844A2.847,2.847,0,0,0,0,2.844V17.813a.77.77,0,0,0,.77.77Z" transform="translate(0 0)"/>
        <path id="Path_1247047" data-name="Path 1247047" d="M32.178,95.3a.77.77,0,0,0,.475-.711V88.719h3.379a2.848,2.848,0,0,0,2.844-2.845V71.34a.77.77,0,0,0-1.54,0V85.874a1.306,1.306,0,0,1-1.3,1.3H31.883a.77.77,0,0,0-.77.77v4.779L25.79,87.4a.77.77,0,0,0-.544-.225H2.844a1.306,1.306,0,0,1-1.3-1.3V84.731a.77.77,0,1,0-1.54,0v1.143a2.848,2.848,0,0,0,2.844,2.845H24.927l6.412,6.412a.77.77,0,0,0,.839.167Z" transform="translate(0 -63.325)"/>
        <path id="Path_1247048" data-name="Path 1247048" d="M101.558,44.391l-7.652,7.652L91.44,49.576a3.259,3.259,0,0,0-4.609,4.609L91.6,58.956a3.259,3.259,0,0,0,4.609,0L106.167,49a3.259,3.259,0,1,0-4.609-4.609Zm3.52,3.52-9.956,9.956a1.719,1.719,0,0,1-2.431,0L87.92,53.1a1.719,1.719,0,0,1,2.431-2.431l3.011,3.011a.77.77,0,0,0,1.089,0l8.2-8.2a1.719,1.719,0,0,1,2.431,2.431Z" transform="translate(-77.061 -38.977)"/>
      </g>
    </g>
  </g>
</svg>
