<svg xmlns="http://www.w3.org/2000/svg" width="83" height="83" viewBox="0 0 83 83">
  <g id="Group_1208779" data-name="Group 1208779" transform="translate(-2270 5230)">
    <g id="Group_1208737" data-name="Group 1208737" transform="translate(1842.949 -13765)">
      <g id="Group_1208693" data-name="Group 1208693" transform="translate(89 5452)">
        <circle id="Ellipse_12656" data-name="Ellipse 12656" cx="41.5" cy="41.5" r="41.5" transform="translate(338.051 3083)" fill="#b7a8f1"/>
      </g>
    </g>
    <g id="papel" transform="translate(2272 -5215)">
      <path id="Path_1247066" data-name="Path 1247066" d="M56.623,4H26.828A.817.817,0,0,0,26,4.8V52.855a.817.817,0,0,0,.828.8H47.519V45.34A2.4,2.4,0,0,1,49.877,42.9H57.45V4.8a.817.817,0,0,0-.828-.8ZM51.657,22H50a.828.828,0,0,1,0-1.655h1.655a.828.828,0,0,1,0,1.655Z" transform="translate(-2.345 -2.345)" fill="#e1ebf4"/>
      <path id="Path_1247067" data-name="Path 1247067" d="M54.278,0H24.483A2.474,2.474,0,0,0,22,2.458V50.511a2.474,2.474,0,0,0,2.483,2.458H45.621a.817.817,0,0,0,.588-.248L56.521,42.272a.824.824,0,0,0,.24-.579V2.458A2.474,2.474,0,0,0,54.278,0ZM46.829,49.737V43a.748.748,0,0,1,.7-.786h6.725Zm8.276-9.183H47.533A2.4,2.4,0,0,0,45.174,43v8.318H24.483a.817.817,0,0,1-.828-.8V2.458a.817.817,0,0,1,.828-.8H54.278a.817.817,0,0,1,.828.8Z" fill="#2d4356"/>
      <path id="Path_1247068" data-name="Path 1247068" d="M89.427,102,82,109.527v-6.741a.748.748,0,0,1,.7-.786Z" transform="translate(-35.169 -59.791)" fill="#81d9e3"/>
      <g id="Group_1208778" data-name="Group 1208778" transform="translate(26.138 5.793)">
        <path id="Path_1247069" data-name="Path 1247069" d="M32.828,83.655H57.657a.828.828,0,0,0,0-1.655H32.828a.828.828,0,0,0,0,1.655Z" transform="translate(-32 -53.86)" fill="#2d4356"/>
        <path id="Path_1247070" data-name="Path 1247070" d="M32.828,91.655H57.657a.828.828,0,0,0,0-1.655H32.828a.828.828,0,0,0,0,1.655Z" transform="translate(-32 -58.55)" fill="#2d4356"/>
        <path id="Path_1247071" data-name="Path 1247071" d="M32.828,67.655H57.657a.828.828,0,0,0,0-1.655H32.828a.828.828,0,0,0,0,1.655Z" transform="translate(-32 -44.481)" fill="#2d4356"/>
        <path id="Path_1247072" data-name="Path 1247072" d="M32.828,75.655H57.657a.828.828,0,0,0,0-1.655H32.828a.828.828,0,0,0,0,1.655Z" transform="translate(-32 -49.171)" fill="#2d4356"/>
        <path id="Path_1247073" data-name="Path 1247073" d="M32.828,99.655H46.484a.828.828,0,0,0,0-1.655H32.828a.828.828,0,0,0,0,1.655Z" transform="translate(-32 -63.239)" fill="#2d4356"/>
        <path id="Path_1247074" data-name="Path 1247074" d="M55.793,33.449a5.8,5.8,0,0,0,5.793-5.793v-9.1a4.138,4.138,0,0,0-8.276,0v8.69a2.483,2.483,0,0,0,4.966,0V21.449a.828.828,0,0,0-1.655,0v5.793a.828.828,0,0,1-1.655,0v-8.69a2.483,2.483,0,0,1,4.966,0v9.1a4.138,4.138,0,0,1-8.276,0V14.828a.828.828,0,0,0-1.655,0V27.656a5.8,5.8,0,0,0,5.793,5.793Z" transform="translate(-42.551 -14)" fill="#2d4356"/>
        <path id="Path_1247075" data-name="Path 1247075" d="M82.828,37.155h3.311a.828.828,0,0,0,0-1.655H82.828a.828.828,0,0,0,0,1.655Z" transform="translate(-61.309 -26.603)" fill="#2d4356"/>
        <path id="Path_1247076" data-name="Path 1247076" d="M85.311,44.328a.83.83,0,0,1-.828.828H82.828a.828.828,0,0,1,0-1.655h1.655A.83.83,0,0,1,85.311,44.328Z" transform="translate(-61.309 -31.292)" fill="#2d4356"/>
        <path id="Path_1247077" data-name="Path 1247077" d="M82.828,29.155h1.655a.828.828,0,0,0,0-1.655H82.828a.828.828,0,0,0,0,1.655Z" transform="translate(-61.309 -21.913)" fill="#2d4356"/>
        <path id="Path_1247078" data-name="Path 1247078" d="M34.828,37.155h3.311a.828.828,0,0,0,0-1.655H34.828a.828.828,0,0,0,0,1.655Z" transform="translate(-33.172 -26.603)" fill="#2d4356"/>
        <path id="Path_1247079" data-name="Path 1247079" d="M38.828,29.155h1.655a.828.828,0,0,0,0-1.655H38.828a.828.828,0,0,0,0,1.655Z" transform="translate(-35.517 -21.913)" fill="#2d4356"/>
        <path id="Path_1247080" data-name="Path 1247080" d="M40.483,43.5H38.828a.828.828,0,0,0,0,1.655h1.655a.828.828,0,0,0,0-1.655Z" transform="translate(-35.517 -31.292)" fill="#2d4356"/>
      </g>
      <path id="Path_1247081" data-name="Path 1247081" d="M57.45,4.8V5.63a.817.817,0,0,0-.828-.8H26.828a.817.817,0,0,0-.828.8V4.8a.817.817,0,0,1,.828-.8H56.623A.817.817,0,0,1,57.45,4.8Z" transform="translate(-2.345 -2.345)" fill="#fff" opacity="0.5"/>
      <path id="Path_1247082" data-name="Path 1247082" d="M89.427,102l-.815.828H82.7a.748.748,0,0,0-.7.786v-.828a.748.748,0,0,1,.7-.786Z" transform="translate(-35.169 -59.791)" fill="#e8fbfc" opacity="0.4"/>
      <path id="Path_1247083" data-name="Path 1247083" d="M47.519,120.863v.828H26.828a.817.817,0,0,1-.828-.8v-.828a.817.817,0,0,0,.828.8Z" transform="translate(-2.345 -70.377)" fill="#9fa5aa" opacity="0.5"/>
    </g>
  </g>
</svg>
