<svg xmlns="http://www.w3.org/2000/svg" width="83" height="83" viewBox="0 0 83 83">
  <g id="Group_1208851" data-name="Group 1208851" transform="translate(-1179 -10961)">
    <g id="Group_1208847" data-name="Group 1208847" transform="translate(420)">
      <g id="Group_1208830" data-name="Group 1208830" transform="translate(420 3312)">
        <g id="Group_1208793" data-name="Group 1208793" transform="translate(-262.051 -1036)">
          <g id="Group_1208734" data-name="Group 1208734" transform="translate(174 150)">
            <g id="Group_1208693" data-name="Group 1208693" transform="translate(89 5452)">
              <circle id="Ellipse_12656" data-name="Ellipse 12656" cx="41.5" cy="41.5" r="41.5" transform="translate(338.051 3083)" fill="#b7a8f1"/>
            </g>
          </g>
        </g>
      </g>
    </g>
    <g id="expediente_1_" data-name="expediente (1)" transform="translate(1164.736 10975)">
      <g id="Group_1208849" data-name="Group 1208849" transform="translate(32.083 0.818)">
        <path id="Path_1247297" data-name="Path 1247297" d="M43.119,58.6a4.361,4.361,0,0,1-4.355-4.367V11.868A4.361,4.361,0,0,1,43.119,7.5H61.757a3.262,3.262,0,0,1,2.312.962l12.39,12.451a3.28,3.28,0,0,1,.954,2.314V53.465A5.131,5.131,0,0,1,72.281,58.6Z" transform="translate(-38.764 -7.5)" fill="#f9f8f9"/>
        <path id="Path_1247298" data-name="Path 1247298" d="M46.4,58.591H43.12a4.361,4.361,0,0,1-4.355-4.367V11.863A4.361,4.361,0,0,1,43.12,7.5H46.4a4.361,4.361,0,0,0-4.355,4.367V54.224A4.361,4.361,0,0,0,46.4,58.591Z" transform="translate(-38.765 -7.496)" fill="#e3e0e4"/>
        <g id="Group_1208848" data-name="Group 1208848" transform="translate(5.186 14.737)">
          <path id="Path_1247299" data-name="Path 1247299" d="M102.572,144.119h-13.5a.819.819,0,1,1,0-1.638h13.5a.819.819,0,1,1,0,1.638Z" transform="translate(-88.04 -142.481)" fill="#a29aa5"/>
          <path id="Path_1247300" data-name="Path 1247300" d="M108.031,324.16H89.077a.819.819,0,1,1,0-1.638h18.954a.819.819,0,1,1,0,1.638Z" transform="translate(-88.04 -302.866)" fill="#a29aa5"/>
          <path id="Path_1247301" data-name="Path 1247301" d="M111.517,204.133H87.079a.819.819,0,1,1,0-1.638h24.438a.819.819,0,0,1,0,1.638Z" transform="translate(-86.26 -195.943)" fill="#a29aa5"/>
          <path id="Path_1247302" data-name="Path 1247302" d="M111.521,264.147H87.079a.819.819,0,1,1,0-1.638h24.442a.819.819,0,1,1,0,1.638Z" transform="translate(-86.26 -249.405)" fill="#a29aa5"/>
        </g>
        <path id="Path_1247303" data-name="Path 1247303" d="M236.272,317.164a2.947,2.947,0,0,0-.868-1.941l-7.893-7.847a2.99,2.99,0,0,0-4.212,0,2.948,2.948,0,0,0,0,4.187l2.809,2.792H210.214a2.961,2.961,0,1,0,0,5.923h15.894L223.3,323.07a2.948,2.948,0,0,0,0,4.187,2.989,2.989,0,0,0,4.212,0l7.893-7.847A2.951,2.951,0,0,0,236.272,317.164Z" transform="translate(-188.842 -273.863)" fill="#80e29e"/>
        <path id="Path_1247304" data-name="Path 1247304" d="M226.1,314.4h1.964a.546.546,0,0,0,.385-.933l-2.735-2.72a3.392,3.392,0,0,1-.5-4.181,2.96,2.96,0,0,0-1.913,5.048Zm-2.8,8.721a2.96,2.96,0,0,0,1.913,5.048,3.392,3.392,0,0,1,.5-4.182l2.613-2.736a.546.546,0,0,0-.395-.923h-1.825Zm-11.609-8.715h-1.476a2.961,2.961,0,1,0,0,5.922h1.476a3.4,3.4,0,0,1,0-5.922Z" transform="translate(-188.842 -273.914)" fill="#77d192"/>
        <path id="Path_1247305" data-name="Path 1247305" d="M249.441,23.223v1.918H238.1a6.237,6.237,0,0,1-6.225-6.235V7.5h1.91a3.263,3.263,0,0,1,2.312.962L248.486,20.91A3.28,3.28,0,0,1,249.441,23.223Z" transform="translate(-210.792 -7.496)" fill="#e3e0e4"/>
        <path id="Path_1247306" data-name="Path 1247306" d="M275.871,24.325H264.825a2.955,2.955,0,0,1-2.95-2.96V10.256a3.267,3.267,0,0,1,.947.661l12.389,12.452A3.23,3.23,0,0,1,275.871,24.325Z" transform="translate(-237.516 -9.955)" fill="#a29aa5"/>
      </g>
      <g id="Group_1208850" data-name="Group 1208850" transform="translate(31.264 0)">
        <path id="Path_1247307" data-name="Path 1247307" d="M43.143,267.677h-6.7a3.546,3.546,0,0,1-3.536-3.548V243.945a.819.819,0,0,0-1.638,0v20.184a5.186,5.186,0,0,0,5.174,5.186h6.7a.819.819,0,1,0,0-1.638Z" transform="translate(-31.264 -216.582)"/>
        <path id="Path_1247308" data-name="Path 1247308" d="M89.077,144.119h13.5a.819.819,0,1,0,0-1.638h-13.5a.819.819,0,1,0,0,1.638Z" transform="translate(-82.036 -126.925)"/>
        <path id="Path_1247309" data-name="Path 1247309" d="M89.077,322.522a.819.819,0,1,0,0,1.638h18.954a.819.819,0,1,0,0-1.638Z" transform="translate(-82.036 -287.31)"/>
        <path id="Path_1247310" data-name="Path 1247310" d="M87.079,204.133h24.438a.819.819,0,0,0,0-1.638H87.079a.819.819,0,1,0,0,1.638Z" transform="translate(-80.256 -180.387)"/>
        <path id="Path_1247311" data-name="Path 1247311" d="M87.079,264.147h24.442a.819.819,0,1,0,0-1.638H87.079a.819.819,0,1,0,0,1.638Z" transform="translate(-80.256 -233.849)"/>
        <path id="Path_1247312" data-name="Path 1247312" d="M80.331,44.08A3.776,3.776,0,0,0,79.222,41.6l-7.671-7.627V16.546a4.073,4.073,0,0,0-1.193-2.891L57.968,1.2A4.108,4.108,0,0,0,55.076,0H36.438a5.186,5.186,0,0,0-5.174,5.186V23.542a.819.819,0,0,0,1.638,0V5.186a3.546,3.546,0,0,1,3.536-3.548H55.076a2.452,2.452,0,0,1,.547.064V6.309a.819.819,0,0,0,1.638,0v-3.5l11.5,11.557H59.391a2.139,2.139,0,0,1-2.131-2.141v-2.1a.819.819,0,0,0-1.638,0v2.1a3.778,3.778,0,0,0,3.769,3.779H69.852a2.485,2.485,0,0,1,.061.538V32.863A3.783,3.783,0,0,0,65.962,39.1l1.4,1.393H62.529a.819.819,0,0,0,0,1.638h6.819a.819.819,0,0,0,.577-1.4l-2.809-2.793a2.14,2.14,0,0,1,0-3.026,2.173,2.173,0,0,1,3.057,0l7.9,7.85a2.142,2.142,0,0,1,0,3.023l-7.894,7.848a2.169,2.169,0,0,1-3.057,0,2.14,2.14,0,0,1,0-3.026l2.809-2.792a.819.819,0,0,0-.577-1.4H53.455a2.143,2.143,0,1,1,0-4.285h5.253a.819.819,0,1,0,0-1.638H53.455a3.78,3.78,0,1,0,0,7.56H67.363l-1.4,1.393a3.754,3.754,0,0,0-.972,1.65H46.964a.819.819,0,1,0,0,1.638H64.9a3.744,3.744,0,0,0,1.063,2.061,3.81,3.81,0,0,0,5.367,0l7.89-7.844a3.781,3.781,0,0,0,1.113-2.87Z" transform="translate(-31.264 0)"/>
      </g>
    </g>
  </g>
</svg>
