<svg xmlns="http://www.w3.org/2000/svg" width="83" height="83" viewBox="0 0 83 83">
  <g id="Group_1208759" data-name="Group 1208759" transform="translate(-2270 5604)">
    <g id="Group_1208734" data-name="Group 1208734" transform="translate(1842.949 -14139)">
      <g id="Group_1208693" data-name="Group 1208693" transform="translate(89 5452)">
        <circle id="Ellipse_12656" data-name="Ellipse 12656" cx="41.5" cy="41.5" r="41.5" transform="translate(338.051 3083)" fill="#b7a8f1"/>
      </g>
    </g>
    <g id="analisis" transform="translate(2286 -5587)">
      <path id="Path_1247013" data-name="Path 1247013" d="M55.419,31.71A23.71,23.71,0,1,1,31.71,8,23.71,23.71,0,0,1,55.419,31.71Zm0,0" transform="translate(-7.21 -7.21)" fill="#85d3c1"/>
      <path id="Path_1247014" data-name="Path 1247014" d="M159.806,191.9a7.9,7.9,0,1,1-7.9-7.9A7.9,7.9,0,0,1,159.806,191.9Zm0,0" transform="translate(-129.774 -165.823)" fill="#f5f7fa"/>
      <path id="Path_1247015" data-name="Path 1247015" d="M123.065,170.968a7.9,7.9,0,1,0-7.9-7.9A7.906,7.906,0,0,0,123.065,170.968Zm-8.915-1.36a11.02,11.02,0,1,1,3.319,3A11,11,0,0,1,114.15,169.608Zm0,0" transform="translate(-100.935 -136.984)" fill="#f9d48a"/>
      <path id="Path_1247016" data-name="Path 1247016" d="M341.491,330.316l.933.932-.861,1.3a6.5,6.5,0,0,1,.719,1.739l1.525.3v2.64l-1.525.3a6.5,6.5,0,0,1-.719,1.739l.861,1.3-1.865,1.865-1.3-.861a6.5,6.5,0,0,1-1.739.719l-.3,1.525h-2.64l-.3-1.525a6.5,6.5,0,0,1-1.739-.719l-1.3.861-.932-.933-.933-.932.861-1.3a6.5,6.5,0,0,1-.719-1.739l-1.525-.3v-2.64l1.525-.3a6.5,6.5,0,0,1,.719-1.739l-.861-1.3,1.865-1.865,1.3.861a6.5,6.5,0,0,1,1.739-.719l.3-1.525h2.64l.3,1.525a6.5,6.5,0,0,1,1.739.719l1.3-.861Zm-2.426,5.587a3.161,3.161,0,1,0-3.161,3.161A3.16,3.16,0,0,0,339.065,335.9Zm0,0" transform="translate(-295.597 -295.597)" fill="#f9d48a"/>
      <path id="Path_1247017" data-name="Path 1247017" d="M459.161,64V78.226H456V64Zm0,0" transform="translate(-410.952 -57.677)" fill="#ff958a"/>
      <path id="Path_1247018" data-name="Path 1247018" d="M382.323,379.161A3.161,3.161,0,1,1,379.161,376,3.161,3.161,0,0,1,382.323,379.161Zm0,0" transform="translate(-338.855 -338.855)" fill="#f5f7fa"/>
      <path id="Path_1247019" data-name="Path 1247019" d="M395.161,128v7.9H392V128Zm0,0" transform="translate(-353.274 -115.355)" fill="#ff958a"/>
      <path id="Path_1247020" data-name="Path 1247020" d="M148.452,14.038v5.817h-1.581v7.9H143.71V23.016h-3.161v4.742h-.7A11.06,11.06,0,0,0,120,29.189V8h28.452Zm-17.387,3.446V11.161h-7.9v6.323Zm0,0" transform="translate(-108.145 -7.21)" fill="#f5f7fa"/>
      <path id="Path_1247021" data-name="Path 1247021" d="M328,160h3.161v4.742H328Zm0,0" transform="translate(-295.597 -144.194)" fill="#ff958a"/>
      <path id="Path_1247022" data-name="Path 1247022" d="M152,40h7.9v6.323H152Zm0,0" transform="translate(-136.984 -36.048)" fill="#ff958a"/>
      <path id="Path_1247023" data-name="Path 1247023" d="M113.864,333.242l-2.7,2.7L108,332.783l2.545-2.545A11.074,11.074,0,0,0,113.864,333.242Zm0,0" transform="translate(-97.331 -297.614)" fill="#f5f7fa"/>
      <path id="Path_1247024" data-name="Path 1247024" d="M127.442,412.655l.861-1.3a6.5,6.5,0,0,1-.719-1.739l-1.525-.3V408h-4.742l-3.161,3.161H103.93l-.008.008a23.639,23.639,0,0,0,4.75,2.758,22.883,22.883,0,0,0,4.679,1.486,23.8,23.8,0,0,0,9.61,0,22.99,22.99,0,0,0,5.414-1.826Zm0,0" transform="translate(-93.655 -367.694)" fill="#ff958a"/>
      <path id="Path_1247025" data-name="Path 1247025" d="M21.04,359.161l-9.223,9.223a2.235,2.235,0,1,1-3.161-3.161L17.879,356Zm0,0" transform="translate(-7.21 -320.831)" fill="#f9d48a"/>
      <g id="Group_1208758" data-name="Group 1208758">
        <path id="Path_1247026" data-name="Path 1247026" d="M371.952,368a3.952,3.952,0,1,0,3.952,3.952A3.956,3.956,0,0,0,371.952,368Zm0,6.323a2.371,2.371,0,1,1,2.371-2.371A2.374,2.374,0,0,1,371.952,374.323Zm0,0" transform="translate(-331.645 -331.645)" fill="#232323"/>
        <path id="Path_1247027" data-name="Path 1247027" d="M216,256h1.581v1.581H216Zm0,0" transform="translate(-194.661 -230.71)" fill="#232323"/>
        <path id="Path_1247028" data-name="Path 1247028" d="M248,256h1.581v1.581H248Zm0,0" transform="translate(-223.5 -230.71)" fill="#232323"/>
        <path id="Path_1247029" data-name="Path 1247029" d="M184,256h1.581v1.581H184Zm0,0" transform="translate(-165.823 -230.71)" fill="#232323"/>
        <path id="Path_1247030" data-name="Path 1247030" d="M153.484,32H144v7.9h9.484ZM151.9,38.323h-6.323V33.581H151.9Zm0,0" transform="translate(-129.774 -28.839)" fill="#232323"/>
        <path id="Path_1247031" data-name="Path 1247031" d="M256,32h12.645v1.581H256Zm0,0" transform="translate(-230.71 -28.839)" fill="#232323"/>
        <path id="Path_1247032" data-name="Path 1247032" d="M256,64h12.645v1.581H256Zm0,0" transform="translate(-230.71 -57.677)" fill="#232323"/>
        <path id="Path_1247033" data-name="Path 1247033" d="M369.266,96h1.456v1.581h-1.456Zm0,0" transform="translate(-332.786 -86.516)" fill="#232323"/>
        <path id="Path_1247034" data-name="Path 1247034" d="M256,96h9.5v1.581H256Zm0,0" transform="translate(-230.71 -86.516)" fill="#232323"/>
        <path id="Path_1247035" data-name="Path 1247035" d="M49,5.532H44.258V10.04A24.554,24.554,0,0,0,41.1,6.494V0H11.065V4.021A24.481,24.481,0,0,0,5.173,39.549L.886,43.835a3.025,3.025,0,1,0,4.279,4.278l4.287-4.286A24.548,24.548,0,0,0,24.5,49a24.247,24.247,0,0,0,10.047-2.159l1,1,1.436-.957A7.34,7.34,0,0,0,38,47.307L38.341,49h3.932l.338-1.693a7.435,7.435,0,0,0,1.017-.421l1.436.957,2.78-2.779-.958-1.436a7.389,7.389,0,0,0,.421-1.018L49,42.271v-3.93L47.307,38a7.486,7.486,0,0,0-.421-1.018l.958-1.436-1-1A24.266,24.266,0,0,0,49,24.5a24.751,24.751,0,0,0-.224-3.161H49ZM45.839,7.113h1.581V19.758H45.839Zm-1.581,5.779v6.866H42.677v-7.9H41.1V8.694A22.939,22.939,0,0,1,44.258,12.892ZM38.341,31.613,38,33.306a7.435,7.435,0,0,0-1.017.421l-1.436-.957-2.78,2.779.958,1.436A7.389,7.389,0,0,0,33.306,38l-1.693.339v1.174H27.334l-3.161,3.161H10.6l3.229-3.229,1.417,1.417,1.118-1.118-1.417-1.417L16.681,36.6a11.84,11.84,0,0,0,16.307-15.26h6.529V31.613ZM15.806,44.258h3.161v2.47a22.94,22.94,0,0,1-3.161-1.046Zm-1.581.706c-.445-.223-.885-.454-1.315-.706h1.315Zm6.323-.706H23.71v3.127a22.912,22.912,0,0,1-3.161-.311Zm4.742-.463,2.7-2.7h.463V47.08a23.026,23.026,0,0,1-3.161.318ZM22.129,15.806A10.274,10.274,0,1,1,11.855,26.081,10.286,10.286,0,0,1,22.129,15.806Zm12.645,3.952H33.194V16.6h1.581ZM15.294,35.75l-1.463,1.463-2.044-2.044L13.153,33.8A11.969,11.969,0,0,0,15.294,35.75ZM41.1,13.435v6.323H39.516V13.435ZM39.516,1.581V11.855H37.935v7.9H36.355V15.016H31.613V19a11.81,11.81,0,0,0-18.968,0V1.581ZM1.581,24.5A22.808,22.808,0,0,1,11.065,5.929V21.86a11.739,11.739,0,0,0,1.13,10.668l-1.525,1.524L9.252,32.635,8.135,33.752l1.417,1.417L6.31,38.411A22.95,22.95,0,0,1,1.581,24.5ZM4.047,47a1.445,1.445,0,0,1-2.467-1.023A1.436,1.436,0,0,1,2,44.952l8.666-8.665,2.044,2.044Zm25.985-.254V41.1h1.581v1.174l1.693.339a7.486,7.486,0,0,0,.421,1.018l-.958,1.436.582.582A22.516,22.516,0,0,1,30.032,46.742Zm17.387-7.105v1.338l-1.38.276-.122.483a5.753,5.753,0,0,1-.634,1.529l-.256.428.781,1.171-.946.947-1.171-.781-.428.255a5.779,5.779,0,0,1-1.529.633l-.483.122-.276,1.38H39.638l-.276-1.38-.483-.122a5.758,5.758,0,0,1-1.529-.633l-.428-.255-1.171.781-.946-.947.781-1.171-.256-.428a5.8,5.8,0,0,1-.634-1.529l-.122-.483-1.381-.276V39.638l1.38-.276.122-.483a5.753,5.753,0,0,1,.634-1.529l.256-.428L34.8,35.75l.946-.947,1.171.781.428-.255a5.779,5.779,0,0,1,1.529-.633l.483-.122.276-1.38h1.338l.276,1.38.483.122a5.758,5.758,0,0,1,1.529.633l.428.255,1.171-.781.946.947-.781,1.171.256.428a5.8,5.8,0,0,1,.634,1.529l.122.483Zm0-15.137a22.711,22.711,0,0,1-1.774,8.852l-.582-.582-1.436.957a7.34,7.34,0,0,0-1.017-.421l-.338-1.693H41.1V21.339h6.088A23.207,23.207,0,0,1,47.419,24.5Zm0,0" fill="#232323"/>
        <path id="Path_1247036" data-name="Path 1247036" d="M144.694,193.387A8.694,8.694,0,1,0,136,184.694,8.7,8.7,0,0,0,144.694,193.387Zm0-15.806a7.113,7.113,0,1,1-7.113,7.113A7.121,7.121,0,0,1,144.694,177.581Zm0,0" transform="translate(-122.565 -158.613)" fill="#232323"/>
      </g>
    </g>
  </g>
</svg>
