<svg xmlns="http://www.w3.org/2000/svg" width="83" height="83" viewBox="0 0 83 83">
  <g id="Group_1208846" data-name="Group 1208846" transform="translate(-759 -10961)">
    <g id="Group_1208830" data-name="Group 1208830" transform="translate(420 3312)">
      <g id="Group_1208793" data-name="Group 1208793" transform="translate(-262.051 -1036)">
        <g id="Group_1208734" data-name="Group 1208734" transform="translate(174 150)">
          <g id="Group_1208693" data-name="Group 1208693" transform="translate(89 5452)">
            <circle id="Ellipse_12656" data-name="Ellipse 12656" cx="41.5" cy="41.5" r="41.5" transform="translate(338.051 3083)" fill="#b7a8f1"/>
          </g>
        </g>
      </g>
    </g>
    <g id="Group_1208831" data-name="Group 1208831" transform="translate(856 3449)">
      <g id="Group_1208793-2" data-name="Group 1208793" transform="translate(-37.164 7539.222)">
        <g id="Group_1208734-2" data-name="Group 1208734" transform="translate(0 0)">
          <g id="Group_1208693-2" data-name="Group 1208693" transform="translate(0)">
            <circle id="Ellipse_12656-2" data-name="Ellipse 12656" cx="4.5" cy="4.5" r="4.5" transform="translate(0.164 -0.222)" fill="#b7a8f1"/>
          </g>
        </g>
      </g>
      <g id="fecha-tope" transform="translate(-83 7526)">
        <g id="Group_1208844" data-name="Group 1208844" transform="translate(0.815 1.55)">
          <g id="Group_1208835" data-name="Group 1208835" transform="translate(0 4.518)">
            <g id="Group_1208834" data-name="Group 1208834">
              <path id="Path_1247276" data-name="Path 1247276" d="M64.849,95.272a2.665,2.665,0,0,1-2.657,2.657H20.746a2.665,2.665,0,0,1-2.657-2.657V58.5a2.665,2.665,0,0,1,2.657-2.657H62.192A2.665,2.665,0,0,1,64.849,58.5Z" transform="translate(-18.089 -55.845)" fill="#f0eef0"/>
            </g>
          </g>
          <path id="Path_1247277" data-name="Path 1247277" d="M388.307,55.845H383.96a2.665,2.665,0,0,1,2.657,2.657V95.272a2.665,2.665,0,0,1-2.657,2.657h4.347a2.665,2.665,0,0,0,2.657-2.657V58.5A2.665,2.665,0,0,0,388.307,55.845Z" transform="translate(-344.203 -51.327)" fill="#dfdde0"/>
          <g id="Group_1208837" data-name="Group 1208837" transform="translate(0 4.518)">
            <g id="Group_1208836" data-name="Group 1208836">
              <path id="Path_1247278" data-name="Path 1247278" d="M64.849,58.5a2.665,2.665,0,0,0-2.657-2.657H20.746A2.665,2.665,0,0,0,18.089,58.5v7.1h46.76Z" transform="translate(-18.089 -55.845)" fill="#ff8086"/>
            </g>
          </g>
          <path id="Path_1247279" data-name="Path 1247279" d="M388.307,55.845H383.96a2.665,2.665,0,0,1,2.657,2.657v7.1h4.347V58.5A2.665,2.665,0,0,0,388.307,55.845Z" transform="translate(-344.203 -51.327)" fill="#e5646e"/>
          <g id="Group_1208838" data-name="Group 1208838" transform="translate(9.177)">
            <path id="Path_1247280" data-name="Path 1247280" d="M103.332,14.264a.789.789,0,0,0-.788.788V22.12a.789.789,0,0,0,1.577,0V15.053A.79.79,0,0,0,103.332,14.264Z" transform="translate(-102.544 -14.264)" fill="#5d5360"/>
            <path id="Path_1247281" data-name="Path 1247281" d="M226.762,14.264a.789.789,0,0,0-.789.788V22.12a.789.789,0,0,0,1.577,0V15.053A.789.789,0,0,0,226.762,14.264Z" transform="translate(-212.561 -14.264)" fill="#5d5360"/>
            <path id="Path_1247282" data-name="Path 1247282" d="M350.192,14.264a.789.789,0,0,0-.789.788V22.12a.789.789,0,0,0,1.577,0V15.053A.789.789,0,0,0,350.192,14.264Z" transform="translate(-322.578 -14.264)" fill="#5d5360"/>
            <path id="Path_1247283" data-name="Path 1247283" d="M104.121,22.121a.789.789,0,0,1-1.577,0V15.053a.789.789,0,0,1,1.577,0Z" transform="translate(-102.544 -14.265)" fill="#5d5360"/>
          </g>
          <circle id="Ellipse_12689" data-name="Ellipse 12689" cx="2.551" cy="2.551" r="2.551" transform="translate(25.612 27.826)" fill="#9b959d"/>
          <g id="Group_1208843" data-name="Group 1208843" transform="translate(25.134 26.755)">
            <g id="Group_1208839" data-name="Group 1208839" transform="translate(0 0)">
              <ellipse id="Ellipse_12690" data-name="Ellipse 12690" cx="13.188" cy="13.185" rx="13.188" ry="13.185" transform="translate(0 0.09) rotate(-0.195)" fill="#ffe07d"/>
            </g>
            <path id="Path_1247284" data-name="Path 1247284" d="M353.275,260.914a13.279,13.279,0,0,0-2.129.179,13.186,13.186,0,0,1,0,26.013,13.186,13.186,0,1,0,2.129-26.192Z" transform="translate(-340.089 -260.868)" fill="#ffd064"/>
            <g id="Group_1208842" data-name="Group 1208842" transform="translate(11.41 3.081)">
              <g id="Group_1208840" data-name="Group 1208840" transform="translate(0.035 16.744)">
                <ellipse id="Ellipse_12691" data-name="Ellipse 12691" cx="1.778" cy="1.777" rx="1.778" ry="1.777" transform="translate(0 0.012) rotate(-0.189)" fill="#ff8086"/>
              </g>
              <g id="Group_1208841" data-name="Group 1208841">
                <path id="Path_1247285" data-name="Path 1247285" d="M358.035,301.537a1.82,1.82,0,0,1-1.82,1.821h0a1.821,1.821,0,0,1-1.821-1.821V290.66a1.821,1.821,0,0,1,1.821-1.821h0a1.82,1.82,0,0,1,1.82,1.821Z" transform="translate(-354.394 -288.839)" fill="#ff8086"/>
              </g>
            </g>
          </g>
          <circle id="Ellipse_12692" data-name="Ellipse 12692" cx="2.551" cy="2.551" r="2.551" transform="translate(5.207 18.367)" fill="#9b959d"/>
          <circle id="Ellipse_12693" data-name="Ellipse 12693" cx="2.551" cy="2.551" r="2.551" transform="translate(15.41 18.367)" fill="#9b959d"/>
          <circle id="Ellipse_12694" data-name="Ellipse 12694" cx="2.551" cy="2.551" r="2.551" transform="translate(25.612 18.367)" fill="#9b959d"/>
          <circle id="Ellipse_12695" data-name="Ellipse 12695" cx="2.551" cy="2.551" r="2.551" transform="translate(35.814 18.367)" fill="#9b959d"/>
          <circle id="Ellipse_12696" data-name="Ellipse 12696" cx="2.551" cy="2.551" r="2.551" transform="translate(5.207 27.826)" fill="#9b959d"/>
          <circle id="Ellipse_12697" data-name="Ellipse 12697" cx="2.551" cy="2.551" r="2.551" transform="translate(15.41 27.826)" fill="#9b959d"/>
          <circle id="Ellipse_12698" data-name="Ellipse 12698" cx="2.551" cy="2.551" r="2.551" transform="translate(5.207 37.284)" fill="#9b959d"/>
        </g>
        <g id="Group_1208845" data-name="Group 1208845" transform="translate(0 0)">
          <path id="Path_1247286" data-name="Path 1247286" d="M61.877,182.525a3.366,3.366,0,1,0-3.366-3.366A3.369,3.369,0,0,0,61.877,182.525Zm0-5.1a1.736,1.736,0,1,1-1.736,1.736A1.738,1.738,0,0,1,61.877,177.424Z" transform="translate(-53.304 -156.692)"/>
          <path id="Path_1247287" data-name="Path 1247287" d="M155.766,182.525a3.366,3.366,0,1,0-3.366-3.366A3.369,3.369,0,0,0,155.766,182.525Zm0-5.1a1.736,1.736,0,1,1-1.736,1.736A1.738,1.738,0,0,1,155.766,177.424Z" transform="translate(-136.99 -156.692)"/>
          <path id="Path_1247288" data-name="Path 1247288" d="M249.654,182.525a3.366,3.366,0,1,0-3.366-3.366A3.369,3.369,0,0,0,249.654,182.525Zm0-5.1a1.736,1.736,0,1,1-1.736,1.736A1.738,1.738,0,0,1,249.654,177.424Z" transform="translate(-220.676 -156.692)"/>
          <path id="Path_1247289" data-name="Path 1247289" d="M346.908,179.16a3.366,3.366,0,1,0-3.366,3.366A3.369,3.369,0,0,0,346.908,179.16Zm-5.1,0a1.736,1.736,0,1,1,1.736,1.736A1.738,1.738,0,0,1,341.807,179.16Z" transform="translate(-304.363 -156.692)"/>
          <path id="Path_1247290" data-name="Path 1247290" d="M61.877,269.568a3.366,3.366,0,1,0-3.366-3.366A3.369,3.369,0,0,0,61.877,269.568Zm0-5.1a1.736,1.736,0,1,1-1.736,1.736A1.738,1.738,0,0,1,61.877,264.467Z" transform="translate(-53.304 -234.276)"/>
          <path id="Path_1247291" data-name="Path 1247291" d="M155.766,269.568A3.366,3.366,0,1,0,152.4,266.2,3.369,3.369,0,0,0,155.766,269.568Zm0-5.1a1.736,1.736,0,1,1-1.736,1.736A1.738,1.738,0,0,1,155.766,264.467Z" transform="translate(-136.99 -234.276)"/>
          <path id="Path_1247292" data-name="Path 1247292" d="M61.877,356.61a3.366,3.366,0,1,0-3.366-3.366A3.369,3.369,0,0,0,61.877,356.61Zm0-5.1a1.736,1.736,0,1,1-1.736,1.736A1.738,1.738,0,0,1,61.877,351.509Z" transform="translate(-53.304 -311.86)"/>
          <path id="Path_1247293" data-name="Path 1247293" d="M150.667,354.826a.823.823,0,0,0,1.152,0l2.187-2.187,2.187,2.187a.815.815,0,0,0,1.152-1.152l-2.187-2.187,2.187-2.187a.815.815,0,0,0-1.152-1.152l-2.187,2.187-2.187-2.187a.815.815,0,0,0-1.152,1.152l2.187,2.187-2.187,2.187A.815.815,0,0,0,150.667,354.826Z" transform="translate(-135.231 -310.102)"/>
          <path id="Path_1247294" data-name="Path 1247294" d="M62.938,36.714a.815.815,0,0,0-1.532.555,12.334,12.334,0,0,1,.736,4.173A12.517,12.517,0,0,1,49.768,53.854a12.37,12.37,0,1,1,9.781-19.948.815.815,0,0,0,1.288-1,14.222,14.222,0,0,0-1.858-1.973V8.671A3.476,3.476,0,0,0,55.507,5.2H50.613V2.339c0-3.113-4.837-3.123-4.837,0V5.2H37.2V2.339c0-3.113-4.837-3.123-4.837,0V5.2H23.788V2.339c0-3.113-4.837-3.123-4.837,0V5.2h-4.89a3.476,3.476,0,0,0-3.472,3.472V37.753a.815.815,0,0,0,1.63,0V16.588h45.13V29.7A14.133,14.133,0,0,0,45.294,28.21a13.874,13.874,0,0,0-3.164,1.535A3.365,3.365,0,0,0,36.2,31.926a3.382,3.382,0,0,0,1.354,2.7,14.1,14.1,0,0,0-.531,12.661H14.061a1.844,1.844,0,0,1-1.842-1.842V41.774a.815.815,0,0,0-1.63,0v3.668a3.476,3.476,0,0,0,3.472,3.472H37.906a14,14,0,0,0,25.032-12.2ZM47.406,2.339a.789.789,0,0,1,1.577,0V9.406a.789.789,0,0,1-1.577,0Zm-13.412,0a.789.789,0,0,1,1.577,0V9.406a.789.789,0,0,1-1.577,0Zm-13.412,0a.789.789,0,0,1,1.577,0V9.406a.789.789,0,0,1-1.577,0ZM12.219,14.958V8.671a1.844,1.844,0,0,1,1.842-1.842h4.89V9.406c0,3.113,4.837,3.123,4.837,0V6.829h8.575V9.406c0,3.119,4.837,3.119,4.837,0V6.829h8.575V9.406c0,3.113,4.837,3.123,4.837,0V6.829h4.895a1.844,1.844,0,0,1,1.842,1.842v6.287H12.219ZM37.831,31.926a1.736,1.736,0,0,1,2.983-1.207,14.238,14.238,0,0,0-2.372,2.528A1.744,1.744,0,0,1,37.831,31.926Z" transform="translate(-10.589 0)"/>
          <path id="Path_1247295" data-name="Path 1247295" d="M349.871,434.965a2.592,2.592,0,0,0,.008,5.185h.009a2.592,2.592,0,1,0-.017-5.185Zm.971,2.589a.962.962,0,0,1-.96.965h0a.962.962,0,0,1,0-1.925h0a.962.962,0,0,1,.963.959Z" transform="translate(-310.7 -387.7)"/>
          <path id="Path_1247296" data-name="Path 1247296" d="M352.165,283.478a2.635,2.635,0,1,0-5.271,0v10.877a2.635,2.635,0,1,0,5.271,0Zm-1.63,10.877a1.006,1.006,0,1,1-2.011,0V283.478a1.006,1.006,0,1,1,2.011,0Z" transform="translate(-310.35 -250.325)"/>
        </g>
      </g>
    </g>
  </g>
</svg>
