<svg xmlns="http://www.w3.org/2000/svg" xmlns:xlink="http://www.w3.org/1999/xlink" width="104.75" height="100" viewBox="0 0 104.75 100">
  <defs>
    <clipPath id="clip-path">
      <rect id="Rectangle_411040" data-name="Rectangle 411040" width="100" height="100" transform="translate(335.781 4440)" fill="#fff" stroke="#707070" stroke-width="1"/>
    </clipPath>
    <clipPath id="clip-path-2">
      <path id="path4299" d="M0-682.665H82.665V-600H0Z" transform="translate(0 682.665)"/>
    </clipPath>
  </defs>
  <g id="Group_1208805" data-name="Group 1208805" transform="translate(-285.25 -10000)">
    <g id="Mask_Group_1099338" data-name="Mask Group 1099338" transform="translate(-50.531 5560)" clip-path="url(#clip-path)">
      <g id="Group_1207895" data-name="Group 1207895" transform="translate(-470.656 2458.387)">
        <g id="Rectangle_411039" data-name="Rectangle 411039" transform="translate(806.951 1984)" fill="#b7a8f1" stroke="#7f74a8" stroke-width="3">
          <rect width="79.44" height="79.44" rx="10" stroke="none"/>
          <rect x="1.5" y="1.5" width="76.44" height="76.44" rx="8.5" fill="none"/>
        </g>
      </g>
    </g>
    <g id="g4293" transform="translate(307.335 10692.12)">
      <g id="g4295" transform="translate(0 -682.665)">
        <g id="g4297" clip-path="url(#clip-path-2)">
          <g id="g4303" transform="translate(10.6 14.122)">
            <path id="path4305" d="M-391.694-442.99h-53.159a.807.807,0,0,1-.807-.807v-59.418a.807.807,0,0,1,.807-.807h53.159a.807.807,0,0,1,.807.807V-443.8a.807.807,0,0,1-.807.807" transform="translate(445.66 504.023)" fill="#dff6fd"/>
          </g>
          <g id="g4307" transform="translate(22.691 24.061)">
            <path id="path4309" d="M19.38-7.578H-8.789A1.211,1.211,0,0,1-10-8.789,1.211,1.211,0,0,1-8.789-10H19.38a1.211,1.211,0,0,1,1.211,1.211A1.211,1.211,0,0,1,19.38-7.578Z" transform="translate(10 10)"/>
          </g>
          <g id="g4311" transform="translate(22.691 29.93)">
            <path id="path4313" d="M19.38-7.578H-8.789A1.211,1.211,0,0,1-10-8.789,1.211,1.211,0,0,1-8.789-10H19.38a1.211,1.211,0,0,1,1.211,1.211A1.211,1.211,0,0,1,19.38-7.578Z" transform="translate(10 10)"/>
          </g>
          <g id="g4315" transform="translate(34.471 35.798)">
            <path id="path4317" d="M7.6-7.578H-8.789A1.211,1.211,0,0,1-10-8.789,1.211,1.211,0,0,1-8.789-10H7.6A1.211,1.211,0,0,1,8.811-8.789,1.211,1.211,0,0,1,7.6-7.578Z" transform="translate(10 10)"/>
          </g>
          <g id="g4319" transform="translate(22.691 35.798)">
            <path id="path4321" d="M-1.853-7.578H-8.789A1.211,1.211,0,0,1-10-8.789,1.211,1.211,0,0,1-8.789-10h6.936A1.211,1.211,0,0,1-.642-8.789,1.211,1.211,0,0,1-1.853-7.578Z" transform="translate(10 10)"/>
          </g>
          <g id="g4323" transform="translate(22.691 41.667)">
            <path id="path4325" d="M19.38-7.578H-8.789A1.211,1.211,0,0,1-10-8.789,1.211,1.211,0,0,1-8.789-10H19.38a1.211,1.211,0,0,1,1.211,1.211A1.211,1.211,0,0,1,19.38-7.578Z" transform="translate(10 10)"/>
          </g>
          <g id="g4327" transform="translate(43.351 47.535)">
            <path id="path4329" d="M-1.279-7.578h-7.51A1.211,1.211,0,0,1-10-8.789,1.211,1.211,0,0,1-8.789-10h7.51A1.211,1.211,0,0,1-.069-8.789,1.211,1.211,0,0,1-1.279-7.578Z" transform="translate(10 10)"/>
          </g>
          <g id="g4331" transform="translate(22.691 47.535)">
            <path id="path4333" d="M7.511-7.578h-16.3A1.211,1.211,0,0,1-10-8.789,1.211,1.211,0,0,1-8.789-10h16.3A1.211,1.211,0,0,1,8.722-8.789,1.211,1.211,0,0,1,7.511-7.578Z" transform="translate(10 10)"/>
          </g>
          <g id="g4335" transform="translate(22.691 53.404)">
            <path id="path4337" d="M19.38-7.578H-8.789A1.211,1.211,0,0,1-10-8.789,1.211,1.211,0,0,1-8.789-10H19.38a1.211,1.211,0,0,1,1.211,1.211A1.211,1.211,0,0,1,19.38-7.578Z" transform="translate(10 10)"/>
          </g>
          <g id="g4339" transform="translate(22.691 59.272)">
            <path id="path4341" d="M19.38-7.578H-8.789A1.211,1.211,0,0,1-10-8.789,1.211,1.211,0,0,1-8.789-10H19.38a1.211,1.211,0,0,1,1.211,1.211A1.211,1.211,0,0,1,19.38-7.578Z" transform="translate(10 10)"/>
          </g>
          <g id="g4343" transform="translate(10.6 14.122)">
            <path id="path4345" d="M-49.337-437.13v-59.418a.807.807,0,0,1,.807-.807h-6.8a.807.807,0,0,0-.807.807v59.418a.807.807,0,0,0,.807.807h6.8a.807.807,0,0,1-.807-.807" transform="translate(56.135 497.356)" fill="#c8effe"/>
          </g>
          <g id="g4347" transform="translate(9.389 12.911)">
            <path id="path4349" d="M-41.952,53.455H-95.111a2.02,2.02,0,0,1-2.018-2.018V-7.982A2.02,2.02,0,0,1-95.111-10h9.743a1.211,1.211,0,0,1,1.211,1.211,1.211,1.211,0,0,1-1.211,1.211h-9.34V51.033h52.351V-7.578H-79.717a1.211,1.211,0,0,1-1.211-1.211A1.211,1.211,0,0,1-79.717-10h37.764a2.02,2.02,0,0,1,2.018,2.018V51.437A2.02,2.02,0,0,1-41.952,53.455Z" transform="translate(97.129 10)"/>
          </g>
          <g id="g4351" transform="translate(45.029 1.211)">
            <path id="path4353" d="M-6.479-58.093a1.615,1.615,0,0,0-.893,1.444v8.358c0,12.358,6.566,18.672,16.443,24.716a1.621,1.621,0,0,0,1.691,0C20.639-29.619,27.2-35.933,27.2-48.291v-8.358a1.615,1.615,0,0,0-.893-1.444L10.638-65.926a1.615,1.615,0,0,0-1.444,0Z" transform="translate(7.372 66.097)" fill="#fac600"/>
          </g>
          <g id="g4355" transform="translate(45.029 6.76)">
            <path id="path4357" d="M-42.127-69.627V-79.22l-4.911,2.455a1.615,1.615,0,0,0-.893,1.444v8.358c0,12.358,6.566,18.672,16.443,24.716a1.621,1.621,0,0,0,1.691,0c1.438-.88,2.806-1.766,4.094-2.676-9.866-6.04-16.424-12.354-16.424-24.7" transform="translate(47.931 79.22)" fill="#e8b801"/>
          </g>
          <g id="g4359" transform="translate(43.818 0)">
            <path id="path4361" d="M1.127-76.1a2.841,2.841,0,0,1,1.263.3l15.674,7.834a2.81,2.81,0,0,1,1.562,2.527v8.358c0,12.725-6.8,19.5-17.022,25.748a2.83,2.83,0,0,1-1.478.416A2.83,2.83,0,0,1-.35-31.331C-10.567-37.583-17.372-44.355-17.372-57.08v-8.358a2.81,2.81,0,0,1,1.562-2.527L-.136-75.8A2.841,2.841,0,0,1,1.127-76.1Zm0,42.76a.409.409,0,0,0,.214-.06C11.135-39.39,17.2-45.443,17.2-57.08v-8.358a.4.4,0,0,0-.223-.361L1.308-73.632a.412.412,0,0,0-.361,0L-14.727-65.8a.4.4,0,0,0-.223.361v8.358C-14.95-45.443-8.88-39.39.914-33.4A.409.409,0,0,0,1.127-33.337Z" transform="translate(17.372 76.096)"/>
          </g>
          <g id="g4363" transform="translate(51.202 9.629)">
            <path id="path4365" d="M-160.3-80.152a11.043,11.043,0,0,1-11.043,11.043A11.043,11.043,0,0,1-182.39-80.152a11.043,11.043,0,0,1,11.043-11.043A11.043,11.043,0,0,1-160.3-80.152" transform="translate(182.39 91.194)" fill="#4fc123"/>
          </g>
          <g id="g4367" transform="translate(51.202 9.629)">
            <path id="path4369" d="M-33.991-80.152a11.045,11.045,0,0,1,8.7-10.792,11.078,11.078,0,0,0-2.342-.251A11.043,11.043,0,0,0-38.675-80.152,11.043,11.043,0,0,0-27.632-69.109a11.078,11.078,0,0,0,2.342-.251,11.045,11.045,0,0,1-8.7-10.792" transform="translate(38.675 91.194)" fill="#47a920"/>
          </g>
          <g id="g4371" transform="translate(49.991 8.418)">
            <path id="path4373" d="M-178.7-60.639a12.268,12.268,0,0,1-12.254-12.254A12.268,12.268,0,0,1-178.7-85.146a12.231,12.231,0,0,1,12.061,10.1,1.211,1.211,0,0,1-.98,1.4,1.211,1.211,0,0,1-1.4-.98,9.812,9.812,0,0,0-9.677-8.1,9.843,9.843,0,0,0-9.832,9.832,9.843,9.843,0,0,0,9.832,9.832,9.853,9.853,0,0,0,9.262-6.531,1.211,1.211,0,0,1,1.547-.734,1.211,1.211,0,0,1,.734,1.547A12.28,12.28,0,0,1-178.7-60.639Z" transform="translate(190.954 85.146)"/>
          </g>
          <g id="g4375" transform="translate(56.832 17.004)">
            <path id="path4377" d="M-5.159-18.441a1.2,1.2,0,0,1-.856-.355l-3.63-3.631a1.211,1.211,0,0,1,0-1.712,1.211,1.211,0,0,1,1.712,0l2.774,2.774,4.771-4.771a1.211,1.211,0,0,1,1.712,0,1.211,1.211,0,0,1,0,1.712L-4.3-18.8A1.211,1.211,0,0,1-5.159-18.441Z" transform="translate(10 26.491)"/>
          </g>
          <g id="g4379" transform="translate(6.95 44.247)">
            <path id="path4381" d="M-113.111-141.619h-10.74v-9.3a5.376,5.376,0,0,1,5.37-5.37,5.376,5.376,0,0,1,5.37,5.37Zm-5.37-19.512a10.214,10.214,0,0,0-10.214,10.214V-140.7h20.427v-10.214a10.214,10.214,0,0,0-10.214-10.214" transform="translate(128.694 161.13)" fill="#6e61b6"/>
          </g>
          <g id="g4383" transform="translate(6.95 44.247)">
            <path id="path4385" d="M-84.066-.682a10.285,10.285,0,0,0-1.368-.094A10.214,10.214,0,0,0-95.648,9.438V19.651h2.737V9.438A10.214,10.214,0,0,1-84.066-.682" transform="translate(95.648 0.776)" fill="#6354b1"/>
          </g>
          <g id="g4387" transform="translate(5.739 43.036)">
            <path id="path4389" d="M-117.056-148.281h-20.427a1.211,1.211,0,0,1-1.211-1.211v-10.214A11.438,11.438,0,0,1-127.27-171.13a11.438,11.438,0,0,1,11.425,11.425v10.214A1.211,1.211,0,0,1-117.056-148.281Zm-3.633-2.422h2.422v-9a9.013,9.013,0,0,0-9-9,9.013,9.013,0,0,0-9,9v9h2.422v-9a6.588,6.588,0,0,1,6.581-6.581,6.589,6.589,0,0,1,6.581,6.581Zm-10.74-.916h8.318v-8.087a4.164,4.164,0,0,0-4.159-4.159,4.164,4.164,0,0,0-4.159,4.159Z" transform="translate(138.694 171.13)"/>
          </g>
          <g id="g4391" transform="translate(3.059 60.784)">
            <path id="path4393" d="M-193.031-150.032h-24.98a1.615,1.615,0,0,1-1.615-1.615v-17.442a1.615,1.615,0,0,1,1.615-1.615h24.98a1.615,1.615,0,0,1,1.615,1.615v17.442a1.615,1.615,0,0,1-1.615,1.615" transform="translate(219.626 170.702)" fill="#fac600"/>
          </g>
          <g id="g4395" transform="translate(3.059 60.784)">
            <path id="path4397" d="M-49.28-138.313v-17.442a1.615,1.615,0,0,1,1.615-1.615h-6.79a1.615,1.615,0,0,0-1.615,1.615v17.442a1.615,1.615,0,0,0,1.615,1.615h6.79a1.615,1.615,0,0,1-1.615-1.615" transform="translate(56.069 157.369)" fill="#e8b801"/>
          </g>
          <g id="g4399" transform="translate(1.848 59.573)">
            <path id="path4401" d="M-215.154-30.277h-24.98a2.829,2.829,0,0,1-2.825-2.825V-50.544a2.829,2.829,0,0,1,2.825-2.825h24.98a2.829,2.829,0,0,1,2.825,2.825v3.637a1.211,1.211,0,0,1-1.211,1.211,1.211,1.211,0,0,1-1.211-1.211v-3.637a.4.4,0,0,0-.4-.4h-24.98a.4.4,0,0,0-.4.4V-33.1a.4.4,0,0,0,.4.4h24.98a.4.4,0,0,0,.4-.4v-8.153a1.211,1.211,0,0,1,1.211-1.211,1.211,1.211,0,0,1,1.211,1.211V-33.1A2.829,2.829,0,0,1-215.154-30.277Z" transform="translate(242.959 53.369)"/>
          </g>
        </g>
      </g>
    </g>
  </g>
</svg>
