<svg xmlns="http://www.w3.org/2000/svg" width="83" height="83" viewBox="0 0 83 83">
  <g id="Group_1208784" data-name="Group 1208784" transform="translate(-916.051 -8685)">
    <g id="Group_1208780" data-name="Group 1208780" transform="translate(489 150)">
      <g id="Group_1208693" data-name="Group 1208693" transform="translate(89 5452)">
        <circle id="Ellipse_12656" data-name="Ellipse 12656" cx="41.5" cy="41.5" r="41.5" transform="translate(338.051 3083)" fill="#b7a8f1"/>
      </g>
    </g>
    <g id="docu" transform="translate(931.924 8700.856)">
      <path id="Path_1247109" data-name="Path 1247109" d="M96.016,40.008V86.151H130.2V40.008Zm0,0" transform="translate(-85.769 -35.727)" fill="#348fd9"/>
      <path id="Path_1247110" data-name="Path 1247110" d="M128.487,45.989l-5.982-5.982H96.016V84.442h32.471Zm0,0" transform="translate(-85.769 -35.727)" fill="#3086cd"/>
      <path id="Path_1247111" data-name="Path 1247111" d="M64.016,54.151H98.2V15.7L90.506,8.008H64.016Zm0,0" transform="translate(-57.187 -7.145)" fill="#60d1e0"/>
      <path id="Path_1247112" data-name="Path 1247112" d="M319.706,15.7h-7.691V8.008Zm0,0" transform="translate(-278.697 -7.145)" fill="#9fe4ed"/>
      <path id="Path_1247113" data-name="Path 1247113" d="M148.215,176.008l-28.2,28.2h28.2Zm0,0" transform="translate(-107.205 -157.201)" fill="#5ac6d4"/>
      <path id="Path_1247114" data-name="Path 1247114" d="M201.96,336.553H184.87a.855.855,0,0,1-.855-.854v-6.836a.855.855,0,0,1,.855-.854h17.09a.855.855,0,0,1,.855.854V335.7A.855.855,0,0,1,201.96,336.553Zm-16.236-1.709h15.381v-5.127H185.725Zm0,0" transform="translate(-164.369 -292.965)" fill="#348fd9"/>
      <path id="Path_1247115" data-name="Path 1247115" d="M216.016,360.008h3.418v1.709h-3.418Zm0,0" transform="translate(-192.951 -321.547)" fill="#348fd9"/>
      <path id="Path_1247116" data-name="Path 1247116" d="M264.016,360.008h6.836v1.709h-6.836Zm0,0" transform="translate(-235.824 -321.547)" fill="#348fd9"/>
      <path id="Path_1247117" data-name="Path 1247117" d="M248.016,221.138l5.127-5.127,11.963,11.963-5.127,5.127Zm0,0" transform="translate(-221.533 -192.932)" fill="#e0e0de"/>
      <path id="Path_1247118" data-name="Path 1247118" d="M316.833,144.008a5.127,5.127,0,0,0-5.127,5.127v.427l-7.691,8.118,4.273,4.273,8.118-7.691h.427a5.127,5.127,0,1,0,0-10.254Zm0,0" transform="translate(-271.552 -128.619)" fill="#95573a"/>
      <path id="Path_1247119" data-name="Path 1247119" d="M224.02,266.567,226.583,264l11.963,11.963-2.564,2.564Zm0,0" transform="translate(-200.1 -235.798)" fill="#ebebe9"/>
      <path id="Path_1247120" data-name="Path 1247120" d="M336.878,148.246c-3.54,8.953-9.072,13.227-12.772,15.365l2.127,2.127,8.118-7.691h.427a5.127,5.127,0,0,0,2.1-9.8Zm0,0" transform="translate(-289.496 -132.404)" fill="#8f4d2e"/>
      <path id="Path_1247121" data-name="Path 1247121" d="M191.573,58.892a1.453,1.453,0,0,0-1.939-1.939,1.453,1.453,0,0,0-2.74,0,1.453,1.453,0,0,0-1.934,1.939,1.453,1.453,0,0,0,0,2.74,1.453,1.453,0,0,0,1.939,1.934,1.453,1.453,0,0,0,2.74,0,1.453,1.453,0,0,0,1.934-1.939,1.453,1.453,0,0,0,0-2.735Zm0,0" transform="translate(-164.348 -49.997)" fill="#ffb531"/>
      <path id="Path_1247122" data-name="Path 1247122" d="M78.542,65.406a9.393,9.393,0,0,0-14.527-7.873V73.279a9.393,9.393,0,0,0,14.527-7.873Zm0,0" transform="translate(-57.187 -50.017)" fill="#5ac6d4"/>
      <path id="Path_1247123" data-name="Path 1247123" d="M328.016,80.008H334v1.709h-5.982Zm0,0" transform="translate(-292.988 -71.455)" fill="#5ac6d4"/>
      <g id="Group_1208783" data-name="Group 1208783" transform="translate(11.101 17.098)">
        <path id="Path_1247124" data-name="Path 1247124" d="M152.016,232.008h8.545v1.709h-8.545Zm0,0" transform="translate(-146.889 -224.317)" fill="#3fb7c7"/>
        <path id="Path_1247125" data-name="Path 1247125" d="M104.016,264.008H114.27v1.709H104.016Zm0,0" transform="translate(-104.016 -252.899)" fill="#3fb7c7"/>
        <path id="Path_1247126" data-name="Path 1247126" d="M104.016,200.008H121.96v1.709H104.016Zm0,0" transform="translate(-104.016 -195.735)" fill="#3fb7c7"/>
        <path id="Path_1247127" data-name="Path 1247127" d="M104.016,296.008h5.127v1.709h-5.127Zm0,0" transform="translate(-104.016 -281.481)" fill="#3fb7c7"/>
        <path id="Path_1247128" data-name="Path 1247128" d="M104.016,328.008h6.836v1.709h-6.836Zm0,0" transform="translate(-104.016 -310.063)" fill="#3fb7c7"/>
        <path id="Path_1247129" data-name="Path 1247129" d="M104.016,360.008h6.836v1.709h-6.836Zm0,0" transform="translate(-104.016 -338.645)" fill="#3fb7c7"/>
        <path id="Path_1247130" data-name="Path 1247130" d="M104.016,392.008h6.836v1.709h-6.836Zm0,0" transform="translate(-104.016 -367.227)" fill="#3fb7c7"/>
        <path id="Path_1247131" data-name="Path 1247131" d="M104.016,232.008h3.418v1.709h-3.418Zm0,0" transform="translate(-104.016 -224.317)" fill="#3fb7c7"/>
        <path id="Path_1247132" data-name="Path 1247132" d="M168.016,296.008h3.418v1.709h-3.418Zm0,0" transform="translate(-161.18 -281.481)" fill="#3fb7c7"/>
        <path id="Path_1247133" data-name="Path 1247133" d="M168.016,160.008h3.418v1.709h-3.418Zm0,0" transform="translate(-161.18 -160.008)" fill="#3fb7c7"/>
        <path id="Path_1247134" data-name="Path 1247134" d="M216.016,160.008h6.836v1.709h-6.836Zm0,0" transform="translate(-204.052 -160.008)" fill="#3fb7c7"/>
      </g>
      <path id="Path_1247135" data-name="Path 1247135" d="M26.815,49.407a9.4,9.4,0,1,1-9.4-9.4A9.4,9.4,0,0,1,26.815,49.407Zm0,0" transform="translate(-7.169 -35.727)" fill="#7eb457"/>
      <path id="Path_1247136" data-name="Path 1247136" d="M37.527,92.355a.855.855,0,0,1-.6-.25l-2.564-2.564,1.208-1.208,1.959,1.959,7.941-7.941,1.208,1.208-8.545,8.545A.855.855,0,0,1,37.527,92.355Zm0,0" transform="translate(-30.698 -73.548)" fill="#ffb531"/>
      <path id="Path_1247137" data-name="Path 1247137" d="M192.469,111.13a9.287,9.287,0,0,0-.564-1.795A1.431,1.431,0,0,0,192.469,111.13Zm0,0" transform="translate(-171.308 -97.65)" fill="#f98500"/>
      <path id="Path_1247138" data-name="Path 1247138" d="M185.023,95.471a9.437,9.437,0,0,0-.875-1.561A1.422,1.422,0,0,0,185.023,95.471Zm0,0" transform="translate(-164.469 -83.872)" fill="#f98500"/>
      <path id="Path_1247139" data-name="Path 1247139" d="M388.288,41.407V32.862a.855.855,0,0,0-.855-.855h-3.418v1.709h2.564v7.691Zm0,0" transform="translate(-343.006 -28.582)"/>
      <path id="Path_1247140" data-name="Path 1247140" d="M56.016,240.008v21.363a.855.855,0,0,0,.855.855H91.051a.855.855,0,0,0,.855-.855v-5.982H90.2v5.127H57.725V240.008Zm0,0" transform="translate(-50.041 -214.365)"/>
      <path id="Path_1247141" data-name="Path 1247141" d="M83.714.093c-.027-.012-.052-.019-.08-.028a.849.849,0,0,0-.221-.044A.326.326,0,0,0,83.36.008H56.87a.855.855,0,0,0-.855.855V2.571h1.709V1.717H82.506V8.553a.855.855,0,0,0,.855.855H90.2V13.68h1.709V8.553c0-.018-.009-.034-.01-.053a.833.833,0,0,0-.044-.221c-.01-.028-.016-.053-.028-.08a.849.849,0,0,0-.171-.25L83.961.258a.856.856,0,0,0-.247-.165ZM88.988,7.7H84.215V2.925Zm0,0" transform="translate(-50.041)"/>
      <path id="Path_1247142" data-name="Path 1247142" d="M184.016,328.862V335.7a.855.855,0,0,0,.855.854h11.109v-1.709H185.725v-5.127H190v-1.709H184.87A.855.855,0,0,0,184.016,328.862Zm0,0" transform="translate(-164.369 -292.965)"/>
      <path id="Path_1247143" data-name="Path 1247143" d="M216.016,360.008h5.127v1.709h-5.127Zm0,0" transform="translate(-192.951 -321.547)"/>
      <path id="Path_1247144" data-name="Path 1247144" d="M131.051,136.008a5.989,5.989,0,0,0-5.982,5.982v.086l-4.358,4.6-2.728-2.728a.854.854,0,0,0-1.208,0l-7.691,7.691a.855.855,0,0,0,0,1.208l11.963,11.963a.855.855,0,0,0,1.208,0l2.564-2.564,4.523-4.521v13.318H96.016v1.709H130.2a.855.855,0,0,0,.855-.855V151.389h-1.709v3.919l-2.979-2.979,4.6-4.358h.086a5.982,5.982,0,1,0,0-11.963ZM121.651,163,110.9,152.244l1.355-1.355,10.755,10.755Zm6.482-6.482-3.919,3.919L113.46,149.68l3.919-3.919,2.157,2.157-1.923,2.029a.855.855,0,0,0,.016,1.2l4.273,4.273a.854.854,0,0,0,1.191.016l2.029-1.923Zm2.917-10.254h-.427a.856.856,0,0,0-.588.234l-7.514,7.115-3.093-3.093L126.547,143a.854.854,0,0,0,.231-.588v-.427a4.273,4.273,0,1,1,4.273,4.273Zm0,0" transform="translate(-85.769 -121.473)"/>
      <path id="Path_1247145" data-name="Path 1247145" d="M152.016,232.008h8.545v1.709h-8.545Zm0,0" transform="translate(-135.787 -207.219)"/>
      <path id="Path_1247146" data-name="Path 1247146" d="M104.016,264.008H114.27v1.709H104.016Zm0,0" transform="translate(-92.914 -235.801)"/>
      <path id="Path_1247147" data-name="Path 1247147" d="M176.016,200.008H186.27v1.709H176.016Zm0,0" transform="translate(-157.224 -178.637)"/>
      <path id="Path_1247148" data-name="Path 1247148" d="M104.016,296.008h5.127v1.709h-5.127Zm0,0" transform="translate(-92.914 -264.383)"/>
      <path id="Path_1247149" data-name="Path 1247149" d="M104.016,328.008h6.836v1.709h-6.836Zm0,0" transform="translate(-92.914 -292.965)"/>
      <path id="Path_1247150" data-name="Path 1247150" d="M104.016,360.008h6.836v1.709h-6.836Zm0,0" transform="translate(-92.914 -321.547)"/>
      <path id="Path_1247151" data-name="Path 1247151" d="M104.016,392.008h6.836v1.709h-6.836Zm0,0" transform="translate(-92.914 -350.129)"/>
      <path id="Path_1247152" data-name="Path 1247152" d="M104.016,232.008h3.418v1.709h-3.418Zm0,0" transform="translate(-92.914 -207.219)"/>
      <path id="Path_1247153" data-name="Path 1247153" d="M168.016,296.008h3.418v1.709h-3.418Zm0,0" transform="translate(-150.078 -264.383)"/>
      <path id="Path_1247154" data-name="Path 1247154" d="M200.016,160.008h8.545v1.709h-8.545Zm0,0" transform="translate(-178.66 -142.91)"/>
      <path id="Path_1247155" data-name="Path 1247155" d="M10.247,52.5a10.254,10.254,0,0,0,10.236-9.9,2.259,2.259,0,0,0,1.657.518,2.317,2.317,0,0,0,3.558,0,2.318,2.318,0,0,0,2.516-2.516,2.317,2.317,0,0,0,0-3.558A2.318,2.318,0,0,0,25.7,34.537a2.317,2.317,0,0,0-3.558,0,2.318,2.318,0,0,0-2.516,2.516,2.218,2.218,0,0,0-.342.352,10.254,10.254,0,1,0-9.036,15.1ZM20.9,38.267a.854.854,0,0,0,.486-1.171.6.6,0,0,1,.8-.8.854.854,0,0,0,1.171-.486.6.6,0,0,1,1.128,0,.854.854,0,0,0,1.172.486.6.6,0,0,1,.8.8.854.854,0,0,0,.486,1.171.6.6,0,0,1,0,1.128.854.854,0,0,0-.486,1.172.575.575,0,0,1-.118.683.582.582,0,0,1-.684.118.854.854,0,0,0-1.171.485.6.6,0,0,1-1.128,0,.852.852,0,0,0-.479-.5.871.871,0,0,0-.327-.065.837.837,0,0,0-.366.086.6.6,0,0,1-.8-.8A.855.855,0,0,0,20.9,39.4a.6.6,0,0,1,0-1.128ZM10.247,33.7A8.545,8.545,0,1,1,1.7,42.249,8.545,8.545,0,0,1,10.247,33.7Zm0,0" transform="translate(0 -28.569)"/>
      <path id="Path_1247156" data-name="Path 1247156" d="M36.923,92.105a.855.855,0,0,0,1.208,0l8.545-8.545-1.208-1.208-7.941,7.941-1.959-1.959-1.208,1.208Zm0,0" transform="translate(-30.698 -73.548)"/>
    </g>
  </g>
</svg>
