<svg xmlns="http://www.w3.org/2000/svg" width="83" height="83" viewBox="0 0 83 83">
  <g id="Group_1209597" data-name="Group 1209597" transform="translate(-287 -14792)">
    <g id="Group_1209509" data-name="Group 1209509" transform="translate(-52 3835)">
      <g id="Group_1208829" data-name="Group 1208829" transform="translate(0 3308)">
        <g id="Group_1208793" data-name="Group 1208793" transform="translate(-262.051 -1036)">
          <g id="Group_1208734" data-name="Group 1208734" transform="translate(174 150)">
            <g id="Group_1208693" data-name="Group 1208693" transform="translate(89 5452)">
              <circle id="Ellipse_12656" data-name="Ellipse 12656" cx="41.5" cy="41.5" r="41.5" transform="translate(338.051 3083)" fill="#b7a8f1"/>
            </g>
          </g>
        </g>
      </g>
    </g>
    <g id="Layer_30" transform="translate(300 14796)">
      <g id="Group_1209593" data-name="Group 1209593" transform="translate(0 13)">
        <g id="Group_1209514" data-name="Group 1209514" transform="translate(14.275 0.51)">
          <g id="Group_1209513" data-name="Group 1209513">
            <path id="Path_1248276" data-name="Path 1248276" d="M99.813,15.5H71.68a1.739,1.739,0,0,0-1.739,1.739V33.834a10.126,10.126,0,1,1,0,17.562v8.288a1.739,1.739,0,0,0,1.739,1.739H95.054l6.5-6.5V17.239A1.739,1.739,0,0,0,99.813,15.5Z" transform="translate(-69.941 -15.5)" fill="#edf4fc"/>
          </g>
        </g>
        <g id="Group_1209516" data-name="Group 1209516" transform="translate(4.995 13.305)">
          <g id="Group_1209515" data-name="Group 1209515">
            <circle id="Ellipse_12725" data-name="Ellipse 12725" cx="10.126" cy="10.126" r="10.126" transform="translate(0 14.318) rotate(-45)" fill="#6cadef"/>
          </g>
        </g>
        <g id="Group_1209518" data-name="Group 1209518" transform="translate(0.51 36.168)">
          <g id="Group_1209517" data-name="Group 1209517">
            <path id="Path_1248277" data-name="Path 1248277" d="M12.29,192.137l-1.457-1.457a1.623,1.623,0,0,0-2.3,0l-5.563,5.563a1.623,1.623,0,0,0,0,2.3L4.432,200a1.623,1.623,0,0,0,2.3,0l5.563-5.563A1.623,1.623,0,0,0,12.29,192.137Z" transform="translate(-2.5 -190.205)" fill="#fc657e"/>
          </g>
        </g>
        <g id="Group_1209520" data-name="Group 1209520" transform="translate(8.56 33.734)">
          <g id="Group_1209519" data-name="Group 1209519">
            <path id="Path_1248278" data-name="Path 1248278" d="M45.54,179.33a10.2,10.2,0,0,1-.913-1.051l-2.685,2.685a1.625,1.625,0,0,1,.283.225l1.457,1.457a1.622,1.622,0,0,1,.225.283l2.685-2.685A10.191,10.191,0,0,1,45.54,179.33Z" transform="translate(-41.942 -178.279)" fill="#5290db"/>
          </g>
        </g>
        <g id="Group_1209522" data-name="Group 1209522" transform="translate(23.354 18.338)">
          <g id="Group_1209521" data-name="Group 1209521">
            <path id="Path_1248279" data-name="Path 1248279" d="M131.4,102.848H114.425a10.125,10.125,0,0,1,0,18.573H131.4a.9.9,0,0,0,.895-.895V103.742A.9.9,0,0,0,131.4,102.848Z" transform="translate(-114.425 -102.848)" fill="#70d6f9"/>
          </g>
        </g>
        <g id="Group_1209524" data-name="Group 1209524" transform="translate(39.389 39.935)">
          <g id="Group_1209523" data-name="Group 1209523">
            <path id="Path_1248280" data-name="Path 1248280" d="M194.725,208.661a1.739,1.739,0,0,0-1.739,1.739v4.759l6.5-6.5Z" transform="translate(-192.985 -208.661)" fill="#c7d7e5"/>
          </g>
        </g>
        <g id="Group_1209526" data-name="Group 1209526" transform="translate(14.275 0.51)">
          <g id="Group_1209525" data-name="Group 1209525">
            <path id="Path_1248281" data-name="Path 1248281" d="M99.813,15.5H71.68a1.739,1.739,0,0,0-1.739,1.739V27.788h31.612V17.239A1.739,1.739,0,0,0,99.813,15.5Z" transform="translate(-69.941 -15.5)" fill="#fca265"/>
          </g>
        </g>
        <g id="Group_1209528" data-name="Group 1209528" transform="translate(34.799 18.338)">
          <g id="Group_1209527" data-name="Group 1209527">
            <path id="Path_1248282" data-name="Path 1248282" d="M176.035,102.848H170.5v18.573h5.535a.9.9,0,0,0,.895-.895V103.742A.9.9,0,0,0,176.035,102.848Z" transform="translate(-170.5 -102.848)" fill="#70d6f9"/>
          </g>
        </g>
        <g id="Group_1209530" data-name="Group 1209530" transform="translate(8.713 17.023)">
          <g id="Group_1209529" data-name="Group 1209529">
            <circle id="Ellipse_12726" data-name="Ellipse 12726" cx="7.497" cy="7.497" r="7.497" transform="translate(0 10.6) rotate(-45)" fill="#70d6f9"/>
          </g>
        </g>
        <g id="Group_1209532" data-name="Group 1209532" transform="translate(20.978 40.761)">
          <g id="Group_1209531" data-name="Group 1209531">
            <path id="Path_1248283" data-name="Path 1248283" d="M109.531,212.711h-6.238a.51.51,0,1,0,0,1.021h6.238a.51.51,0,1,0,0-1.021Z" transform="translate(-102.783 -212.711)"/>
          </g>
        </g>
        <g id="Group_1209534" data-name="Group 1209534" transform="translate(16.265 25.794)">
          <g id="Group_1209533" data-name="Group 1209533">
            <path id="Path_1248284" data-name="Path 1248284" d="M85.923,139.527a.51.51,0,0,0-.722,0l-2.781,2.781-1.857-1.857a.51.51,0,0,0-.722.722l2.218,2.218a.51.51,0,0,0,.722,0l3.142-3.142A.51.51,0,0,0,85.923,139.527Z" transform="translate(-79.691 -139.378)"/>
          </g>
        </g>
        <g id="Group_1209537" data-name="Group 1209537" transform="translate(13.765 0)">
          <g id="Group_1209536" data-name="Group 1209536">
            <g id="Group_1209535" data-name="Group 1209535">
              <path id="Path_1248285" data-name="Path 1248285" d="M97.823,13H69.69a2.252,2.252,0,0,0-2.25,2.25V31.844a.51.51,0,0,0,.765.442,9.616,9.616,0,1,1,0,16.677.51.51,0,0,0-.765.442v8.288a2.252,2.252,0,0,0,2.25,2.25H93.064a.51.51,0,0,0,.361-.149l6.5-6.5a.51.51,0,0,0,.149-.361V15.25A2.252,2.252,0,0,0,97.823,13Zm1.229,39.723-6.2,6.2H69.69a1.23,1.23,0,0,1-1.229-1.229V50.247a10.637,10.637,0,1,0,0-19.245V15.25A1.23,1.23,0,0,1,69.69,14.02H97.823a1.23,1.23,0,0,1,1.229,1.229Z" transform="translate(-67.44 -13)"/>
            </g>
          </g>
        </g>
        <g id="Group_1209561" data-name="Group 1209561" transform="translate(27.375 21.478)">
          <g id="Group_1209560" data-name="Group 1209560">
            <path id="Path_1248295" data-name="Path 1248295" d="M147.825,118.232h-13.19a.51.51,0,0,0,0,1.021h13.19a.51.51,0,0,0,0-1.021Z" transform="translate(-134.125 -118.232)"/>
          </g>
        </g>
        <g id="Group_1209563" data-name="Group 1209563" transform="translate(28.934 25.229)">
          <g id="Group_1209562" data-name="Group 1209562">
            <path id="Path_1248296" data-name="Path 1248296" d="M153.906,136.612H142.275a.51.51,0,0,0,0,1.021h11.631a.51.51,0,0,0,0-1.021Z" transform="translate(-141.765 -136.612)"/>
          </g>
        </g>
        <g id="Group_1209565" data-name="Group 1209565" transform="translate(27.324 32.732)">
          <g id="Group_1209564" data-name="Group 1209564">
            <path id="Path_1248297" data-name="Path 1248297" d="M147.626,173.372H134.385a.51.51,0,0,0,0,1.021h13.241a.51.51,0,0,0,0-1.021Z" transform="translate(-133.875 -173.372)"/>
          </g>
        </g>
        <g id="Group_1209567" data-name="Group 1209567" transform="translate(28.934 28.981)">
          <g id="Group_1209566" data-name="Group 1209566">
            <path id="Path_1248298" data-name="Path 1248298" d="M153.906,154.992H142.275a.51.51,0,0,0,0,1.021h11.631a.51.51,0,0,0,0-1.021Z" transform="translate(-141.765 -154.992)"/>
          </g>
        </g>
        <g id="Group_1209570" data-name="Group 1209570" transform="translate(8.682 16.993)">
          <g id="Group_1209569" data-name="Group 1209569">
            <g id="Group_1209568" data-name="Group 1209568">
              <path id="Path_1248299" data-name="Path 1248299" d="M60.7,99.37a10.636,10.636,0,1,0,3.115,7.521A10.648,10.648,0,0,0,60.7,99.37Zm-.722,14.32a9.616,9.616,0,1,1,2.816-6.8A9.627,9.627,0,0,1,59.976,113.69Z" transform="translate(-42.54 -96.26)"/>
            </g>
          </g>
        </g>
        <g id="Group_1209573" data-name="Group 1209573" transform="translate(0 35.659)">
          <g id="Group_1209572" data-name="Group 1209572">
            <g id="Group_1209571" data-name="Group 1209571">
              <path id="Path_1248300" data-name="Path 1248300" d="M10.661,189.791,9.2,188.334a2.135,2.135,0,0,0-3.017,0L.625,193.9a2.133,2.133,0,0,0,0,3.017l1.457,1.457a2.135,2.135,0,0,0,3.017,0l5.563-5.563A2.136,2.136,0,0,0,10.661,189.791Zm-.722,2.3-5.563,5.563a1.114,1.114,0,0,1-1.574,0l-1.457-1.457a1.113,1.113,0,0,1,0-1.574l5.563-5.563a1.114,1.114,0,0,1,1.574,0l1.457,1.457A1.114,1.114,0,0,1,9.939,192.086Z" transform="translate(0 -187.71)"/>
            </g>
          </g>
        </g>
        <g id="Group_1209576" data-name="Group 1209576" transform="translate(8.05 33.223)">
          <g id="Group_1209575" data-name="Group 1209575">
            <g id="Group_1209574" data-name="Group 1209574">
              <path id="Path_1248301" data-name="Path 1248301" d="M44.91,177.847a9.459,9.459,0,0,1-1.866-1.866.51.51,0,0,0-.767-.052l-2.685,2.685a.51.51,0,0,0,.088.792,1.122,1.122,0,0,1,.195.154l1.456,1.456a1.128,1.128,0,0,1,.154.2.51.51,0,0,0,.375.235.491.491,0,0,0,.057,0,.51.51,0,0,0,.361-.149l2.685-2.685a.51.51,0,0,0-.052-.767Zm-2.964,2.34L40.7,178.944l1.892-1.892c.192.228.391.444.595.648s.421.4.648.595Z" transform="translate(-39.443 -175.779)"/>
            </g>
          </g>
        </g>
        <g id="Group_1209580" data-name="Group 1209580" transform="translate(22.844 17.828)">
          <g id="Group_1209579" data-name="Group 1209579">
            <g id="Group_1209578" data-name="Group 1209578">
              <g id="Group_1209577" data-name="Group 1209577">
                <path id="Path_1248302" data-name="Path 1248302" d="M129.416,100.348H112.436a.51.51,0,0,0-.2.978,9.615,9.615,0,0,1,0,17.637.51.51,0,0,0,.2.978h16.979a1.406,1.406,0,0,0,1.4-1.4V101.753A1.406,1.406,0,0,0,129.416,100.348Zm.384,18.189a.385.385,0,0,1-.384.384H114.41a10.64,10.64,0,0,0,0-17.553h15.005a.385.385,0,0,1,.384.384Z" transform="translate(-111.926 -100.348)"/>
              </g>
            </g>
          </g>
        </g>
        <g id="Group_1209583" data-name="Group 1209583" transform="translate(38.878 39.424)">
          <g id="Group_1209582" data-name="Group 1209582">
            <g id="Group_1209581" data-name="Group 1209581">
              <path id="Path_1248303" data-name="Path 1248303" d="M197.965,206.476a.51.51,0,0,0-.471-.315h-4.759a2.252,2.252,0,0,0-2.249,2.25v4.759a.51.51,0,0,0,.871.361l6.5-6.5A.51.51,0,0,0,197.965,206.476Zm-6.459,5.462v-3.527a1.23,1.23,0,0,1,1.229-1.229h3.527Z" transform="translate(-190.485 -206.161)"/>
            </g>
          </g>
        </g>
        <g id="Group_1209586" data-name="Group 1209586" transform="translate(13.765 0)">
          <g id="Group_1209585" data-name="Group 1209585">
            <g id="Group_1209584" data-name="Group 1209584">
              <path id="Path_1248304" data-name="Path 1248304" d="M97.823,13H69.69a2.252,2.252,0,0,0-2.25,2.25V25.8a.51.51,0,0,0,.51.51H99.563a.51.51,0,0,0,.51-.51V15.25A2.252,2.252,0,0,0,97.823,13Zm1.229,12.288H68.461V15.25a1.23,1.23,0,0,1,1.229-1.229H97.823a1.23,1.23,0,0,1,1.229,1.229Z" transform="translate(-67.44 -13)"/>
            </g>
          </g>
        </g>
        <g id="Group_1209589" data-name="Group 1209589" transform="translate(34.289 17.828)">
          <g id="Group_1209588" data-name="Group 1209588">
            <g id="Group_1209587" data-name="Group 1209587">
              <path id="Path_1248305" data-name="Path 1248305" d="M174.045,100.348H168.51a.51.51,0,0,0-.51.51v18.573a.51.51,0,0,0,.51.51h5.535a1.406,1.406,0,0,0,1.4-1.4V101.753A1.406,1.406,0,0,0,174.045,100.348Zm.384,18.189a.385.385,0,0,1-.384.384h-5.024V101.368h5.024a.385.385,0,0,1,.384.384Z" transform="translate(-168 -100.348)"/>
            </g>
          </g>
        </g>
        <g id="Group_1209592" data-name="Group 1209592" transform="translate(11.316 19.622)">
          <g id="Group_1209591" data-name="Group 1209591">
            <g id="Group_1209590" data-name="Group 1209590">
              <path id="Path_1248306" data-name="Path 1248306" d="M69.106,111.478a8,8,0,1,0,0,11.323A8.016,8.016,0,0,0,69.106,111.478Zm-.722,10.6a6.983,6.983,0,1,1,0-9.88A6.994,6.994,0,0,1,68.384,122.08Z" transform="translate(-55.441 -109.136)"/>
            </g>
          </g>
        </g>
      </g>
    </g>
  </g>
</svg>
