<svg xmlns="http://www.w3.org/2000/svg" width="83" height="83" viewBox="0 0 83 83">
  <g id="Group_1208716" data-name="Group 1208716" transform="translate(-759.051 -8535)">
    <g id="Group_1208694" data-name="Group 1208694" transform="translate(421 5452)">
      <circle id="Ellipse_12656" data-name="Ellipse 12656" cx="41.5" cy="41.5" r="41.5" transform="translate(338.051 3083)" fill="#b7a8f1"/>
    </g>
    <g id="deuda_1_" data-name="deuda (1)" transform="translate(772.051 8548)">
      <g id="Group_1208714" data-name="Group 1208714" transform="translate(1.877 1.877)">
        <g id="Group_1208697" data-name="Group 1208697" transform="translate(9.306 28.182)">
          <path id="Path_1246895" data-name="Path 1246895" d="M23.819,34.779l-5.6,17.656-5.6-17.647v-.009a15.288,15.288,0,0,1,2.1-.649A3.391,3.391,0,0,0,18.1,37.524h.228a3.391,3.391,0,0,0,3.394-3.394A15.287,15.287,0,0,1,23.819,34.779Z" transform="translate(-12.61 -34.13)" fill="#fcd770"/>
        </g>
        <g id="Group_1208698" data-name="Group 1208698" transform="translate(14.911 30.208)">
          <path id="Path_1246896" data-name="Path 1246896" d="M28.648,53.6v5.263H19v-6.14l5.263-4.28-1.754-4.386,3.508-.877,1.228-6.736a14.688,14.688,0,0,1,6.3,9.025,8.68,8.68,0,0,0-1.386,4.71,8.551,8.551,0,0,0,.7,3.421Z" transform="translate(-19 -36.44)" fill="#ff826e"/>
        </g>
        <g id="Group_1208699" data-name="Group 1208699" transform="translate(0 30.199)">
          <path id="Path_1246897" data-name="Path 1246897" d="M7.263,53.6H2v-4.85A14.728,14.728,0,0,1,8.666,36.43l1.228,6.745,3.508.877-1.754,4.386,5.263,4.28v6.14H7.263Z" transform="translate(-2 -36.43)" fill="#ff826e"/>
        </g>
        <g id="Group_1208700" data-name="Group 1208700" transform="translate(14.911 28.831)">
          <path id="Path_1246898" data-name="Path 1246898" d="M22.508,43.86l1.754,4.386L19,52.526,24.6,34.87a15.045,15.045,0,0,1,2.64,1.368v.009l-1.228,6.736Z" transform="translate(-19 -34.87)" fill="#fc6e51"/>
        </g>
        <g id="Group_1208701" data-name="Group 1208701" transform="translate(6.666 28.839)">
          <path id="Path_1246899" data-name="Path 1246899" d="M12.24,34.88l5.6,17.647-5.263-4.28,1.754-4.386-3.508-.877L9.6,36.24a14.16,14.16,0,0,1,2.64-1.36Z" transform="translate(-9.6 -34.88)" fill="#fc6e51"/>
        </g>
        <g id="Group_1208702" data-name="Group 1208702" transform="translate(4.386 3.508)">
          <path id="Path_1246900" data-name="Path 1246900" d="M14.017,13.017l-.851.211a3.526,3.526,0,0,0-2.658,3.3H9.631a2.609,2.609,0,0,0-1.8.71l-.71-2.868a3.966,3.966,0,0,1,1.658-4.289l.368-.254A2.483,2.483,0,0,1,11.236,6H21.665a6.386,6.386,0,0,1,6.385,6.385,6.681,6.681,0,0,1-.123,1.254l-.719,3.587a2.637,2.637,0,0,0-1.789-.7h-.877a1.759,1.759,0,0,0-1.754-1.754H15.771a1.759,1.759,0,0,1-1.754-1.754Z" transform="translate(-7 -6)" fill="#656d78"/>
        </g>
        <g id="Group_1208703" data-name="Group 1208703" transform="translate(28.945 25.436)">
          <path id="Path_1246901" data-name="Path 1246901" d="M52.542,33.561a2.571,2.571,0,0,1-.614,1.667L47.28,40.648H40.263l-4.649-5.421A2.563,2.563,0,0,1,37.561,31h.07c1.535,0,1.535,1.754,3.07,1.754S42.236,31,43.762,31c1.544,0,1.544,1.754,3.079,1.754S48.376,31,49.911,31h.07a2.576,2.576,0,0,1,2.561,2.561Z" transform="translate(-35 -31)" fill="#a0d468"/>
        </g>
        <g id="Group_1208704" data-name="Group 1208704" transform="translate(28.068 35.084)">
          <path id="Path_1246902" data-name="Path 1246902" d="M52.332,46.886a8.554,8.554,0,0,0-2.675-3.1L47.157,42H40.14l-2.5,1.789A8.69,8.69,0,0,0,35.754,56.1l.789.9a8.649,8.649,0,0,0,6.14,2.544h1.93A8.681,8.681,0,0,0,53.3,50.859a8.577,8.577,0,0,0-.965-3.973Z" transform="translate(-34 -42)" fill="#b4dd7f"/>
        </g>
        <g id="Group_1208705" data-name="Group 1208705" transform="translate(0 47.364)">
          <path id="Path_1246903" data-name="Path 1246903" d="M2,56H7.263v5.263H2Z" transform="translate(-2 -56)" fill="#f0d0b4"/>
        </g>
        <g id="Group_1208706" data-name="Group 1208706" transform="translate(24.559 47.364)">
          <path id="Path_1246904" data-name="Path 1246904" d="M35.263,57.816v3.447H30V56h4.21A8.678,8.678,0,0,0,35.263,57.816Z" transform="translate(-30 -56)" fill="#f0d0b4"/>
        </g>
        <g id="Group_1208707" data-name="Group 1208707" transform="translate(21.928 14.034)">
          <path id="Path_1246905" data-name="Path 1246905" d="M29.666,18.7a2.633,2.633,0,0,1-1.789,4.561H27V18h.877a2.637,2.637,0,0,1,1.789.7Z" transform="translate(-27 -18)" fill="#f0d0b4"/>
        </g>
        <g id="Group_1208708" data-name="Group 1208708" transform="translate(11.402 26.155)">
          <path id="Path_1246906" data-name="Path 1246906" d="M22.017,33.846a3.391,3.391,0,0,1-3.394,3.394h-.228A3.391,3.391,0,0,1,15,33.846l.5-2.026a4.965,4.965,0,0,0,1.254.158h3.508a4.965,4.965,0,0,0,1.254-.158Z" transform="translate(-15 -31.82)" fill="#f0d0b4"/>
        </g>
        <g id="Group_1208709" data-name="Group 1208709" transform="translate(7.894 10.525)">
          <path id="Path_1246907" data-name="Path 1246907" d="M21.025,29.63a4.965,4.965,0,0,1-1.254.158H16.263a4.965,4.965,0,0,1-1.254-.158A5.251,5.251,0,0,1,11,24.525V17.508a3.526,3.526,0,0,1,2.658-3.3L14.508,14a1.759,1.759,0,0,0,1.754,1.754H23.28a1.759,1.759,0,0,1,1.754,1.754v7.017a5.251,5.251,0,0,1-4.008,5.1Z" transform="translate(-11 -14)" fill="#f0d0b4"/>
        </g>
        <g id="Group_1208710" data-name="Group 1208710" transform="translate(4.386 14.034)">
          <path id="Path_1246908" data-name="Path 1246908" d="M10.508,18v5.263H9.631a2.631,2.631,0,0,1,0-5.263Z" transform="translate(-7 -18)" fill="#f0d0b4"/>
        </g>
        <g id="Group_1208711" data-name="Group 1208711" transform="translate(11.402 19.296)">
          <path id="Path_1246909" data-name="Path 1246909" d="M15,24h7.017A3.508,3.508,0,1,1,15,24Z" transform="translate(-15 -24)" fill="#ff826e"/>
        </g>
        <g id="Group_1208712" data-name="Group 1208712" transform="translate(28.068 0)">
          <path id="Path_1246910" data-name="Path 1246910" d="M57.814,5.921a1.581,1.581,0,0,1,0,2.684l-5.938,3.71a1.33,1.33,0,0,1-.728.211,1.366,1.366,0,0,1-1.36-1.36V9.894H34V4.631H49.788V3.36A1.366,1.366,0,0,1,51.148,2a1.33,1.33,0,0,1,.728.211Z" transform="translate(-34 -2)" fill="#ffeaa7"/>
        </g>
        <g id="Group_1208713" data-name="Group 1208713" transform="translate(28.945 11.402)">
          <path id="Path_1246911" data-name="Path 1246911" d="M59.559,17.631v5.263H43.771v1.272a1.366,1.366,0,0,1-1.36,1.36,1.33,1.33,0,0,1-.728-.211L35.746,21.6a1.581,1.581,0,0,1,0-2.684l5.938-3.71A1.33,1.33,0,0,1,42.412,15a1.366,1.366,0,0,1,1.36,1.36v1.272Z" transform="translate(-35 -15)" fill="#ffeaa7"/>
        </g>
      </g>
      <g id="Group_1208715" data-name="Group 1208715" transform="translate(1 1)">
        <path id="Path_1246912" data-name="Path 1246912" d="M43.631,48.508h1.754a.878.878,0,0,1,.877.877h1.754a2.635,2.635,0,0,0-2.631-2.631V45H43.631v1.754a2.631,2.631,0,0,0,0,5.263h1.754a.877.877,0,0,1,0,1.754H43.631a.878.878,0,0,1-.877-.877H41a2.635,2.635,0,0,0,2.631,2.631V57.28h1.754V55.525a2.631,2.631,0,1,0,0-5.263H43.631a.877.877,0,0,1,0-1.754Z" transform="translate(-5.916 -6.407)"/>
        <path id="Path_1246913" data-name="Path 1246913" d="M46.113,38.527,44.391,37.3l4.022-4.692a3.44,3.44,0,0,0-2.68-5.678,2.789,2.789,0,0,0-2.2,1.176c-.382.437-.535.578-.876.578s-.494-.141-.877-.578a2.636,2.636,0,0,0-4.39,0c-.381.436-.533.577-.874.577s-.492-.141-.873-.577a2.818,2.818,0,0,0-2.264-1.177,3.438,3.438,0,0,0-2.61,5.676L34.8,37.3l-1.723,1.23A9.473,9.473,0,0,0,31.7,39.747a15.689,15.689,0,0,0-10.676-9.92l-.179-.719a6.144,6.144,0,0,0,3.841-5.688v-.877a3.512,3.512,0,0,0,3.508-3.508,3.475,3.475,0,0,0-.776-2.173l.634-3.173A7.258,7.258,0,0,0,20.929,5H10.5A3.321,3.321,0,0,0,7.32,9.4a4.857,4.857,0,0,0-1.935,3.877,4.909,4.909,0,0,0,.146,1.182l.607,2.427a3.489,3.489,0,0,0,2.756,5.654v.877a6.146,6.146,0,0,0,3.842,5.689l-.18.718A15.512,15.512,0,0,0,1,44.883V55.872H32.576V53.7a9.521,9.521,0,0,0,6.055,2.168h1.924a9.564,9.564,0,0,0,5.559-17.346ZM31.7,30.366a1.7,1.7,0,0,1,1.754-1.684c.34,0,.492.141.873.577a2.633,2.633,0,0,0,4.388,0c.382-.436.533-.577.874-.577s.494.141.876.578a2.638,2.638,0,0,0,4.392,0c.383-.437.535-.578.947-.578a1.685,1.685,0,0,1,1.279,2.78L42.7,36.576h-6.21L32.1,31.462a1.683,1.683,0,0,1-.405-1.1ZM30.393,41.489a9.387,9.387,0,0,0-.97,7.367H27.313V43.593H25.559V54.118H17.665V49.273l5.44-4.421L21.483,40.8l3.083-.771,1.075-5.913a13.871,13.871,0,0,1,4.751,7.373ZM16.674,34.822H16.9a4.267,4.267,0,0,0,4.11-3.171c.1.03.19.065.286.1L16.77,46.014l-4.5-14.272c.1-.032.195-.055.292-.084A4.267,4.267,0,0,0,16.674,34.822Zm3.294,6.913L21,44.305l-2.485,2.019Zm.815-2.566L22.931,32.4c.388.186.762.393,1.129.613L23.044,38.6Zm-7.99,0-2.26-.565L9.513,33q.549-.325,1.131-.6Zm.815,2.566,1.457,4.59L12.58,44.305ZM24.682,20.788V17.28a1.754,1.754,0,1,1,0,3.508ZM7.14,19.034A1.756,1.756,0,0,1,8.894,17.28v3.508A1.756,1.756,0,0,1,7.14,19.034Zm1.88-3.508H8.894a3.48,3.48,0,0,0-1.231.234l-.431-1.723a3.161,3.161,0,0,1-.093-.758,3.1,3.1,0,0,1,1.145-2.386l.867.867,1.24-1.24L9.363,9.492A1.6,1.6,0,0,1,10.5,6.754H20.929a5.507,5.507,0,0,1,5.4,6.587l-.48,2.4a3.484,3.484,0,0,0-1.167-.214h-.161a2.628,2.628,0,0,0-2.47-1.754H15.034a.877.877,0,1,1,0-1.754h.877V10.263h-.877A2.637,2.637,0,0,0,12.5,12.185l-.282.071A4.367,4.367,0,0,0,9.019,15.525Zm1.629,7.894V16.51a2.627,2.627,0,0,1,1.981-2.549,2.634,2.634,0,0,0,2.405,1.564h7.017a.878.878,0,0,1,.877.877v7.017A4.391,4.391,0,0,1,18.542,27.8H15.034A4.391,4.391,0,0,1,10.648,23.419Zm4.386,6.14h3.508c.2,0,.4-.011.595-.03l.275,1.1A2.515,2.515,0,0,1,16.9,33.068h-.228a2.515,2.515,0,0,1-2.509-2.439l.275-1.1c.2.018.394.03.595.03Zm-7.1,4.53,1.08,5.941,3.083.771L10.47,44.853l5.441,4.42v4.845H8.017V43.593H6.263v5.263H2.754V44.883A13.763,13.763,0,0,1,7.929,34.089ZM2.754,50.61H6.263v3.508H2.754Zm24.559,3.508V50.61H30.1a9.525,9.525,0,0,0,.721,1.2v2.308Zm13.242,0H38.632a7.809,7.809,0,0,1-4.539-14.164l2.273-1.624H42.82l2.273,1.624a7.809,7.809,0,0,1-4.538,14.164Z" transform="translate(-1 -1.492)"/>
        <path id="Path_1246914" data-name="Path 1246914" d="M44.525,16.24a2.241,2.241,0,0,0-3.429-1.9l-5.942,3.714a2.461,2.461,0,0,0,0,4.172L41.1,25.939a2.241,2.241,0,0,0,3.428-1.9v-.391H57.682V21.894H42.771v2.145a.5.5,0,0,1-.744.412l-5.942-3.714a.705.705,0,0,1,0-1.2l5.941-3.714a.5.5,0,0,1,.745.412v2.145H59.436V16.631H44.525Z" transform="translate(-5.055 -2.598)"/>
        <path id="Path_1246915" data-name="Path 1246915" d="M50.665,3.24a.5.5,0,0,1,.744-.412L57.35,6.542a.705.705,0,0,1,0,1.2L51.41,11.452a.5.5,0,0,1-.745-.412V8.894H35.754v1.754H48.911v.391a2.241,2.241,0,0,0,3.429,1.9l5.942-3.714a2.461,2.461,0,0,0,0-4.172L52.339,1.34a2.241,2.241,0,0,0-3.428,1.9v.391H34V5.386H50.665Z" transform="translate(-5.055 -1)"/>
        <path id="Path_1246916" data-name="Path 1246916" d="M22.771,23.877V23H14v.877a4.386,4.386,0,0,0,8.771,0Zm-6.867.877h4.963a2.632,2.632,0,0,1-4.963,0Z" transform="translate(-2.598 -3.704)"/>
        <circle id="Ellipse_12663" data-name="Ellipse 12663" cx="1" cy="1" r="1" transform="translate(18.381 16)"/>
        <circle id="Ellipse_12664" data-name="Ellipse 12664" cx="1" cy="1" r="1" transform="translate(11.381 16)"/>
      </g>
    </g>
  </g>
</svg>
