<svg xmlns="http://www.w3.org/2000/svg" width="83" height="83" viewBox="0 0 83 83">
  <g id="Group_1209602" data-name="Group 1209602" transform="translate(-286.051 -8956.348)">
    <g id="Group_1208733" data-name="Group 1208733" transform="translate(-141 421.348)">
      <g id="Group_1208693" data-name="Group 1208693" transform="translate(89 5452)">
        <circle id="Ellipse_12656" data-name="Ellipse 12656" cx="41.5" cy="41.5" r="41.5" transform="translate(338.051 3083)" fill="#b7a8f1"/>
      </g>
    </g>
    <g id="Layer_32" data-name="Layer 32" transform="translate(302.051 8972.348)">
      <path id="Path_1247084" data-name="Path 1247084" d="M52,6h7.9v4.738l-2.369.79V13.9H52Z" transform="translate(-10.728 -1.052)" fill="#f19537"/>
      <path id="Path_1247085" data-name="Path 1247085" d="M52,20h7.9v4.738l-2.369.79V27.9H52Z" transform="translate(-10.728 -3.997)" fill="#82d055"/>
      <path id="Path_1247086" data-name="Path 1247086" d="M2,4.369A2.369,2.369,0,0,1,4.369,2H43.062V44.641L40.693,47.01l2.369,2.369H4.369A2.369,2.369,0,0,1,2,47.01Z" transform="translate(-0.21 -0.21)" fill="#4da8e2"/>
      <path id="Path_1247087" data-name="Path 1247087" d="M2,4.369V47.01a2.349,2.349,0,0,0,.1.632l5.432-3V2H4.369A2.369,2.369,0,0,0,2,4.369Z" transform="translate(-0.21 -0.21)" fill="#3a64db"/>
      <path id="Path_1247088" data-name="Path 1247088" d="M14,13.467A27.226,27.226,0,0,0,41.226,40.693h4.36V2H14Z" transform="translate(-2.735 -0.21)" fill="#68c1f7"/>
      <path id="Path_1247089" data-name="Path 1247089" d="M4.369,60.738H43.062l-2.369-2.369L43.062,56H4.369a2.369,2.369,0,1,0,0,4.738Z" transform="translate(-0.21 -11.569)" fill="#abe7ff"/>
      <g id="Group_1208782" data-name="Group 1208782" transform="translate(11.265 16.003)">
        <path id="Path_1247090" data-name="Path 1247090" d="M14,38.952l7.9-7.107,5.133,5.133,11.45-11.45L40.848,27.9l.79-7.9-7.9.79,2.369,2.369L27.029,32.24,21.9,27.107,14,34.214Z" transform="translate(-14 -20)" fill="#ec525b"/>
        <path id="Path_1247091" data-name="Path 1247091" d="M17.948,50.528V45L14,48.159v2.369Z" transform="translate(-14 -25.259)" fill="#ec525b"/>
        <path id="Path_1247092" data-name="Path 1247092" d="M23,41v8.686h3.948V44.948Z" transform="translate(-15.893 -24.417)" fill="#ec525b"/>
        <path id="Path_1247093" data-name="Path 1247093" d="M35.948,41v8.686H32V44.948Z" transform="translate(-17.786 -24.417)" fill="#ec525b"/>
        <path id="Path_1247094" data-name="Path 1247094" d="M41,35.948V47.793h3.948V32Z" transform="translate(-19.679 -22.524)" fill="#ec525b"/>
      </g>
      <path id="Path_1247095" data-name="Path 1247095" d="M17.948,5H14.79a.79.79,0,0,0-.79.79v6.317h1.579V9.738h2.369a2.369,2.369,0,0,0,0-4.738Zm0,3.159H15.579V6.579h2.369a.79.79,0,1,1,0,1.579Z" transform="translate(-2.735 -0.841)" fill="#f2f2f2"/>
      <path id="Path_1247096" data-name="Path 1247096" d="M24.579,5H23v6.317a.79.79,0,0,0,.79.79h3.948V10.528H24.579Z" transform="translate(-4.628 -0.841)" fill="#f2f2f2"/>
      <path id="Path_1247097" data-name="Path 1247097" d="M33.159,5A3.159,3.159,0,0,0,30,8.159v3.948h1.579V10.528h3.159v1.579h1.579V8.159A3.159,3.159,0,0,0,33.159,5ZM31.579,8.948v-.79a1.579,1.579,0,1,1,3.159,0v.79Z" transform="translate(-6.1 -0.841)" fill="#f2f2f2"/>
      <path id="Path_1247098" data-name="Path 1247098" d="M45.528,5v5.37a.167.167,0,0,1-.311.063L43.342,6.056A1.741,1.741,0,0,0,40,6.741v5.366h1.579V6.741a.167.167,0,0,1,.311-.063l1.875,4.373a1.741,1.741,0,0,0,3.342-.681V5Z" transform="translate(-8.204 -0.841)" fill="#f2f2f2"/>
      <path id="Path_1247099" data-name="Path 1247099" d="M13.468,39.462a.79.79,0,0,0,.85-.135l7.34-6.605,4.6,4.6a.79.79,0,0,0,1.117,0L38.269,26.433l1.811,1.811a.79.79,0,0,0,1.348-.479l.79-7.9A.79.79,0,0,0,41.352,19l-7.9.79a.79.79,0,0,0-.479,1.342l1.807,1.816-7.964,7.964-4.574-4.574a.79.79,0,0,0-1.087-.028l-7.9,7.107A.79.79,0,0,0,13,34V38.74a.79.79,0,0,0,.468.722Zm1.111-5.108,7.078-6.37,4.6,4.6a.79.79,0,0,0,1.117,0l9.081-9.081a.79.79,0,0,0,0-1.117L35.268,21.2l5.278-.527-.528,5.277-1.191-1.191a.79.79,0,0,0-1.117,0L26.819,35.649l-4.574-4.574a.79.79,0,0,0-1.087-.028l-6.579,5.921Z" transform="translate(-2.524 -3.785)"/>
      <path id="Path_1247100" data-name="Path 1247100" d="M13.79,51.107h3.948a.79.79,0,0,0,.79-.79V44.79a.79.79,0,0,0-1.283-.617L13.3,47.331a.79.79,0,0,0-.3.617v2.369A.79.79,0,0,0,13.79,51.107Zm.79-2.78,2.369-1.9v3.1H14.579Z" transform="translate(-2.524 -9.045)"/>
      <path id="Path_1247101" data-name="Path 1247101" d="M23.348,40.231A.79.79,0,0,0,22,40.79v8.686a.79.79,0,0,0,.79.79h3.948a.79.79,0,0,0,.79-.79V44.738a.79.79,0,0,0-.231-.558Zm2.6,8.455H23.579V42.7l2.369,2.369Z" transform="translate(-4.417 -8.204)"/>
      <path id="Path_1247102" data-name="Path 1247102" d="M36.04,40.06a.79.79,0,0,0-.861.171L31.231,44.18a.79.79,0,0,0-.231.558v4.738a.79.79,0,0,0,.79.79h3.948a.79.79,0,0,0,.79-.79V40.79a.79.79,0,0,0-.487-.73Zm-1.092,8.626H32.579V45.065L34.948,42.7Z" transform="translate(-6.311 -8.204)"/>
      <path id="Path_1247103" data-name="Path 1247103" d="M45.04,31.06a.79.79,0,0,0-.861.171L40.231,35.18a.79.79,0,0,0-.231.558V47.583a.79.79,0,0,0,.79.79h3.948a.79.79,0,0,0,.79-.79V31.79A.79.79,0,0,0,45.04,31.06ZM43.948,46.793H41.579V36.065L43.948,33.7Z" transform="translate(-8.204 -6.31)"/>
      <path id="Path_1247104" data-name="Path 1247104" d="M15.579,9.738h2.369a2.369,2.369,0,0,0,0-4.738H14.79a.79.79,0,0,0-.79.79v6.317h1.579Zm0-3.159h2.369a.79.79,0,1,1,0,1.579H15.579Z" transform="translate(-2.735 -0.841)"/>
      <path id="Path_1247105" data-name="Path 1247105" d="M23.79,12.107h3.948V10.528H24.579V5H23v6.317A.79.79,0,0,0,23.79,12.107Z" transform="translate(-4.628 -0.841)"/>
      <path id="Path_1247106" data-name="Path 1247106" d="M31.579,10.528h3.159v1.579h1.579V8.159a3.159,3.159,0,0,0-6.317,0v3.948h1.579Zm1.579-3.948a1.579,1.579,0,0,1,1.579,1.579v.79H31.579v-.79A1.579,1.579,0,0,1,33.159,6.579Z" transform="translate(-6.1 -0.841)"/>
      <path id="Path_1247107" data-name="Path 1247107" d="M41.579,6.741a.167.167,0,0,1,.311-.063l1.875,4.373a1.741,1.741,0,0,0,3.342-.681V5H45.528v5.37a.167.167,0,0,1-.311.063L43.342,6.056A1.741,1.741,0,0,0,40,6.741v5.366h1.579Z" transform="translate(-8.204 -0.841)"/>
      <path id="Path_1247108" data-name="Path 1247108" d="M49.169,4.159H43.641V1.79a.79.79,0,0,0-.79-.79H4.159A3.159,3.159,0,0,0,1,4.159V46.8a3.159,3.159,0,0,0,3.159,3.159H42.851a.79.79,0,0,0,.558-1.348L41.6,46.8l1.811-1.811a.79.79,0,0,0,.231-.558V24.689H46.8a.79.79,0,0,0,.79-.79V22.1l1.829-.61a.79.79,0,0,0,.54-.749V16a.79.79,0,0,0-.79-.79H43.641V13.634H46.8a.79.79,0,0,0,.79-.79v-1.8l1.829-.61a.79.79,0,0,0,.54-.749V4.948a.79.79,0,0,0-.79-.79ZM42.062,43.641H8.107V2.579H42.062ZM4.159,2.579H6.528V43.641H4.159a3.126,3.126,0,0,0-1.579.439V4.159A1.579,1.579,0,0,1,4.159,2.579Zm0,45.8a1.579,1.579,0,0,1,0-3.159H40.945l-1.021,1.021a.79.79,0,0,0,0,1.117l1.021,1.021Zm44.22-31.586v3.379l-1.829.61a.79.79,0,0,0-.54.749V23.11H43.641V16.793Zm0-7.676-1.829.61a.79.79,0,0,0-.54.749v1.579H43.641V5.738h4.738Z" transform="translate(0)"/>
    </g>
  </g>
</svg>
