<svg xmlns="http://www.w3.org/2000/svg" width="144" height="144" viewBox="0 0 144 144">
  <g id="Group_1208925" data-name="Group 1208925" transform="translate(-1020.051 -11720)">
    <g id="Group_1208900" data-name="Group 1208900" transform="translate(261 3185)">
      <g id="Group_1208694" data-name="Group 1208694" transform="translate(759.051 8535)">
        <circle id="Ellipse_12656" data-name="Ellipse 12656" cx="72" cy="72" r="72" fill="#b7a8f1"/>
      </g>
    </g>
    <g id="sello" transform="translate(1035 11747.786)">
      <g id="Group_1208923" data-name="Group 1208923" transform="translate(20.476 1.295)">
        <g id="Group_1208911" data-name="Group 1208911" transform="translate(0)">
          <path id="Path_1247664" data-name="Path 1247664" d="M96.674,23.781v66.1a3.454,3.454,0,0,1-3.454,3.454H30.135a3.454,3.454,0,0,1-3.454-3.454V10.954A3.454,3.454,0,0,1,30.135,7.5H80.393a3.454,3.454,0,0,1,2.442,1.012L95.662,21.339A3.454,3.454,0,0,1,96.674,23.781Z" transform="translate(-26.681 -7.5)" fill="#eef5f6"/>
        </g>
        <g id="Group_1208912" data-name="Group 1208912">
          <path id="Path_1247665" data-name="Path 1247665" d="M32.463,89.883V10.954A3.454,3.454,0,0,1,35.918,7.5H30.135a3.454,3.454,0,0,0-3.454,3.454V89.883a3.454,3.454,0,0,0,3.454,3.454h5.782A3.454,3.454,0,0,1,32.463,89.883Z" transform="translate(-26.681 -7.5)" fill="#deecf1"/>
        </g>
        <g id="Group_1208913" data-name="Group 1208913" transform="translate(35.551 23.515)">
          <path id="Path_1247666" data-name="Path 1247666" d="M266.966,143.76a15.5,15.5,0,0,0-1.824-.109,15.369,15.369,0,0,0-14.707,19.974,1.425,1.425,0,0,1-.217,1.275l-2.1,2.815-.283-.211a7.2,7.2,0,0,0-4.357-1.444,7.407,7.407,0,0,0-5.878,3.02l-4.9,6.553a.863.863,0,0,0,.175,1.209l1.989,1.487a5.179,5.179,0,0,0,1.1,7.185l12,8.975a5.144,5.144,0,0,0,3.1,1.031,5.206,5.206,0,0,0,4.1-2.014l1.99,1.488a.863.863,0,0,0,1.209-.175l4.9-6.56a7.42,7.42,0,0,0,1.448-5.469A7.206,7.206,0,0,0,261.873,178l-.282-.211,2.116-2.83a1.381,1.381,0,0,1,1.126-.554h.024l.254,0h0a15.229,15.229,0,0,0,1.856-.115V143.76Z" transform="translate(-232.524 -143.651)" fill="#deecf1"/>
        </g>
        <g id="Group_1208914" data-name="Group 1208914" transform="translate(55.142 0.314)">
          <path id="Path_1247667" data-name="Path 1247667" d="M359.8,22.845,346.97,10.017a3.451,3.451,0,0,0-1.012-.7V22.129a1.727,1.727,0,0,0,1.727,1.727h12.809A3.451,3.451,0,0,0,359.8,22.845Z" transform="translate(-345.958 -9.32)" fill="#deecf1"/>
        </g>
        <g id="Group_1208915" data-name="Group 1208915" transform="translate(27.985 61.918)">
          <path id="Path_1247668" data-name="Path 1247668" d="M215.048,374.3H189.577a.864.864,0,0,1-.864-.864v-6.569a.864.864,0,0,1,.864-.864h25.471Z" transform="translate(-188.713 -366.008)" fill="#a4ccff"/>
        </g>
        <g id="Group_1208916" data-name="Group 1208916" transform="translate(36.951 61.918)">
          <path id="Path_1247669" data-name="Path 1247669" d="M258,366.008H240.628c0,.016,0,.032.006.049a5.147,5.147,0,0,0,2.026,3.409l6.47,4.838H258Z" transform="translate(-240.628 -366.008)" fill="#8bb3ea"/>
        </g>
        <g id="Group_1208917" data-name="Group 1208917" transform="translate(50.916 27.832)">
          <path id="Path_1247670" data-name="Path 1247670" d="M347.576,186.334a11.068,11.068,0,1,0-19.424-3.317,5.737,5.737,0,0,1-.88,5.149l-5.786,7.74,6.561,4.906,5.786-7.74a5.737,5.737,0,0,1,4.69-2.3A11.047,11.047,0,0,0,347.576,186.334Z" transform="translate(-321.486 -168.65)" fill="#ff8086"/>
        </g>
        <g id="Group_1208918" data-name="Group 1208918" transform="translate(50.916 27.832)">
          <path id="Path_1247671" data-name="Path 1247671" d="M330.61,184.855A11.066,11.066,0,0,1,346.5,171.843a11.054,11.054,0,0,0-16.473,1.009,11.048,11.048,0,0,0-1.87,10.166,5.737,5.737,0,0,1-.88,5.15l-5.786,7.74,2.456,1.837L329.73,190A5.738,5.738,0,0,0,330.61,184.855Z" transform="translate(-321.487 -168.651)" fill="#f46c7a"/>
        </g>
        <g id="Group_1208919" data-name="Group 1208919" transform="translate(41.221 55.724)">
          <path id="Path_1247672" data-name="Path 1247672" d="M277.7,345.313l-12-8.974a.863.863,0,0,1-.175-1.209l3.727-4.985,13.387,10.009-3.727,4.985A.863.863,0,0,1,277.7,345.313Z" transform="translate(-265.354 -330.145)" fill="#74a4b7"/>
        </g>
        <g id="Group_1208920" data-name="Group 1208920" transform="translate(41.221 55.724)">
          <path id="Path_1247673" data-name="Path 1247673" d="M267.983,336.968l3.727-4.985-2.456-1.837-3.727,4.985a.864.864,0,0,0,.175,1.209l2.456,1.837A.864.864,0,0,1,267.983,336.968Z" transform="translate(-265.354 -330.146)" fill="#5b94a5"/>
        </g>
        <g id="Group_1208921" data-name="Group 1208921" transform="translate(41.595 50.24)">
          <path id="Path_1247674" data-name="Path 1247674" d="M285.225,316.966l-17.362-12.981a.863.863,0,0,1-.175-1.209l2.4-3.2a2.936,2.936,0,0,1,4.11-.593l14.042,10.5a2.936,2.936,0,0,1,.593,4.11l-2.4,3.2a.864.864,0,0,1-1.209.174Z" transform="translate(-267.517 -298.394)" fill="#ac5e2e"/>
        </g>
        <g id="Group_1208922" data-name="Group 1208922" transform="translate(41.595 50.24)">
          <path id="Path_1247675" data-name="Path 1247675" d="M276.651,300.816l-2.456-1.837a2.936,2.936,0,0,0-4.11.593l-2.4,3.2a.863.863,0,0,0,.175,1.209l1.765,1.32,2.913-3.9A2.936,2.936,0,0,1,276.651,300.816Z" transform="translate(-267.517 -298.394)" fill="#9e5528"/>
        </g>
      </g>
      <g id="Group_1208924" data-name="Group 1208924" transform="translate(19.181 0)">
        <path id="Path_1247676" data-name="Path 1247676" d="M20.476,40.466a1.3,1.3,0,0,0,1.3-1.3V4.75a2.161,2.161,0,0,1,2.159-2.159H74.188c.046,0,.09,0,.135.007V14.419a3.026,3.026,0,0,0,3.022,3.022H89.167c0,.045.007.09.007.135v5.186a1.3,1.3,0,0,0,2.591,0V17.577a4.719,4.719,0,0,0-1.391-3.359L77.546,1.391A4.719,4.719,0,0,0,74.188,0H23.931a4.755,4.755,0,0,0-4.75,4.75V39.171a1.3,1.3,0,0,0,1.3,1.3ZM76.914,14.419v-10L87.343,14.851h-10A.432.432,0,0,1,76.914,14.419Z" transform="translate(-19.181 0)"/>
        <path id="Path_1247677" data-name="Path 1247677" d="M90.469,270.629a1.3,1.3,0,0,0-1.3,1.3V297.9a2.161,2.161,0,0,1-2.159,2.159H23.931a2.161,2.161,0,0,1-2.159-2.159V260.235a1.3,1.3,0,0,0-2.591,0V297.9a4.755,4.755,0,0,0,4.75,4.75H87.015a4.755,4.755,0,0,0,4.75-4.75V271.924A1.3,1.3,0,0,0,90.469,270.629Z" transform="translate(-19.181 -214.218)"/>
        <path id="Path_1247678" data-name="Path 1247678" d="M190.715,361.1a1.3,1.3,0,1,0,0-2.591h-7.344a2.161,2.161,0,0,0-2.159,2.159v6.569a2.161,2.161,0,0,0,2.159,2.159h15.551a1.3,1.3,0,0,0,0-2.591H183.8v-5.7Z" transform="translate(-153.228 -296.59)"/>
        <path id="Path_1247679" data-name="Path 1247679" d="M298.093,170.621a1.3,1.3,0,1,0-2.52.6,9.771,9.771,0,0,1-9.672,12.042h-.115a7.052,7.052,0,0,0-5.633,2.821l-3.914,5.235-4.486-3.354,3.914-5.235a7.052,7.052,0,0,0,1.079-6.312A9.771,9.771,0,0,1,291.539,165.4a9.925,9.925,0,0,1,1.608,1.358,1.3,1.3,0,0,0,1.874-1.789,12.524,12.524,0,0,0-2.029-1.714,12.362,12.362,0,0,0-18.72,13.94,4.454,4.454,0,0,1-.681,3.987l-3.914,5.235-2.7-2.021a4.236,4.236,0,0,0-5.923.855l-2.4,3.2a2.162,2.162,0,0,0,.436,3.022l.95.711-1.76,2.354a2.159,2.159,0,0,0,.436,3.022l12,8.975a2.161,2.161,0,0,0,3.022-.436l1.76-2.354.95.71a2.142,2.142,0,0,0,1.288.43,2.176,2.176,0,0,0,.313-.023,2.145,2.145,0,0,0,1.421-.844l2.4-3.2a4.236,4.236,0,0,0-.855-5.923l-2.7-2.021,3.914-5.235a4.454,4.454,0,0,1,3.558-1.782h.073a12.361,12.361,0,0,0,12.234-15.233ZM271.928,204.2l-11.312-8.457,1.5-2.008,11.312,8.457Zm7.869-4.939-2.137,2.859L260.99,189.658l2.137-2.859a1.642,1.642,0,0,1,2.3-.332l14.042,10.5A1.643,1.643,0,0,1,279.8,199.263Z" transform="translate(-216.631 -133.31)"/>
        <path id="Path_1247680" data-name="Path 1247680" d="M123.915,120a1.3,1.3,0,0,0-1.3-1.3H69.592a1.3,1.3,0,0,0,0,2.591H122.62A1.3,1.3,0,0,0,123.915,120Z" transform="translate(-59.814 -98.203)"/>
        <path id="Path_1247681" data-name="Path 1247681" d="M116.587,161.915a1.3,1.3,0,0,0-1.3-1.3h-45.7a1.3,1.3,0,0,0,0,2.591h45.7A1.3,1.3,0,0,0,116.587,161.915Z" transform="translate(-59.814 -132.879)"/>
        <path id="Path_1247682" data-name="Path 1247682" d="M112.026,202.535H69.592a1.3,1.3,0,1,0,0,2.591h42.433a1.3,1.3,0,1,0,0-2.591Z" transform="translate(-59.814 -167.555)"/>
        <path id="Path_1247683" data-name="Path 1247683" d="M113.321,245.744a1.3,1.3,0,0,0-1.3-1.3H69.592a1.3,1.3,0,1,0,0,2.591h42.433A1.3,1.3,0,0,0,113.321,245.744Z" transform="translate(-59.814 -202.23)"/>
        <path id="Path_1247684" data-name="Path 1247684" d="M98.17,286.364H69.592a1.3,1.3,0,0,0,0,2.591H98.17a1.3,1.3,0,1,0,0-2.591Z" transform="translate(-59.814 -236.906)"/>
      </g>
    </g>
  </g>
</svg>
