<svg xmlns="http://www.w3.org/2000/svg" width="83" height="83" viewBox="0 0 83 83">
  <g id="Group_1209502" data-name="Group 1209502" transform="translate(-286 -2162)">
    <g id="Group_1209494" data-name="Group 1209494" transform="translate(-0.051 -554)">
      <g id="Group_1209453" data-name="Group 1209453" transform="translate(-141 -5819)">
        <g id="Group_1208693" data-name="Group 1208693" transform="translate(89 5452)">
          <circle id="Ellipse_12656" data-name="Ellipse 12656" cx="41.5" cy="41.5" r="41.5" transform="translate(338.051 3083)" fill="#b7a8f1"/>
        </g>
      </g>
    </g>
    <g id="analisis5" transform="translate(298.65 2174.087)">
      <path id="Path_1248251" data-name="Path 1248251" d="M61.8,34.9A26.9,26.9,0,1,1,34.9,8,26.9,26.9,0,0,1,61.8,34.9Zm0,0" transform="translate(-7.103 -7.103)" fill="#85d3c1"/>
      <path id="Path_1248252" data-name="Path 1248252" d="M161.935,192.967A8.967,8.967,0,1,1,152.967,184,8.967,8.967,0,0,1,161.935,192.967Zm0,0" transform="translate(-127.859 -163.375)" fill="#f5f7fa"/>
      <path id="Path_1248253" data-name="Path 1248253" d="M124.554,173.522a8.967,8.967,0,1,0-8.967-8.967A8.971,8.971,0,0,0,124.554,173.522Zm-10.115-1.543a12.5,12.5,0,1,1,3.766,3.408A12.482,12.482,0,0,1,114.439,171.979Zm0,0" transform="translate(-99.446 -134.962)" fill="#f9d48a"/>
      <path id="Path_1248254" data-name="Path 1248254" d="M343.307,330.628l1.058,1.058-.977,1.471a7.376,7.376,0,0,1,.816,1.973l1.731.341v2.995l-1.731.341a7.375,7.375,0,0,1-.816,1.973l.977,1.471-2.116,2.116-1.471-.977a7.375,7.375,0,0,1-1.973.816l-.341,1.731H335.47l-.341-1.731a7.376,7.376,0,0,1-1.973-.816l-1.471.977-1.058-1.058-1.058-1.058.977-1.471a7.377,7.377,0,0,1-.816-1.973L328,338.465V335.47l1.731-.341a7.378,7.378,0,0,1,.816-1.973l-.977-1.471,2.116-2.116,1.471.977a7.378,7.378,0,0,1,1.973-.816L335.47,328h2.995l.341,1.731a7.377,7.377,0,0,1,1.973.816l1.471-.977Zm-2.753,6.34a3.587,3.587,0,1,0-3.587,3.587A3.586,3.586,0,0,0,340.554,336.967Zm0,0" transform="translate(-291.234 -291.234)" fill="#f9d48a"/>
      <path id="Path_1248255" data-name="Path 1248255" d="M459.587,64V80.141H456V64Zm0,0" transform="translate(-404.886 -56.826)" fill="#ff958a"/>
      <path id="Path_1248256" data-name="Path 1248256" d="M383.174,379.587A3.587,3.587,0,1,1,379.587,376,3.587,3.587,0,0,1,383.174,379.587Zm0,0" transform="translate(-333.853 -333.853)" fill="#f5f7fa"/>
      <path id="Path_1248257" data-name="Path 1248257" d="M395.587,128v8.967H392V128Zm0,0" transform="translate(-348.06 -113.652)" fill="#ff958a"/>
      <path id="Path_1248258" data-name="Path 1248258" d="M152.283,14.851v6.6h-1.793v8.967H146.9v-5.38h-3.587v5.38h-.789A12.55,12.55,0,0,0,120,32.042V8h32.283Zm-19.728,3.91V11.587h-8.967v7.174Zm0,0" transform="translate(-106.549 -7.103)" fill="#f5f7fa"/>
      <path id="Path_1248259" data-name="Path 1248259" d="M328,160h3.587v5.38H328Zm0,0" transform="translate(-291.234 -142.065)" fill="#ff958a"/>
      <path id="Path_1248260" data-name="Path 1248260" d="M152,40h8.967v7.174H152Zm0,0" transform="translate(-134.962 -35.516)" fill="#ff958a"/>
      <path id="Path_1248261" data-name="Path 1248261" d="M114.654,333.646l-3.067,3.067L108,333.126l2.888-2.888A12.566,12.566,0,0,0,114.654,333.646Zm0,0" transform="translate(-95.894 -293.221)" fill="#f5f7fa"/>
      <path id="Path_1248262" data-name="Path 1248262" d="M130.609,413.282l.977-1.471a7.375,7.375,0,0,1-.816-1.973l-1.731-.341V408h-5.38l-3.587,3.587H103.931l-.009.009a26.819,26.819,0,0,0,5.389,3.13,25.962,25.962,0,0,0,5.309,1.686,27.006,27.006,0,0,0,10.9,0,26.086,26.086,0,0,0,6.143-2.072Zm0,0" transform="translate(-92.273 -362.266)" fill="#ff958a"/>
      <path id="Path_1248263" data-name="Path 1248263" d="M22.8,359.587,12.331,370.052a2.536,2.536,0,1,1-3.587-3.587L19.209,356Zm0,0" transform="translate(-7.103 -316.095)" fill="#f9d48a"/>
      <g id="Group_1209498" data-name="Group 1209498">
        <path id="Path_1248264" data-name="Path 1248264" d="M372.484,368a4.484,4.484,0,1,0,4.484,4.484A4.489,4.489,0,0,0,372.484,368Zm0,7.174a2.69,2.69,0,1,1,2.69-2.69A2.694,2.694,0,0,1,372.484,375.174Zm0,0" transform="translate(-326.75 -326.75)" fill="#232323"/>
        <path id="Path_1248265" data-name="Path 1248265" d="M216,256h1.793v1.793H216Zm0,0" transform="translate(-191.788 -227.304)" fill="#232323"/>
        <path id="Path_1248266" data-name="Path 1248266" d="M248,256h1.793v1.793H248Zm0,0" transform="translate(-220.201 -227.304)" fill="#232323"/>
        <path id="Path_1248267" data-name="Path 1248267" d="M184,256h1.793v1.793H184Zm0,0" transform="translate(-163.375 -227.304)" fill="#232323"/>
        <path id="Path_1248268" data-name="Path 1248268" d="M154.761,32H144v8.967h10.761Zm-1.793,7.174h-7.174v-5.38h7.174Zm0,0" transform="translate(-127.859 -28.413)" fill="#232323"/>
        <path id="Path_1248269" data-name="Path 1248269" d="M256,32h14.348v1.793H256Zm0,0" transform="translate(-227.304 -28.413)" fill="#232323"/>
        <path id="Path_1248270" data-name="Path 1248270" d="M256,64h14.348v1.793H256Zm0,0" transform="translate(-227.304 -56.826)" fill="#232323"/>
        <path id="Path_1248271" data-name="Path 1248271" d="M369.266,96h1.652v1.793h-1.652Zm0,0" transform="translate(-327.874 -85.239)" fill="#232323"/>
        <path id="Path_1248272" data-name="Path 1248272" d="M256,96h10.78v1.793H256Zm0,0" transform="translate(-227.304 -85.239)" fill="#232323"/>
        <path id="Path_1248273" data-name="Path 1248273" d="M55.6,6.277h-5.38v5.115A27.86,27.86,0,0,0,46.63,7.368V0H12.554V4.562A27.777,27.777,0,0,0,5.869,44.874L1.005,49.737A3.433,3.433,0,1,0,5.86,54.591l4.864-4.863A27.853,27.853,0,0,0,27.8,55.6a27.512,27.512,0,0,0,11.4-2.45l1.137,1.137L41.964,53.2a8.328,8.328,0,0,0,1.154.478L43.5,55.6h4.461l.384-1.921A8.437,8.437,0,0,0,49.5,53.2l1.629,1.086,3.155-3.153L53.2,49.5a8.384,8.384,0,0,0,.478-1.155l1.92-.385V43.5l-1.921-.385a8.494,8.494,0,0,0-.478-1.155l1.087-1.629L53.149,39.2A27.534,27.534,0,0,0,55.6,27.8a28.083,28.083,0,0,0-.254-3.587H55.6ZM52.011,8.071H53.8V22.418H52.011Zm-1.793,6.557v7.791H48.424V13.451H46.63V9.864A26.028,26.028,0,0,1,50.217,14.628ZM43.5,35.869,43.12,37.79a8.437,8.437,0,0,0-1.154.478l-1.629-1.086-3.155,3.153,1.087,1.629a8.383,8.383,0,0,0-.478,1.155l-1.921.385v1.332H31.014l-3.587,3.587h-15.4l3.664-3.664L17.3,46.368,18.569,45.1l-1.608-1.608,1.966-1.966a13.434,13.434,0,0,0,18.5-17.314h7.408V35.869ZM17.935,50.217h3.587v2.8a26.028,26.028,0,0,1-3.587-1.187Zm-1.793.8c-.5-.253-1-.515-1.492-.8h1.492Zm7.174-.8H26.9v3.548a26,26,0,0,1-3.587-.353Zm5.38-.525,3.062-3.062h.525v6.789a26.127,26.127,0,0,1-3.587.361ZM25.109,17.935A11.658,11.658,0,1,1,13.451,29.592,11.671,11.671,0,0,1,25.109,17.935Zm14.348,4.484H37.663V18.831h1.793Zm-22.1,18.145-1.66,1.66L13.374,39.9l1.55-1.55A13.581,13.581,0,0,0,17.353,40.564ZM46.63,15.245v7.174H44.837V15.245ZM44.837,1.793V13.451H43.043v8.967H41.25v-5.38h-5.38v4.518a13.4,13.4,0,0,0-21.522,0V1.793ZM1.793,27.8A25.878,25.878,0,0,1,12.554,6.727V24.8a13.319,13.319,0,0,0,1.282,12.1l-1.73,1.73L10.5,37.029,9.23,38.3,10.838,39.9,7.159,43.583A26.041,26.041,0,0,1,1.793,27.8Zm2.8,25.525a1.64,1.64,0,0,1-2.8-1.16A1.63,1.63,0,0,1,2.273,51l9.833-9.832,2.319,2.319Zm29.484-.289V46.63h1.793v1.332l1.921.385a8.494,8.494,0,0,0,.478,1.155l-1.087,1.629.66.66A25.548,25.548,0,0,1,34.076,53.036ZM53.8,44.974v1.518l-1.566.314-.138.548a6.528,6.528,0,0,1-.719,1.734l-.29.486.887,1.329L50.9,51.977l-1.329-.886-.486.289a6.557,6.557,0,0,1-1.735.719l-.548.139L46.493,53.8H44.975l-.313-1.566-.548-.139a6.534,6.534,0,0,1-1.735-.719l-.486-.289-1.329.886L39.491,50.9l.887-1.329-.29-.486a6.584,6.584,0,0,1-.719-1.734l-.138-.548-1.567-.313V44.975l1.566-.314.138-.548a6.528,6.528,0,0,1,.719-1.734l.29-.486-.887-1.329,1.073-1.074,1.329.886.486-.289a6.557,6.557,0,0,1,1.735-.719l.548-.139.313-1.566h1.518l.313,1.566.548.139a6.534,6.534,0,0,1,1.735.719l.486.289L50.9,39.49l1.073,1.074-.887,1.329.29.486a6.583,6.583,0,0,1,.719,1.734l.138.548Zm0-17.175a25.769,25.769,0,0,1-2.013,10.044l-.66-.66L49.5,38.268a8.328,8.328,0,0,0-1.154-.478l-.384-1.921H46.63V24.212h6.908A26.332,26.332,0,0,1,53.8,27.8Zm0,0" fill="#232323"/>
        <path id="Path_1248274" data-name="Path 1248274" d="M145.864,195.728A9.864,9.864,0,1,0,136,185.864,9.876,9.876,0,0,0,145.864,195.728Zm0-17.935a8.071,8.071,0,1,1-8.071,8.071A8.08,8.08,0,0,1,145.864,177.793Zm0,0" transform="translate(-120.755 -156.272)" fill="#232323"/>
      </g>
    </g>
  </g>
</svg>
