<svg xmlns="http://www.w3.org/2000/svg" width="83" height="83" viewBox="0 0 83 83">
  <g id="Group_1208692" data-name="Group 1208692" transform="translate(-339.051 -2302)">
    <circle id="Ellipse_12659" data-name="Ellipse 12659" cx="41.5" cy="41.5" r="41.5" transform="translate(339.051 2302)" fill="#b7a8f1"/>
    <g id="sketch" transform="translate(355.825 2316.474)">
      <path id="Path_1246772" data-name="Path 1246772" d="M30.483,55.5v1.666a2.5,2.5,0,0,1-2.5,2.5H5.5a2.5,2.5,0,0,1-2.5-2.5V55.5A2.5,2.5,0,0,1,5.5,53H27.985a2.5,2.5,0,0,1,2.5,2.5Z" transform="translate(-0.167 -8.523)" fill="#ccdde7"/>
      <path id="Path_1246773" data-name="Path 1246773" d="M30.483,47.5v1.666a2.5,2.5,0,0,1-2.5,2.5H5.5a2.5,2.5,0,0,1-2.5-2.5V47.5A2.5,2.5,0,0,1,5.5,45H27.985a2.5,2.5,0,0,1,2.5,2.5Z" transform="translate(-0.167 -7.186)" fill="#ccdde7"/>
      <path id="Path_1246774" data-name="Path 1246774" d="M30.483,39.5v1.666a2.5,2.5,0,0,1-2.5,2.5H5.5a2.5,2.5,0,0,1-2.5-2.5V39.5A2.5,2.5,0,0,1,5.5,37H27.985a2.5,2.5,0,0,1,2.5,2.5Z" transform="translate(-0.167 -5.848)" fill="#ccdde7"/>
      <path id="Path_1246775" data-name="Path 1246775" d="M27.979,53.833V55.5a2.5,2.5,0,0,1-2.5,2.5H3.145a9.318,9.318,0,0,1-.15-2.5,2.5,2.5,0,0,1,2.5-2.5H27.829a2.309,2.309,0,0,1,.15.833Z" transform="translate(-0.162 -8.523)" fill="#fff" opacity="0.2"/>
      <path id="Path_1246776" data-name="Path 1246776" d="M27.979,45.833V47.5a2.5,2.5,0,0,1-2.5,2.5H3.145a9.319,9.319,0,0,1-.15-2.5,2.5,2.5,0,0,1,2.5-2.5H27.829A2.309,2.309,0,0,1,27.979,45.833Z" transform="translate(-0.162 -7.186)" fill="#fff" opacity="0.2"/>
      <path id="Path_1246777" data-name="Path 1246777" d="M27.979,37.833V39.5a2.5,2.5,0,0,1-2.5,2.5H3.145a9.319,9.319,0,0,1-.15-2.5,2.5,2.5,0,0,1,2.5-2.5H27.829A2.309,2.309,0,0,1,27.979,37.833Z" transform="translate(-0.162 -5.848)" fill="#fff" opacity="0.2"/>
      <path id="Path_1246778" data-name="Path 1246778" d="M19.919,14.851h-1.99v9.161a1.671,1.671,0,0,1-1.666,1.666H12.931a1.671,1.671,0,0,1-1.666-1.666V14.851H9.275A1.668,1.668,0,0,1,7.86,12.3l5.322-8.52a1.686,1.686,0,0,1,.933-.708,1.668,1.668,0,0,1,1.9.708l5.322,8.52a1.668,1.668,0,0,1-1.416,2.548Z" transform="translate(-0.938 -0.165)" fill="#56b5ef"/>
      <path id="Path_1246779" data-name="Path 1246779" d="M17.42,13.2H15.43v9.161a1.671,1.671,0,0,1-1.666,1.666h-2.5V14.866H9.275A1.668,1.668,0,0,1,7.86,12.318L13.181,3.8a1.686,1.686,0,0,1,.933-.708l4.722,7.562A1.668,1.668,0,0,1,17.42,13.2Z" transform="translate(-0.938 -0.179)" fill="#fff" opacity="0.2"/>
      <path id="Path_1246780" data-name="Path 1246780" d="M54.988,39.991c.116,12.575-15,19.592-24.51,11.576C19.736,42.783,25.944,25,40,25A15.007,15.007,0,0,1,54.988,39.991Z" transform="translate(-3.851 -3.842)" fill="#168fd6"/>
      <path id="Path_1246781" data-name="Path 1246781" d="M52.476,38.319c.159,11.166-12.324,18.593-22.028,13.233-13.583-11.8.37-32.849,16.573-24.8a14.962,14.962,0,0,1,5.455,11.568Z" transform="translate(-3.838 -3.836)" fill="#fff" opacity="0.2"/>
      <path id="Path_1246782" data-name="Path 1246782" d="M47.327,44.158a5,5,0,0,1-3.748,4.83v1a1.666,1.666,0,1,1-3.331,0v-.833H38.166a1.666,1.666,0,1,1,0-3.331H42.33a1.666,1.666,0,1,0,0-3.331,5.03,5.03,0,0,1-2.082-9.827v-1a1.666,1.666,0,1,1,3.331,0V32.5h2.082a1.666,1.666,0,1,1,0,3.331H41.5a1.666,1.666,0,1,0,0,3.331,5.125,5.125,0,0,1,5.83,5Z" transform="translate(-5.768 -4.678)" fill="#ccdde7"/>
      <path id="Path_1246783" data-name="Path 1246783" d="M43.721,39.361a5.022,5.022,0,0,1-2.64,7.962v1a1.573,1.573,0,0,1-.833,1.391v-.558H38.166a1.666,1.666,0,1,1,0-3.331H42.33a1.666,1.666,0,1,0,0-3.331,5.03,5.03,0,0,1-2.082-9.827v-1a1.666,1.666,0,1,1,3.331,0V32.5h1.249a1.671,1.671,0,0,1-1.666,1.666H39A1.666,1.666,0,1,0,39,37.5h.833A1.671,1.671,0,0,0,41.5,39.161,7.157,7.157,0,0,1,43.721,39.361Z" transform="translate(-5.768 -4.678)" fill="#fff" opacity="0.2"/>
      <path id="Path_1246784" data-name="Path 1246784" d="M36.146,24A15.839,15.839,0,0,0,21.449,34H5.331A3.335,3.335,0,0,0,2,37.327v1.666a3.31,3.31,0,0,0,1.151,2.5A3.31,3.31,0,0,0,2,43.989v1.666a3.31,3.31,0,0,0,1.151,2.5A3.31,3.31,0,0,0,2,50.652v1.666a3.335,3.335,0,0,0,3.331,3.331H27.817a3.313,3.313,0,0,0,2.492-1.13c10.035,4.244,21.89-3.749,21.66-14.694A15.841,15.841,0,0,0,36.146,24ZM3.666,38.992V37.327a1.668,1.668,0,0,1,1.666-1.666H20.9a14.762,14.762,0,0,0-.532,5H5.331a1.668,1.668,0,0,1-1.666-1.666Zm0,6.663V43.989a1.668,1.668,0,0,1,1.666-1.666H20.539a15.706,15.706,0,0,0,1.676,5H5.331a1.668,1.668,0,0,1-1.666-1.666Zm24.152,8.328H5.331a1.668,1.668,0,0,1-1.666-1.666V50.652a1.668,1.668,0,0,1,1.666-1.666H23.268a15.927,15.927,0,0,0,5.384,4.771,1.661,1.661,0,0,1-.835.226Zm8.328,0A14.174,14.174,0,0,1,21.988,39.825c.777-18.782,27.541-18.777,28.316,0A14.174,14.174,0,0,1,36.146,53.983Z" transform="translate(0 -3.675)" fill="#043968"/>
      <path id="Path_1246785" data-name="Path 1246785" d="M41.33,36.5h4.164a2.5,2.5,0,1,0,0-5H44.245a2.511,2.511,0,1,0-5,.39c-5.969,2.317-4.343,11.224,2.082,11.269h.833a.833.833,0,1,1,0,1.666H38a2.5,2.5,0,1,0,0,5h1.249a2.511,2.511,0,1,0,5-.39c5.969-2.316,4.343-11.224-2.082-11.269H41.33a.833.833,0,1,1,0-1.666Zm0,3.331a4.2,4.2,0,0,1,1.873,8.19c-.813.188-.6,1.2-.624,1.8a.833.833,0,1,1-1.666,0v-.833a.833.833,0,0,0-.833-.833H38A.833.833,0,1,1,38,46.5h4.164a2.5,2.5,0,1,0,0-5c-5.319.662-7.027-6.638-1.873-8.19.808-.181.6-1.2.624-1.8a.833.833,0,1,1,1.666,0v.833a.833.833,0,0,0,.833.833h2.082a.833.833,0,1,1,0,1.666H41.33a2.5,2.5,0,1,0,0,5Z" transform="translate(-5.601 -4.516)" fill="#043968"/>
      <path id="Path_1246786" data-name="Path 1246786" d="M12.766,26.345H16.1a2.5,2.5,0,0,0,2.5-2.5V15.518h1.159A2.512,2.512,0,0,0,21.874,11.7L16.551,3.179a2.514,2.514,0,0,0-4.237,0L6.99,11.7a2.512,2.512,0,0,0,2.119,3.822h1.159v8.328a2.5,2.5,0,0,0,2.5,2.5ZM9.109,13.853A.834.834,0,0,1,8.4,12.578l5.323-8.517a.834.834,0,0,1,1.414,0l5.323,8.517a.834.834,0,0,1-.707,1.274H17.763a.833.833,0,0,0-.833.833v9.161a.834.834,0,0,1-.833.833H12.766a.834.834,0,0,1-.833-.833V14.685a.833.833,0,0,0-.833-.833Z" transform="translate(-0.773)" fill="#043968"/>
    </g>
  </g>
</svg>
