<svg xmlns="http://www.w3.org/2000/svg" width="83" height="83" viewBox="0 0 83 83">
  <g id="Group_1208691" data-name="Group 1208691" transform="translate(-754.051 -2302)">
    <circle id="Ellipse_12660" data-name="Ellipse 12660" cx="41.5" cy="41.5" r="41.5" transform="translate(754.051 2302)" fill="#b7a8f1"/>
    <g id="libre-de-impuestos" transform="translate(767.525 2316)">
      <g id="Group_1208657" data-name="Group 1208657" transform="translate(1.586 1.06)">
        <path id="Path_1246787" data-name="Path 1246787" d="M49.1,29.285a19.2,19.2,0,0,1-1.674,7.868l-4.685-.315-5.483,5.483.312,4.626A19.288,19.288,0,1,1,49.1,29.285Z" transform="translate(-10.526 -10)" fill="#ff933d"/>
      </g>
      <g id="Group_1208658" data-name="Group 1208658" transform="translate(6.391 5.865)">
        <circle id="Ellipse_12651" data-name="Ellipse 12651" cx="14.48" cy="14.48" r="14.48" fill="#ffbe8c"/>
      </g>
      <g id="Group_1208659" data-name="Group 1208659" transform="translate(28.313 27.898)">
        <path id="Path_1246788" data-name="Path 1246788" d="M268.085,263.128l-2.742,2.742-2.742,2.742.566,8.4L273.6,287.442a3.366,3.366,0,0,0,4.76,0l4.278-4.278,4.278-4.278a3.366,3.366,0,0,0,0-4.76l-10.433-10.433Z" transform="translate(-262.602 -263.128)" fill="#f9f5f3"/>
      </g>
      <g id="Group_1208660" data-name="Group 1208660" transform="translate(0.526 0)">
        <path id="Path_1246789" data-name="Path 1246789" d="M142.833,94.736h-.97v-1.5a1.06,1.06,0,1,0-2.121,0v1.5h-.97a4.1,4.1,0,0,0-4.09,4.09v1a4.1,4.1,0,0,0,4.09,4.09h4.061a1.972,1.972,0,0,1,1.97,1.97v.787a1.972,1.972,0,0,1-1.97,1.97h-4.061a1.972,1.972,0,0,1-1.97-1.97,1.06,1.06,0,1,0-2.121,0,4.1,4.1,0,0,0,4.09,4.09h.97v1.5a1.06,1.06,0,1,0,2.121,0v-1.5h.97a4.1,4.1,0,0,0,4.09-4.09v-.787a4.1,4.1,0,0,0-4.09-4.09h-4.061a1.972,1.972,0,0,1-1.97-1.97v-1a1.972,1.972,0,0,1,1.97-1.97h4.061a1.972,1.972,0,0,1,1.97,1.97v.1a1.06,1.06,0,1,0,2.121,0v-.1a4.1,4.1,0,0,0-4.091-4.09Z" transform="translate(-120.457 -82.406)"/>
        <path id="Path_1246790" data-name="Path 1246790" d="M58.351,38.147,47.918,27.715a1.06,1.06,0,0,0-.678-.308l-2.255-.152A20.349,20.349,0,1,0,6.125,15.328a1.06,1.06,0,0,0,2.055.521A18.228,18.228,0,1,1,42.775,27.1l-2.848-.192A15.543,15.543,0,1,0,32.3,34.48l.191,2.84A18.245,18.245,0,0,1,8.178,24.835a1.06,1.06,0,1,0-2.055.521A20.365,20.365,0,0,0,32.638,39.527l.157,2.324a1.06,1.06,0,0,0,.308.678L43.536,52.963a4.431,4.431,0,0,0,6.26,0l8.556-8.556a4.432,4.432,0,0,0,0-6.26Zm-45.926-17.8a13.42,13.42,0,1,1,23.719,8.592l-1.109-1.109a1.06,1.06,0,0,0-1.5,1.5l1.125,1.125A13.412,13.412,0,0,1,12.425,20.345ZM56.852,42.908,48.3,51.463a2.308,2.308,0,0,1-3.261,0L34.884,41.312l-.507-7.521,1.811-1.811.724.724a1.06,1.06,0,0,0,1.5-1.5l-.724-.724,1.492-1.492L46.7,29.5,56.852,39.647A2.308,2.308,0,0,1,56.852,42.908Z" transform="translate(-5.5 0)"/>
        <path id="Path_1246791" data-name="Path 1246791" d="M313.564,312.572a4.16,4.16,0,0,0-5.883-5.883l-.566.566A4.16,4.16,0,1,0,313,313.138Zm-1.5-1.5-.566.566a2.039,2.039,0,0,1-2.884-2.884l.566-.566a2.039,2.039,0,0,1,2.884,2.884Z" transform="translate(-273.521 -273.097)"/>
        <path id="Path_1246792" data-name="Path 1246792" d="M401.05,367.25a1.06,1.06,0,1,0,.574-1.385A1.07,1.07,0,0,0,401.05,367.25Z" transform="translate(-358.514 -327.003)"/>
        <path id="Path_1246793" data-name="Path 1246793" d="M401.5,429.123a1.06,1.06,0,1,0-.41,1.3A1.071,1.071,0,0,0,401.5,429.123Z" transform="translate(-357.161 -383.039)"/>
        <path id="Path_1246794" data-name="Path 1246794" d="M375.686,396.826H368.88a1.06,1.06,0,1,0,0,2.12h6.806a1.06,1.06,0,1,0,0-2.12Z" transform="translate(-328.877 -354.752)"/>
        <path id="Path_1246795" data-name="Path 1246795" d="M1.38,184.095a1.069,1.069,0,0,0,1.061-1.666,1.06,1.06,0,1,0-1.061,1.666Z" transform="translate(-0.526 -162.71)"/>
      </g>
    </g>
  </g>
</svg>
